%TF.GenerationSoftware,KiCad,Pcbnew,9.0.7-9.0.7~ubuntu24.04.1*%
%TF.CreationDate,2026-03-19T21:40:36+01:00*%
%TF.ProjectId,Relais-Karte,52656c61-6973-42d4-9b61-7274652e6b69,rev?*%
%TF.SameCoordinates,Original*%
%TF.FileFunction,Copper,L1,Top*%
%TF.FilePolarity,Positive*%
%FSLAX46Y46*%
G04 Gerber Fmt 4.6, Leading zero omitted, Abs format (unit mm)*
G04 Created by KiCad (PCBNEW 9.0.7-9.0.7~ubuntu24.04.1) date 2026-03-19 21:40:36*
%MOMM*%
%LPD*%
G01*
G04 APERTURE LIST*
G04 Aperture macros list*
%AMRoundRect*
0 Rectangle with rounded corners*
0 $1 Rounding radius*
0 $2 $3 $4 $5 $6 $7 $8 $9 X,Y pos of 4 corners*
0 Add a 4 corners polygon primitive as box body*
4,1,4,$2,$3,$4,$5,$6,$7,$8,$9,$2,$3,0*
0 Add four circle primitives for the rounded corners*
1,1,$1+$1,$2,$3*
1,1,$1+$1,$4,$5*
1,1,$1+$1,$6,$7*
1,1,$1+$1,$8,$9*
0 Add four rect primitives between the rounded corners*
20,1,$1+$1,$2,$3,$4,$5,0*
20,1,$1+$1,$4,$5,$6,$7,0*
20,1,$1+$1,$6,$7,$8,$9,0*
20,1,$1+$1,$8,$9,$2,$3,0*%
G04 Aperture macros list end*
%TA.AperFunction,ComponentPad*%
%ADD10C,3.000000*%
%TD*%
%TA.AperFunction,ComponentPad*%
%ADD11C,2.400000*%
%TD*%
%TA.AperFunction,ComponentPad*%
%ADD12C,2.000000*%
%TD*%
%TA.AperFunction,ComponentPad*%
%ADD13R,2.000000X2.000000*%
%TD*%
%TA.AperFunction,SMDPad,CuDef*%
%ADD14RoundRect,0.250000X1.000000X0.650000X-1.000000X0.650000X-1.000000X-0.650000X1.000000X-0.650000X0*%
%TD*%
%TA.AperFunction,ComponentPad*%
%ADD15C,2.500000*%
%TD*%
%TA.AperFunction,ComponentPad*%
%ADD16R,3.000000X3.000000*%
%TD*%
%TA.AperFunction,Conductor*%
%ADD17C,2.000000*%
%TD*%
%TA.AperFunction,Conductor*%
%ADD18C,0.500000*%
%TD*%
G04 APERTURE END LIST*
D10*
%TO.P,SW1,1,A*%
%TO.N,unconnected-(SW1-A-Pad1)*%
X109220000Y-90000000D03*
%TO.P,SW1,2,B*%
%TO.N,+24V_sicher*%
X109220000Y-85400000D03*
%TO.P,SW1,3,C*%
%TO.N,Net-(J3-Pin_1)*%
X109220000Y-80800000D03*
%TO.P,SW1,4,A*%
X103500000Y-80800000D03*
%TO.P,SW1,5,B*%
%TO.N,+24V_sicher*%
X103500000Y-85400000D03*
%TO.P,SW1,6,C*%
%TO.N,unconnected-(SW1-C-Pad6)*%
X103500000Y-90000000D03*
%TD*%
D11*
%TO.P,F1,1,1*%
%TO.N,+24V_sicher*%
X102800000Y-70235000D03*
X106200000Y-70235000D03*
%TO.P,F1,2,2*%
%TO.N,+24V*%
X102800000Y-56765000D03*
X106200000Y-56765000D03*
%TD*%
D12*
%TO.P,K1,11*%
%TO.N,+24V_sicher*%
X115812500Y-78462500D03*
X123312500Y-78462500D03*
%TO.P,K1,12*%
%TO.N,Net-(J3-Pin_2)*%
X115812500Y-73462500D03*
X123312500Y-73462500D03*
%TO.P,K1,14*%
%TO.N,Net-(J3-Pin_1)*%
X115812500Y-83462500D03*
X123312500Y-83462500D03*
D13*
%TO.P,K1,A1*%
%TO.N,+24V_sicher*%
X115812500Y-58462500D03*
D12*
%TO.P,K1,A2*%
%TO.N,Net-(D1-K)*%
X123312500Y-58462500D03*
%TD*%
D14*
%TO.P,D1,1,K*%
%TO.N,Net-(D1-K)*%
X122000000Y-54000000D03*
%TO.P,D1,2,A*%
%TO.N,+24V_sicher*%
X118000000Y-54000000D03*
%TD*%
D15*
%TO.P,J2,1,Pin_1*%
%TO.N,+24V*%
X120500000Y-49040000D03*
%TO.P,J2,2,Pin_2*%
%TO.N,GND*%
X120500000Y-43960000D03*
%TD*%
%TO.P,J1,1,Pin_1*%
%TO.N,GND*%
X106500000Y-43960000D03*
%TO.P,J1,2,Pin_2*%
%TO.N,+24V*%
X106500000Y-49040000D03*
%TD*%
D16*
%TO.P,J3,1,Pin_1*%
%TO.N,Net-(J3-Pin_1)*%
X103420000Y-103500000D03*
D10*
%TO.P,J3,2,Pin_2*%
%TO.N,Net-(J3-Pin_2)*%
X108500000Y-103500000D03*
%TO.P,J3,3,Pin_3*%
%TO.N,GND*%
X113580000Y-103500000D03*
%TD*%
D15*
%TO.P,J4,1,Pin_1*%
%TO.N,Net-(D1-K)*%
X120960000Y-103500000D03*
%TO.P,J4,2,Pin_2*%
%TO.N,GND*%
X126040000Y-103500000D03*
%TD*%
D17*
%TO.N,+24V_sicher*%
X123312500Y-78462500D02*
X115812500Y-78462500D01*
X106200000Y-68075000D02*
X115812500Y-58462500D01*
D18*
X118000000Y-54000000D02*
X118000000Y-56275000D01*
D17*
X102800000Y-70235000D02*
X106200000Y-70235000D01*
X102800000Y-70235000D02*
X99000000Y-74035000D01*
D18*
X118000000Y-56275000D02*
X115812500Y-58462500D01*
D17*
X99000000Y-74035000D02*
X99000000Y-80900000D01*
X106200000Y-70235000D02*
X106200000Y-68075000D01*
X99000000Y-80900000D02*
X103500000Y-85400000D01*
D18*
%TO.N,Net-(D1-K)*%
X122000000Y-57150000D02*
X123312500Y-58462500D01*
X122000000Y-54000000D02*
X122000000Y-57150000D01*
D17*
%TO.N,GND*%
X106500000Y-43960000D02*
X120500000Y-43960000D01*
%TO.N,+24V*%
X106200000Y-49340000D02*
X106500000Y-49040000D01*
X102800000Y-56765000D02*
X106200000Y-56765000D01*
X106200000Y-56765000D02*
X106200000Y-49340000D01*
X106500000Y-49040000D02*
X120500000Y-49040000D01*
%TO.N,Net-(J3-Pin_1)*%
X109220000Y-80800000D02*
X113150000Y-80800000D01*
X123312500Y-83462500D02*
X115812500Y-83462500D01*
X113150000Y-80800000D02*
X115812500Y-83462500D01*
%TO.N,Net-(J3-Pin_2)*%
X123312500Y-73462500D02*
X115812500Y-73462500D01*
%TD*%
M02*
