%TF.GenerationSoftware,KiCad,Pcbnew,9.0.7-9.0.7~ubuntu24.04.1*%
%TF.CreationDate,2026-03-20T22:57:26+01:00*%
%TF.ProjectId,Relais-Karte,52656c61-6973-42d4-9b61-7274652e6b69,rev?*%
%TF.SameCoordinates,Original*%
%TF.FileFunction,AssemblyDrawing,Top*%
%FSLAX46Y46*%
G04 Gerber Fmt 4.6, Leading zero omitted, Abs format (unit mm)*
G04 Created by KiCad (PCBNEW 9.0.7-9.0.7~ubuntu24.04.1) date 2026-03-20 22:57:26*
%MOMM*%
%LPD*%
G01*
G04 APERTURE LIST*
%ADD10C,0.150000*%
%ADD11C,0.030333*%
%ADD12C,0.127000*%
%ADD13C,0.100000*%
%ADD14C,0.200000*%
G04 APERTURE END LIST*
D10*
X101428571Y-77954819D02*
X100952381Y-77954819D01*
X100952381Y-77954819D02*
X100952381Y-76954819D01*
X102285714Y-77954819D02*
X101714286Y-77954819D01*
X102000000Y-77954819D02*
X102000000Y-76954819D01*
X102000000Y-76954819D02*
X101904762Y-77097676D01*
X101904762Y-77097676D02*
X101809524Y-77192914D01*
X101809524Y-77192914D02*
X101714286Y-77240533D01*
X102904762Y-76954819D02*
X103000000Y-76954819D01*
X103000000Y-76954819D02*
X103095238Y-77002438D01*
X103095238Y-77002438D02*
X103142857Y-77050057D01*
X103142857Y-77050057D02*
X103190476Y-77145295D01*
X103190476Y-77145295D02*
X103238095Y-77335771D01*
X103238095Y-77335771D02*
X103238095Y-77573866D01*
X103238095Y-77573866D02*
X103190476Y-77764342D01*
X103190476Y-77764342D02*
X103142857Y-77859580D01*
X103142857Y-77859580D02*
X103095238Y-77907200D01*
X103095238Y-77907200D02*
X103000000Y-77954819D01*
X103000000Y-77954819D02*
X102904762Y-77954819D01*
X102904762Y-77954819D02*
X102809524Y-77907200D01*
X102809524Y-77907200D02*
X102761905Y-77859580D01*
X102761905Y-77859580D02*
X102714286Y-77764342D01*
X102714286Y-77764342D02*
X102666667Y-77573866D01*
X102666667Y-77573866D02*
X102666667Y-77335771D01*
X102666667Y-77335771D02*
X102714286Y-77145295D01*
X102714286Y-77145295D02*
X102761905Y-77050057D01*
X102761905Y-77050057D02*
X102809524Y-77002438D01*
X102809524Y-77002438D02*
X102904762Y-76954819D01*
X104190476Y-77954819D02*
X103619048Y-77954819D01*
X103904762Y-77954819D02*
X103904762Y-76954819D01*
X103904762Y-76954819D02*
X103809524Y-77097676D01*
X103809524Y-77097676D02*
X103714286Y-77192914D01*
X103714286Y-77192914D02*
X103619048Y-77240533D01*
X104809524Y-76954819D02*
X104904762Y-76954819D01*
X104904762Y-76954819D02*
X105000000Y-77002438D01*
X105000000Y-77002438D02*
X105047619Y-77050057D01*
X105047619Y-77050057D02*
X105095238Y-77145295D01*
X105095238Y-77145295D02*
X105142857Y-77335771D01*
X105142857Y-77335771D02*
X105142857Y-77573866D01*
X105142857Y-77573866D02*
X105095238Y-77764342D01*
X105095238Y-77764342D02*
X105047619Y-77859580D01*
X105047619Y-77859580D02*
X105000000Y-77907200D01*
X105000000Y-77907200D02*
X104904762Y-77954819D01*
X104904762Y-77954819D02*
X104809524Y-77954819D01*
X104809524Y-77954819D02*
X104714286Y-77907200D01*
X104714286Y-77907200D02*
X104666667Y-77859580D01*
X104666667Y-77859580D02*
X104619048Y-77764342D01*
X104619048Y-77764342D02*
X104571429Y-77573866D01*
X104571429Y-77573866D02*
X104571429Y-77335771D01*
X104571429Y-77335771D02*
X104619048Y-77145295D01*
X104619048Y-77145295D02*
X104666667Y-77050057D01*
X104666667Y-77050057D02*
X104714286Y-77002438D01*
X104714286Y-77002438D02*
X104809524Y-76954819D01*
X106095238Y-77954819D02*
X105523810Y-77954819D01*
X105809524Y-77954819D02*
X105809524Y-76954819D01*
X105809524Y-76954819D02*
X105714286Y-77097676D01*
X105714286Y-77097676D02*
X105619048Y-77192914D01*
X105619048Y-77192914D02*
X105523810Y-77240533D01*
X107047619Y-77954819D02*
X106476191Y-77954819D01*
X106761905Y-77954819D02*
X106761905Y-76954819D01*
X106761905Y-76954819D02*
X106666667Y-77097676D01*
X106666667Y-77097676D02*
X106571429Y-77192914D01*
X106571429Y-77192914D02*
X106476191Y-77240533D01*
X107476191Y-77954819D02*
X107476191Y-76954819D01*
X107476191Y-76954819D02*
X107809524Y-77669104D01*
X107809524Y-77669104D02*
X108142857Y-76954819D01*
X108142857Y-76954819D02*
X108142857Y-77954819D01*
X108571429Y-77907200D02*
X108714286Y-77954819D01*
X108714286Y-77954819D02*
X108952381Y-77954819D01*
X108952381Y-77954819D02*
X109047619Y-77907200D01*
X109047619Y-77907200D02*
X109095238Y-77859580D01*
X109095238Y-77859580D02*
X109142857Y-77764342D01*
X109142857Y-77764342D02*
X109142857Y-77669104D01*
X109142857Y-77669104D02*
X109095238Y-77573866D01*
X109095238Y-77573866D02*
X109047619Y-77526247D01*
X109047619Y-77526247D02*
X108952381Y-77478628D01*
X108952381Y-77478628D02*
X108761905Y-77431009D01*
X108761905Y-77431009D02*
X108666667Y-77383390D01*
X108666667Y-77383390D02*
X108619048Y-77335771D01*
X108619048Y-77335771D02*
X108571429Y-77240533D01*
X108571429Y-77240533D02*
X108571429Y-77145295D01*
X108571429Y-77145295D02*
X108619048Y-77050057D01*
X108619048Y-77050057D02*
X108666667Y-77002438D01*
X108666667Y-77002438D02*
X108761905Y-76954819D01*
X108761905Y-76954819D02*
X109000000Y-76954819D01*
X109000000Y-76954819D02*
X109142857Y-77002438D01*
X109761905Y-76954819D02*
X109857143Y-76954819D01*
X109857143Y-76954819D02*
X109952381Y-77002438D01*
X109952381Y-77002438D02*
X110000000Y-77050057D01*
X110000000Y-77050057D02*
X110047619Y-77145295D01*
X110047619Y-77145295D02*
X110095238Y-77335771D01*
X110095238Y-77335771D02*
X110095238Y-77573866D01*
X110095238Y-77573866D02*
X110047619Y-77764342D01*
X110047619Y-77764342D02*
X110000000Y-77859580D01*
X110000000Y-77859580D02*
X109952381Y-77907200D01*
X109952381Y-77907200D02*
X109857143Y-77954819D01*
X109857143Y-77954819D02*
X109761905Y-77954819D01*
X109761905Y-77954819D02*
X109666667Y-77907200D01*
X109666667Y-77907200D02*
X109619048Y-77859580D01*
X109619048Y-77859580D02*
X109571429Y-77764342D01*
X109571429Y-77764342D02*
X109523810Y-77573866D01*
X109523810Y-77573866D02*
X109523810Y-77335771D01*
X109523810Y-77335771D02*
X109571429Y-77145295D01*
X109571429Y-77145295D02*
X109619048Y-77050057D01*
X109619048Y-77050057D02*
X109666667Y-77002438D01*
X109666667Y-77002438D02*
X109761905Y-76954819D01*
X110476191Y-77050057D02*
X110523810Y-77002438D01*
X110523810Y-77002438D02*
X110619048Y-76954819D01*
X110619048Y-76954819D02*
X110857143Y-76954819D01*
X110857143Y-76954819D02*
X110952381Y-77002438D01*
X110952381Y-77002438D02*
X111000000Y-77050057D01*
X111000000Y-77050057D02*
X111047619Y-77145295D01*
X111047619Y-77145295D02*
X111047619Y-77240533D01*
X111047619Y-77240533D02*
X111000000Y-77383390D01*
X111000000Y-77383390D02*
X110428572Y-77954819D01*
X110428572Y-77954819D02*
X111047619Y-77954819D01*
X112142857Y-78050057D02*
X112047619Y-78002438D01*
X112047619Y-78002438D02*
X111952381Y-77907200D01*
X111952381Y-77907200D02*
X111809524Y-77764342D01*
X111809524Y-77764342D02*
X111714286Y-77716723D01*
X111714286Y-77716723D02*
X111619048Y-77716723D01*
X111666667Y-77954819D02*
X111571429Y-77907200D01*
X111571429Y-77907200D02*
X111476191Y-77811961D01*
X111476191Y-77811961D02*
X111428572Y-77621485D01*
X111428572Y-77621485D02*
X111428572Y-77288152D01*
X111428572Y-77288152D02*
X111476191Y-77097676D01*
X111476191Y-77097676D02*
X111571429Y-77002438D01*
X111571429Y-77002438D02*
X111666667Y-76954819D01*
X111666667Y-76954819D02*
X111857143Y-76954819D01*
X111857143Y-76954819D02*
X111952381Y-77002438D01*
X111952381Y-77002438D02*
X112047619Y-77097676D01*
X112047619Y-77097676D02*
X112095238Y-77288152D01*
X112095238Y-77288152D02*
X112095238Y-77621485D01*
X112095238Y-77621485D02*
X112047619Y-77811961D01*
X112047619Y-77811961D02*
X111952381Y-77907200D01*
X111952381Y-77907200D02*
X111857143Y-77954819D01*
X111857143Y-77954819D02*
X111666667Y-77954819D01*
X108666667Y-74907200D02*
X108809524Y-74954819D01*
X108809524Y-74954819D02*
X109047619Y-74954819D01*
X109047619Y-74954819D02*
X109142857Y-74907200D01*
X109142857Y-74907200D02*
X109190476Y-74859580D01*
X109190476Y-74859580D02*
X109238095Y-74764342D01*
X109238095Y-74764342D02*
X109238095Y-74669104D01*
X109238095Y-74669104D02*
X109190476Y-74573866D01*
X109190476Y-74573866D02*
X109142857Y-74526247D01*
X109142857Y-74526247D02*
X109047619Y-74478628D01*
X109047619Y-74478628D02*
X108857143Y-74431009D01*
X108857143Y-74431009D02*
X108761905Y-74383390D01*
X108761905Y-74383390D02*
X108714286Y-74335771D01*
X108714286Y-74335771D02*
X108666667Y-74240533D01*
X108666667Y-74240533D02*
X108666667Y-74145295D01*
X108666667Y-74145295D02*
X108714286Y-74050057D01*
X108714286Y-74050057D02*
X108761905Y-74002438D01*
X108761905Y-74002438D02*
X108857143Y-73954819D01*
X108857143Y-73954819D02*
X109095238Y-73954819D01*
X109095238Y-73954819D02*
X109238095Y-74002438D01*
X109571429Y-73954819D02*
X109809524Y-74954819D01*
X109809524Y-74954819D02*
X110000000Y-74240533D01*
X110000000Y-74240533D02*
X110190476Y-74954819D01*
X110190476Y-74954819D02*
X110428572Y-73954819D01*
X111333333Y-74954819D02*
X110761905Y-74954819D01*
X111047619Y-74954819D02*
X111047619Y-73954819D01*
X111047619Y-73954819D02*
X110952381Y-74097676D01*
X110952381Y-74097676D02*
X110857143Y-74192914D01*
X110857143Y-74192914D02*
X110761905Y-74240533D01*
X103954819Y-66857142D02*
X103954819Y-66238095D01*
X103954819Y-66238095D02*
X104335771Y-66571428D01*
X104335771Y-66571428D02*
X104335771Y-66428571D01*
X104335771Y-66428571D02*
X104383390Y-66333333D01*
X104383390Y-66333333D02*
X104431009Y-66285714D01*
X104431009Y-66285714D02*
X104526247Y-66238095D01*
X104526247Y-66238095D02*
X104764342Y-66238095D01*
X104764342Y-66238095D02*
X104859580Y-66285714D01*
X104859580Y-66285714D02*
X104907200Y-66333333D01*
X104907200Y-66333333D02*
X104954819Y-66428571D01*
X104954819Y-66428571D02*
X104954819Y-66714285D01*
X104954819Y-66714285D02*
X104907200Y-66809523D01*
X104907200Y-66809523D02*
X104859580Y-66857142D01*
X103954819Y-65333333D02*
X103954819Y-65809523D01*
X103954819Y-65809523D02*
X104431009Y-65857142D01*
X104431009Y-65857142D02*
X104383390Y-65809523D01*
X104383390Y-65809523D02*
X104335771Y-65714285D01*
X104335771Y-65714285D02*
X104335771Y-65476190D01*
X104335771Y-65476190D02*
X104383390Y-65380952D01*
X104383390Y-65380952D02*
X104431009Y-65333333D01*
X104431009Y-65333333D02*
X104526247Y-65285714D01*
X104526247Y-65285714D02*
X104764342Y-65285714D01*
X104764342Y-65285714D02*
X104859580Y-65333333D01*
X104859580Y-65333333D02*
X104907200Y-65380952D01*
X104907200Y-65380952D02*
X104954819Y-65476190D01*
X104954819Y-65476190D02*
X104954819Y-65714285D01*
X104954819Y-65714285D02*
X104907200Y-65809523D01*
X104907200Y-65809523D02*
X104859580Y-65857142D01*
X103954819Y-64380952D02*
X103954819Y-64857142D01*
X103954819Y-64857142D02*
X104431009Y-64904761D01*
X104431009Y-64904761D02*
X104383390Y-64857142D01*
X104383390Y-64857142D02*
X104335771Y-64761904D01*
X104335771Y-64761904D02*
X104335771Y-64523809D01*
X104335771Y-64523809D02*
X104383390Y-64428571D01*
X104383390Y-64428571D02*
X104431009Y-64380952D01*
X104431009Y-64380952D02*
X104526247Y-64333333D01*
X104526247Y-64333333D02*
X104764342Y-64333333D01*
X104764342Y-64333333D02*
X104859580Y-64380952D01*
X104859580Y-64380952D02*
X104907200Y-64428571D01*
X104907200Y-64428571D02*
X104954819Y-64523809D01*
X104954819Y-64523809D02*
X104954819Y-64761904D01*
X104954819Y-64761904D02*
X104907200Y-64857142D01*
X104907200Y-64857142D02*
X104859580Y-64904761D01*
X103954819Y-63999999D02*
X103954819Y-63333333D01*
X103954819Y-63333333D02*
X104954819Y-63761904D01*
X104573866Y-62952380D02*
X104573866Y-62190476D01*
X104050057Y-61761904D02*
X104002438Y-61714285D01*
X104002438Y-61714285D02*
X103954819Y-61619047D01*
X103954819Y-61619047D02*
X103954819Y-61380952D01*
X103954819Y-61380952D02*
X104002438Y-61285714D01*
X104002438Y-61285714D02*
X104050057Y-61238095D01*
X104050057Y-61238095D02*
X104145295Y-61190476D01*
X104145295Y-61190476D02*
X104240533Y-61190476D01*
X104240533Y-61190476D02*
X104383390Y-61238095D01*
X104383390Y-61238095D02*
X104954819Y-61809523D01*
X104954819Y-61809523D02*
X104954819Y-61190476D01*
X116214285Y-62002438D02*
X116119047Y-61954819D01*
X116119047Y-61954819D02*
X115976190Y-61954819D01*
X115976190Y-61954819D02*
X115833333Y-62002438D01*
X115833333Y-62002438D02*
X115738095Y-62097676D01*
X115738095Y-62097676D02*
X115690476Y-62192914D01*
X115690476Y-62192914D02*
X115642857Y-62383390D01*
X115642857Y-62383390D02*
X115642857Y-62526247D01*
X115642857Y-62526247D02*
X115690476Y-62716723D01*
X115690476Y-62716723D02*
X115738095Y-62811961D01*
X115738095Y-62811961D02*
X115833333Y-62907200D01*
X115833333Y-62907200D02*
X115976190Y-62954819D01*
X115976190Y-62954819D02*
X116071428Y-62954819D01*
X116071428Y-62954819D02*
X116214285Y-62907200D01*
X116214285Y-62907200D02*
X116261904Y-62859580D01*
X116261904Y-62859580D02*
X116261904Y-62526247D01*
X116261904Y-62526247D02*
X116071428Y-62526247D01*
X116642857Y-62050057D02*
X116690476Y-62002438D01*
X116690476Y-62002438D02*
X116785714Y-61954819D01*
X116785714Y-61954819D02*
X117023809Y-61954819D01*
X117023809Y-61954819D02*
X117119047Y-62002438D01*
X117119047Y-62002438D02*
X117166666Y-62050057D01*
X117166666Y-62050057D02*
X117214285Y-62145295D01*
X117214285Y-62145295D02*
X117214285Y-62240533D01*
X117214285Y-62240533D02*
X117166666Y-62383390D01*
X117166666Y-62383390D02*
X116595238Y-62954819D01*
X116595238Y-62954819D02*
X117214285Y-62954819D01*
X118214285Y-62954819D02*
X117880952Y-62478628D01*
X117642857Y-62954819D02*
X117642857Y-61954819D01*
X117642857Y-61954819D02*
X118023809Y-61954819D01*
X118023809Y-61954819D02*
X118119047Y-62002438D01*
X118119047Y-62002438D02*
X118166666Y-62050057D01*
X118166666Y-62050057D02*
X118214285Y-62145295D01*
X118214285Y-62145295D02*
X118214285Y-62288152D01*
X118214285Y-62288152D02*
X118166666Y-62383390D01*
X118166666Y-62383390D02*
X118119047Y-62431009D01*
X118119047Y-62431009D02*
X118023809Y-62478628D01*
X118023809Y-62478628D02*
X117642857Y-62478628D01*
X119119047Y-62954819D02*
X118642857Y-62954819D01*
X118642857Y-62954819D02*
X118642857Y-61954819D01*
X119452381Y-62573866D02*
X120214286Y-62573866D01*
X121214285Y-62954819D02*
X120642857Y-62954819D01*
X120928571Y-62954819D02*
X120928571Y-61954819D01*
X120928571Y-61954819D02*
X120833333Y-62097676D01*
X120833333Y-62097676D02*
X120738095Y-62192914D01*
X120738095Y-62192914D02*
X120642857Y-62240533D01*
X121642857Y-62573866D02*
X122404762Y-62573866D01*
X122880952Y-62431009D02*
X123214285Y-62431009D01*
X123357142Y-62954819D02*
X122880952Y-62954819D01*
X122880952Y-62954819D02*
X122880952Y-61954819D01*
X122880952Y-61954819D02*
X123357142Y-61954819D01*
X126761905Y-56954819D02*
X126761905Y-55954819D01*
X127333333Y-56954819D02*
X126904762Y-56383390D01*
X127333333Y-55954819D02*
X126761905Y-56526247D01*
X128285714Y-56954819D02*
X127714286Y-56954819D01*
X128000000Y-56954819D02*
X128000000Y-55954819D01*
X128000000Y-55954819D02*
X127904762Y-56097676D01*
X127904762Y-56097676D02*
X127809524Y-56192914D01*
X127809524Y-56192914D02*
X127714286Y-56240533D01*
X112880952Y-55454819D02*
X112880952Y-54454819D01*
X112880952Y-54931009D02*
X113452380Y-54931009D01*
X113452380Y-55454819D02*
X113452380Y-54454819D01*
X113880952Y-55407200D02*
X114023809Y-55454819D01*
X114023809Y-55454819D02*
X114261904Y-55454819D01*
X114261904Y-55454819D02*
X114357142Y-55407200D01*
X114357142Y-55407200D02*
X114404761Y-55359580D01*
X114404761Y-55359580D02*
X114452380Y-55264342D01*
X114452380Y-55264342D02*
X114452380Y-55169104D01*
X114452380Y-55169104D02*
X114404761Y-55073866D01*
X114404761Y-55073866D02*
X114357142Y-55026247D01*
X114357142Y-55026247D02*
X114261904Y-54978628D01*
X114261904Y-54978628D02*
X114071428Y-54931009D01*
X114071428Y-54931009D02*
X113976190Y-54883390D01*
X113976190Y-54883390D02*
X113928571Y-54835771D01*
X113928571Y-54835771D02*
X113880952Y-54740533D01*
X113880952Y-54740533D02*
X113880952Y-54645295D01*
X113880952Y-54645295D02*
X113928571Y-54550057D01*
X113928571Y-54550057D02*
X113976190Y-54502438D01*
X113976190Y-54502438D02*
X114071428Y-54454819D01*
X114071428Y-54454819D02*
X114309523Y-54454819D01*
X114309523Y-54454819D02*
X114452380Y-54502438D01*
X115404761Y-55454819D02*
X114833333Y-55454819D01*
X115119047Y-55454819D02*
X115119047Y-54454819D01*
X115119047Y-54454819D02*
X115023809Y-54597676D01*
X115023809Y-54597676D02*
X114928571Y-54692914D01*
X114928571Y-54692914D02*
X114833333Y-54740533D01*
X116119047Y-54454819D02*
X116119047Y-55169104D01*
X116119047Y-55169104D02*
X116071428Y-55311961D01*
X116071428Y-55311961D02*
X115976190Y-55407200D01*
X115976190Y-55407200D02*
X115833333Y-55454819D01*
X115833333Y-55454819D02*
X115738095Y-55454819D01*
X124261905Y-54454819D02*
X124261905Y-53454819D01*
X124261905Y-53454819D02*
X124500000Y-53454819D01*
X124500000Y-53454819D02*
X124642857Y-53502438D01*
X124642857Y-53502438D02*
X124738095Y-53597676D01*
X124738095Y-53597676D02*
X124785714Y-53692914D01*
X124785714Y-53692914D02*
X124833333Y-53883390D01*
X124833333Y-53883390D02*
X124833333Y-54026247D01*
X124833333Y-54026247D02*
X124785714Y-54216723D01*
X124785714Y-54216723D02*
X124738095Y-54311961D01*
X124738095Y-54311961D02*
X124642857Y-54407200D01*
X124642857Y-54407200D02*
X124500000Y-54454819D01*
X124500000Y-54454819D02*
X124261905Y-54454819D01*
X125785714Y-54454819D02*
X125214286Y-54454819D01*
X125500000Y-54454819D02*
X125500000Y-53454819D01*
X125500000Y-53454819D02*
X125404762Y-53597676D01*
X125404762Y-53597676D02*
X125309524Y-53692914D01*
X125309524Y-53692914D02*
X125214286Y-53740533D01*
X127045180Y-40670476D02*
X128045180Y-40670476D01*
X128045180Y-40670476D02*
X127330895Y-41003809D01*
X127330895Y-41003809D02*
X128045180Y-41337142D01*
X128045180Y-41337142D02*
X127045180Y-41337142D01*
X127045180Y-41813333D02*
X128045180Y-41813333D01*
X127045180Y-42384761D02*
X127616609Y-41956190D01*
X128045180Y-42384761D02*
X127473752Y-41813333D01*
X127045180Y-42813333D02*
X128045180Y-42813333D01*
X128045180Y-42813333D02*
X128045180Y-43051428D01*
X128045180Y-43051428D02*
X127997561Y-43194285D01*
X127997561Y-43194285D02*
X127902323Y-43289523D01*
X127902323Y-43289523D02*
X127807085Y-43337142D01*
X127807085Y-43337142D02*
X127616609Y-43384761D01*
X127616609Y-43384761D02*
X127473752Y-43384761D01*
X127473752Y-43384761D02*
X127283276Y-43337142D01*
X127283276Y-43337142D02*
X127188038Y-43289523D01*
X127188038Y-43289523D02*
X127092800Y-43194285D01*
X127092800Y-43194285D02*
X127045180Y-43051428D01*
X127045180Y-43051428D02*
X127045180Y-42813333D01*
X127092800Y-43765714D02*
X127045180Y-43908571D01*
X127045180Y-43908571D02*
X127045180Y-44146666D01*
X127045180Y-44146666D02*
X127092800Y-44241904D01*
X127092800Y-44241904D02*
X127140419Y-44289523D01*
X127140419Y-44289523D02*
X127235657Y-44337142D01*
X127235657Y-44337142D02*
X127330895Y-44337142D01*
X127330895Y-44337142D02*
X127426133Y-44289523D01*
X127426133Y-44289523D02*
X127473752Y-44241904D01*
X127473752Y-44241904D02*
X127521371Y-44146666D01*
X127521371Y-44146666D02*
X127568990Y-43956190D01*
X127568990Y-43956190D02*
X127616609Y-43860952D01*
X127616609Y-43860952D02*
X127664228Y-43813333D01*
X127664228Y-43813333D02*
X127759466Y-43765714D01*
X127759466Y-43765714D02*
X127854704Y-43765714D01*
X127854704Y-43765714D02*
X127949942Y-43813333D01*
X127949942Y-43813333D02*
X127997561Y-43860952D01*
X127997561Y-43860952D02*
X128045180Y-43956190D01*
X128045180Y-43956190D02*
X128045180Y-44194285D01*
X128045180Y-44194285D02*
X127997561Y-44337142D01*
X126949942Y-44527619D02*
X126949942Y-45289523D01*
X128045180Y-45432381D02*
X128045180Y-46051428D01*
X128045180Y-46051428D02*
X127664228Y-45718095D01*
X127664228Y-45718095D02*
X127664228Y-45860952D01*
X127664228Y-45860952D02*
X127616609Y-45956190D01*
X127616609Y-45956190D02*
X127568990Y-46003809D01*
X127568990Y-46003809D02*
X127473752Y-46051428D01*
X127473752Y-46051428D02*
X127235657Y-46051428D01*
X127235657Y-46051428D02*
X127140419Y-46003809D01*
X127140419Y-46003809D02*
X127092800Y-45956190D01*
X127092800Y-45956190D02*
X127045180Y-45860952D01*
X127045180Y-45860952D02*
X127045180Y-45575238D01*
X127045180Y-45575238D02*
X127092800Y-45480000D01*
X127092800Y-45480000D02*
X127140419Y-45432381D01*
X127426133Y-46480000D02*
X127426133Y-47241905D01*
X127949942Y-47670476D02*
X127997561Y-47718095D01*
X127997561Y-47718095D02*
X128045180Y-47813333D01*
X128045180Y-47813333D02*
X128045180Y-48051428D01*
X128045180Y-48051428D02*
X127997561Y-48146666D01*
X127997561Y-48146666D02*
X127949942Y-48194285D01*
X127949942Y-48194285D02*
X127854704Y-48241904D01*
X127854704Y-48241904D02*
X127759466Y-48241904D01*
X127759466Y-48241904D02*
X127616609Y-48194285D01*
X127616609Y-48194285D02*
X127045180Y-47622857D01*
X127045180Y-47622857D02*
X127045180Y-48241904D01*
X126949942Y-48432381D02*
X126949942Y-49194285D01*
X128045180Y-49908571D02*
X128045180Y-49432381D01*
X128045180Y-49432381D02*
X127568990Y-49384762D01*
X127568990Y-49384762D02*
X127616609Y-49432381D01*
X127616609Y-49432381D02*
X127664228Y-49527619D01*
X127664228Y-49527619D02*
X127664228Y-49765714D01*
X127664228Y-49765714D02*
X127616609Y-49860952D01*
X127616609Y-49860952D02*
X127568990Y-49908571D01*
X127568990Y-49908571D02*
X127473752Y-49956190D01*
X127473752Y-49956190D02*
X127235657Y-49956190D01*
X127235657Y-49956190D02*
X127140419Y-49908571D01*
X127140419Y-49908571D02*
X127092800Y-49860952D01*
X127092800Y-49860952D02*
X127045180Y-49765714D01*
X127045180Y-49765714D02*
X127045180Y-49527619D01*
X127045180Y-49527619D02*
X127092800Y-49432381D01*
X127092800Y-49432381D02*
X127140419Y-49384762D01*
X127140419Y-50384762D02*
X127092800Y-50432381D01*
X127092800Y-50432381D02*
X127045180Y-50384762D01*
X127045180Y-50384762D02*
X127092800Y-50337143D01*
X127092800Y-50337143D02*
X127140419Y-50384762D01*
X127140419Y-50384762D02*
X127045180Y-50384762D01*
X128045180Y-51051428D02*
X128045180Y-51146666D01*
X128045180Y-51146666D02*
X127997561Y-51241904D01*
X127997561Y-51241904D02*
X127949942Y-51289523D01*
X127949942Y-51289523D02*
X127854704Y-51337142D01*
X127854704Y-51337142D02*
X127664228Y-51384761D01*
X127664228Y-51384761D02*
X127426133Y-51384761D01*
X127426133Y-51384761D02*
X127235657Y-51337142D01*
X127235657Y-51337142D02*
X127140419Y-51289523D01*
X127140419Y-51289523D02*
X127092800Y-51241904D01*
X127092800Y-51241904D02*
X127045180Y-51146666D01*
X127045180Y-51146666D02*
X127045180Y-51051428D01*
X127045180Y-51051428D02*
X127092800Y-50956190D01*
X127092800Y-50956190D02*
X127140419Y-50908571D01*
X127140419Y-50908571D02*
X127235657Y-50860952D01*
X127235657Y-50860952D02*
X127426133Y-50813333D01*
X127426133Y-50813333D02*
X127664228Y-50813333D01*
X127664228Y-50813333D02*
X127854704Y-50860952D01*
X127854704Y-50860952D02*
X127949942Y-50908571D01*
X127949942Y-50908571D02*
X127997561Y-50956190D01*
X127997561Y-50956190D02*
X128045180Y-51051428D01*
X127616609Y-51956190D02*
X127664228Y-51860952D01*
X127664228Y-51860952D02*
X127711847Y-51813333D01*
X127711847Y-51813333D02*
X127807085Y-51765714D01*
X127807085Y-51765714D02*
X127854704Y-51765714D01*
X127854704Y-51765714D02*
X127949942Y-51813333D01*
X127949942Y-51813333D02*
X127997561Y-51860952D01*
X127997561Y-51860952D02*
X128045180Y-51956190D01*
X128045180Y-51956190D02*
X128045180Y-52146666D01*
X128045180Y-52146666D02*
X127997561Y-52241904D01*
X127997561Y-52241904D02*
X127949942Y-52289523D01*
X127949942Y-52289523D02*
X127854704Y-52337142D01*
X127854704Y-52337142D02*
X127807085Y-52337142D01*
X127807085Y-52337142D02*
X127711847Y-52289523D01*
X127711847Y-52289523D02*
X127664228Y-52241904D01*
X127664228Y-52241904D02*
X127616609Y-52146666D01*
X127616609Y-52146666D02*
X127616609Y-51956190D01*
X127616609Y-51956190D02*
X127568990Y-51860952D01*
X127568990Y-51860952D02*
X127521371Y-51813333D01*
X127521371Y-51813333D02*
X127426133Y-51765714D01*
X127426133Y-51765714D02*
X127235657Y-51765714D01*
X127235657Y-51765714D02*
X127140419Y-51813333D01*
X127140419Y-51813333D02*
X127092800Y-51860952D01*
X127092800Y-51860952D02*
X127045180Y-51956190D01*
X127045180Y-51956190D02*
X127045180Y-52146666D01*
X127045180Y-52146666D02*
X127092800Y-52241904D01*
X127092800Y-52241904D02*
X127140419Y-52289523D01*
X127140419Y-52289523D02*
X127235657Y-52337142D01*
X127235657Y-52337142D02*
X127426133Y-52337142D01*
X127426133Y-52337142D02*
X127521371Y-52289523D01*
X127521371Y-52289523D02*
X127568990Y-52241904D01*
X127568990Y-52241904D02*
X127616609Y-52146666D01*
X115166666Y-52454819D02*
X115166666Y-53169104D01*
X115166666Y-53169104D02*
X115119047Y-53311961D01*
X115119047Y-53311961D02*
X115023809Y-53407200D01*
X115023809Y-53407200D02*
X114880952Y-53454819D01*
X114880952Y-53454819D02*
X114785714Y-53454819D01*
X115595238Y-52550057D02*
X115642857Y-52502438D01*
X115642857Y-52502438D02*
X115738095Y-52454819D01*
X115738095Y-52454819D02*
X115976190Y-52454819D01*
X115976190Y-52454819D02*
X116071428Y-52502438D01*
X116071428Y-52502438D02*
X116119047Y-52550057D01*
X116119047Y-52550057D02*
X116166666Y-52645295D01*
X116166666Y-52645295D02*
X116166666Y-52740533D01*
X116166666Y-52740533D02*
X116119047Y-52883390D01*
X116119047Y-52883390D02*
X115547619Y-53454819D01*
X115547619Y-53454819D02*
X116166666Y-53454819D01*
X113077183Y-40536972D02*
X114077183Y-40536972D01*
X114077183Y-40536972D02*
X113362898Y-40870305D01*
X113362898Y-40870305D02*
X114077183Y-41203638D01*
X114077183Y-41203638D02*
X113077183Y-41203638D01*
X113077183Y-41679829D02*
X114077183Y-41679829D01*
X113077183Y-42251257D02*
X113648612Y-41822686D01*
X114077183Y-42251257D02*
X113505755Y-41679829D01*
X113077183Y-42679829D02*
X114077183Y-42679829D01*
X114077183Y-42679829D02*
X114077183Y-42917924D01*
X114077183Y-42917924D02*
X114029564Y-43060781D01*
X114029564Y-43060781D02*
X113934326Y-43156019D01*
X113934326Y-43156019D02*
X113839088Y-43203638D01*
X113839088Y-43203638D02*
X113648612Y-43251257D01*
X113648612Y-43251257D02*
X113505755Y-43251257D01*
X113505755Y-43251257D02*
X113315279Y-43203638D01*
X113315279Y-43203638D02*
X113220041Y-43156019D01*
X113220041Y-43156019D02*
X113124803Y-43060781D01*
X113124803Y-43060781D02*
X113077183Y-42917924D01*
X113077183Y-42917924D02*
X113077183Y-42679829D01*
X113124803Y-43632210D02*
X113077183Y-43775067D01*
X113077183Y-43775067D02*
X113077183Y-44013162D01*
X113077183Y-44013162D02*
X113124803Y-44108400D01*
X113124803Y-44108400D02*
X113172422Y-44156019D01*
X113172422Y-44156019D02*
X113267660Y-44203638D01*
X113267660Y-44203638D02*
X113362898Y-44203638D01*
X113362898Y-44203638D02*
X113458136Y-44156019D01*
X113458136Y-44156019D02*
X113505755Y-44108400D01*
X113505755Y-44108400D02*
X113553374Y-44013162D01*
X113553374Y-44013162D02*
X113600993Y-43822686D01*
X113600993Y-43822686D02*
X113648612Y-43727448D01*
X113648612Y-43727448D02*
X113696231Y-43679829D01*
X113696231Y-43679829D02*
X113791469Y-43632210D01*
X113791469Y-43632210D02*
X113886707Y-43632210D01*
X113886707Y-43632210D02*
X113981945Y-43679829D01*
X113981945Y-43679829D02*
X114029564Y-43727448D01*
X114029564Y-43727448D02*
X114077183Y-43822686D01*
X114077183Y-43822686D02*
X114077183Y-44060781D01*
X114077183Y-44060781D02*
X114029564Y-44203638D01*
X112981945Y-44394115D02*
X112981945Y-45156019D01*
X114077183Y-45298877D02*
X114077183Y-45917924D01*
X114077183Y-45917924D02*
X113696231Y-45584591D01*
X113696231Y-45584591D02*
X113696231Y-45727448D01*
X113696231Y-45727448D02*
X113648612Y-45822686D01*
X113648612Y-45822686D02*
X113600993Y-45870305D01*
X113600993Y-45870305D02*
X113505755Y-45917924D01*
X113505755Y-45917924D02*
X113267660Y-45917924D01*
X113267660Y-45917924D02*
X113172422Y-45870305D01*
X113172422Y-45870305D02*
X113124803Y-45822686D01*
X113124803Y-45822686D02*
X113077183Y-45727448D01*
X113077183Y-45727448D02*
X113077183Y-45441734D01*
X113077183Y-45441734D02*
X113124803Y-45346496D01*
X113124803Y-45346496D02*
X113172422Y-45298877D01*
X113458136Y-46346496D02*
X113458136Y-47108401D01*
X113981945Y-47536972D02*
X114029564Y-47584591D01*
X114029564Y-47584591D02*
X114077183Y-47679829D01*
X114077183Y-47679829D02*
X114077183Y-47917924D01*
X114077183Y-47917924D02*
X114029564Y-48013162D01*
X114029564Y-48013162D02*
X113981945Y-48060781D01*
X113981945Y-48060781D02*
X113886707Y-48108400D01*
X113886707Y-48108400D02*
X113791469Y-48108400D01*
X113791469Y-48108400D02*
X113648612Y-48060781D01*
X113648612Y-48060781D02*
X113077183Y-47489353D01*
X113077183Y-47489353D02*
X113077183Y-48108400D01*
X112981945Y-48298877D02*
X112981945Y-49060781D01*
X114077183Y-49775067D02*
X114077183Y-49298877D01*
X114077183Y-49298877D02*
X113600993Y-49251258D01*
X113600993Y-49251258D02*
X113648612Y-49298877D01*
X113648612Y-49298877D02*
X113696231Y-49394115D01*
X113696231Y-49394115D02*
X113696231Y-49632210D01*
X113696231Y-49632210D02*
X113648612Y-49727448D01*
X113648612Y-49727448D02*
X113600993Y-49775067D01*
X113600993Y-49775067D02*
X113505755Y-49822686D01*
X113505755Y-49822686D02*
X113267660Y-49822686D01*
X113267660Y-49822686D02*
X113172422Y-49775067D01*
X113172422Y-49775067D02*
X113124803Y-49727448D01*
X113124803Y-49727448D02*
X113077183Y-49632210D01*
X113077183Y-49632210D02*
X113077183Y-49394115D01*
X113077183Y-49394115D02*
X113124803Y-49298877D01*
X113124803Y-49298877D02*
X113172422Y-49251258D01*
X113172422Y-50251258D02*
X113124803Y-50298877D01*
X113124803Y-50298877D02*
X113077183Y-50251258D01*
X113077183Y-50251258D02*
X113124803Y-50203639D01*
X113124803Y-50203639D02*
X113172422Y-50251258D01*
X113172422Y-50251258D02*
X113077183Y-50251258D01*
X114077183Y-50917924D02*
X114077183Y-51013162D01*
X114077183Y-51013162D02*
X114029564Y-51108400D01*
X114029564Y-51108400D02*
X113981945Y-51156019D01*
X113981945Y-51156019D02*
X113886707Y-51203638D01*
X113886707Y-51203638D02*
X113696231Y-51251257D01*
X113696231Y-51251257D02*
X113458136Y-51251257D01*
X113458136Y-51251257D02*
X113267660Y-51203638D01*
X113267660Y-51203638D02*
X113172422Y-51156019D01*
X113172422Y-51156019D02*
X113124803Y-51108400D01*
X113124803Y-51108400D02*
X113077183Y-51013162D01*
X113077183Y-51013162D02*
X113077183Y-50917924D01*
X113077183Y-50917924D02*
X113124803Y-50822686D01*
X113124803Y-50822686D02*
X113172422Y-50775067D01*
X113172422Y-50775067D02*
X113267660Y-50727448D01*
X113267660Y-50727448D02*
X113458136Y-50679829D01*
X113458136Y-50679829D02*
X113696231Y-50679829D01*
X113696231Y-50679829D02*
X113886707Y-50727448D01*
X113886707Y-50727448D02*
X113981945Y-50775067D01*
X113981945Y-50775067D02*
X114029564Y-50822686D01*
X114029564Y-50822686D02*
X114077183Y-50917924D01*
X113648612Y-51822686D02*
X113696231Y-51727448D01*
X113696231Y-51727448D02*
X113743850Y-51679829D01*
X113743850Y-51679829D02*
X113839088Y-51632210D01*
X113839088Y-51632210D02*
X113886707Y-51632210D01*
X113886707Y-51632210D02*
X113981945Y-51679829D01*
X113981945Y-51679829D02*
X114029564Y-51727448D01*
X114029564Y-51727448D02*
X114077183Y-51822686D01*
X114077183Y-51822686D02*
X114077183Y-52013162D01*
X114077183Y-52013162D02*
X114029564Y-52108400D01*
X114029564Y-52108400D02*
X113981945Y-52156019D01*
X113981945Y-52156019D02*
X113886707Y-52203638D01*
X113886707Y-52203638D02*
X113839088Y-52203638D01*
X113839088Y-52203638D02*
X113743850Y-52156019D01*
X113743850Y-52156019D02*
X113696231Y-52108400D01*
X113696231Y-52108400D02*
X113648612Y-52013162D01*
X113648612Y-52013162D02*
X113648612Y-51822686D01*
X113648612Y-51822686D02*
X113600993Y-51727448D01*
X113600993Y-51727448D02*
X113553374Y-51679829D01*
X113553374Y-51679829D02*
X113458136Y-51632210D01*
X113458136Y-51632210D02*
X113267660Y-51632210D01*
X113267660Y-51632210D02*
X113172422Y-51679829D01*
X113172422Y-51679829D02*
X113124803Y-51727448D01*
X113124803Y-51727448D02*
X113077183Y-51822686D01*
X113077183Y-51822686D02*
X113077183Y-52013162D01*
X113077183Y-52013162D02*
X113124803Y-52108400D01*
X113124803Y-52108400D02*
X113172422Y-52156019D01*
X113172422Y-52156019D02*
X113267660Y-52203638D01*
X113267660Y-52203638D02*
X113458136Y-52203638D01*
X113458136Y-52203638D02*
X113553374Y-52156019D01*
X113553374Y-52156019D02*
X113600993Y-52108400D01*
X113600993Y-52108400D02*
X113648612Y-52013162D01*
X110666666Y-52454819D02*
X110666666Y-53169104D01*
X110666666Y-53169104D02*
X110619047Y-53311961D01*
X110619047Y-53311961D02*
X110523809Y-53407200D01*
X110523809Y-53407200D02*
X110380952Y-53454819D01*
X110380952Y-53454819D02*
X110285714Y-53454819D01*
X111666666Y-53454819D02*
X111095238Y-53454819D01*
X111380952Y-53454819D02*
X111380952Y-52454819D01*
X111380952Y-52454819D02*
X111285714Y-52597676D01*
X111285714Y-52597676D02*
X111190476Y-52692914D01*
X111190476Y-52692914D02*
X111095238Y-52740533D01*
X102190476Y-107954819D02*
X102190476Y-106954819D01*
X102190476Y-106954819D02*
X102523809Y-107669104D01*
X102523809Y-107669104D02*
X102857142Y-106954819D01*
X102857142Y-106954819D02*
X102857142Y-107954819D01*
X103333333Y-107954819D02*
X103333333Y-106954819D01*
X103904761Y-107954819D02*
X103476190Y-107383390D01*
X103904761Y-106954819D02*
X103333333Y-107526247D01*
X104333333Y-107954819D02*
X104333333Y-106954819D01*
X104333333Y-106954819D02*
X104571428Y-106954819D01*
X104571428Y-106954819D02*
X104714285Y-107002438D01*
X104714285Y-107002438D02*
X104809523Y-107097676D01*
X104809523Y-107097676D02*
X104857142Y-107192914D01*
X104857142Y-107192914D02*
X104904761Y-107383390D01*
X104904761Y-107383390D02*
X104904761Y-107526247D01*
X104904761Y-107526247D02*
X104857142Y-107716723D01*
X104857142Y-107716723D02*
X104809523Y-107811961D01*
X104809523Y-107811961D02*
X104714285Y-107907200D01*
X104714285Y-107907200D02*
X104571428Y-107954819D01*
X104571428Y-107954819D02*
X104333333Y-107954819D01*
X105285714Y-107907200D02*
X105428571Y-107954819D01*
X105428571Y-107954819D02*
X105666666Y-107954819D01*
X105666666Y-107954819D02*
X105761904Y-107907200D01*
X105761904Y-107907200D02*
X105809523Y-107859580D01*
X105809523Y-107859580D02*
X105857142Y-107764342D01*
X105857142Y-107764342D02*
X105857142Y-107669104D01*
X105857142Y-107669104D02*
X105809523Y-107573866D01*
X105809523Y-107573866D02*
X105761904Y-107526247D01*
X105761904Y-107526247D02*
X105666666Y-107478628D01*
X105666666Y-107478628D02*
X105476190Y-107431009D01*
X105476190Y-107431009D02*
X105380952Y-107383390D01*
X105380952Y-107383390D02*
X105333333Y-107335771D01*
X105333333Y-107335771D02*
X105285714Y-107240533D01*
X105285714Y-107240533D02*
X105285714Y-107145295D01*
X105285714Y-107145295D02*
X105333333Y-107050057D01*
X105333333Y-107050057D02*
X105380952Y-107002438D01*
X105380952Y-107002438D02*
X105476190Y-106954819D01*
X105476190Y-106954819D02*
X105714285Y-106954819D01*
X105714285Y-106954819D02*
X105857142Y-107002438D01*
X106047619Y-108050057D02*
X106809523Y-108050057D01*
X106952381Y-106954819D02*
X107571428Y-106954819D01*
X107571428Y-106954819D02*
X107238095Y-107335771D01*
X107238095Y-107335771D02*
X107380952Y-107335771D01*
X107380952Y-107335771D02*
X107476190Y-107383390D01*
X107476190Y-107383390D02*
X107523809Y-107431009D01*
X107523809Y-107431009D02*
X107571428Y-107526247D01*
X107571428Y-107526247D02*
X107571428Y-107764342D01*
X107571428Y-107764342D02*
X107523809Y-107859580D01*
X107523809Y-107859580D02*
X107476190Y-107907200D01*
X107476190Y-107907200D02*
X107380952Y-107954819D01*
X107380952Y-107954819D02*
X107095238Y-107954819D01*
X107095238Y-107954819D02*
X107000000Y-107907200D01*
X107000000Y-107907200D02*
X106952381Y-107859580D01*
X108000000Y-107573866D02*
X108761905Y-107573866D01*
X109142857Y-106954819D02*
X109761904Y-106954819D01*
X109761904Y-106954819D02*
X109428571Y-107335771D01*
X109428571Y-107335771D02*
X109571428Y-107335771D01*
X109571428Y-107335771D02*
X109666666Y-107383390D01*
X109666666Y-107383390D02*
X109714285Y-107431009D01*
X109714285Y-107431009D02*
X109761904Y-107526247D01*
X109761904Y-107526247D02*
X109761904Y-107764342D01*
X109761904Y-107764342D02*
X109714285Y-107859580D01*
X109714285Y-107859580D02*
X109666666Y-107907200D01*
X109666666Y-107907200D02*
X109571428Y-107954819D01*
X109571428Y-107954819D02*
X109285714Y-107954819D01*
X109285714Y-107954819D02*
X109190476Y-107907200D01*
X109190476Y-107907200D02*
X109142857Y-107859580D01*
X109952381Y-108050057D02*
X110714285Y-108050057D01*
X111428571Y-106954819D02*
X110952381Y-106954819D01*
X110952381Y-106954819D02*
X110904762Y-107431009D01*
X110904762Y-107431009D02*
X110952381Y-107383390D01*
X110952381Y-107383390D02*
X111047619Y-107335771D01*
X111047619Y-107335771D02*
X111285714Y-107335771D01*
X111285714Y-107335771D02*
X111380952Y-107383390D01*
X111380952Y-107383390D02*
X111428571Y-107431009D01*
X111428571Y-107431009D02*
X111476190Y-107526247D01*
X111476190Y-107526247D02*
X111476190Y-107764342D01*
X111476190Y-107764342D02*
X111428571Y-107859580D01*
X111428571Y-107859580D02*
X111380952Y-107907200D01*
X111380952Y-107907200D02*
X111285714Y-107954819D01*
X111285714Y-107954819D02*
X111047619Y-107954819D01*
X111047619Y-107954819D02*
X110952381Y-107907200D01*
X110952381Y-107907200D02*
X110904762Y-107859580D01*
X111904762Y-107859580D02*
X111952381Y-107907200D01*
X111952381Y-107907200D02*
X111904762Y-107954819D01*
X111904762Y-107954819D02*
X111857143Y-107907200D01*
X111857143Y-107907200D02*
X111904762Y-107859580D01*
X111904762Y-107859580D02*
X111904762Y-107954819D01*
X112571428Y-106954819D02*
X112666666Y-106954819D01*
X112666666Y-106954819D02*
X112761904Y-107002438D01*
X112761904Y-107002438D02*
X112809523Y-107050057D01*
X112809523Y-107050057D02*
X112857142Y-107145295D01*
X112857142Y-107145295D02*
X112904761Y-107335771D01*
X112904761Y-107335771D02*
X112904761Y-107573866D01*
X112904761Y-107573866D02*
X112857142Y-107764342D01*
X112857142Y-107764342D02*
X112809523Y-107859580D01*
X112809523Y-107859580D02*
X112761904Y-107907200D01*
X112761904Y-107907200D02*
X112666666Y-107954819D01*
X112666666Y-107954819D02*
X112571428Y-107954819D01*
X112571428Y-107954819D02*
X112476190Y-107907200D01*
X112476190Y-107907200D02*
X112428571Y-107859580D01*
X112428571Y-107859580D02*
X112380952Y-107764342D01*
X112380952Y-107764342D02*
X112333333Y-107573866D01*
X112333333Y-107573866D02*
X112333333Y-107335771D01*
X112333333Y-107335771D02*
X112380952Y-107145295D01*
X112380952Y-107145295D02*
X112428571Y-107050057D01*
X112428571Y-107050057D02*
X112476190Y-107002438D01*
X112476190Y-107002438D02*
X112571428Y-106954819D01*
X113476190Y-107383390D02*
X113380952Y-107335771D01*
X113380952Y-107335771D02*
X113333333Y-107288152D01*
X113333333Y-107288152D02*
X113285714Y-107192914D01*
X113285714Y-107192914D02*
X113285714Y-107145295D01*
X113285714Y-107145295D02*
X113333333Y-107050057D01*
X113333333Y-107050057D02*
X113380952Y-107002438D01*
X113380952Y-107002438D02*
X113476190Y-106954819D01*
X113476190Y-106954819D02*
X113666666Y-106954819D01*
X113666666Y-106954819D02*
X113761904Y-107002438D01*
X113761904Y-107002438D02*
X113809523Y-107050057D01*
X113809523Y-107050057D02*
X113857142Y-107145295D01*
X113857142Y-107145295D02*
X113857142Y-107192914D01*
X113857142Y-107192914D02*
X113809523Y-107288152D01*
X113809523Y-107288152D02*
X113761904Y-107335771D01*
X113761904Y-107335771D02*
X113666666Y-107383390D01*
X113666666Y-107383390D02*
X113476190Y-107383390D01*
X113476190Y-107383390D02*
X113380952Y-107431009D01*
X113380952Y-107431009D02*
X113333333Y-107478628D01*
X113333333Y-107478628D02*
X113285714Y-107573866D01*
X113285714Y-107573866D02*
X113285714Y-107764342D01*
X113285714Y-107764342D02*
X113333333Y-107859580D01*
X113333333Y-107859580D02*
X113380952Y-107907200D01*
X113380952Y-107907200D02*
X113476190Y-107954819D01*
X113476190Y-107954819D02*
X113666666Y-107954819D01*
X113666666Y-107954819D02*
X113761904Y-107907200D01*
X113761904Y-107907200D02*
X113809523Y-107859580D01*
X113809523Y-107859580D02*
X113857142Y-107764342D01*
X113857142Y-107764342D02*
X113857142Y-107573866D01*
X113857142Y-107573866D02*
X113809523Y-107478628D01*
X113809523Y-107478628D02*
X113761904Y-107431009D01*
X113761904Y-107431009D02*
X113666666Y-107383390D01*
X101166666Y-95954819D02*
X101166666Y-96669104D01*
X101166666Y-96669104D02*
X101119047Y-96811961D01*
X101119047Y-96811961D02*
X101023809Y-96907200D01*
X101023809Y-96907200D02*
X100880952Y-96954819D01*
X100880952Y-96954819D02*
X100785714Y-96954819D01*
X101547619Y-95954819D02*
X102166666Y-95954819D01*
X102166666Y-95954819D02*
X101833333Y-96335771D01*
X101833333Y-96335771D02*
X101976190Y-96335771D01*
X101976190Y-96335771D02*
X102071428Y-96383390D01*
X102071428Y-96383390D02*
X102119047Y-96431009D01*
X102119047Y-96431009D02*
X102166666Y-96526247D01*
X102166666Y-96526247D02*
X102166666Y-96764342D01*
X102166666Y-96764342D02*
X102119047Y-96859580D01*
X102119047Y-96859580D02*
X102071428Y-96907200D01*
X102071428Y-96907200D02*
X101976190Y-96954819D01*
X101976190Y-96954819D02*
X101690476Y-96954819D01*
X101690476Y-96954819D02*
X101595238Y-96907200D01*
X101595238Y-96907200D02*
X101547619Y-96859580D01*
X119190476Y-107954819D02*
X119190476Y-106954819D01*
X119190476Y-106954819D02*
X119523809Y-107669104D01*
X119523809Y-107669104D02*
X119857142Y-106954819D01*
X119857142Y-106954819D02*
X119857142Y-107954819D01*
X120333333Y-107954819D02*
X120333333Y-106954819D01*
X120904761Y-107954819D02*
X120476190Y-107383390D01*
X120904761Y-106954819D02*
X120333333Y-107526247D01*
X121333333Y-107954819D02*
X121333333Y-106954819D01*
X121333333Y-106954819D02*
X121571428Y-106954819D01*
X121571428Y-106954819D02*
X121714285Y-107002438D01*
X121714285Y-107002438D02*
X121809523Y-107097676D01*
X121809523Y-107097676D02*
X121857142Y-107192914D01*
X121857142Y-107192914D02*
X121904761Y-107383390D01*
X121904761Y-107383390D02*
X121904761Y-107526247D01*
X121904761Y-107526247D02*
X121857142Y-107716723D01*
X121857142Y-107716723D02*
X121809523Y-107811961D01*
X121809523Y-107811961D02*
X121714285Y-107907200D01*
X121714285Y-107907200D02*
X121571428Y-107954819D01*
X121571428Y-107954819D02*
X121333333Y-107954819D01*
X122285714Y-107907200D02*
X122428571Y-107954819D01*
X122428571Y-107954819D02*
X122666666Y-107954819D01*
X122666666Y-107954819D02*
X122761904Y-107907200D01*
X122761904Y-107907200D02*
X122809523Y-107859580D01*
X122809523Y-107859580D02*
X122857142Y-107764342D01*
X122857142Y-107764342D02*
X122857142Y-107669104D01*
X122857142Y-107669104D02*
X122809523Y-107573866D01*
X122809523Y-107573866D02*
X122761904Y-107526247D01*
X122761904Y-107526247D02*
X122666666Y-107478628D01*
X122666666Y-107478628D02*
X122476190Y-107431009D01*
X122476190Y-107431009D02*
X122380952Y-107383390D01*
X122380952Y-107383390D02*
X122333333Y-107335771D01*
X122333333Y-107335771D02*
X122285714Y-107240533D01*
X122285714Y-107240533D02*
X122285714Y-107145295D01*
X122285714Y-107145295D02*
X122333333Y-107050057D01*
X122333333Y-107050057D02*
X122380952Y-107002438D01*
X122380952Y-107002438D02*
X122476190Y-106954819D01*
X122476190Y-106954819D02*
X122714285Y-106954819D01*
X122714285Y-106954819D02*
X122857142Y-107002438D01*
X123047619Y-108050057D02*
X123809523Y-108050057D01*
X123952381Y-106954819D02*
X124571428Y-106954819D01*
X124571428Y-106954819D02*
X124238095Y-107335771D01*
X124238095Y-107335771D02*
X124380952Y-107335771D01*
X124380952Y-107335771D02*
X124476190Y-107383390D01*
X124476190Y-107383390D02*
X124523809Y-107431009D01*
X124523809Y-107431009D02*
X124571428Y-107526247D01*
X124571428Y-107526247D02*
X124571428Y-107764342D01*
X124571428Y-107764342D02*
X124523809Y-107859580D01*
X124523809Y-107859580D02*
X124476190Y-107907200D01*
X124476190Y-107907200D02*
X124380952Y-107954819D01*
X124380952Y-107954819D02*
X124095238Y-107954819D01*
X124095238Y-107954819D02*
X124000000Y-107907200D01*
X124000000Y-107907200D02*
X123952381Y-107859580D01*
X125000000Y-107573866D02*
X125761905Y-107573866D01*
X126190476Y-107050057D02*
X126238095Y-107002438D01*
X126238095Y-107002438D02*
X126333333Y-106954819D01*
X126333333Y-106954819D02*
X126571428Y-106954819D01*
X126571428Y-106954819D02*
X126666666Y-107002438D01*
X126666666Y-107002438D02*
X126714285Y-107050057D01*
X126714285Y-107050057D02*
X126761904Y-107145295D01*
X126761904Y-107145295D02*
X126761904Y-107240533D01*
X126761904Y-107240533D02*
X126714285Y-107383390D01*
X126714285Y-107383390D02*
X126142857Y-107954819D01*
X126142857Y-107954819D02*
X126761904Y-107954819D01*
X126952381Y-108050057D02*
X127714285Y-108050057D01*
X128428571Y-106954819D02*
X127952381Y-106954819D01*
X127952381Y-106954819D02*
X127904762Y-107431009D01*
X127904762Y-107431009D02*
X127952381Y-107383390D01*
X127952381Y-107383390D02*
X128047619Y-107335771D01*
X128047619Y-107335771D02*
X128285714Y-107335771D01*
X128285714Y-107335771D02*
X128380952Y-107383390D01*
X128380952Y-107383390D02*
X128428571Y-107431009D01*
X128428571Y-107431009D02*
X128476190Y-107526247D01*
X128476190Y-107526247D02*
X128476190Y-107764342D01*
X128476190Y-107764342D02*
X128428571Y-107859580D01*
X128428571Y-107859580D02*
X128380952Y-107907200D01*
X128380952Y-107907200D02*
X128285714Y-107954819D01*
X128285714Y-107954819D02*
X128047619Y-107954819D01*
X128047619Y-107954819D02*
X127952381Y-107907200D01*
X127952381Y-107907200D02*
X127904762Y-107859580D01*
X128904762Y-107859580D02*
X128952381Y-107907200D01*
X128952381Y-107907200D02*
X128904762Y-107954819D01*
X128904762Y-107954819D02*
X128857143Y-107907200D01*
X128857143Y-107907200D02*
X128904762Y-107859580D01*
X128904762Y-107859580D02*
X128904762Y-107954819D01*
X129571428Y-106954819D02*
X129666666Y-106954819D01*
X129666666Y-106954819D02*
X129761904Y-107002438D01*
X129761904Y-107002438D02*
X129809523Y-107050057D01*
X129809523Y-107050057D02*
X129857142Y-107145295D01*
X129857142Y-107145295D02*
X129904761Y-107335771D01*
X129904761Y-107335771D02*
X129904761Y-107573866D01*
X129904761Y-107573866D02*
X129857142Y-107764342D01*
X129857142Y-107764342D02*
X129809523Y-107859580D01*
X129809523Y-107859580D02*
X129761904Y-107907200D01*
X129761904Y-107907200D02*
X129666666Y-107954819D01*
X129666666Y-107954819D02*
X129571428Y-107954819D01*
X129571428Y-107954819D02*
X129476190Y-107907200D01*
X129476190Y-107907200D02*
X129428571Y-107859580D01*
X129428571Y-107859580D02*
X129380952Y-107764342D01*
X129380952Y-107764342D02*
X129333333Y-107573866D01*
X129333333Y-107573866D02*
X129333333Y-107335771D01*
X129333333Y-107335771D02*
X129380952Y-107145295D01*
X129380952Y-107145295D02*
X129428571Y-107050057D01*
X129428571Y-107050057D02*
X129476190Y-107002438D01*
X129476190Y-107002438D02*
X129571428Y-106954819D01*
X130476190Y-107383390D02*
X130380952Y-107335771D01*
X130380952Y-107335771D02*
X130333333Y-107288152D01*
X130333333Y-107288152D02*
X130285714Y-107192914D01*
X130285714Y-107192914D02*
X130285714Y-107145295D01*
X130285714Y-107145295D02*
X130333333Y-107050057D01*
X130333333Y-107050057D02*
X130380952Y-107002438D01*
X130380952Y-107002438D02*
X130476190Y-106954819D01*
X130476190Y-106954819D02*
X130666666Y-106954819D01*
X130666666Y-106954819D02*
X130761904Y-107002438D01*
X130761904Y-107002438D02*
X130809523Y-107050057D01*
X130809523Y-107050057D02*
X130857142Y-107145295D01*
X130857142Y-107145295D02*
X130857142Y-107192914D01*
X130857142Y-107192914D02*
X130809523Y-107288152D01*
X130809523Y-107288152D02*
X130761904Y-107335771D01*
X130761904Y-107335771D02*
X130666666Y-107383390D01*
X130666666Y-107383390D02*
X130476190Y-107383390D01*
X130476190Y-107383390D02*
X130380952Y-107431009D01*
X130380952Y-107431009D02*
X130333333Y-107478628D01*
X130333333Y-107478628D02*
X130285714Y-107573866D01*
X130285714Y-107573866D02*
X130285714Y-107764342D01*
X130285714Y-107764342D02*
X130333333Y-107859580D01*
X130333333Y-107859580D02*
X130380952Y-107907200D01*
X130380952Y-107907200D02*
X130476190Y-107954819D01*
X130476190Y-107954819D02*
X130666666Y-107954819D01*
X130666666Y-107954819D02*
X130761904Y-107907200D01*
X130761904Y-107907200D02*
X130809523Y-107859580D01*
X130809523Y-107859580D02*
X130857142Y-107764342D01*
X130857142Y-107764342D02*
X130857142Y-107573866D01*
X130857142Y-107573866D02*
X130809523Y-107478628D01*
X130809523Y-107478628D02*
X130761904Y-107431009D01*
X130761904Y-107431009D02*
X130666666Y-107383390D01*
X127666666Y-95954819D02*
X127666666Y-96669104D01*
X127666666Y-96669104D02*
X127619047Y-96811961D01*
X127619047Y-96811961D02*
X127523809Y-96907200D01*
X127523809Y-96907200D02*
X127380952Y-96954819D01*
X127380952Y-96954819D02*
X127285714Y-96954819D01*
X128571428Y-96288152D02*
X128571428Y-96954819D01*
X128333333Y-95907200D02*
X128095238Y-96621485D01*
X128095238Y-96621485D02*
X128714285Y-96621485D01*
D11*
%TO.C,SW1*%
X100747393Y-79817316D02*
X100747393Y-81399313D01*
X100747393Y-81399313D02*
X100799502Y-81399313D01*
X100747393Y-84405115D02*
X100747393Y-86171675D01*
X100747393Y-84405115D02*
X101398669Y-84405115D01*
X100747393Y-86171675D02*
X100799502Y-86171675D01*
X100747393Y-89362044D02*
X100747393Y-90944041D01*
X100747393Y-90944041D02*
X100799502Y-90944041D01*
X100799502Y-75625025D02*
X100799502Y-76152354D01*
X100799502Y-79817316D02*
X100747393Y-79817316D01*
X100799502Y-79817316D02*
X101138156Y-79632750D01*
X100799502Y-89362044D02*
X100747393Y-89362044D01*
X100799502Y-90944041D02*
X101138156Y-91154971D01*
X100799502Y-95136336D02*
X100799502Y-76152354D01*
X100799502Y-95136336D02*
X100799502Y-95158064D01*
X101060000Y-75361353D02*
X111610339Y-75361353D01*
X101060000Y-95400000D02*
X111610339Y-95400000D01*
X101138156Y-79632750D02*
X101398669Y-79632750D01*
X101138156Y-81610251D02*
X101138156Y-79817316D01*
X101138156Y-81610251D02*
X101398669Y-81610251D01*
X101138156Y-84589678D02*
X100747393Y-84589678D01*
X101138156Y-86382609D02*
X101138156Y-84589678D01*
X101138156Y-86382609D02*
X101398669Y-86382609D01*
X101138156Y-89177473D02*
X101398669Y-89177473D01*
X101138156Y-91154971D02*
X101138156Y-89177473D01*
X101138156Y-91154971D02*
X101398669Y-91154971D01*
X101398669Y-79632750D02*
X101398669Y-79817316D01*
X101398669Y-81399313D02*
X101450762Y-81399313D01*
X101398669Y-81610251D02*
X101398669Y-81399313D01*
X101398669Y-84405115D02*
X101398669Y-84589678D01*
X101398669Y-86171675D02*
X101450762Y-86171675D01*
X101398669Y-86382609D02*
X101398669Y-86171675D01*
X101398669Y-89177473D02*
X101398669Y-89362044D01*
X101398669Y-90944041D02*
X101450762Y-90944041D01*
X101398669Y-91154971D02*
X101398669Y-90944041D01*
X101398669Y-94609000D02*
X101398669Y-76152354D01*
X101398669Y-94609000D02*
X111271701Y-94609000D01*
X101450762Y-76640139D02*
X101450762Y-94121218D01*
X101450762Y-79817316D02*
X101138156Y-79817316D01*
X101450762Y-84589678D02*
X101398669Y-84589678D01*
X101450762Y-89362044D02*
X100799502Y-89362044D01*
X101450762Y-89362044D02*
X101398669Y-89362044D01*
X101841509Y-94516718D02*
X104381411Y-94516718D01*
X104381411Y-94121218D02*
X108288943Y-94121218D01*
X104381411Y-94516718D02*
X104381411Y-94121218D01*
X104511660Y-80608317D02*
X108158694Y-80608317D01*
X104511660Y-90153040D02*
X104511660Y-80608317D01*
X104550738Y-84490805D02*
X104550738Y-85131903D01*
X104550738Y-89426249D02*
X104550738Y-90067347D01*
X104550738Y-90067347D02*
X104511660Y-90153040D01*
X104550738Y-90067347D02*
X108119616Y-90067347D01*
X104707034Y-84642413D02*
X107963320Y-84642413D01*
X104707034Y-86402140D02*
X104707034Y-85983328D01*
X104707034Y-87719988D02*
X104707034Y-86838049D01*
X104707034Y-89915739D02*
X107963320Y-89915739D01*
X104707034Y-90153040D02*
X104707034Y-84642413D01*
X104707034Y-94134402D02*
X104707034Y-94121218D01*
X105775088Y-80608317D02*
X105775088Y-81016997D01*
X105775088Y-81016997D02*
X106895266Y-81016997D01*
X105775088Y-94121218D02*
X105775088Y-94134402D01*
X106895266Y-81016997D02*
X106895266Y-80608317D01*
X106895266Y-94134402D02*
X106895266Y-94121218D01*
X107963320Y-85131903D02*
X104550738Y-85131903D01*
X107963320Y-85983328D02*
X104707034Y-85983328D01*
X107963320Y-85983328D02*
X107963320Y-85131903D01*
X107963320Y-86402140D02*
X104707034Y-86402140D01*
X107963320Y-86838049D02*
X104707034Y-86838049D01*
X107963320Y-86838049D02*
X107963320Y-86402140D01*
X107963320Y-87719988D02*
X104707034Y-87719988D01*
X107963320Y-88574824D02*
X104707034Y-88574824D01*
X107963320Y-88574824D02*
X107963320Y-87719988D01*
X107963320Y-89426249D02*
X104550738Y-89426249D01*
X107963320Y-89915739D02*
X107963320Y-84642413D01*
X108119616Y-84490805D02*
X104550738Y-84490805D01*
X108119616Y-85018137D02*
X108119616Y-84490805D01*
X108119616Y-89540015D02*
X108158694Y-89540015D01*
X108119616Y-90067347D02*
X108119616Y-89540015D01*
X108158694Y-80608317D02*
X108158694Y-90153040D01*
X108158694Y-85018137D02*
X108119616Y-85018137D01*
X108158694Y-89540015D02*
X107963320Y-89426249D01*
X108158694Y-90153040D02*
X104707034Y-90153040D01*
X108288943Y-94121218D02*
X108288943Y-94516718D01*
X108288943Y-94134402D02*
X104707034Y-94134402D01*
X108288943Y-94516718D02*
X110828829Y-94516718D01*
X110828829Y-76244639D02*
X101841509Y-76244639D01*
X111219592Y-81399313D02*
X111271701Y-81399313D01*
X111219592Y-81399313D02*
X111870852Y-81399313D01*
X111219592Y-86171675D02*
X111271701Y-86171675D01*
X111219592Y-86171675D02*
X111870852Y-86171675D01*
X111219592Y-90944041D02*
X111271701Y-90944041D01*
X111219592Y-90944041D02*
X111870852Y-90944041D01*
X111219592Y-94121218D02*
X111219592Y-76640139D01*
X111271701Y-76152354D02*
X100799502Y-76152354D01*
X111271701Y-79632750D02*
X111271701Y-79817316D01*
X111271701Y-81610251D02*
X111271701Y-81399313D01*
X111271701Y-84405115D02*
X111271701Y-84589678D01*
X111271701Y-86382609D02*
X111271701Y-86171675D01*
X111271701Y-89177473D02*
X111271701Y-89362044D01*
X111271701Y-91154971D02*
X111271701Y-90944041D01*
X111271701Y-94609000D02*
X111271701Y-76152354D01*
X111532199Y-79632750D02*
X111271701Y-79632750D01*
X111532199Y-79817316D02*
X111219592Y-79817316D01*
X111532199Y-81610251D02*
X111271701Y-81610251D01*
X111532199Y-81610251D02*
X111532199Y-79817316D01*
X111532199Y-84405115D02*
X111271701Y-84405115D01*
X111532199Y-84589678D02*
X111219592Y-84589678D01*
X111532199Y-86382609D02*
X111271701Y-86382609D01*
X111532199Y-86382609D02*
X111532199Y-84589678D01*
X111532199Y-89177473D02*
X111271701Y-89177473D01*
X111532199Y-91154971D02*
X111271701Y-91154971D01*
X111532199Y-91154971D02*
X111532199Y-89177473D01*
X111870852Y-79817316D02*
X111532199Y-79632750D01*
X111870852Y-81399313D02*
X111922961Y-81399313D01*
X111870852Y-84589681D02*
X111532199Y-84405115D01*
X111870852Y-86171675D02*
X111922961Y-86171675D01*
X111870852Y-89362044D02*
X111532199Y-89177473D01*
X111870852Y-90944041D02*
X111922961Y-90944041D01*
X111870852Y-95136336D02*
X111870852Y-75625025D01*
X111922961Y-79817316D02*
X111870852Y-79817316D01*
X111922961Y-81399313D02*
X111922961Y-79817316D01*
X111922961Y-84589678D02*
X111870852Y-84589678D01*
X111922961Y-86171675D02*
X111922961Y-84589678D01*
X111922961Y-89362044D02*
X111870852Y-89362044D01*
X111922961Y-90944041D02*
X111922961Y-89362044D01*
X100799502Y-95136336D02*
X100799542Y-95140998D01*
X100799661Y-95145649D01*
X100799861Y-95150291D01*
X100800139Y-95154920D01*
X100800497Y-95159538D01*
X100800933Y-95164143D01*
X100801449Y-95168734D01*
X100802043Y-95173310D01*
X100802715Y-95177871D01*
X100803466Y-95182416D01*
X100804295Y-95186944D01*
X100805202Y-95191454D01*
X100806186Y-95195945D01*
X100807248Y-95200416D01*
X100808387Y-95204867D01*
X100809602Y-95209295D01*
X100810894Y-95213700D01*
X100812263Y-95218082D01*
X100813707Y-95222439D01*
X100815226Y-95226769D01*
X100816821Y-95231072D01*
X100818490Y-95235347D01*
X100820234Y-95239593D01*
X100822051Y-95243808D01*
X100823942Y-95247991D01*
X100825905Y-95252141D01*
X100827941Y-95256257D01*
X100830048Y-95260338D01*
X100832226Y-95264382D01*
X100834475Y-95268388D01*
X100836793Y-95272355D01*
X100839180Y-95276282D01*
X100841635Y-95280167D01*
X100844158Y-95284009D01*
X100846748Y-95287808D01*
X100849403Y-95291561D01*
X100852124Y-95295267D01*
X100854908Y-95298926D01*
X100857756Y-95302535D01*
X100860666Y-95306095D01*
X100863637Y-95309603D01*
X100866668Y-95313058D01*
X100869759Y-95316460D01*
X100871326Y-95318140D01*
X100872908Y-95319806D01*
X100874504Y-95321458D01*
X100876113Y-95323097D01*
X100877737Y-95324720D01*
X100879375Y-95326330D01*
X100881027Y-95327925D01*
X100882692Y-95329505D01*
X100884370Y-95331070D01*
X100886062Y-95332620D01*
X100887766Y-95334155D01*
X100889484Y-95335676D01*
X100891215Y-95337180D01*
X100892958Y-95338669D01*
X100894714Y-95340143D01*
X100896482Y-95341601D01*
X100898263Y-95343042D01*
X100900056Y-95344468D01*
X100901860Y-95345878D01*
X100903676Y-95347272D01*
X100905504Y-95348649D01*
X100907343Y-95350010D01*
X100909194Y-95351354D01*
X100911056Y-95352682D01*
X100912928Y-95353993D01*
X100914812Y-95355288D01*
X100916706Y-95356565D01*
X100918612Y-95357825D01*
X100920526Y-95359068D01*
X100922452Y-95360294D01*
X100924387Y-95361502D01*
X100926333Y-95362694D01*
X100928288Y-95363867D01*
X100930254Y-95365023D01*
X100932227Y-95366161D01*
X100934212Y-95367282D01*
X100936204Y-95368385D01*
X100938206Y-95369470D01*
X100940216Y-95370536D01*
X100942236Y-95371586D01*
X100944263Y-95372616D01*
X100946300Y-95373629D01*
X100948344Y-95374623D01*
X100950397Y-95375599D01*
X100952457Y-95376556D01*
X100954526Y-95377495D01*
X100956601Y-95378416D01*
X100958686Y-95379318D01*
X100960776Y-95380201D01*
X100962875Y-95381066D01*
X100964979Y-95381911D01*
X100967092Y-95382739D01*
X100969210Y-95383546D01*
X100971337Y-95384336D01*
X100973468Y-95385106D01*
X100975608Y-95385858D01*
X100977751Y-95386590D01*
X100979904Y-95387303D01*
X100982059Y-95387997D01*
X100984223Y-95388672D01*
X100986391Y-95389328D01*
X100988566Y-95389965D01*
X100990745Y-95390582D01*
X100992931Y-95391180D01*
X100995120Y-95391758D01*
X100997317Y-95392318D01*
X100999516Y-95392857D01*
X101001722Y-95393378D01*
X101003931Y-95393878D01*
X101006147Y-95394360D01*
X101008365Y-95394821D01*
X101010590Y-95395264D01*
X101012817Y-95395686D01*
X101015050Y-95396090D01*
X101017285Y-95396473D01*
X101019526Y-95396837D01*
X101021769Y-95397181D01*
X101024018Y-95397506D01*
X101026269Y-95397810D01*
X101028525Y-95398095D01*
X101030782Y-95398360D01*
X101033046Y-95398606D01*
X101035310Y-95398831D01*
X101037579Y-95399037D01*
X101039850Y-95399223D01*
X101042125Y-95399389D01*
X101044402Y-95399535D01*
X101046683Y-95399661D01*
X101048965Y-95399768D01*
X101051252Y-95399854D01*
X101053538Y-95399920D01*
X101055830Y-95399967D01*
X101060000Y-95400000D01*
X101060000Y-75361353D02*
X101055422Y-75361393D01*
X101050854Y-75361512D01*
X101046296Y-75361712D01*
X101041749Y-75361990D01*
X101037214Y-75362348D01*
X101032691Y-75362784D01*
X101028181Y-75363300D01*
X101023686Y-75363894D01*
X101019204Y-75364567D01*
X101014739Y-75365318D01*
X101010290Y-75366148D01*
X101005858Y-75367055D01*
X101001444Y-75368040D01*
X100997049Y-75369103D01*
X100992674Y-75370243D01*
X100988319Y-75371460D01*
X100983987Y-75372754D01*
X100979677Y-75374124D01*
X100975391Y-75375571D01*
X100971130Y-75377093D01*
X100966895Y-75378691D01*
X100962687Y-75380364D01*
X100958507Y-75382112D01*
X100954356Y-75383935D01*
X100950236Y-75385831D01*
X100946147Y-75387800D01*
X100942091Y-75389843D01*
X100938069Y-75391958D01*
X100934081Y-75394145D01*
X100930130Y-75396403D01*
X100926217Y-75398731D01*
X100922342Y-75401130D01*
X100918507Y-75403598D01*
X100914713Y-75406134D01*
X100910962Y-75408738D01*
X100907254Y-75411410D01*
X100903592Y-75414147D01*
X100899975Y-75416950D01*
X100896406Y-75419817D01*
X100892885Y-75422748D01*
X100889414Y-75425742D01*
X100885994Y-75428797D01*
X100882626Y-75431912D01*
X100879311Y-75435088D01*
X100876051Y-75438322D01*
X100872847Y-75441613D01*
X100871266Y-75443280D01*
X100869699Y-75444961D01*
X100868147Y-75446656D01*
X100866609Y-75448364D01*
X100865086Y-75450086D01*
X100863578Y-75451821D01*
X100862086Y-75453570D01*
X100860608Y-75455331D01*
X100859145Y-75457106D01*
X100857698Y-75458893D01*
X100856266Y-75460693D01*
X100854850Y-75462506D01*
X100853450Y-75464331D01*
X100852065Y-75466168D01*
X100850697Y-75468017D01*
X100849344Y-75469878D01*
X100848008Y-75471750D01*
X100846688Y-75473635D01*
X100845385Y-75475530D01*
X100844098Y-75477438D01*
X100842828Y-75479355D01*
X100841574Y-75481285D01*
X100840338Y-75483224D01*
X100839118Y-75485175D01*
X100837916Y-75487136D01*
X100836730Y-75489107D01*
X100835562Y-75491088D01*
X100834411Y-75493080D01*
X100833278Y-75495081D01*
X100832161Y-75497093D01*
X100831063Y-75499113D01*
X100829983Y-75501143D01*
X100828920Y-75503182D01*
X100827875Y-75505231D01*
X100826848Y-75507288D01*
X100825838Y-75509354D01*
X100824848Y-75511428D01*
X100823875Y-75513512D01*
X100822920Y-75515603D01*
X100821984Y-75517703D01*
X100821066Y-75519810D01*
X100820166Y-75521926D01*
X100819285Y-75524049D01*
X100818422Y-75526181D01*
X100817579Y-75528318D01*
X100816753Y-75530464D01*
X100815947Y-75532616D01*
X100815159Y-75534777D01*
X100814390Y-75536942D01*
X100813640Y-75539117D01*
X100812909Y-75541296D01*
X100812196Y-75543483D01*
X100811504Y-75545674D01*
X100810829Y-75547874D01*
X100810175Y-75550078D01*
X100809538Y-75552290D01*
X100808922Y-75554505D01*
X100808324Y-75556728D01*
X100807747Y-75558955D01*
X100807187Y-75561189D01*
X100806648Y-75563426D01*
X100806128Y-75565670D01*
X100805627Y-75567918D01*
X100805146Y-75570172D01*
X100804685Y-75572429D01*
X100804242Y-75574693D01*
X100803820Y-75576959D01*
X100803416Y-75579231D01*
X100803033Y-75581506D01*
X100802669Y-75583787D01*
X100802325Y-75586070D01*
X100802000Y-75588359D01*
X100801695Y-75590650D01*
X100801410Y-75592947D01*
X100801145Y-75595245D01*
X100800899Y-75597549D01*
X100800673Y-75599853D01*
X100800467Y-75602164D01*
X100800281Y-75604476D01*
X100800115Y-75606793D01*
X100799969Y-75609110D01*
X100799842Y-75611433D01*
X100799736Y-75613757D01*
X100799649Y-75616085D01*
X100799582Y-75618414D01*
X100799536Y-75620748D01*
X100799502Y-75625025D01*
X101450762Y-94121218D02*
X101450802Y-94126927D01*
X101450922Y-94132627D01*
X101451121Y-94138316D01*
X101451400Y-94143994D01*
X101451758Y-94149661D01*
X101452195Y-94155316D01*
X101452711Y-94160958D01*
X101453307Y-94166586D01*
X101453981Y-94172201D01*
X101454733Y-94177801D01*
X101455564Y-94183385D01*
X101456474Y-94188954D01*
X101457462Y-94194505D01*
X101458527Y-94200039D01*
X101459671Y-94205555D01*
X101460892Y-94211052D01*
X101462190Y-94216529D01*
X101463565Y-94221985D01*
X101465018Y-94227419D01*
X101466547Y-94232832D01*
X101468153Y-94238221D01*
X101469834Y-94243586D01*
X101471592Y-94248926D01*
X101473425Y-94254240D01*
X101475334Y-94259528D01*
X101477317Y-94264788D01*
X101479375Y-94270020D01*
X101481508Y-94275222D01*
X101483714Y-94280394D01*
X101485994Y-94285534D01*
X101488346Y-94290642D01*
X101490772Y-94295716D01*
X101493269Y-94300757D01*
X101495839Y-94305762D01*
X101498479Y-94310731D01*
X101501190Y-94315662D01*
X101503971Y-94320555D01*
X101506822Y-94325409D01*
X101509742Y-94330222D01*
X101512730Y-94334994D01*
X101515786Y-94339724D01*
X101518909Y-94344410D01*
X101522098Y-94349051D01*
X101525354Y-94353648D01*
X101528674Y-94358198D01*
X101532058Y-94362700D01*
X101535507Y-94367154D01*
X101539018Y-94371558D01*
X101542591Y-94375912D01*
X101546225Y-94380214D01*
X101549919Y-94384464D01*
X101553673Y-94388660D01*
X101557486Y-94392802D01*
X101559414Y-94394853D01*
X101561357Y-94396889D01*
X101563314Y-94398912D01*
X101565284Y-94400920D01*
X101567269Y-94402914D01*
X101569268Y-94404893D01*
X101571280Y-94406858D01*
X101573307Y-94408809D01*
X101575346Y-94410744D01*
X101577399Y-94412665D01*
X101579466Y-94414571D01*
X101581545Y-94416462D01*
X101583638Y-94418337D01*
X101585743Y-94420198D01*
X101587862Y-94422042D01*
X101589993Y-94423872D01*
X101592136Y-94425686D01*
X101594293Y-94427484D01*
X101596461Y-94429267D01*
X101598642Y-94431034D01*
X101600834Y-94432784D01*
X101603039Y-94434519D01*
X101605256Y-94436237D01*
X101607484Y-94437940D01*
X101609724Y-94439625D01*
X101611975Y-94441295D01*
X101614237Y-94442947D01*
X101616512Y-94444584D01*
X101618796Y-94446203D01*
X101621092Y-94447807D01*
X101623398Y-94449392D01*
X101625716Y-94450962D01*
X101628044Y-94452514D01*
X101630383Y-94454049D01*
X101632731Y-94455566D01*
X101635090Y-94457067D01*
X101637458Y-94458550D01*
X101639838Y-94460016D01*
X101642226Y-94461464D01*
X101644625Y-94462896D01*
X101647032Y-94464308D01*
X101649450Y-94465704D01*
X101651876Y-94467082D01*
X101654313Y-94468442D01*
X101656757Y-94469784D01*
X101659211Y-94471108D01*
X101661673Y-94472414D01*
X101664145Y-94473703D01*
X101666624Y-94474972D01*
X101669113Y-94476225D01*
X101671609Y-94477458D01*
X101674115Y-94478673D01*
X101676627Y-94479870D01*
X101679148Y-94481049D01*
X101681676Y-94482209D01*
X101684213Y-94483351D01*
X101686756Y-94484473D01*
X101689309Y-94485578D01*
X101691867Y-94486664D01*
X101694434Y-94487731D01*
X101697006Y-94488779D01*
X101699587Y-94489809D01*
X101702173Y-94490820D01*
X101704768Y-94491812D01*
X101707368Y-94492785D01*
X101709976Y-94493740D01*
X101712588Y-94494674D01*
X101715209Y-94495591D01*
X101717834Y-94496488D01*
X101720467Y-94497366D01*
X101723105Y-94498225D01*
X101725750Y-94499065D01*
X101728399Y-94499885D01*
X101731056Y-94500687D01*
X101733716Y-94501469D01*
X101736383Y-94502232D01*
X101739054Y-94502976D01*
X101741733Y-94503700D01*
X101744414Y-94504405D01*
X101747103Y-94505091D01*
X101749795Y-94505757D01*
X101752493Y-94506404D01*
X101755195Y-94507031D01*
X101757903Y-94507639D01*
X101760613Y-94508227D01*
X101763331Y-94508796D01*
X101766050Y-94509345D01*
X101768776Y-94509875D01*
X101771504Y-94510385D01*
X101774239Y-94510876D01*
X101776975Y-94511346D01*
X101779717Y-94511798D01*
X101782461Y-94512229D01*
X101785212Y-94512641D01*
X101787963Y-94513033D01*
X101790721Y-94513406D01*
X101793479Y-94513758D01*
X101796244Y-94514091D01*
X101799010Y-94514404D01*
X101801781Y-94514698D01*
X101804553Y-94514971D01*
X101807331Y-94515225D01*
X101810109Y-94515459D01*
X101812893Y-94515673D01*
X101815677Y-94515867D01*
X101818467Y-94516041D01*
X101821257Y-94516196D01*
X101824052Y-94516330D01*
X101826847Y-94516445D01*
X101829648Y-94516539D01*
X101832448Y-94516614D01*
X101835253Y-94516668D01*
X101838058Y-94516703D01*
X101840868Y-94516717D01*
X101841509Y-94516718D01*
X101841509Y-76244639D02*
X101835900Y-76244679D01*
X101830301Y-76244799D01*
X101824712Y-76244998D01*
X101819134Y-76245277D01*
X101813567Y-76245635D01*
X101808011Y-76246072D01*
X101802468Y-76246588D01*
X101796938Y-76247184D01*
X101791421Y-76247858D01*
X101785918Y-76248611D01*
X101780430Y-76249442D01*
X101774958Y-76250352D01*
X101769502Y-76251340D01*
X101764062Y-76252407D01*
X101758641Y-76253551D01*
X101753237Y-76254773D01*
X101747852Y-76256072D01*
X101742488Y-76257449D01*
X101737143Y-76258903D01*
X101731820Y-76260434D01*
X101726520Y-76262041D01*
X101721242Y-76263726D01*
X101715988Y-76265486D01*
X101710758Y-76267322D01*
X101705554Y-76269235D01*
X101700377Y-76271222D01*
X101695227Y-76273285D01*
X101690105Y-76275422D01*
X101685012Y-76277634D01*
X101679949Y-76279920D01*
X101674917Y-76282280D01*
X101669917Y-76284712D01*
X101664950Y-76287218D01*
X101660016Y-76289796D01*
X101655118Y-76292447D01*
X101650255Y-76295168D01*
X101645429Y-76297961D01*
X101640641Y-76300824D01*
X101635892Y-76303757D01*
X101631182Y-76306760D01*
X101626513Y-76309831D01*
X101621886Y-76312970D01*
X101617302Y-76316177D01*
X101612762Y-76319451D01*
X101608266Y-76322791D01*
X101603817Y-76326197D01*
X101599414Y-76329668D01*
X101595059Y-76333202D01*
X101590753Y-76336800D01*
X101586497Y-76340461D01*
X101582291Y-76344183D01*
X101578138Y-76347966D01*
X101574037Y-76351810D01*
X101569990Y-76355713D01*
X101565997Y-76359674D01*
X101562060Y-76363692D01*
X101560113Y-76365723D01*
X101558180Y-76367768D01*
X101556261Y-76369826D01*
X101554357Y-76371899D01*
X101552467Y-76373985D01*
X101550592Y-76376085D01*
X101548732Y-76378198D01*
X101546887Y-76380325D01*
X101545057Y-76382464D01*
X101543241Y-76384617D01*
X101541442Y-76386783D01*
X101539657Y-76388962D01*
X101537888Y-76391153D01*
X101536134Y-76393357D01*
X101534396Y-76395574D01*
X101532673Y-76397803D01*
X101530967Y-76400044D01*
X101529276Y-76402298D01*
X101527602Y-76404563D01*
X101525943Y-76406840D01*
X101524301Y-76409129D01*
X101522675Y-76411430D01*
X101521065Y-76413742D01*
X101519472Y-76416066D01*
X101517896Y-76418400D01*
X101516335Y-76420746D01*
X101514792Y-76423103D01*
X101513266Y-76425471D01*
X101511756Y-76427849D01*
X101510264Y-76430238D01*
X101508788Y-76432637D01*
X101507330Y-76435048D01*
X101505889Y-76437468D01*
X101504465Y-76439898D01*
X101503058Y-76442338D01*
X101501669Y-76444789D01*
X101500298Y-76447248D01*
X101498943Y-76449718D01*
X101497607Y-76452196D01*
X101496288Y-76454685D01*
X101494988Y-76457181D01*
X101493704Y-76459689D01*
X101492439Y-76462203D01*
X101491192Y-76464728D01*
X101489963Y-76467261D01*
X101488752Y-76469803D01*
X101487559Y-76472352D01*
X101486384Y-76474911D01*
X101485228Y-76477477D01*
X101484089Y-76480053D01*
X101482970Y-76482635D01*
X101481868Y-76485226D01*
X101480786Y-76487823D01*
X101479721Y-76490430D01*
X101478676Y-76493042D01*
X101477648Y-76495664D01*
X101476640Y-76498291D01*
X101475650Y-76500927D01*
X101474679Y-76503568D01*
X101473727Y-76506218D01*
X101472794Y-76508873D01*
X101471879Y-76511537D01*
X101470984Y-76514205D01*
X101470107Y-76516881D01*
X101469250Y-76519562D01*
X101468411Y-76522251D01*
X101467591Y-76524945D01*
X101466791Y-76527646D01*
X101466010Y-76530351D01*
X101465248Y-76533064D01*
X101464505Y-76535780D01*
X101463781Y-76538505D01*
X101463077Y-76541232D01*
X101462392Y-76543967D01*
X101461727Y-76546705D01*
X101461080Y-76549451D01*
X101460453Y-76552199D01*
X101459846Y-76554955D01*
X101459258Y-76557713D01*
X101458689Y-76560479D01*
X101458140Y-76563246D01*
X101457610Y-76566021D01*
X101457101Y-76568797D01*
X101456610Y-76571581D01*
X101456139Y-76574366D01*
X101455688Y-76577158D01*
X101455256Y-76579951D01*
X101454844Y-76582751D01*
X101454452Y-76585553D01*
X101454079Y-76588361D01*
X101453727Y-76591170D01*
X101453393Y-76593985D01*
X101453080Y-76596801D01*
X101452787Y-76599624D01*
X101452513Y-76602447D01*
X101452259Y-76605276D01*
X101452025Y-76608106D01*
X101451810Y-76610941D01*
X101451616Y-76613777D01*
X101451441Y-76616618D01*
X101451287Y-76619460D01*
X101451152Y-76622308D01*
X101451037Y-76625155D01*
X101450942Y-76628008D01*
X101450867Y-76630861D01*
X101450812Y-76633719D01*
X101450778Y-76636577D01*
X101450763Y-76639440D01*
X101450762Y-76640139D01*
X110828829Y-94516718D02*
X110834439Y-94516678D01*
X110840039Y-94516558D01*
X110845629Y-94516359D01*
X110851208Y-94516080D01*
X110856777Y-94515722D01*
X110862333Y-94515285D01*
X110867877Y-94514769D01*
X110873408Y-94514173D01*
X110878925Y-94513499D01*
X110884428Y-94512746D01*
X110889917Y-94511915D01*
X110895389Y-94511005D01*
X110900846Y-94510017D01*
X110906285Y-94508951D01*
X110911708Y-94507807D01*
X110917111Y-94506585D01*
X110922496Y-94505286D01*
X110927861Y-94503909D01*
X110933205Y-94502455D01*
X110938528Y-94500925D01*
X110943828Y-94499317D01*
X110949106Y-94497633D01*
X110954360Y-94495873D01*
X110959589Y-94494037D01*
X110964793Y-94492125D01*
X110969970Y-94490137D01*
X110975120Y-94488075D01*
X110980242Y-94485938D01*
X110985334Y-94483726D01*
X110990397Y-94481441D01*
X110995428Y-94479081D01*
X111000428Y-94476649D01*
X111005395Y-94474143D01*
X111010328Y-94471565D01*
X111015226Y-94468915D01*
X111020089Y-94466194D01*
X111024914Y-94463402D01*
X111029702Y-94460539D01*
X111034451Y-94457606D01*
X111039160Y-94454604D01*
X111043829Y-94451533D01*
X111048455Y-94448394D01*
X111053039Y-94445187D01*
X111057579Y-94441913D01*
X111062075Y-94438573D01*
X111066524Y-94435168D01*
X111070927Y-94431697D01*
X111075281Y-94428163D01*
X111079587Y-94424565D01*
X111083843Y-94420904D01*
X111088049Y-94417182D01*
X111092202Y-94413399D01*
X111096303Y-94409556D01*
X111100350Y-94405653D01*
X111104343Y-94401692D01*
X111108280Y-94397673D01*
X111110227Y-94395642D01*
X111112160Y-94393597D01*
X111114079Y-94391539D01*
X111115983Y-94389466D01*
X111117873Y-94387380D01*
X111119748Y-94385280D01*
X111121608Y-94383167D01*
X111123454Y-94381040D01*
X111125284Y-94378901D01*
X111127099Y-94376748D01*
X111128899Y-94374582D01*
X111130684Y-94372403D01*
X111132453Y-94370211D01*
X111134207Y-94368007D01*
X111135945Y-94365790D01*
X111137668Y-94363561D01*
X111139375Y-94361320D01*
X111141066Y-94359066D01*
X111142740Y-94356801D01*
X111144399Y-94354523D01*
X111146041Y-94352234D01*
X111147668Y-94349933D01*
X111149277Y-94347621D01*
X111150871Y-94345297D01*
X111152447Y-94342963D01*
X111154008Y-94340616D01*
X111155551Y-94338260D01*
X111157078Y-94335891D01*
X111158587Y-94333513D01*
X111160080Y-94331124D01*
X111161556Y-94328724D01*
X111163014Y-94326314D01*
X111164455Y-94323894D01*
X111165880Y-94321463D01*
X111167286Y-94319023D01*
X111168676Y-94316572D01*
X111170047Y-94314113D01*
X111171402Y-94311643D01*
X111172738Y-94309164D01*
X111174057Y-94306675D01*
X111175358Y-94304178D01*
X111176642Y-94301671D01*
X111177907Y-94299156D01*
X111179154Y-94296631D01*
X111180383Y-94294098D01*
X111181595Y-94291556D01*
X111182788Y-94289006D01*
X111183963Y-94286447D01*
X111185119Y-94283881D01*
X111186258Y-94281305D01*
X111187377Y-94278723D01*
X111188479Y-94276132D01*
X111189562Y-94273534D01*
X111190627Y-94270927D01*
X111191673Y-94268315D01*
X111192700Y-94265693D01*
X111193709Y-94263066D01*
X111194699Y-94260429D01*
X111195670Y-94257788D01*
X111196622Y-94255138D01*
X111197556Y-94252483D01*
X111198471Y-94249819D01*
X111199366Y-94247151D01*
X111200243Y-94244474D01*
X111201100Y-94241793D01*
X111201939Y-94239104D01*
X111202759Y-94236411D01*
X111203559Y-94233710D01*
X111204341Y-94231004D01*
X111205103Y-94228291D01*
X111205846Y-94225575D01*
X111206570Y-94222851D01*
X111207274Y-94220123D01*
X111207959Y-94217388D01*
X111208625Y-94214650D01*
X111209271Y-94211904D01*
X111209898Y-94209156D01*
X111210506Y-94206400D01*
X111211094Y-94203642D01*
X111211663Y-94200877D01*
X111212212Y-94198109D01*
X111212742Y-94195335D01*
X111213252Y-94192558D01*
X111213742Y-94189775D01*
X111214213Y-94186990D01*
X111214665Y-94184198D01*
X111215096Y-94181405D01*
X111215508Y-94178605D01*
X111215901Y-94175804D01*
X111216273Y-94172996D01*
X111216626Y-94170187D01*
X111216959Y-94167372D01*
X111217273Y-94164556D01*
X111217567Y-94161734D01*
X111217840Y-94158912D01*
X111218094Y-94156083D01*
X111218329Y-94153254D01*
X111218543Y-94150419D01*
X111218738Y-94147583D01*
X111218912Y-94144742D01*
X111219067Y-94141900D01*
X111219202Y-94139054D01*
X111219317Y-94136207D01*
X111219412Y-94133354D01*
X111219486Y-94130502D01*
X111219541Y-94127645D01*
X111219576Y-94124787D01*
X111219591Y-94121925D01*
X111219592Y-94121218D01*
X111219592Y-76640139D02*
X111219552Y-76634425D01*
X111219432Y-76628721D01*
X111219233Y-76623027D01*
X111218954Y-76617345D01*
X111218596Y-76611674D01*
X111218159Y-76606015D01*
X111217643Y-76600370D01*
X111217048Y-76594738D01*
X111216374Y-76589120D01*
X111215621Y-76583517D01*
X111214790Y-76577930D01*
X111213881Y-76572358D01*
X111212893Y-76566804D01*
X111211828Y-76561268D01*
X111210685Y-76555750D01*
X111209464Y-76550251D01*
X111208166Y-76544773D01*
X111206791Y-76539315D01*
X111205339Y-76533879D01*
X111203810Y-76528466D01*
X111202205Y-76523075D01*
X111200524Y-76517709D01*
X111198767Y-76512368D01*
X111196934Y-76507053D01*
X111195026Y-76501765D01*
X111193044Y-76496505D01*
X111190986Y-76491273D01*
X111188855Y-76486071D01*
X111186650Y-76480899D01*
X111184371Y-76475759D01*
X111182019Y-76470651D01*
X111179595Y-76465577D01*
X111177098Y-76460537D01*
X111174530Y-76455533D01*
X111171891Y-76450565D01*
X111169181Y-76445634D01*
X111166402Y-76440742D01*
X111163552Y-76435889D01*
X111160634Y-76431077D01*
X111157647Y-76426306D01*
X111154593Y-76421578D01*
X111151472Y-76416893D01*
X111148284Y-76412253D01*
X111145030Y-76407658D01*
X111141712Y-76403110D01*
X111138329Y-76398609D01*
X111134882Y-76394157D01*
X111131373Y-76389755D01*
X111127802Y-76385403D01*
X111124170Y-76381102D01*
X111120477Y-76376854D01*
X111116725Y-76372659D01*
X111112914Y-76368519D01*
X111110987Y-76366469D01*
X111109045Y-76364434D01*
X111107089Y-76362412D01*
X111105120Y-76360405D01*
X111103136Y-76358412D01*
X111101138Y-76356433D01*
X111099126Y-76354469D01*
X111097101Y-76352520D01*
X111095063Y-76350585D01*
X111093010Y-76348665D01*
X111090945Y-76346760D01*
X111088866Y-76344870D01*
X111086775Y-76342995D01*
X111084670Y-76341136D01*
X111082552Y-76339292D01*
X111080422Y-76337463D01*
X111078280Y-76335650D01*
X111076124Y-76333852D01*
X111073957Y-76332071D01*
X111071777Y-76330305D01*
X111069585Y-76328555D01*
X111067381Y-76326821D01*
X111065166Y-76325104D01*
X111062938Y-76323402D01*
X111060699Y-76321717D01*
X111058448Y-76320048D01*
X111056187Y-76318396D01*
X111053913Y-76316760D01*
X111051630Y-76315142D01*
X111049334Y-76313539D01*
X111047029Y-76311954D01*
X111044712Y-76310385D01*
X111042385Y-76308834D01*
X111040047Y-76307300D01*
X111037699Y-76305783D01*
X111035340Y-76304282D01*
X111032973Y-76302800D01*
X111030594Y-76301335D01*
X111028206Y-76299887D01*
X111025808Y-76298456D01*
X111023401Y-76297044D01*
X111020983Y-76295649D01*
X111018558Y-76294272D01*
X111016122Y-76292912D01*
X111013678Y-76291571D01*
X111011224Y-76290247D01*
X111008762Y-76288941D01*
X111006291Y-76287653D01*
X111003812Y-76286384D01*
X111001323Y-76285132D01*
X110998827Y-76283900D01*
X110996322Y-76282684D01*
X110993810Y-76281488D01*
X110991289Y-76280309D01*
X110988761Y-76279150D01*
X110986224Y-76278008D01*
X110983681Y-76276886D01*
X110981128Y-76275781D01*
X110978570Y-76274696D01*
X110976003Y-76273629D01*
X110973431Y-76272581D01*
X110970850Y-76271551D01*
X110968263Y-76270541D01*
X110965668Y-76269549D01*
X110963068Y-76268576D01*
X110960460Y-76267622D01*
X110957847Y-76266687D01*
X110955226Y-76265771D01*
X110952600Y-76264874D01*
X110949967Y-76263996D01*
X110947329Y-76263137D01*
X110944683Y-76262297D01*
X110942034Y-76261477D01*
X110939376Y-76260675D01*
X110936716Y-76259893D01*
X110934047Y-76259130D01*
X110931375Y-76258387D01*
X110928696Y-76257662D01*
X110926014Y-76256957D01*
X110923324Y-76256271D01*
X110920632Y-76255605D01*
X110917932Y-76254958D01*
X110915230Y-76254331D01*
X110912520Y-76253723D01*
X110909809Y-76253135D01*
X110907090Y-76252566D01*
X110904370Y-76252017D01*
X110901642Y-76251487D01*
X110898913Y-76250977D01*
X110896177Y-76250486D01*
X110893440Y-76250015D01*
X110890696Y-76249564D01*
X110887950Y-76249132D01*
X110885199Y-76248720D01*
X110882446Y-76248328D01*
X110879686Y-76247955D01*
X110876926Y-76247602D01*
X110874160Y-76247269D01*
X110871392Y-76246956D01*
X110868619Y-76246662D01*
X110865845Y-76246389D01*
X110863066Y-76246135D01*
X110860285Y-76245901D01*
X110857500Y-76245686D01*
X110854713Y-76245492D01*
X110851922Y-76245317D01*
X110849130Y-76245163D01*
X110846332Y-76245028D01*
X110843535Y-76244914D01*
X110840732Y-76244819D01*
X110837929Y-76244744D01*
X110835122Y-76244689D01*
X110832314Y-76244654D01*
X110829502Y-76244640D01*
X110828829Y-76244639D01*
X111610339Y-95400000D02*
X111614918Y-95399960D01*
X111619486Y-95399841D01*
X111624045Y-95399641D01*
X111628592Y-95399363D01*
X111633128Y-95399005D01*
X111637651Y-95398569D01*
X111642161Y-95398053D01*
X111646658Y-95397459D01*
X111651139Y-95396786D01*
X111655605Y-95396035D01*
X111660055Y-95395205D01*
X111664487Y-95394298D01*
X111668901Y-95393313D01*
X111673297Y-95392250D01*
X111677672Y-95391110D01*
X111682027Y-95389893D01*
X111686360Y-95388599D01*
X111690670Y-95387229D01*
X111694956Y-95385783D01*
X111699217Y-95384260D01*
X111703452Y-95382662D01*
X111707661Y-95380989D01*
X111711841Y-95379241D01*
X111715992Y-95377419D01*
X111720113Y-95375523D01*
X111724202Y-95373553D01*
X111728258Y-95371511D01*
X111732281Y-95369396D01*
X111736268Y-95367209D01*
X111740219Y-95364951D01*
X111744133Y-95362623D01*
X111748008Y-95360224D01*
X111751843Y-95357757D01*
X111755637Y-95355220D01*
X111759388Y-95352616D01*
X111763096Y-95349945D01*
X111766759Y-95347208D01*
X111770376Y-95344405D01*
X111773945Y-95341538D01*
X111777466Y-95338607D01*
X111780938Y-95335614D01*
X111784358Y-95332559D01*
X111787726Y-95329443D01*
X111791040Y-95326268D01*
X111794300Y-95323034D01*
X111797505Y-95319743D01*
X111799086Y-95318076D01*
X111800653Y-95316395D01*
X111802205Y-95314701D01*
X111803742Y-95312993D01*
X111805265Y-95311271D01*
X111806773Y-95309535D01*
X111808266Y-95307787D01*
X111809744Y-95306026D01*
X111811207Y-95304251D01*
X111812654Y-95302464D01*
X111814086Y-95300664D01*
X111815502Y-95298851D01*
X111816902Y-95297027D01*
X111818287Y-95295190D01*
X111819655Y-95293341D01*
X111821008Y-95291480D01*
X111822344Y-95289608D01*
X111823664Y-95287723D01*
X111824967Y-95285828D01*
X111826254Y-95283921D01*
X111827524Y-95282003D01*
X111828778Y-95280074D01*
X111830014Y-95278134D01*
X111831234Y-95276184D01*
X111832437Y-95274223D01*
X111833622Y-95272251D01*
X111834790Y-95270271D01*
X111835942Y-95268279D01*
X111837075Y-95266278D01*
X111838191Y-95264267D01*
X111839289Y-95262247D01*
X111840370Y-95260216D01*
X111841433Y-95258178D01*
X111842478Y-95256129D01*
X111843505Y-95254072D01*
X111844514Y-95252006D01*
X111845505Y-95249932D01*
X111846478Y-95247848D01*
X111847432Y-95245757D01*
X111848369Y-95243657D01*
X111849287Y-95241550D01*
X111850187Y-95239434D01*
X111851067Y-95237312D01*
X111851930Y-95235180D01*
X111852774Y-95233043D01*
X111853600Y-95230897D01*
X111854406Y-95228745D01*
X111855194Y-95226584D01*
X111855963Y-95224419D01*
X111856713Y-95222245D01*
X111857444Y-95220066D01*
X111858157Y-95217879D01*
X111858849Y-95215687D01*
X111859524Y-95213488D01*
X111860179Y-95211284D01*
X111860815Y-95209072D01*
X111861431Y-95206857D01*
X111862029Y-95204634D01*
X111862607Y-95202407D01*
X111863166Y-95200173D01*
X111863705Y-95197936D01*
X111864225Y-95195692D01*
X111864726Y-95193445D01*
X111865207Y-95191191D01*
X111865669Y-95188934D01*
X111866111Y-95186670D01*
X111866534Y-95184404D01*
X111866937Y-95182132D01*
X111867320Y-95179857D01*
X111867685Y-95177576D01*
X111868029Y-95175293D01*
X111868353Y-95173004D01*
X111868658Y-95170714D01*
X111868943Y-95168417D01*
X111869209Y-95166119D01*
X111869454Y-95163815D01*
X111869680Y-95161510D01*
X111869886Y-95159200D01*
X111870072Y-95156888D01*
X111870239Y-95154571D01*
X111870385Y-95152254D01*
X111870512Y-95149931D01*
X111870618Y-95147608D01*
X111870705Y-95145279D01*
X111870772Y-95142951D01*
X111870818Y-95140617D01*
X111870852Y-95136336D01*
X111870852Y-75625025D02*
X111870812Y-75620363D01*
X111870693Y-75615712D01*
X111870493Y-75611071D01*
X111870215Y-75606441D01*
X111869857Y-75601824D01*
X111869421Y-75597219D01*
X111868905Y-75592628D01*
X111868311Y-75588051D01*
X111867639Y-75583490D01*
X111866888Y-75578945D01*
X111866059Y-75574417D01*
X111865152Y-75569908D01*
X111864168Y-75565417D01*
X111863106Y-75560945D01*
X111861967Y-75556495D01*
X111860752Y-75552067D01*
X111859459Y-75547661D01*
X111858091Y-75543280D01*
X111856647Y-75538923D01*
X111855127Y-75534592D01*
X111853533Y-75530289D01*
X111851863Y-75526014D01*
X111850120Y-75521768D01*
X111848302Y-75517553D01*
X111846412Y-75513370D01*
X111844448Y-75509220D01*
X111842413Y-75505104D01*
X111840306Y-75501023D01*
X111838127Y-75496979D01*
X111835879Y-75492972D01*
X111833561Y-75489005D01*
X111831173Y-75485078D01*
X111828718Y-75481193D01*
X111826195Y-75477351D01*
X111823605Y-75473552D01*
X111820950Y-75469799D01*
X111818229Y-75466093D01*
X111815445Y-75462434D01*
X111812597Y-75458824D01*
X111809687Y-75455265D01*
X111806716Y-75451757D01*
X111803684Y-75448301D01*
X111800594Y-75444900D01*
X111799026Y-75443219D01*
X111797445Y-75441553D01*
X111795849Y-75439901D01*
X111794239Y-75438262D01*
X111792615Y-75436638D01*
X111790977Y-75435029D01*
X111789326Y-75433434D01*
X111787661Y-75431854D01*
X111785982Y-75430289D01*
X111784291Y-75428738D01*
X111782586Y-75427203D01*
X111780868Y-75425683D01*
X111779137Y-75424178D01*
X111777394Y-75422689D01*
X111775638Y-75421216D01*
X111773870Y-75419758D01*
X111772089Y-75418316D01*
X111770297Y-75416890D01*
X111768492Y-75415480D01*
X111766676Y-75414086D01*
X111764848Y-75412709D01*
X111763009Y-75411348D01*
X111761158Y-75410003D01*
X111759296Y-75408675D01*
X111757424Y-75407365D01*
X111755539Y-75406070D01*
X111753646Y-75404793D01*
X111751740Y-75403532D01*
X111749825Y-75402290D01*
X111747899Y-75401063D01*
X111745964Y-75399855D01*
X111744018Y-75398664D01*
X111742064Y-75397490D01*
X111740098Y-75396334D01*
X111738124Y-75395196D01*
X111736140Y-75394075D01*
X111734148Y-75392972D01*
X111732145Y-75391887D01*
X111730135Y-75390820D01*
X111728115Y-75389771D01*
X111726088Y-75388741D01*
X111724051Y-75387728D01*
X111722007Y-75386734D01*
X111719954Y-75385758D01*
X111717894Y-75384800D01*
X111715825Y-75383861D01*
X111713750Y-75382941D01*
X111711665Y-75382038D01*
X111709575Y-75381155D01*
X111707476Y-75380290D01*
X111705372Y-75379445D01*
X111703259Y-75378617D01*
X111701141Y-75377809D01*
X111699014Y-75377020D01*
X111696883Y-75376250D01*
X111694743Y-75375498D01*
X111692599Y-75374766D01*
X111690447Y-75374052D01*
X111688291Y-75373358D01*
X111686127Y-75372683D01*
X111683960Y-75372028D01*
X111681784Y-75371391D01*
X111679606Y-75370774D01*
X111677419Y-75370175D01*
X111675230Y-75369597D01*
X111673034Y-75369038D01*
X111670834Y-75368498D01*
X111668628Y-75367977D01*
X111666419Y-75367477D01*
X111664203Y-75366995D01*
X111661985Y-75366533D01*
X111659760Y-75366091D01*
X111657533Y-75365668D01*
X111655300Y-75365265D01*
X111653064Y-75364881D01*
X111650823Y-75364517D01*
X111648580Y-75364173D01*
X111646331Y-75363849D01*
X111644080Y-75363544D01*
X111641824Y-75363259D01*
X111639567Y-75362994D01*
X111637303Y-75362748D01*
X111635039Y-75362523D01*
X111632769Y-75362317D01*
X111630499Y-75362131D01*
X111628223Y-75361964D01*
X111625947Y-75361818D01*
X111623665Y-75361692D01*
X111621384Y-75361586D01*
X111619097Y-75361499D01*
X111616810Y-75361433D01*
X111614518Y-75361386D01*
X111610339Y-75361353D01*
D12*
%TO.C,F1*%
X101135000Y-53595000D02*
X101135000Y-73405000D01*
X101135000Y-73405000D02*
X107865000Y-73405000D01*
X107865000Y-53595000D02*
X101135000Y-53595000D01*
X107865000Y-73405000D02*
X107865000Y-53595000D01*
D13*
%TO.C,K1*%
X113312500Y-57162500D02*
X113312500Y-84962500D01*
X113312500Y-84962500D02*
X125812500Y-84962500D01*
X114312500Y-56162500D02*
X113312500Y-57162500D01*
X117312500Y-58462500D02*
X121812500Y-58462500D01*
X125812500Y-56162500D02*
X114312500Y-56162500D01*
X125812500Y-84962500D02*
X125812500Y-56162500D01*
%TO.C,D1*%
X117700000Y-52500000D02*
X122300000Y-52500000D01*
X117700000Y-55500000D02*
X117700000Y-52500000D01*
X117700000Y-55500000D02*
X122300000Y-55500000D01*
X119498820Y-53249680D02*
X119498820Y-54799080D01*
X119498820Y-53998980D02*
X118500600Y-53998980D01*
X120649440Y-53998980D02*
X119498820Y-53249680D01*
X120649440Y-53998980D02*
X119498820Y-54799080D01*
X120649440Y-53998980D02*
X121551140Y-53998980D01*
X120649440Y-54799080D02*
X120649440Y-53198880D01*
X122300000Y-52500000D02*
X122300000Y-55500000D01*
D14*
%TO.C,J2*%
X114800000Y-41400000D02*
X114800000Y-51560000D01*
X114800000Y-41400000D02*
X115068520Y-41400000D01*
X115068520Y-41400000D02*
X115866617Y-41400000D01*
X115068520Y-51560000D02*
X114800000Y-51560000D01*
X115866617Y-51560000D02*
X115068520Y-51560000D01*
X115866617Y-51560000D02*
X115866617Y-41400000D01*
X115866617Y-51560000D02*
X116796508Y-51560000D01*
X116796508Y-41400000D02*
X115866617Y-41400000D01*
X116796508Y-41400000D02*
X117072747Y-41400000D01*
X117072747Y-41400000D02*
X117072747Y-51560000D01*
X117072747Y-41400000D02*
X117372565Y-41400000D01*
X117072747Y-51560000D02*
X116796508Y-51560000D01*
X117372565Y-41400000D02*
X123000000Y-41400000D01*
X117372565Y-51560000D02*
X117072747Y-51560000D01*
X118300000Y-43940000D02*
X122700000Y-43940000D01*
X118300000Y-49020000D02*
X122700000Y-49020000D01*
X118932001Y-42866976D02*
X121573024Y-45507999D01*
X118932001Y-47946976D02*
X121573024Y-50587999D01*
X120500000Y-41740000D02*
X120500000Y-46140000D01*
X120500000Y-46820000D02*
X120500000Y-51220000D01*
X122067998Y-45013024D02*
X119426976Y-42372002D01*
X122067998Y-50093024D02*
X119426976Y-47452002D01*
X123000000Y-41400000D02*
X123000000Y-51560000D01*
X123000000Y-41400000D02*
X125700000Y-41400000D01*
X123000000Y-51560000D02*
X117372565Y-51560000D01*
X123743040Y-51867026D02*
X123743040Y-52130000D01*
X123893000Y-51560000D02*
X123000000Y-51560000D01*
X123893000Y-51560000D02*
X123893000Y-51688691D01*
X123893000Y-51688691D02*
X123743040Y-51867026D01*
X124307000Y-51560000D02*
X123893000Y-51560000D01*
X124307000Y-51688691D02*
X124307000Y-51560000D01*
X124456959Y-51867026D02*
X124307000Y-51688691D01*
X124456959Y-52130000D02*
X123743040Y-52130000D01*
X124456959Y-52130000D02*
X124456959Y-51867026D01*
X125700000Y-41400000D02*
X126000000Y-41400000D01*
X125700000Y-51560000D02*
X124307000Y-51560000D01*
X126000000Y-51560000D02*
X125700000Y-51560000D01*
X126000000Y-51560000D02*
X126000000Y-41400000D01*
X118932001Y-42866976D02*
G75*
G02*
X119426976Y-42372001I1567999J-1073024D01*
G01*
X118932001Y-47946976D02*
G75*
G02*
X119426976Y-47452002I1567988J-1073017D01*
G01*
X119426976Y-42372002D02*
G75*
G02*
X122067998Y-45013024I1073024J-1567998D01*
G01*
X119426976Y-47452002D02*
G75*
G02*
X122067998Y-50093024I1073025J-1567997D01*
G01*
X121573024Y-45507999D02*
G75*
G02*
X118932001Y-42866976I-1073024J1567999D01*
G01*
X121573024Y-50587999D02*
G75*
G02*
X118932001Y-47946976I-1073024J1567999D01*
G01*
X122067998Y-45013024D02*
G75*
G02*
X121573024Y-45507998I-1567998J1073024D01*
G01*
X122067998Y-50093024D02*
G75*
G02*
X121573024Y-50587999I-1567991J1073013D01*
G01*
X119258257Y-46480000D02*
G75*
G02*
X118341743Y-46480000I-458257J0D01*
G01*
X118341743Y-46480000D02*
G75*
G02*
X119258257Y-46480000I458257J0D01*
G01*
X122500000Y-43940000D02*
G75*
G02*
X118500000Y-43940000I-2000000J0D01*
G01*
X118500000Y-43940000D02*
G75*
G02*
X122500000Y-43940000I2000000J0D01*
G01*
X122500000Y-49020000D02*
G75*
G02*
X118500000Y-49020000I-2000000J0D01*
G01*
X118500000Y-49020000D02*
G75*
G02*
X122500000Y-49020000I2000000J0D01*
G01*
%TO.C,J1*%
X101000000Y-41440000D02*
X101000000Y-51600000D01*
X101000000Y-41440000D02*
X101300000Y-41440000D01*
X101300000Y-41440000D02*
X102693000Y-41440000D01*
X101300000Y-51600000D02*
X101000000Y-51600000D01*
X102543041Y-40870000D02*
X102543041Y-41132974D01*
X102543041Y-40870000D02*
X103256960Y-40870000D01*
X102543041Y-41132974D02*
X102693000Y-41311309D01*
X102693000Y-41311309D02*
X102693000Y-41440000D01*
X102693000Y-41440000D02*
X103107000Y-41440000D01*
X103107000Y-41311309D02*
X103256960Y-41132974D01*
X103107000Y-41440000D02*
X103107000Y-41311309D01*
X103107000Y-41440000D02*
X104000000Y-41440000D01*
X103256960Y-41132974D02*
X103256960Y-40870000D01*
X104000000Y-41440000D02*
X109627435Y-41440000D01*
X104000000Y-51600000D02*
X101300000Y-51600000D01*
X104000000Y-51600000D02*
X104000000Y-41440000D01*
X104932002Y-42906976D02*
X107573024Y-45547998D01*
X104932002Y-47986976D02*
X107573024Y-50627998D01*
X106500000Y-46180000D02*
X106500000Y-41780000D01*
X106500000Y-51260000D02*
X106500000Y-46860000D01*
X108067999Y-45053024D02*
X105426976Y-42412001D01*
X108067999Y-50133024D02*
X105426976Y-47492001D01*
X108700000Y-43980000D02*
X104300000Y-43980000D01*
X108700000Y-49060000D02*
X104300000Y-49060000D01*
X109627435Y-41440000D02*
X109927253Y-41440000D01*
X109627435Y-51600000D02*
X104000000Y-51600000D01*
X109927253Y-41440000D02*
X110203492Y-41440000D01*
X109927253Y-51600000D02*
X109627435Y-51600000D01*
X109927253Y-51600000D02*
X109927253Y-41440000D01*
X110203492Y-51600000D02*
X109927253Y-51600000D01*
X110203492Y-51600000D02*
X111133383Y-51600000D01*
X111133383Y-41440000D02*
X110203492Y-41440000D01*
X111133383Y-41440000D02*
X111133383Y-51600000D01*
X111133383Y-41440000D02*
X111931480Y-41440000D01*
X111931480Y-41440000D02*
X112200000Y-41440000D01*
X111931480Y-51600000D02*
X111133383Y-51600000D01*
X112200000Y-51600000D02*
X111931480Y-51600000D01*
X112200000Y-51600000D02*
X112200000Y-41440000D01*
X104932002Y-42906976D02*
G75*
G02*
X105426976Y-42412001I1567991J-1073013D01*
G01*
X104932002Y-47986976D02*
G75*
G02*
X105426976Y-47492002I1567998J-1073024D01*
G01*
X105426976Y-42412001D02*
G75*
G02*
X108067999Y-45053024I1073024J-1567999D01*
G01*
X105426976Y-47492001D02*
G75*
G02*
X108067999Y-50133024I1073024J-1567999D01*
G01*
X107573024Y-45547998D02*
G75*
G02*
X104932002Y-42906976I-1073025J1567997D01*
G01*
X107573024Y-50627998D02*
G75*
G02*
X104932002Y-47986976I-1073024J1567998D01*
G01*
X108067999Y-45053024D02*
G75*
G02*
X107573024Y-45547998I-1567988J1073017D01*
G01*
X108067999Y-50133024D02*
G75*
G02*
X107573024Y-50627999I-1567999J1073024D01*
G01*
X108500000Y-43980000D02*
G75*
G02*
X104500000Y-43980000I-2000000J0D01*
G01*
X104500000Y-43980000D02*
G75*
G02*
X108500000Y-43980000I2000000J0D01*
G01*
X108500000Y-49060000D02*
G75*
G02*
X104500000Y-49060000I-2000000J0D01*
G01*
X104500000Y-49060000D02*
G75*
G02*
X108500000Y-49060000I2000000J0D01*
G01*
X108658257Y-46520000D02*
G75*
G02*
X107741743Y-46520000I-458257J0D01*
G01*
X107741743Y-46520000D02*
G75*
G02*
X108658257Y-46520000I458257J0D01*
G01*
%TO.C,J3*%
X100290000Y-107456959D02*
X100290000Y-106743040D01*
X100290000Y-107456959D02*
X100552974Y-107456959D01*
X100552974Y-106743040D02*
X100290000Y-106743040D01*
X100552974Y-107456959D02*
X100731309Y-107307000D01*
X100731309Y-106893000D02*
X100552974Y-106743040D01*
X100731309Y-107307000D02*
X100860000Y-107307000D01*
X100860000Y-98068520D02*
X100860000Y-97800000D01*
X100860000Y-98866617D02*
X100860000Y-98068520D01*
X100860000Y-98866617D02*
X100860000Y-99796508D01*
X100860000Y-98866617D02*
X116100000Y-98866617D01*
X100860000Y-100072747D02*
X100860000Y-99796508D01*
X100860000Y-100372565D02*
X100860000Y-100072747D01*
X100860000Y-106000000D02*
X100860000Y-100372565D01*
X100860000Y-106893000D02*
X100731309Y-106893000D01*
X100860000Y-106893000D02*
X100860000Y-106000000D01*
X100860000Y-107307000D02*
X100860000Y-106893000D01*
X100860000Y-108700000D02*
X100860000Y-107307000D01*
X100860000Y-109000000D02*
X100860000Y-108700000D01*
X100860000Y-109000000D02*
X116100000Y-109000000D01*
X102326976Y-105067998D02*
X104967998Y-102426976D01*
X103400000Y-101300000D02*
X103400000Y-105700000D01*
X104473024Y-101932001D02*
X101832001Y-104573024D01*
X105600000Y-103500000D02*
X101200000Y-103500000D01*
X107406976Y-105067998D02*
X110047998Y-102426976D01*
X108480000Y-101300000D02*
X108480000Y-105700000D01*
X109553024Y-101932001D02*
X106912001Y-104573024D01*
X110680000Y-103500000D02*
X106280000Y-103500000D01*
X112486976Y-105067998D02*
X115127998Y-102426976D01*
X113560000Y-101300000D02*
X113560000Y-105700000D01*
X114633024Y-101932001D02*
X111992001Y-104573024D01*
X115760000Y-103500000D02*
X111360000Y-103500000D01*
X116100000Y-97800000D02*
X100860000Y-97800000D01*
X116100000Y-97800000D02*
X116100000Y-98068520D01*
X116100000Y-98068520D02*
X116100000Y-98866617D01*
X116100000Y-99796508D02*
X116100000Y-98866617D01*
X116100000Y-99796508D02*
X116100000Y-100072747D01*
X116100000Y-100072747D02*
X100860000Y-100072747D01*
X116100000Y-100072747D02*
X116100000Y-100372565D01*
X116100000Y-100372565D02*
X116100000Y-106000000D01*
X116100000Y-106000000D02*
X100860000Y-106000000D01*
X116100000Y-106000000D02*
X116100000Y-108700000D01*
X116100000Y-108700000D02*
X116100000Y-109000000D01*
X101832001Y-104573024D02*
G75*
G02*
X104473024Y-101932001I1567999J1073024D01*
G01*
X102326976Y-105067998D02*
G75*
G02*
X101832001Y-104573024I1073013J1567991D01*
G01*
X104473024Y-101932001D02*
G75*
G02*
X104967998Y-102426976I-1073017J-1567988D01*
G01*
X104967998Y-102426976D02*
G75*
G02*
X102326976Y-105067998I-1567997J-1073025D01*
G01*
X106912001Y-104573024D02*
G75*
G02*
X109553024Y-101932001I1567999J1073024D01*
G01*
X107406976Y-105067998D02*
G75*
G02*
X106912001Y-104573024I1073013J1567991D01*
G01*
X109553024Y-101932001D02*
G75*
G02*
X110047998Y-102426976I-1073017J-1567988D01*
G01*
X110047998Y-102426976D02*
G75*
G02*
X107406976Y-105067998I-1567997J-1073025D01*
G01*
X111992001Y-104573024D02*
G75*
G02*
X114633024Y-101932001I1567999J1073024D01*
G01*
X112486976Y-105067998D02*
G75*
G02*
X111992002Y-104573024I1073024J1567998D01*
G01*
X114633024Y-101932001D02*
G75*
G02*
X115127999Y-102426976I-1073024J-1567999D01*
G01*
X115127998Y-102426976D02*
G75*
G02*
X112486976Y-105067998I-1567998J-1073024D01*
G01*
X105400000Y-103500000D02*
G75*
G02*
X101400000Y-103500000I-2000000J0D01*
G01*
X101400000Y-103500000D02*
G75*
G02*
X105400000Y-103500000I2000000J0D01*
G01*
X106398257Y-101800000D02*
G75*
G02*
X105481743Y-101800000I-458257J0D01*
G01*
X105481743Y-101800000D02*
G75*
G02*
X106398257Y-101800000I458257J0D01*
G01*
X110480000Y-103500000D02*
G75*
G02*
X106480000Y-103500000I-2000000J0D01*
G01*
X106480000Y-103500000D02*
G75*
G02*
X110480000Y-103500000I2000000J0D01*
G01*
X111478257Y-101800000D02*
G75*
G02*
X110561743Y-101800000I-458257J0D01*
G01*
X110561743Y-101800000D02*
G75*
G02*
X111478257Y-101800000I458257J0D01*
G01*
X115560000Y-103500000D02*
G75*
G02*
X111560000Y-103500000I-2000000J0D01*
G01*
X111560000Y-103500000D02*
G75*
G02*
X115560000Y-103500000I2000000J0D01*
G01*
%TO.C,J4*%
X117870000Y-107456959D02*
X117870000Y-106743040D01*
X117870000Y-107456959D02*
X118132974Y-107456959D01*
X118132974Y-106743040D02*
X117870000Y-106743040D01*
X118132974Y-107456959D02*
X118311309Y-107307000D01*
X118311309Y-106893000D02*
X118132974Y-106743040D01*
X118311309Y-107307000D02*
X118440000Y-107307000D01*
X118440000Y-98068520D02*
X118440000Y-97800000D01*
X118440000Y-98866617D02*
X118440000Y-98068520D01*
X118440000Y-98866617D02*
X118440000Y-99796508D01*
X118440000Y-98866617D02*
X128600000Y-98866617D01*
X118440000Y-100072747D02*
X118440000Y-99796508D01*
X118440000Y-100372565D02*
X118440000Y-100072747D01*
X118440000Y-106000000D02*
X118440000Y-100372565D01*
X118440000Y-106893000D02*
X118311309Y-106893000D01*
X118440000Y-106893000D02*
X118440000Y-106000000D01*
X118440000Y-107307000D02*
X118440000Y-106893000D01*
X118440000Y-108700000D02*
X118440000Y-107307000D01*
X118440000Y-109000000D02*
X118440000Y-108700000D01*
X118440000Y-109000000D02*
X128600000Y-109000000D01*
X119906976Y-105067998D02*
X122547998Y-102426976D01*
X120980000Y-101300000D02*
X120980000Y-105700000D01*
X122053024Y-101932001D02*
X119412001Y-104573024D01*
X123180000Y-103500000D02*
X118780000Y-103500000D01*
X124986976Y-105067998D02*
X127627998Y-102426976D01*
X126060000Y-101300000D02*
X126060000Y-105700000D01*
X127133024Y-101932001D02*
X124492001Y-104573024D01*
X128260000Y-103500000D02*
X123860000Y-103500000D01*
X128600000Y-97800000D02*
X118440000Y-97800000D01*
X128600000Y-97800000D02*
X128600000Y-98068520D01*
X128600000Y-98068520D02*
X128600000Y-98866617D01*
X128600000Y-99796508D02*
X128600000Y-98866617D01*
X128600000Y-99796508D02*
X128600000Y-100072747D01*
X128600000Y-100072747D02*
X118440000Y-100072747D01*
X128600000Y-100072747D02*
X128600000Y-100372565D01*
X128600000Y-100372565D02*
X128600000Y-106000000D01*
X128600000Y-106000000D02*
X118440000Y-106000000D01*
X128600000Y-106000000D02*
X128600000Y-108700000D01*
X128600000Y-108700000D02*
X128600000Y-109000000D01*
X119412001Y-104573024D02*
G75*
G02*
X122053024Y-101932001I1567999J1073024D01*
G01*
X119906976Y-105067998D02*
G75*
G02*
X119412001Y-104573024I1073013J1567991D01*
G01*
X122053024Y-101932001D02*
G75*
G02*
X122547998Y-102426976I-1073017J-1567988D01*
G01*
X122547998Y-102426976D02*
G75*
G02*
X119906976Y-105067998I-1567997J-1073025D01*
G01*
X124492001Y-104573024D02*
G75*
G02*
X127133024Y-101932001I1567999J1073024D01*
G01*
X124986976Y-105067998D02*
G75*
G02*
X124492002Y-104573024I1073024J1567998D01*
G01*
X127133024Y-101932001D02*
G75*
G02*
X127627999Y-102426976I-1073024J-1567999D01*
G01*
X127627998Y-102426976D02*
G75*
G02*
X124986976Y-105067998I-1567998J-1073024D01*
G01*
X122980000Y-103500000D02*
G75*
G02*
X118980000Y-103500000I-2000000J0D01*
G01*
X118980000Y-103500000D02*
G75*
G02*
X122980000Y-103500000I2000000J0D01*
G01*
X123978257Y-101800000D02*
G75*
G02*
X123061743Y-101800000I-458257J0D01*
G01*
X123061743Y-101800000D02*
G75*
G02*
X123978257Y-101800000I458257J0D01*
G01*
X128060000Y-103500000D02*
G75*
G02*
X124060000Y-103500000I-2000000J0D01*
G01*
X124060000Y-103500000D02*
G75*
G02*
X128060000Y-103500000I2000000J0D01*
G01*
%TD*%
M02*
