%TF.GenerationSoftware,KiCad,Pcbnew,9.0.8-9.0.8~ubuntu24.04.1*%
%TF.CreationDate,2026-03-21T21:39:10+01:00*%
%TF.ProjectId,Relais-Karte,52656c61-6973-42d4-9b61-7274652e6b69,V1.0*%
%TF.SameCoordinates,Original*%
%TF.FileFunction,Other,User*%
%FSLAX46Y46*%
G04 Gerber Fmt 4.6, Leading zero omitted, Abs format (unit mm)*
G04 Created by KiCad (PCBNEW 9.0.8-9.0.8~ubuntu24.04.1) date 2026-03-21 21:39:10*
%MOMM*%
%LPD*%
G01*
G04 APERTURE LIST*
%ADD10C,0.150000*%
%ADD11C,0.100000*%
G04 APERTURE END LIST*
D10*
X112226191Y-114304819D02*
X112845238Y-114304819D01*
X112845238Y-114304819D02*
X112511905Y-114685771D01*
X112511905Y-114685771D02*
X112654762Y-114685771D01*
X112654762Y-114685771D02*
X112750000Y-114733390D01*
X112750000Y-114733390D02*
X112797619Y-114781009D01*
X112797619Y-114781009D02*
X112845238Y-114876247D01*
X112845238Y-114876247D02*
X112845238Y-115114342D01*
X112845238Y-115114342D02*
X112797619Y-115209580D01*
X112797619Y-115209580D02*
X112750000Y-115257200D01*
X112750000Y-115257200D02*
X112654762Y-115304819D01*
X112654762Y-115304819D02*
X112369048Y-115304819D01*
X112369048Y-115304819D02*
X112273810Y-115257200D01*
X112273810Y-115257200D02*
X112226191Y-115209580D01*
X113416667Y-114733390D02*
X113321429Y-114685771D01*
X113321429Y-114685771D02*
X113273810Y-114638152D01*
X113273810Y-114638152D02*
X113226191Y-114542914D01*
X113226191Y-114542914D02*
X113226191Y-114495295D01*
X113226191Y-114495295D02*
X113273810Y-114400057D01*
X113273810Y-114400057D02*
X113321429Y-114352438D01*
X113321429Y-114352438D02*
X113416667Y-114304819D01*
X113416667Y-114304819D02*
X113607143Y-114304819D01*
X113607143Y-114304819D02*
X113702381Y-114352438D01*
X113702381Y-114352438D02*
X113750000Y-114400057D01*
X113750000Y-114400057D02*
X113797619Y-114495295D01*
X113797619Y-114495295D02*
X113797619Y-114542914D01*
X113797619Y-114542914D02*
X113750000Y-114638152D01*
X113750000Y-114638152D02*
X113702381Y-114685771D01*
X113702381Y-114685771D02*
X113607143Y-114733390D01*
X113607143Y-114733390D02*
X113416667Y-114733390D01*
X113416667Y-114733390D02*
X113321429Y-114781009D01*
X113321429Y-114781009D02*
X113273810Y-114828628D01*
X113273810Y-114828628D02*
X113226191Y-114923866D01*
X113226191Y-114923866D02*
X113226191Y-115114342D01*
X113226191Y-115114342D02*
X113273810Y-115209580D01*
X113273810Y-115209580D02*
X113321429Y-115257200D01*
X113321429Y-115257200D02*
X113416667Y-115304819D01*
X113416667Y-115304819D02*
X113607143Y-115304819D01*
X113607143Y-115304819D02*
X113702381Y-115257200D01*
X113702381Y-115257200D02*
X113750000Y-115209580D01*
X113750000Y-115209580D02*
X113797619Y-115114342D01*
X113797619Y-115114342D02*
X113797619Y-114923866D01*
X113797619Y-114923866D02*
X113750000Y-114828628D01*
X113750000Y-114828628D02*
X113702381Y-114781009D01*
X113702381Y-114781009D02*
X113607143Y-114733390D01*
X114226191Y-115209580D02*
X114273810Y-115257200D01*
X114273810Y-115257200D02*
X114226191Y-115304819D01*
X114226191Y-115304819D02*
X114178572Y-115257200D01*
X114178572Y-115257200D02*
X114226191Y-115209580D01*
X114226191Y-115209580D02*
X114226191Y-115304819D01*
X115178571Y-114304819D02*
X114702381Y-114304819D01*
X114702381Y-114304819D02*
X114654762Y-114781009D01*
X114654762Y-114781009D02*
X114702381Y-114733390D01*
X114702381Y-114733390D02*
X114797619Y-114685771D01*
X114797619Y-114685771D02*
X115035714Y-114685771D01*
X115035714Y-114685771D02*
X115130952Y-114733390D01*
X115130952Y-114733390D02*
X115178571Y-114781009D01*
X115178571Y-114781009D02*
X115226190Y-114876247D01*
X115226190Y-114876247D02*
X115226190Y-115114342D01*
X115226190Y-115114342D02*
X115178571Y-115209580D01*
X115178571Y-115209580D02*
X115130952Y-115257200D01*
X115130952Y-115257200D02*
X115035714Y-115304819D01*
X115035714Y-115304819D02*
X114797619Y-115304819D01*
X114797619Y-115304819D02*
X114702381Y-115257200D01*
X114702381Y-115257200D02*
X114654762Y-115209580D01*
D11*
X94500000Y-113000000D02*
X94500000Y-116586420D01*
X133000000Y-116586420D02*
X133000000Y-114500000D01*
X94500000Y-116000000D02*
X133000000Y-116000000D01*
X94500000Y-116000000D02*
X95626504Y-115413579D01*
X94500000Y-116000000D02*
X95626504Y-116586421D01*
X133000000Y-116000000D02*
X131873496Y-116586421D01*
X133000000Y-116000000D02*
X131873496Y-115413579D01*
D10*
X89304819Y-77773808D02*
X89304819Y-77107142D01*
X89304819Y-77107142D02*
X90304819Y-77535713D01*
X89304819Y-76249999D02*
X89304819Y-76726189D01*
X89304819Y-76726189D02*
X89781009Y-76773808D01*
X89781009Y-76773808D02*
X89733390Y-76726189D01*
X89733390Y-76726189D02*
X89685771Y-76630951D01*
X89685771Y-76630951D02*
X89685771Y-76392856D01*
X89685771Y-76392856D02*
X89733390Y-76297618D01*
X89733390Y-76297618D02*
X89781009Y-76249999D01*
X89781009Y-76249999D02*
X89876247Y-76202380D01*
X89876247Y-76202380D02*
X90114342Y-76202380D01*
X90114342Y-76202380D02*
X90209580Y-76249999D01*
X90209580Y-76249999D02*
X90257200Y-76297618D01*
X90257200Y-76297618D02*
X90304819Y-76392856D01*
X90304819Y-76392856D02*
X90304819Y-76630951D01*
X90304819Y-76630951D02*
X90257200Y-76726189D01*
X90257200Y-76726189D02*
X90209580Y-76773808D01*
X90209580Y-75773808D02*
X90257200Y-75726189D01*
X90257200Y-75726189D02*
X90304819Y-75773808D01*
X90304819Y-75773808D02*
X90257200Y-75821427D01*
X90257200Y-75821427D02*
X90209580Y-75773808D01*
X90209580Y-75773808D02*
X90304819Y-75773808D01*
X89304819Y-74821428D02*
X89304819Y-75297618D01*
X89304819Y-75297618D02*
X89781009Y-75345237D01*
X89781009Y-75345237D02*
X89733390Y-75297618D01*
X89733390Y-75297618D02*
X89685771Y-75202380D01*
X89685771Y-75202380D02*
X89685771Y-74964285D01*
X89685771Y-74964285D02*
X89733390Y-74869047D01*
X89733390Y-74869047D02*
X89781009Y-74821428D01*
X89781009Y-74821428D02*
X89876247Y-74773809D01*
X89876247Y-74773809D02*
X90114342Y-74773809D01*
X90114342Y-74773809D02*
X90209580Y-74821428D01*
X90209580Y-74821428D02*
X90257200Y-74869047D01*
X90257200Y-74869047D02*
X90304819Y-74964285D01*
X90304819Y-74964285D02*
X90304819Y-75202380D01*
X90304819Y-75202380D02*
X90257200Y-75297618D01*
X90257200Y-75297618D02*
X90209580Y-75345237D01*
D11*
X94000000Y-114000000D02*
X90413580Y-114000000D01*
X90413580Y-38500000D02*
X94000000Y-38500000D01*
X91000000Y-114000000D02*
X91000000Y-38500000D01*
X91000000Y-114000000D02*
X90413579Y-112873496D01*
X91000000Y-114000000D02*
X91586421Y-112873496D01*
X91000000Y-38500000D02*
X91586421Y-39626504D01*
X91000000Y-38500000D02*
X90413579Y-39626504D01*
M02*
