%TF.GenerationSoftware,KiCad,Pcbnew,10.0.0-10.0.0~ubuntu24.04.1*%
%TF.CreationDate,2026-04-23T21:58:58+02:00*%
%TF.ProjectId,Relais-Karte,52656c61-6973-42d4-9b61-7274652e6b69,V1.1*%
%TF.SameCoordinates,Original*%
%TF.FileFunction,Legend,Bot*%
%TF.FilePolarity,Positive*%
%FSLAX46Y46*%
G04 Gerber Fmt 4.6, Leading zero omitted, Abs format (unit mm)*
G04 Created by KiCad (PCBNEW 10.0.0-10.0.0~ubuntu24.04.1) date 2026-04-23 21:58:58*
%MOMM*%
%LPD*%
G01*
G04 APERTURE LIST*
%ADD10C,0.000000*%
%ADD11C,0.150000*%
%ADD12C,0.100000*%
%ADD13C,0.120000*%
G04 APERTURE END LIST*
D10*
G36*
X116189655Y-97000000D02*
G01*
X115844828Y-97000000D01*
X115844828Y-96310345D01*
X116189655Y-96310345D01*
X116189655Y-97000000D01*
G37*
G36*
X117913793Y-94931034D02*
G01*
X117568966Y-94931034D01*
X117568966Y-94586207D01*
X117913793Y-94586207D01*
X117913793Y-94931034D01*
G37*
G36*
X118258621Y-93551724D02*
G01*
X118603448Y-93551724D01*
X118603448Y-93896552D01*
X118948276Y-93896552D01*
X118948276Y-94241379D01*
X119637931Y-94241379D01*
X119637931Y-94586207D01*
X119982759Y-94586207D01*
X119982759Y-94931034D01*
X120327586Y-94931034D01*
X120327586Y-94586207D01*
X120672414Y-94586207D01*
X120672414Y-94931034D01*
X121017241Y-94931034D01*
X121017241Y-94586207D01*
X120672414Y-94586207D01*
X120327586Y-94586207D01*
X120327586Y-94241379D01*
X119637931Y-94241379D01*
X119637931Y-93896552D01*
X120327586Y-93896552D01*
X120327586Y-93206897D01*
X119637931Y-93206897D01*
X119637931Y-92862069D01*
X119293103Y-92862069D01*
X119293103Y-92517241D01*
X118948276Y-92517241D01*
X118948276Y-92172414D01*
X118948276Y-91827586D01*
X119293103Y-91827586D01*
X119293103Y-91482759D01*
X119293103Y-91137931D01*
X119637931Y-91137931D01*
X119637931Y-90793103D01*
X119637931Y-90103448D01*
X119637931Y-89758621D01*
X119982759Y-89758621D01*
X119982759Y-89413793D01*
X120327586Y-89413793D01*
X120327586Y-89068966D01*
X119982759Y-89068966D01*
X119982759Y-88724138D01*
X119637931Y-88724138D01*
X119637931Y-88379310D01*
X119982759Y-88379310D01*
X119982759Y-88034483D01*
X120327586Y-88034483D01*
X120327586Y-87689655D01*
X120672414Y-87689655D01*
X120672414Y-88034483D01*
X120672414Y-88379310D01*
X120327586Y-88379310D01*
X120327586Y-88724138D01*
X120672414Y-88724138D01*
X120672414Y-89068966D01*
X120672414Y-89413793D01*
X120672414Y-89758621D01*
X120327586Y-89758621D01*
X120327586Y-90103448D01*
X119982759Y-90103448D01*
X119982759Y-90793103D01*
X120327586Y-90793103D01*
X120327586Y-91137931D01*
X119982759Y-91137931D01*
X119982759Y-91482759D01*
X119637931Y-91482759D01*
X119637931Y-91827586D01*
X119982759Y-91827586D01*
X119982759Y-92172414D01*
X119637931Y-92172414D01*
X119637931Y-92517241D01*
X119982759Y-92517241D01*
X119982759Y-92862069D01*
X121017241Y-92862069D01*
X121017241Y-93206897D01*
X120672414Y-93206897D01*
X120672414Y-93896552D01*
X121362069Y-93896552D01*
X121362069Y-93551724D01*
X122051724Y-93551724D01*
X122051724Y-93896552D01*
X122051724Y-94241379D01*
X121706897Y-94241379D01*
X121706897Y-94586207D01*
X122396552Y-94586207D01*
X122396552Y-93896552D01*
X122396552Y-93551724D01*
X122741379Y-93551724D01*
X122741379Y-93206897D01*
X123431034Y-93206897D01*
X123431034Y-93551724D01*
X123086207Y-93551724D01*
X123086207Y-93896552D01*
X122741379Y-93896552D01*
X122741379Y-94586207D01*
X122741379Y-94931034D01*
X121706897Y-94931034D01*
X121706897Y-95275862D01*
X121706897Y-95620690D01*
X122051724Y-95620690D01*
X122051724Y-95965517D01*
X121706897Y-95965517D01*
X121706897Y-96310345D01*
X121706897Y-96655172D01*
X121362069Y-96655172D01*
X121362069Y-97000000D01*
X121017241Y-97000000D01*
X121017241Y-96655172D01*
X120672414Y-96655172D01*
X120672414Y-96310345D01*
X121362069Y-96310345D01*
X121362069Y-95965517D01*
X121362069Y-95620690D01*
X120672414Y-95620690D01*
X120672414Y-95275862D01*
X119982759Y-95275862D01*
X119982759Y-95620690D01*
X119293103Y-95620690D01*
X119293103Y-95275862D01*
X119637931Y-95275862D01*
X119637931Y-94931034D01*
X118948276Y-94931034D01*
X118948276Y-94586207D01*
X118603448Y-94586207D01*
X118603448Y-95275862D01*
X118603448Y-95620690D01*
X118948276Y-95620690D01*
X118948276Y-96310345D01*
X119637931Y-96310345D01*
X119637931Y-96655172D01*
X119982759Y-96655172D01*
X119982759Y-97000000D01*
X119293103Y-97000000D01*
X119293103Y-96655172D01*
X118603448Y-96655172D01*
X118603448Y-97000000D01*
X116534483Y-97000000D01*
X116534483Y-96655172D01*
X116879310Y-96655172D01*
X116879310Y-96310345D01*
X116189655Y-96310345D01*
X116189655Y-95965517D01*
X117224138Y-95965517D01*
X117224138Y-96310345D01*
X117224138Y-96655172D01*
X117913793Y-96655172D01*
X117913793Y-96310345D01*
X118258621Y-96310345D01*
X118258621Y-95620690D01*
X117913793Y-95620690D01*
X117913793Y-95965517D01*
X117224138Y-95965517D01*
X116189655Y-95965517D01*
X115844828Y-95965517D01*
X115844828Y-95620690D01*
X115844828Y-95275862D01*
X116189655Y-95275862D01*
X116189655Y-95620690D01*
X116879310Y-95620690D01*
X116879310Y-95275862D01*
X116189655Y-95275862D01*
X115844828Y-95275862D01*
X115844828Y-94931034D01*
X115844828Y-94586207D01*
X115500000Y-94586207D01*
X115500000Y-94241379D01*
X116189655Y-94241379D01*
X116189655Y-93896552D01*
X116534483Y-93896552D01*
X116534483Y-94241379D01*
X116534483Y-94586207D01*
X116189655Y-94586207D01*
X116189655Y-94931034D01*
X116879310Y-94931034D01*
X116879310Y-94241379D01*
X117224138Y-94241379D01*
X117224138Y-94931034D01*
X117224138Y-95275862D01*
X118258621Y-95275862D01*
X118258621Y-94586207D01*
X118258621Y-94241379D01*
X117224138Y-94241379D01*
X116879310Y-94241379D01*
X116879310Y-93896552D01*
X116879310Y-93206897D01*
X117224138Y-93206897D01*
X117568966Y-93206897D01*
X117568966Y-93896552D01*
X117913793Y-93896552D01*
X117913793Y-93551724D01*
X117913793Y-93206897D01*
X117568966Y-93206897D01*
X117224138Y-93206897D01*
X117224138Y-92862069D01*
X117224138Y-92517241D01*
X117568966Y-92517241D01*
X117568966Y-92862069D01*
X118258621Y-92862069D01*
X118258621Y-92517241D01*
X117568966Y-92517241D01*
X117568966Y-92172414D01*
X116879310Y-92172414D01*
X116879310Y-92517241D01*
X116534483Y-92517241D01*
X116534483Y-92172414D01*
X116189655Y-92172414D01*
X116189655Y-92862069D01*
X115844828Y-92862069D01*
X115844828Y-92172414D01*
X115500000Y-92172414D01*
X115500000Y-91827586D01*
X117913793Y-91827586D01*
X117913793Y-92172414D01*
X118258621Y-92172414D01*
X118258621Y-91827586D01*
X117913793Y-91827586D01*
X117913793Y-91482759D01*
X117568966Y-91482759D01*
X117568966Y-91137931D01*
X118258621Y-91137931D01*
X118258621Y-91482759D01*
X118948276Y-91482759D01*
X118948276Y-91827586D01*
X118603448Y-91827586D01*
X118603448Y-92172414D01*
X118603448Y-92517241D01*
X118603448Y-92862069D01*
X118603448Y-93206897D01*
X118258621Y-93206897D01*
X118258621Y-93551724D01*
G37*
G36*
X122741379Y-96655172D02*
G01*
X122741379Y-97000000D01*
X122051724Y-97000000D01*
X122051724Y-96655172D01*
X122396552Y-96655172D01*
X122396552Y-96310345D01*
X122741379Y-96310345D01*
X122741379Y-96655172D01*
G37*
G36*
X124810345Y-96310345D02*
G01*
X123775862Y-96310345D01*
X123775862Y-95275862D01*
X124810345Y-95275862D01*
X124810345Y-96310345D01*
G37*
G36*
X125500000Y-96655172D02*
G01*
X125500000Y-97000000D01*
X123086207Y-97000000D01*
X123086207Y-96655172D01*
X123086207Y-94931034D01*
X123431034Y-94931034D01*
X123431034Y-96655172D01*
X125155172Y-96655172D01*
X125155172Y-94931034D01*
X123431034Y-94931034D01*
X123086207Y-94931034D01*
X123086207Y-94586207D01*
X125500000Y-94586207D01*
X125500000Y-94931034D01*
X125500000Y-96655172D01*
G37*
G36*
X115844828Y-96310345D02*
G01*
X115500000Y-96310345D01*
X115500000Y-95965517D01*
X115844828Y-95965517D01*
X115844828Y-96310345D01*
G37*
G36*
X120672414Y-96310345D02*
G01*
X120327586Y-96310345D01*
X120327586Y-95620690D01*
X120672414Y-95620690D01*
X120672414Y-96310345D01*
G37*
G36*
X122396552Y-96310345D02*
G01*
X122051724Y-96310345D01*
X122051724Y-95965517D01*
X122396552Y-95965517D01*
X122396552Y-96310345D01*
G37*
G36*
X122741379Y-95965517D02*
G01*
X122396552Y-95965517D01*
X122396552Y-95620690D01*
X122741379Y-95620690D01*
X122741379Y-95965517D01*
G37*
G36*
X123431034Y-94241379D02*
G01*
X123086207Y-94241379D01*
X123086207Y-93896552D01*
X123431034Y-93896552D01*
X123431034Y-94241379D01*
G37*
G36*
X124120690Y-94241379D02*
G01*
X123775862Y-94241379D01*
X123775862Y-93896552D01*
X124120690Y-93896552D01*
X124120690Y-94241379D01*
G37*
G36*
X124810345Y-94241379D02*
G01*
X124465517Y-94241379D01*
X124465517Y-93896552D01*
X124810345Y-93896552D01*
X124810345Y-94241379D01*
G37*
G36*
X125500000Y-94241379D02*
G01*
X125155172Y-94241379D01*
X125155172Y-93896552D01*
X125500000Y-93896552D01*
X125500000Y-94241379D01*
G37*
G36*
X115844828Y-93206897D02*
G01*
X116189655Y-93206897D01*
X116189655Y-93896552D01*
X115500000Y-93896552D01*
X115500000Y-93206897D01*
X115500000Y-92862069D01*
X115844828Y-92862069D01*
X115844828Y-93206897D01*
G37*
G36*
X119637931Y-93896552D02*
G01*
X119293103Y-93896552D01*
X119293103Y-93551724D01*
X119637931Y-93551724D01*
X119637931Y-93896552D01*
G37*
G36*
X125155172Y-92172414D02*
G01*
X125500000Y-92172414D01*
X125500000Y-92517241D01*
X125500000Y-92862069D01*
X124810345Y-92862069D01*
X124810345Y-92517241D01*
X124465517Y-92517241D01*
X124465517Y-92862069D01*
X124810345Y-92862069D01*
X124810345Y-93206897D01*
X124465517Y-93206897D01*
X124465517Y-93551724D01*
X124465517Y-93896552D01*
X124120690Y-93896552D01*
X124120690Y-93551724D01*
X123775862Y-93551724D01*
X123775862Y-93206897D01*
X123775862Y-92862069D01*
X124120690Y-92862069D01*
X124120690Y-92517241D01*
X123775862Y-92517241D01*
X123775862Y-92862069D01*
X122741379Y-92862069D01*
X122741379Y-92517241D01*
X123431034Y-92517241D01*
X123431034Y-92172414D01*
X122741379Y-92172414D01*
X122741379Y-91827586D01*
X123775862Y-91827586D01*
X123775862Y-92172414D01*
X124810345Y-92172414D01*
X124810345Y-91482759D01*
X125155172Y-91482759D01*
X125155172Y-92172414D01*
G37*
G36*
X125500000Y-93551724D02*
G01*
X125155172Y-93551724D01*
X125155172Y-93206897D01*
X125500000Y-93206897D01*
X125500000Y-93551724D01*
G37*
G36*
X116879310Y-93206897D02*
G01*
X116534483Y-93206897D01*
X116534483Y-92862069D01*
X116879310Y-92862069D01*
X116879310Y-93206897D01*
G37*
G36*
X119293103Y-93206897D02*
G01*
X118948276Y-93206897D01*
X118948276Y-92862069D01*
X119293103Y-92862069D01*
X119293103Y-93206897D01*
G37*
G36*
X122051724Y-92862069D02*
G01*
X122051724Y-93206897D01*
X121706897Y-93206897D01*
X121706897Y-92862069D01*
X121362069Y-92862069D01*
X121362069Y-92517241D01*
X122051724Y-92517241D01*
X122051724Y-92862069D01*
G37*
G36*
X121362069Y-91482759D02*
G01*
X122051724Y-91482759D01*
X122051724Y-91827586D01*
X121362069Y-91827586D01*
X121362069Y-92172414D01*
X121362069Y-92517241D01*
X120327586Y-92517241D01*
X120327586Y-92172414D01*
X120672414Y-92172414D01*
X120672414Y-91827586D01*
X120672414Y-91482759D01*
X121017241Y-91482759D01*
X121017241Y-91137931D01*
X121362069Y-91137931D01*
X121362069Y-91482759D01*
G37*
G36*
X122741379Y-92517241D02*
G01*
X122396552Y-92517241D01*
X122396552Y-92172414D01*
X122741379Y-92172414D01*
X122741379Y-92517241D01*
G37*
G36*
X123086207Y-91137931D02*
G01*
X123775862Y-91137931D01*
X123775862Y-90793103D01*
X124120690Y-90793103D01*
X124120690Y-91137931D01*
X124465517Y-91137931D01*
X124465517Y-91482759D01*
X124465517Y-91827586D01*
X124120690Y-91827586D01*
X124120690Y-91482759D01*
X122396552Y-91482759D01*
X122396552Y-91137931D01*
X122741379Y-91137931D01*
X122741379Y-90793103D01*
X123086207Y-90793103D01*
X123086207Y-91137931D01*
G37*
G36*
X116879310Y-90448276D02*
G01*
X117224138Y-90448276D01*
X117224138Y-90793103D01*
X117224138Y-91137931D01*
X116879310Y-91137931D01*
X116879310Y-90793103D01*
X116534483Y-90793103D01*
X116534483Y-91137931D01*
X116189655Y-91137931D01*
X116189655Y-91482759D01*
X115500000Y-91482759D01*
X115500000Y-91137931D01*
X115844828Y-91137931D01*
X115844828Y-90793103D01*
X115844828Y-90448276D01*
X116534483Y-90448276D01*
X116534483Y-90103448D01*
X116879310Y-90103448D01*
X116879310Y-90448276D01*
G37*
G36*
X116879310Y-91482759D02*
G01*
X116534483Y-91482759D01*
X116534483Y-91137931D01*
X116879310Y-91137931D01*
X116879310Y-91482759D01*
G37*
G36*
X125500000Y-91482759D02*
G01*
X125155172Y-91482759D01*
X125155172Y-91137931D01*
X125500000Y-91137931D01*
X125500000Y-91482759D01*
G37*
G36*
X118603448Y-90448276D02*
G01*
X118948276Y-90448276D01*
X118948276Y-90793103D01*
X119293103Y-90793103D01*
X119293103Y-91137931D01*
X118258621Y-91137931D01*
X118258621Y-90793103D01*
X117913793Y-90793103D01*
X117913793Y-90448276D01*
X118258621Y-90448276D01*
X118258621Y-90103448D01*
X118603448Y-90103448D01*
X118603448Y-90448276D01*
G37*
G36*
X121017241Y-91137931D02*
G01*
X120672414Y-91137931D01*
X120672414Y-90448276D01*
X121017241Y-90448276D01*
X121017241Y-91137931D01*
G37*
G36*
X122051724Y-90103448D02*
G01*
X122051724Y-90448276D01*
X122396552Y-90448276D01*
X122396552Y-90793103D01*
X121706897Y-90793103D01*
X121706897Y-90448276D01*
X121362069Y-90448276D01*
X121362069Y-90103448D01*
X121706897Y-90103448D01*
X121706897Y-89758621D01*
X122051724Y-89758621D01*
X122051724Y-90103448D01*
G37*
G36*
X123431034Y-90793103D02*
G01*
X123086207Y-90793103D01*
X123086207Y-90448276D01*
X123431034Y-90448276D01*
X123431034Y-90793103D01*
G37*
G36*
X124465517Y-90793103D02*
G01*
X124120690Y-90793103D01*
X124120690Y-90448276D01*
X124465517Y-90448276D01*
X124465517Y-90793103D01*
G37*
G36*
X115844828Y-90448276D02*
G01*
X115500000Y-90448276D01*
X115500000Y-90103448D01*
X115844828Y-90103448D01*
X115844828Y-90448276D01*
G37*
G36*
X117913793Y-90103448D02*
G01*
X117913793Y-90448276D01*
X117568966Y-90448276D01*
X117568966Y-90103448D01*
X116879310Y-90103448D01*
X116879310Y-89758621D01*
X117913793Y-89758621D01*
X117913793Y-90103448D01*
G37*
G36*
X123431034Y-90103448D02*
G01*
X123086207Y-90103448D01*
X123086207Y-90448276D01*
X122396552Y-90448276D01*
X122396552Y-90103448D01*
X122741379Y-90103448D01*
X122741379Y-89758621D01*
X123431034Y-89758621D01*
X123431034Y-90103448D01*
G37*
G36*
X124120690Y-90448276D02*
G01*
X123775862Y-90448276D01*
X123775862Y-90103448D01*
X124120690Y-90103448D01*
X124120690Y-90448276D01*
G37*
G36*
X125500000Y-90103448D02*
G01*
X125155172Y-90103448D01*
X125155172Y-90448276D01*
X124465517Y-90448276D01*
X124465517Y-90103448D01*
X124810345Y-90103448D01*
X124810345Y-89758621D01*
X125500000Y-89758621D01*
X125500000Y-90103448D01*
G37*
G36*
X116534483Y-90103448D02*
G01*
X115844828Y-90103448D01*
X115844828Y-89758621D01*
X116534483Y-89758621D01*
X116534483Y-90103448D01*
G37*
G36*
X121017241Y-90103448D02*
G01*
X120672414Y-90103448D01*
X120672414Y-89758621D01*
X121017241Y-89758621D01*
X121017241Y-90103448D01*
G37*
G36*
X124465517Y-90103448D02*
G01*
X124120690Y-90103448D01*
X124120690Y-89758621D01*
X124465517Y-89758621D01*
X124465517Y-90103448D01*
G37*
G36*
X118603448Y-89758621D02*
G01*
X118258621Y-89758621D01*
X118258621Y-89068966D01*
X118603448Y-89068966D01*
X118603448Y-89758621D01*
G37*
G36*
X119637931Y-87344828D02*
G01*
X119637931Y-87689655D01*
X119982759Y-87689655D01*
X119982759Y-88034483D01*
X119293103Y-88034483D01*
X119293103Y-88724138D01*
X119293103Y-89068966D01*
X119293103Y-89413793D01*
X119637931Y-89413793D01*
X119637931Y-89758621D01*
X118948276Y-89758621D01*
X118948276Y-89413793D01*
X118948276Y-89068966D01*
X118603448Y-89068966D01*
X118603448Y-88724138D01*
X118948276Y-88724138D01*
X118948276Y-88034483D01*
X118948276Y-87689655D01*
X118948276Y-87344828D01*
X118603448Y-87344828D01*
X118603448Y-87000000D01*
X119637931Y-87000000D01*
X119637931Y-87344828D01*
G37*
G36*
X121362069Y-89758621D02*
G01*
X121017241Y-89758621D01*
X121017241Y-89068966D01*
X121362069Y-89068966D01*
X121362069Y-89758621D01*
G37*
G36*
X122741379Y-88724138D02*
G01*
X122741379Y-89068966D01*
X122741379Y-89413793D01*
X122741379Y-89758621D01*
X122051724Y-89758621D01*
X122051724Y-89413793D01*
X122396552Y-89413793D01*
X122396552Y-89068966D01*
X122051724Y-89068966D01*
X122051724Y-88724138D01*
X122396552Y-88724138D01*
X122396552Y-88379310D01*
X122741379Y-88379310D01*
X122741379Y-88724138D01*
G37*
G36*
X117224138Y-88724138D02*
G01*
X116189655Y-88724138D01*
X116189655Y-87689655D01*
X117224138Y-87689655D01*
X117224138Y-88724138D01*
G37*
G36*
X117913793Y-89068966D02*
G01*
X117913793Y-89413793D01*
X115500000Y-89413793D01*
X115500000Y-89068966D01*
X115500000Y-87344828D01*
X115844828Y-87344828D01*
X115844828Y-89068966D01*
X117568966Y-89068966D01*
X117568966Y-87344828D01*
X115844828Y-87344828D01*
X115500000Y-87344828D01*
X115500000Y-87000000D01*
X117913793Y-87000000D01*
X117913793Y-87344828D01*
X117913793Y-89068966D01*
G37*
G36*
X119982759Y-89413793D02*
G01*
X119637931Y-89413793D01*
X119637931Y-89068966D01*
X119982759Y-89068966D01*
X119982759Y-89413793D01*
G37*
G36*
X122051724Y-89413793D02*
G01*
X121706897Y-89413793D01*
X121706897Y-89068966D01*
X122051724Y-89068966D01*
X122051724Y-89413793D01*
G37*
G36*
X124810345Y-88724138D02*
G01*
X123775862Y-88724138D01*
X123775862Y-87689655D01*
X124810345Y-87689655D01*
X124810345Y-88724138D01*
G37*
G36*
X125500000Y-89068966D02*
G01*
X125500000Y-89413793D01*
X123086207Y-89413793D01*
X123086207Y-89068966D01*
X123086207Y-87344828D01*
X123431034Y-87344828D01*
X123431034Y-89068966D01*
X125155172Y-89068966D01*
X125155172Y-87344828D01*
X123431034Y-87344828D01*
X123086207Y-87344828D01*
X123086207Y-87000000D01*
X125500000Y-87000000D01*
X125500000Y-87344828D01*
X125500000Y-89068966D01*
G37*
G36*
X121706897Y-89068966D02*
G01*
X121362069Y-89068966D01*
X121362069Y-88724138D01*
X121706897Y-88724138D01*
X121706897Y-89068966D01*
G37*
G36*
X121017241Y-88724138D02*
G01*
X120672414Y-88724138D01*
X120672414Y-88379310D01*
X121017241Y-88379310D01*
X121017241Y-88724138D01*
G37*
G36*
X121362069Y-87344828D02*
G01*
X121706897Y-87344828D01*
X121706897Y-87689655D01*
X122396552Y-87689655D01*
X122396552Y-87344828D01*
X122741379Y-87344828D01*
X122741379Y-87689655D01*
X122741379Y-88034483D01*
X122396552Y-88034483D01*
X122396552Y-88379310D01*
X121362069Y-88379310D01*
X121362069Y-88034483D01*
X121017241Y-88034483D01*
X121017241Y-87689655D01*
X121017241Y-87344828D01*
X120327586Y-87344828D01*
X120327586Y-87689655D01*
X119982759Y-87689655D01*
X119982759Y-87344828D01*
X119982759Y-87000000D01*
X121362069Y-87000000D01*
X121362069Y-87344828D01*
G37*
G36*
X118603448Y-88034483D02*
G01*
X118258621Y-88034483D01*
X118258621Y-87689655D01*
X118603448Y-87689655D01*
X118603448Y-88034483D01*
G37*
G36*
X122396552Y-87344828D02*
G01*
X122051724Y-87344828D01*
X122051724Y-87000000D01*
X122396552Y-87000000D01*
X122396552Y-87344828D01*
G37*
D11*
X96284819Y-53499405D02*
X95284819Y-53499405D01*
X95284819Y-53499405D02*
X95284819Y-53737500D01*
X95284819Y-53737500D02*
X95332438Y-53880357D01*
X95332438Y-53880357D02*
X95427676Y-53975595D01*
X95427676Y-53975595D02*
X95522914Y-54023214D01*
X95522914Y-54023214D02*
X95713390Y-54070833D01*
X95713390Y-54070833D02*
X95856247Y-54070833D01*
X95856247Y-54070833D02*
X96046723Y-54023214D01*
X96046723Y-54023214D02*
X96141961Y-53975595D01*
X96141961Y-53975595D02*
X96237200Y-53880357D01*
X96237200Y-53880357D02*
X96284819Y-53737500D01*
X96284819Y-53737500D02*
X96284819Y-53499405D01*
X95380057Y-54451786D02*
X95332438Y-54499405D01*
X95332438Y-54499405D02*
X95284819Y-54594643D01*
X95284819Y-54594643D02*
X95284819Y-54832738D01*
X95284819Y-54832738D02*
X95332438Y-54927976D01*
X95332438Y-54927976D02*
X95380057Y-54975595D01*
X95380057Y-54975595D02*
X95475295Y-55023214D01*
X95475295Y-55023214D02*
X95570533Y-55023214D01*
X95570533Y-55023214D02*
X95713390Y-54975595D01*
X95713390Y-54975595D02*
X96284819Y-54404167D01*
X96284819Y-54404167D02*
X96284819Y-55023214D01*
X96309819Y-76761905D02*
X95309819Y-76761905D01*
X95309819Y-76761905D02*
X95309819Y-77000000D01*
X95309819Y-77000000D02*
X95357438Y-77142857D01*
X95357438Y-77142857D02*
X95452676Y-77238095D01*
X95452676Y-77238095D02*
X95547914Y-77285714D01*
X95547914Y-77285714D02*
X95738390Y-77333333D01*
X95738390Y-77333333D02*
X95881247Y-77333333D01*
X95881247Y-77333333D02*
X96071723Y-77285714D01*
X96071723Y-77285714D02*
X96166961Y-77238095D01*
X96166961Y-77238095D02*
X96262200Y-77142857D01*
X96262200Y-77142857D02*
X96309819Y-77000000D01*
X96309819Y-77000000D02*
X96309819Y-76761905D01*
X95309819Y-77666667D02*
X95309819Y-78285714D01*
X95309819Y-78285714D02*
X95690771Y-77952381D01*
X95690771Y-77952381D02*
X95690771Y-78095238D01*
X95690771Y-78095238D02*
X95738390Y-78190476D01*
X95738390Y-78190476D02*
X95786009Y-78238095D01*
X95786009Y-78238095D02*
X95881247Y-78285714D01*
X95881247Y-78285714D02*
X96119342Y-78285714D01*
X96119342Y-78285714D02*
X96214580Y-78238095D01*
X96214580Y-78238095D02*
X96262200Y-78190476D01*
X96262200Y-78190476D02*
X96309819Y-78095238D01*
X96309819Y-78095238D02*
X96309819Y-77809524D01*
X96309819Y-77809524D02*
X96262200Y-77714286D01*
X96262200Y-77714286D02*
X96214580Y-77666667D01*
X101166666Y-58954819D02*
X101499999Y-58478628D01*
X101738094Y-58954819D02*
X101738094Y-57954819D01*
X101738094Y-57954819D02*
X101357142Y-57954819D01*
X101357142Y-57954819D02*
X101261904Y-58002438D01*
X101261904Y-58002438D02*
X101214285Y-58050057D01*
X101214285Y-58050057D02*
X101166666Y-58145295D01*
X101166666Y-58145295D02*
X101166666Y-58288152D01*
X101166666Y-58288152D02*
X101214285Y-58383390D01*
X101214285Y-58383390D02*
X101261904Y-58431009D01*
X101261904Y-58431009D02*
X101357142Y-58478628D01*
X101357142Y-58478628D02*
X101738094Y-58478628D01*
X100785713Y-58050057D02*
X100738094Y-58002438D01*
X100738094Y-58002438D02*
X100642856Y-57954819D01*
X100642856Y-57954819D02*
X100404761Y-57954819D01*
X100404761Y-57954819D02*
X100309523Y-58002438D01*
X100309523Y-58002438D02*
X100261904Y-58050057D01*
X100261904Y-58050057D02*
X100214285Y-58145295D01*
X100214285Y-58145295D02*
X100214285Y-58240533D01*
X100214285Y-58240533D02*
X100261904Y-58383390D01*
X100261904Y-58383390D02*
X100833332Y-58954819D01*
X100833332Y-58954819D02*
X100214285Y-58954819D01*
X113954819Y-45761905D02*
X112954819Y-45761905D01*
X112954819Y-45761905D02*
X112954819Y-46000000D01*
X112954819Y-46000000D02*
X113002438Y-46142857D01*
X113002438Y-46142857D02*
X113097676Y-46238095D01*
X113097676Y-46238095D02*
X113192914Y-46285714D01*
X113192914Y-46285714D02*
X113383390Y-46333333D01*
X113383390Y-46333333D02*
X113526247Y-46333333D01*
X113526247Y-46333333D02*
X113716723Y-46285714D01*
X113716723Y-46285714D02*
X113811961Y-46238095D01*
X113811961Y-46238095D02*
X113907200Y-46142857D01*
X113907200Y-46142857D02*
X113954819Y-46000000D01*
X113954819Y-46000000D02*
X113954819Y-45761905D01*
X113288152Y-47190476D02*
X113954819Y-47190476D01*
X112907200Y-46952381D02*
X113621485Y-46714286D01*
X113621485Y-46714286D02*
X113621485Y-47333333D01*
X98666666Y-107954819D02*
X98999999Y-107478628D01*
X99238094Y-107954819D02*
X99238094Y-106954819D01*
X99238094Y-106954819D02*
X98857142Y-106954819D01*
X98857142Y-106954819D02*
X98761904Y-107002438D01*
X98761904Y-107002438D02*
X98714285Y-107050057D01*
X98714285Y-107050057D02*
X98666666Y-107145295D01*
X98666666Y-107145295D02*
X98666666Y-107288152D01*
X98666666Y-107288152D02*
X98714285Y-107383390D01*
X98714285Y-107383390D02*
X98761904Y-107431009D01*
X98761904Y-107431009D02*
X98857142Y-107478628D01*
X98857142Y-107478628D02*
X99238094Y-107478628D01*
X97809523Y-107288152D02*
X97809523Y-107954819D01*
X98047618Y-106907200D02*
X98285713Y-107621485D01*
X98285713Y-107621485D02*
X97666666Y-107621485D01*
X126666666Y-60384819D02*
X126999999Y-59908628D01*
X127238094Y-60384819D02*
X127238094Y-59384819D01*
X127238094Y-59384819D02*
X126857142Y-59384819D01*
X126857142Y-59384819D02*
X126761904Y-59432438D01*
X126761904Y-59432438D02*
X126714285Y-59480057D01*
X126714285Y-59480057D02*
X126666666Y-59575295D01*
X126666666Y-59575295D02*
X126666666Y-59718152D01*
X126666666Y-59718152D02*
X126714285Y-59813390D01*
X126714285Y-59813390D02*
X126761904Y-59861009D01*
X126761904Y-59861009D02*
X126857142Y-59908628D01*
X126857142Y-59908628D02*
X127238094Y-59908628D01*
X125761904Y-59384819D02*
X126238094Y-59384819D01*
X126238094Y-59384819D02*
X126285713Y-59861009D01*
X126285713Y-59861009D02*
X126238094Y-59813390D01*
X126238094Y-59813390D02*
X126142856Y-59765771D01*
X126142856Y-59765771D02*
X125904761Y-59765771D01*
X125904761Y-59765771D02*
X125809523Y-59813390D01*
X125809523Y-59813390D02*
X125761904Y-59861009D01*
X125761904Y-59861009D02*
X125714285Y-59956247D01*
X125714285Y-59956247D02*
X125714285Y-60194342D01*
X125714285Y-60194342D02*
X125761904Y-60289580D01*
X125761904Y-60289580D02*
X125809523Y-60337200D01*
X125809523Y-60337200D02*
X125904761Y-60384819D01*
X125904761Y-60384819D02*
X126142856Y-60384819D01*
X126142856Y-60384819D02*
X126238094Y-60337200D01*
X126238094Y-60337200D02*
X126285713Y-60289580D01*
X106454819Y-108261905D02*
X105454819Y-108261905D01*
X105454819Y-108261905D02*
X105454819Y-108500000D01*
X105454819Y-108500000D02*
X105502438Y-108642857D01*
X105502438Y-108642857D02*
X105597676Y-108738095D01*
X105597676Y-108738095D02*
X105692914Y-108785714D01*
X105692914Y-108785714D02*
X105883390Y-108833333D01*
X105883390Y-108833333D02*
X106026247Y-108833333D01*
X106026247Y-108833333D02*
X106216723Y-108785714D01*
X106216723Y-108785714D02*
X106311961Y-108738095D01*
X106311961Y-108738095D02*
X106407200Y-108642857D01*
X106407200Y-108642857D02*
X106454819Y-108500000D01*
X106454819Y-108500000D02*
X106454819Y-108261905D01*
X105454819Y-109690476D02*
X105454819Y-109500000D01*
X105454819Y-109500000D02*
X105502438Y-109404762D01*
X105502438Y-109404762D02*
X105550057Y-109357143D01*
X105550057Y-109357143D02*
X105692914Y-109261905D01*
X105692914Y-109261905D02*
X105883390Y-109214286D01*
X105883390Y-109214286D02*
X106264342Y-109214286D01*
X106264342Y-109214286D02*
X106359580Y-109261905D01*
X106359580Y-109261905D02*
X106407200Y-109309524D01*
X106407200Y-109309524D02*
X106454819Y-109404762D01*
X106454819Y-109404762D02*
X106454819Y-109595238D01*
X106454819Y-109595238D02*
X106407200Y-109690476D01*
X106407200Y-109690476D02*
X106359580Y-109738095D01*
X106359580Y-109738095D02*
X106264342Y-109785714D01*
X106264342Y-109785714D02*
X106026247Y-109785714D01*
X106026247Y-109785714D02*
X105931009Y-109738095D01*
X105931009Y-109738095D02*
X105883390Y-109690476D01*
X105883390Y-109690476D02*
X105835771Y-109595238D01*
X105835771Y-109595238D02*
X105835771Y-109404762D01*
X105835771Y-109404762D02*
X105883390Y-109309524D01*
X105883390Y-109309524D02*
X105931009Y-109261905D01*
X105931009Y-109261905D02*
X106026247Y-109214286D01*
X101454819Y-108261905D02*
X100454819Y-108261905D01*
X100454819Y-108261905D02*
X100454819Y-108500000D01*
X100454819Y-108500000D02*
X100502438Y-108642857D01*
X100502438Y-108642857D02*
X100597676Y-108738095D01*
X100597676Y-108738095D02*
X100692914Y-108785714D01*
X100692914Y-108785714D02*
X100883390Y-108833333D01*
X100883390Y-108833333D02*
X101026247Y-108833333D01*
X101026247Y-108833333D02*
X101216723Y-108785714D01*
X101216723Y-108785714D02*
X101311961Y-108738095D01*
X101311961Y-108738095D02*
X101407200Y-108642857D01*
X101407200Y-108642857D02*
X101454819Y-108500000D01*
X101454819Y-108500000D02*
X101454819Y-108261905D01*
X100454819Y-109738095D02*
X100454819Y-109261905D01*
X100454819Y-109261905D02*
X100931009Y-109214286D01*
X100931009Y-109214286D02*
X100883390Y-109261905D01*
X100883390Y-109261905D02*
X100835771Y-109357143D01*
X100835771Y-109357143D02*
X100835771Y-109595238D01*
X100835771Y-109595238D02*
X100883390Y-109690476D01*
X100883390Y-109690476D02*
X100931009Y-109738095D01*
X100931009Y-109738095D02*
X101026247Y-109785714D01*
X101026247Y-109785714D02*
X101264342Y-109785714D01*
X101264342Y-109785714D02*
X101359580Y-109738095D01*
X101359580Y-109738095D02*
X101407200Y-109690476D01*
X101407200Y-109690476D02*
X101454819Y-109595238D01*
X101454819Y-109595238D02*
X101454819Y-109357143D01*
X101454819Y-109357143D02*
X101407200Y-109261905D01*
X101407200Y-109261905D02*
X101359580Y-109214286D01*
X96625057Y-65704761D02*
X96577438Y-65609523D01*
X96577438Y-65609523D02*
X96482200Y-65514285D01*
X96482200Y-65514285D02*
X96339342Y-65371428D01*
X96339342Y-65371428D02*
X96291723Y-65276190D01*
X96291723Y-65276190D02*
X96291723Y-65180952D01*
X96529819Y-65228571D02*
X96482200Y-65133333D01*
X96482200Y-65133333D02*
X96386961Y-65038095D01*
X96386961Y-65038095D02*
X96196485Y-64990476D01*
X96196485Y-64990476D02*
X95863152Y-64990476D01*
X95863152Y-64990476D02*
X95672676Y-65038095D01*
X95672676Y-65038095D02*
X95577438Y-65133333D01*
X95577438Y-65133333D02*
X95529819Y-65228571D01*
X95529819Y-65228571D02*
X95529819Y-65419047D01*
X95529819Y-65419047D02*
X95577438Y-65514285D01*
X95577438Y-65514285D02*
X95672676Y-65609523D01*
X95672676Y-65609523D02*
X95863152Y-65657142D01*
X95863152Y-65657142D02*
X96196485Y-65657142D01*
X96196485Y-65657142D02*
X96386961Y-65609523D01*
X96386961Y-65609523D02*
X96482200Y-65514285D01*
X96482200Y-65514285D02*
X96529819Y-65419047D01*
X96529819Y-65419047D02*
X96529819Y-65228571D01*
X96529819Y-66609523D02*
X96529819Y-66038095D01*
X96529819Y-66323809D02*
X95529819Y-66323809D01*
X95529819Y-66323809D02*
X95672676Y-66228571D01*
X95672676Y-66228571D02*
X95767914Y-66133333D01*
X95767914Y-66133333D02*
X95815533Y-66038095D01*
X101666666Y-95954819D02*
X101999999Y-95478628D01*
X102238094Y-95954819D02*
X102238094Y-94954819D01*
X102238094Y-94954819D02*
X101857142Y-94954819D01*
X101857142Y-94954819D02*
X101761904Y-95002438D01*
X101761904Y-95002438D02*
X101714285Y-95050057D01*
X101714285Y-95050057D02*
X101666666Y-95145295D01*
X101666666Y-95145295D02*
X101666666Y-95288152D01*
X101666666Y-95288152D02*
X101714285Y-95383390D01*
X101714285Y-95383390D02*
X101761904Y-95431009D01*
X101761904Y-95431009D02*
X101857142Y-95478628D01*
X101857142Y-95478628D02*
X102238094Y-95478628D01*
X101333332Y-94954819D02*
X100714285Y-94954819D01*
X100714285Y-94954819D02*
X101047618Y-95335771D01*
X101047618Y-95335771D02*
X100904761Y-95335771D01*
X100904761Y-95335771D02*
X100809523Y-95383390D01*
X100809523Y-95383390D02*
X100761904Y-95431009D01*
X100761904Y-95431009D02*
X100714285Y-95526247D01*
X100714285Y-95526247D02*
X100714285Y-95764342D01*
X100714285Y-95764342D02*
X100761904Y-95859580D01*
X100761904Y-95859580D02*
X100809523Y-95907200D01*
X100809523Y-95907200D02*
X100904761Y-95954819D01*
X100904761Y-95954819D02*
X101190475Y-95954819D01*
X101190475Y-95954819D02*
X101285713Y-95907200D01*
X101285713Y-95907200D02*
X101333332Y-95859580D01*
D12*
X129129209Y-92613836D02*
X130129209Y-92613836D01*
X129129209Y-92185265D02*
X129653019Y-92185265D01*
X129653019Y-92185265D02*
X129748257Y-92232884D01*
X129748257Y-92232884D02*
X129795876Y-92328122D01*
X129795876Y-92328122D02*
X129795876Y-92470979D01*
X129795876Y-92470979D02*
X129748257Y-92566217D01*
X129748257Y-92566217D02*
X129700638Y-92613836D01*
X129795876Y-91851931D02*
X129795876Y-91470979D01*
X130129209Y-91709074D02*
X129272067Y-91709074D01*
X129272067Y-91709074D02*
X129176829Y-91661455D01*
X129176829Y-91661455D02*
X129129209Y-91566217D01*
X129129209Y-91566217D02*
X129129209Y-91470979D01*
X129795876Y-91280502D02*
X129795876Y-90899550D01*
X130129209Y-91137645D02*
X129272067Y-91137645D01*
X129272067Y-91137645D02*
X129176829Y-91090026D01*
X129176829Y-91090026D02*
X129129209Y-90994788D01*
X129129209Y-90994788D02*
X129129209Y-90899550D01*
X129795876Y-90566216D02*
X128795876Y-90566216D01*
X129748257Y-90566216D02*
X129795876Y-90470978D01*
X129795876Y-90470978D02*
X129795876Y-90280502D01*
X129795876Y-90280502D02*
X129748257Y-90185264D01*
X129748257Y-90185264D02*
X129700638Y-90137645D01*
X129700638Y-90137645D02*
X129605400Y-90090026D01*
X129605400Y-90090026D02*
X129319686Y-90090026D01*
X129319686Y-90090026D02*
X129224448Y-90137645D01*
X129224448Y-90137645D02*
X129176829Y-90185264D01*
X129176829Y-90185264D02*
X129129209Y-90280502D01*
X129129209Y-90280502D02*
X129129209Y-90470978D01*
X129129209Y-90470978D02*
X129176829Y-90566216D01*
X129176829Y-89709073D02*
X129129209Y-89613835D01*
X129129209Y-89613835D02*
X129129209Y-89423359D01*
X129129209Y-89423359D02*
X129176829Y-89328121D01*
X129176829Y-89328121D02*
X129272067Y-89280502D01*
X129272067Y-89280502D02*
X129319686Y-89280502D01*
X129319686Y-89280502D02*
X129414924Y-89328121D01*
X129414924Y-89328121D02*
X129462543Y-89423359D01*
X129462543Y-89423359D02*
X129462543Y-89566216D01*
X129462543Y-89566216D02*
X129510162Y-89661454D01*
X129510162Y-89661454D02*
X129605400Y-89709073D01*
X129605400Y-89709073D02*
X129653019Y-89709073D01*
X129653019Y-89709073D02*
X129748257Y-89661454D01*
X129748257Y-89661454D02*
X129795876Y-89566216D01*
X129795876Y-89566216D02*
X129795876Y-89423359D01*
X129795876Y-89423359D02*
X129748257Y-89328121D01*
X129224448Y-88851930D02*
X129176829Y-88804311D01*
X129176829Y-88804311D02*
X129129209Y-88851930D01*
X129129209Y-88851930D02*
X129176829Y-88899549D01*
X129176829Y-88899549D02*
X129224448Y-88851930D01*
X129224448Y-88851930D02*
X129129209Y-88851930D01*
X129748257Y-88851930D02*
X129700638Y-88804311D01*
X129700638Y-88804311D02*
X129653019Y-88851930D01*
X129653019Y-88851930D02*
X129700638Y-88899549D01*
X129700638Y-88899549D02*
X129748257Y-88851930D01*
X129748257Y-88851930D02*
X129653019Y-88851930D01*
X130176829Y-87661455D02*
X128891114Y-88518597D01*
X130176829Y-86613836D02*
X128891114Y-87470978D01*
X129795876Y-85851931D02*
X128986352Y-85851931D01*
X128986352Y-85851931D02*
X128891114Y-85899550D01*
X128891114Y-85899550D02*
X128843495Y-85947169D01*
X128843495Y-85947169D02*
X128795876Y-86042407D01*
X128795876Y-86042407D02*
X128795876Y-86185264D01*
X128795876Y-86185264D02*
X128843495Y-86280502D01*
X129176829Y-85851931D02*
X129129209Y-85947169D01*
X129129209Y-85947169D02*
X129129209Y-86137645D01*
X129129209Y-86137645D02*
X129176829Y-86232883D01*
X129176829Y-86232883D02*
X129224448Y-86280502D01*
X129224448Y-86280502D02*
X129319686Y-86328121D01*
X129319686Y-86328121D02*
X129605400Y-86328121D01*
X129605400Y-86328121D02*
X129700638Y-86280502D01*
X129700638Y-86280502D02*
X129748257Y-86232883D01*
X129748257Y-86232883D02*
X129795876Y-86137645D01*
X129795876Y-86137645D02*
X129795876Y-85947169D01*
X129795876Y-85947169D02*
X129748257Y-85851931D01*
X129129209Y-85375740D02*
X129795876Y-85375740D01*
X130129209Y-85375740D02*
X130081590Y-85423359D01*
X130081590Y-85423359D02*
X130033971Y-85375740D01*
X130033971Y-85375740D02*
X130081590Y-85328121D01*
X130081590Y-85328121D02*
X130129209Y-85375740D01*
X130129209Y-85375740D02*
X130033971Y-85375740D01*
X129795876Y-85042407D02*
X129795876Y-84661455D01*
X130129209Y-84899550D02*
X129272067Y-84899550D01*
X129272067Y-84899550D02*
X129176829Y-84851931D01*
X129176829Y-84851931D02*
X129129209Y-84756693D01*
X129129209Y-84756693D02*
X129129209Y-84661455D01*
X129129209Y-84328121D02*
X130129209Y-84328121D01*
X129129209Y-83899550D02*
X129653019Y-83899550D01*
X129653019Y-83899550D02*
X129748257Y-83947169D01*
X129748257Y-83947169D02*
X129795876Y-84042407D01*
X129795876Y-84042407D02*
X129795876Y-84185264D01*
X129795876Y-84185264D02*
X129748257Y-84280502D01*
X129748257Y-84280502D02*
X129700638Y-84328121D01*
X129795876Y-82994788D02*
X129129209Y-82994788D01*
X129795876Y-83423359D02*
X129272067Y-83423359D01*
X129272067Y-83423359D02*
X129176829Y-83375740D01*
X129176829Y-83375740D02*
X129129209Y-83280502D01*
X129129209Y-83280502D02*
X129129209Y-83137645D01*
X129129209Y-83137645D02*
X129176829Y-83042407D01*
X129176829Y-83042407D02*
X129224448Y-82994788D01*
X129129209Y-82518597D02*
X130129209Y-82518597D01*
X129748257Y-82518597D02*
X129795876Y-82423359D01*
X129795876Y-82423359D02*
X129795876Y-82232883D01*
X129795876Y-82232883D02*
X129748257Y-82137645D01*
X129748257Y-82137645D02*
X129700638Y-82090026D01*
X129700638Y-82090026D02*
X129605400Y-82042407D01*
X129605400Y-82042407D02*
X129319686Y-82042407D01*
X129319686Y-82042407D02*
X129224448Y-82090026D01*
X129224448Y-82090026D02*
X129176829Y-82137645D01*
X129176829Y-82137645D02*
X129129209Y-82232883D01*
X129129209Y-82232883D02*
X129129209Y-82423359D01*
X129129209Y-82423359D02*
X129176829Y-82518597D01*
X129224448Y-81613835D02*
X129176829Y-81566216D01*
X129176829Y-81566216D02*
X129129209Y-81613835D01*
X129129209Y-81613835D02*
X129176829Y-81661454D01*
X129176829Y-81661454D02*
X129224448Y-81613835D01*
X129224448Y-81613835D02*
X129129209Y-81613835D01*
X129176829Y-80709074D02*
X129129209Y-80804312D01*
X129129209Y-80804312D02*
X129129209Y-80994788D01*
X129129209Y-80994788D02*
X129176829Y-81090026D01*
X129176829Y-81090026D02*
X129224448Y-81137645D01*
X129224448Y-81137645D02*
X129319686Y-81185264D01*
X129319686Y-81185264D02*
X129605400Y-81185264D01*
X129605400Y-81185264D02*
X129700638Y-81137645D01*
X129700638Y-81137645D02*
X129748257Y-81090026D01*
X129748257Y-81090026D02*
X129795876Y-80994788D01*
X129795876Y-80994788D02*
X129795876Y-80804312D01*
X129795876Y-80804312D02*
X129748257Y-80709074D01*
X129129209Y-80137645D02*
X129176829Y-80232883D01*
X129176829Y-80232883D02*
X129224448Y-80280502D01*
X129224448Y-80280502D02*
X129319686Y-80328121D01*
X129319686Y-80328121D02*
X129605400Y-80328121D01*
X129605400Y-80328121D02*
X129700638Y-80280502D01*
X129700638Y-80280502D02*
X129748257Y-80232883D01*
X129748257Y-80232883D02*
X129795876Y-80137645D01*
X129795876Y-80137645D02*
X129795876Y-79994788D01*
X129795876Y-79994788D02*
X129748257Y-79899550D01*
X129748257Y-79899550D02*
X129700638Y-79851931D01*
X129700638Y-79851931D02*
X129605400Y-79804312D01*
X129605400Y-79804312D02*
X129319686Y-79804312D01*
X129319686Y-79804312D02*
X129224448Y-79851931D01*
X129224448Y-79851931D02*
X129176829Y-79899550D01*
X129176829Y-79899550D02*
X129129209Y-79994788D01*
X129129209Y-79994788D02*
X129129209Y-80137645D01*
X129129209Y-79375740D02*
X129795876Y-79375740D01*
X129700638Y-79375740D02*
X129748257Y-79328121D01*
X129748257Y-79328121D02*
X129795876Y-79232883D01*
X129795876Y-79232883D02*
X129795876Y-79090026D01*
X129795876Y-79090026D02*
X129748257Y-78994788D01*
X129748257Y-78994788D02*
X129653019Y-78947169D01*
X129653019Y-78947169D02*
X129129209Y-78947169D01*
X129653019Y-78947169D02*
X129748257Y-78899550D01*
X129748257Y-78899550D02*
X129795876Y-78804312D01*
X129795876Y-78804312D02*
X129795876Y-78661455D01*
X129795876Y-78661455D02*
X129748257Y-78566216D01*
X129748257Y-78566216D02*
X129653019Y-78518597D01*
X129653019Y-78518597D02*
X129129209Y-78518597D01*
X130176829Y-77328122D02*
X128891114Y-78185264D01*
X129795876Y-76994788D02*
X128795876Y-76994788D01*
X129748257Y-76994788D02*
X129795876Y-76899550D01*
X129795876Y-76899550D02*
X129795876Y-76709074D01*
X129795876Y-76709074D02*
X129748257Y-76613836D01*
X129748257Y-76613836D02*
X129700638Y-76566217D01*
X129700638Y-76566217D02*
X129605400Y-76518598D01*
X129605400Y-76518598D02*
X129319686Y-76518598D01*
X129319686Y-76518598D02*
X129224448Y-76566217D01*
X129224448Y-76566217D02*
X129176829Y-76613836D01*
X129176829Y-76613836D02*
X129129209Y-76709074D01*
X129129209Y-76709074D02*
X129129209Y-76899550D01*
X129129209Y-76899550D02*
X129176829Y-76994788D01*
X129176829Y-75709074D02*
X129129209Y-75804312D01*
X129129209Y-75804312D02*
X129129209Y-75994788D01*
X129129209Y-75994788D02*
X129176829Y-76090026D01*
X129176829Y-76090026D02*
X129272067Y-76137645D01*
X129272067Y-76137645D02*
X129653019Y-76137645D01*
X129653019Y-76137645D02*
X129748257Y-76090026D01*
X129748257Y-76090026D02*
X129795876Y-75994788D01*
X129795876Y-75994788D02*
X129795876Y-75804312D01*
X129795876Y-75804312D02*
X129748257Y-75709074D01*
X129748257Y-75709074D02*
X129653019Y-75661455D01*
X129653019Y-75661455D02*
X129557781Y-75661455D01*
X129557781Y-75661455D02*
X129462543Y-76137645D01*
X129129209Y-75090026D02*
X129176829Y-75185264D01*
X129176829Y-75185264D02*
X129272067Y-75232883D01*
X129272067Y-75232883D02*
X130129209Y-75232883D01*
X129129209Y-74566216D02*
X129176829Y-74661454D01*
X129176829Y-74661454D02*
X129272067Y-74709073D01*
X129272067Y-74709073D02*
X130129209Y-74709073D01*
X129176829Y-73804311D02*
X129129209Y-73899549D01*
X129129209Y-73899549D02*
X129129209Y-74090025D01*
X129129209Y-74090025D02*
X129176829Y-74185263D01*
X129176829Y-74185263D02*
X129272067Y-74232882D01*
X129272067Y-74232882D02*
X129653019Y-74232882D01*
X129653019Y-74232882D02*
X129748257Y-74185263D01*
X129748257Y-74185263D02*
X129795876Y-74090025D01*
X129795876Y-74090025D02*
X129795876Y-73899549D01*
X129795876Y-73899549D02*
X129748257Y-73804311D01*
X129748257Y-73804311D02*
X129653019Y-73756692D01*
X129653019Y-73756692D02*
X129557781Y-73756692D01*
X129557781Y-73756692D02*
X129462543Y-74232882D01*
X129129209Y-73328120D02*
X129795876Y-73328120D01*
X129700638Y-73328120D02*
X129748257Y-73280501D01*
X129748257Y-73280501D02*
X129795876Y-73185263D01*
X129795876Y-73185263D02*
X129795876Y-73042406D01*
X129795876Y-73042406D02*
X129748257Y-72947168D01*
X129748257Y-72947168D02*
X129653019Y-72899549D01*
X129653019Y-72899549D02*
X129129209Y-72899549D01*
X129653019Y-72899549D02*
X129748257Y-72851930D01*
X129748257Y-72851930D02*
X129795876Y-72756692D01*
X129795876Y-72756692D02*
X129795876Y-72613835D01*
X129795876Y-72613835D02*
X129748257Y-72518596D01*
X129748257Y-72518596D02*
X129653019Y-72470977D01*
X129653019Y-72470977D02*
X129129209Y-72470977D01*
X129129209Y-71566216D02*
X129653019Y-71566216D01*
X129653019Y-71566216D02*
X129748257Y-71613835D01*
X129748257Y-71613835D02*
X129795876Y-71709073D01*
X129795876Y-71709073D02*
X129795876Y-71899549D01*
X129795876Y-71899549D02*
X129748257Y-71994787D01*
X129176829Y-71566216D02*
X129129209Y-71661454D01*
X129129209Y-71661454D02*
X129129209Y-71899549D01*
X129129209Y-71899549D02*
X129176829Y-71994787D01*
X129176829Y-71994787D02*
X129272067Y-72042406D01*
X129272067Y-72042406D02*
X129367305Y-72042406D01*
X129367305Y-72042406D02*
X129462543Y-71994787D01*
X129462543Y-71994787D02*
X129510162Y-71899549D01*
X129510162Y-71899549D02*
X129510162Y-71661454D01*
X129510162Y-71661454D02*
X129557781Y-71566216D01*
X129795876Y-71232882D02*
X129795876Y-70851930D01*
X130129209Y-71090025D02*
X129272067Y-71090025D01*
X129272067Y-71090025D02*
X129176829Y-71042406D01*
X129176829Y-71042406D02*
X129129209Y-70947168D01*
X129129209Y-70947168D02*
X129129209Y-70851930D01*
X129129209Y-70518596D02*
X129795876Y-70518596D01*
X129605400Y-70518596D02*
X129700638Y-70470977D01*
X129700638Y-70470977D02*
X129748257Y-70423358D01*
X129748257Y-70423358D02*
X129795876Y-70328120D01*
X129795876Y-70328120D02*
X129795876Y-70232882D01*
X129129209Y-69756691D02*
X129176829Y-69851929D01*
X129176829Y-69851929D02*
X129224448Y-69899548D01*
X129224448Y-69899548D02*
X129319686Y-69947167D01*
X129319686Y-69947167D02*
X129605400Y-69947167D01*
X129605400Y-69947167D02*
X129700638Y-69899548D01*
X129700638Y-69899548D02*
X129748257Y-69851929D01*
X129748257Y-69851929D02*
X129795876Y-69756691D01*
X129795876Y-69756691D02*
X129795876Y-69613834D01*
X129795876Y-69613834D02*
X129748257Y-69518596D01*
X129748257Y-69518596D02*
X129700638Y-69470977D01*
X129700638Y-69470977D02*
X129605400Y-69423358D01*
X129605400Y-69423358D02*
X129319686Y-69423358D01*
X129319686Y-69423358D02*
X129224448Y-69470977D01*
X129224448Y-69470977D02*
X129176829Y-69518596D01*
X129176829Y-69518596D02*
X129129209Y-69613834D01*
X129129209Y-69613834D02*
X129129209Y-69756691D01*
X129176829Y-69042405D02*
X129129209Y-68947167D01*
X129129209Y-68947167D02*
X129129209Y-68756691D01*
X129129209Y-68756691D02*
X129176829Y-68661453D01*
X129176829Y-68661453D02*
X129272067Y-68613834D01*
X129272067Y-68613834D02*
X129319686Y-68613834D01*
X129319686Y-68613834D02*
X129414924Y-68661453D01*
X129414924Y-68661453D02*
X129462543Y-68756691D01*
X129462543Y-68756691D02*
X129462543Y-68899548D01*
X129462543Y-68899548D02*
X129510162Y-68994786D01*
X129510162Y-68994786D02*
X129605400Y-69042405D01*
X129605400Y-69042405D02*
X129653019Y-69042405D01*
X129653019Y-69042405D02*
X129748257Y-68994786D01*
X129748257Y-68994786D02*
X129795876Y-68899548D01*
X129795876Y-68899548D02*
X129795876Y-68756691D01*
X129795876Y-68756691D02*
X129748257Y-68661453D01*
X129176829Y-67804310D02*
X129129209Y-67899548D01*
X129129209Y-67899548D02*
X129129209Y-68090024D01*
X129129209Y-68090024D02*
X129176829Y-68185262D01*
X129176829Y-68185262D02*
X129272067Y-68232881D01*
X129272067Y-68232881D02*
X129653019Y-68232881D01*
X129653019Y-68232881D02*
X129748257Y-68185262D01*
X129748257Y-68185262D02*
X129795876Y-68090024D01*
X129795876Y-68090024D02*
X129795876Y-67899548D01*
X129795876Y-67899548D02*
X129748257Y-67804310D01*
X129748257Y-67804310D02*
X129653019Y-67756691D01*
X129653019Y-67756691D02*
X129557781Y-67756691D01*
X129557781Y-67756691D02*
X129462543Y-68232881D01*
X130176829Y-66613834D02*
X128891114Y-67470976D01*
X129129209Y-65709072D02*
X129605400Y-66042405D01*
X129129209Y-66280500D02*
X130129209Y-66280500D01*
X130129209Y-66280500D02*
X130129209Y-65899548D01*
X130129209Y-65899548D02*
X130081590Y-65804310D01*
X130081590Y-65804310D02*
X130033971Y-65756691D01*
X130033971Y-65756691D02*
X129938733Y-65709072D01*
X129938733Y-65709072D02*
X129795876Y-65709072D01*
X129795876Y-65709072D02*
X129700638Y-65756691D01*
X129700638Y-65756691D02*
X129653019Y-65804310D01*
X129653019Y-65804310D02*
X129605400Y-65899548D01*
X129605400Y-65899548D02*
X129605400Y-66280500D01*
X129176829Y-64899548D02*
X129129209Y-64994786D01*
X129129209Y-64994786D02*
X129129209Y-65185262D01*
X129129209Y-65185262D02*
X129176829Y-65280500D01*
X129176829Y-65280500D02*
X129272067Y-65328119D01*
X129272067Y-65328119D02*
X129653019Y-65328119D01*
X129653019Y-65328119D02*
X129748257Y-65280500D01*
X129748257Y-65280500D02*
X129795876Y-65185262D01*
X129795876Y-65185262D02*
X129795876Y-64994786D01*
X129795876Y-64994786D02*
X129748257Y-64899548D01*
X129748257Y-64899548D02*
X129653019Y-64851929D01*
X129653019Y-64851929D02*
X129557781Y-64851929D01*
X129557781Y-64851929D02*
X129462543Y-65328119D01*
X129129209Y-64280500D02*
X129176829Y-64375738D01*
X129176829Y-64375738D02*
X129272067Y-64423357D01*
X129272067Y-64423357D02*
X130129209Y-64423357D01*
X129129209Y-63470976D02*
X129653019Y-63470976D01*
X129653019Y-63470976D02*
X129748257Y-63518595D01*
X129748257Y-63518595D02*
X129795876Y-63613833D01*
X129795876Y-63613833D02*
X129795876Y-63804309D01*
X129795876Y-63804309D02*
X129748257Y-63899547D01*
X129176829Y-63470976D02*
X129129209Y-63566214D01*
X129129209Y-63566214D02*
X129129209Y-63804309D01*
X129129209Y-63804309D02*
X129176829Y-63899547D01*
X129176829Y-63899547D02*
X129272067Y-63947166D01*
X129272067Y-63947166D02*
X129367305Y-63947166D01*
X129367305Y-63947166D02*
X129462543Y-63899547D01*
X129462543Y-63899547D02*
X129510162Y-63804309D01*
X129510162Y-63804309D02*
X129510162Y-63566214D01*
X129510162Y-63566214D02*
X129557781Y-63470976D01*
X129129209Y-62994785D02*
X129795876Y-62994785D01*
X130129209Y-62994785D02*
X130081590Y-63042404D01*
X130081590Y-63042404D02*
X130033971Y-62994785D01*
X130033971Y-62994785D02*
X130081590Y-62947166D01*
X130081590Y-62947166D02*
X130129209Y-62994785D01*
X130129209Y-62994785D02*
X130033971Y-62994785D01*
X129176829Y-62566214D02*
X129129209Y-62470976D01*
X129129209Y-62470976D02*
X129129209Y-62280500D01*
X129129209Y-62280500D02*
X129176829Y-62185262D01*
X129176829Y-62185262D02*
X129272067Y-62137643D01*
X129272067Y-62137643D02*
X129319686Y-62137643D01*
X129319686Y-62137643D02*
X129414924Y-62185262D01*
X129414924Y-62185262D02*
X129462543Y-62280500D01*
X129462543Y-62280500D02*
X129462543Y-62423357D01*
X129462543Y-62423357D02*
X129510162Y-62518595D01*
X129510162Y-62518595D02*
X129605400Y-62566214D01*
X129605400Y-62566214D02*
X129653019Y-62566214D01*
X129653019Y-62566214D02*
X129748257Y-62518595D01*
X129748257Y-62518595D02*
X129795876Y-62423357D01*
X129795876Y-62423357D02*
X129795876Y-62280500D01*
X129795876Y-62280500D02*
X129748257Y-62185262D01*
X129510162Y-61709071D02*
X129510162Y-60947167D01*
X129129209Y-60470976D02*
X130129209Y-60470976D01*
X129129209Y-59899548D02*
X129700638Y-60328119D01*
X130129209Y-59899548D02*
X129557781Y-60470976D01*
X129129209Y-59042405D02*
X129653019Y-59042405D01*
X129653019Y-59042405D02*
X129748257Y-59090024D01*
X129748257Y-59090024D02*
X129795876Y-59185262D01*
X129795876Y-59185262D02*
X129795876Y-59375738D01*
X129795876Y-59375738D02*
X129748257Y-59470976D01*
X129176829Y-59042405D02*
X129129209Y-59137643D01*
X129129209Y-59137643D02*
X129129209Y-59375738D01*
X129129209Y-59375738D02*
X129176829Y-59470976D01*
X129176829Y-59470976D02*
X129272067Y-59518595D01*
X129272067Y-59518595D02*
X129367305Y-59518595D01*
X129367305Y-59518595D02*
X129462543Y-59470976D01*
X129462543Y-59470976D02*
X129510162Y-59375738D01*
X129510162Y-59375738D02*
X129510162Y-59137643D01*
X129510162Y-59137643D02*
X129557781Y-59042405D01*
X129129209Y-58566214D02*
X129795876Y-58566214D01*
X129605400Y-58566214D02*
X129700638Y-58518595D01*
X129700638Y-58518595D02*
X129748257Y-58470976D01*
X129748257Y-58470976D02*
X129795876Y-58375738D01*
X129795876Y-58375738D02*
X129795876Y-58280500D01*
X129795876Y-58090023D02*
X129795876Y-57709071D01*
X130129209Y-57947166D02*
X129272067Y-57947166D01*
X129272067Y-57947166D02*
X129176829Y-57899547D01*
X129176829Y-57899547D02*
X129129209Y-57804309D01*
X129129209Y-57804309D02*
X129129209Y-57709071D01*
X129176829Y-56994785D02*
X129129209Y-57090023D01*
X129129209Y-57090023D02*
X129129209Y-57280499D01*
X129129209Y-57280499D02*
X129176829Y-57375737D01*
X129176829Y-57375737D02*
X129272067Y-57423356D01*
X129272067Y-57423356D02*
X129653019Y-57423356D01*
X129653019Y-57423356D02*
X129748257Y-57375737D01*
X129748257Y-57375737D02*
X129795876Y-57280499D01*
X129795876Y-57280499D02*
X129795876Y-57090023D01*
X129795876Y-57090023D02*
X129748257Y-56994785D01*
X129748257Y-56994785D02*
X129653019Y-56947166D01*
X129653019Y-56947166D02*
X129557781Y-56947166D01*
X129557781Y-56947166D02*
X129462543Y-57423356D01*
D11*
X96875057Y-102842261D02*
X96827438Y-102747023D01*
X96827438Y-102747023D02*
X96732200Y-102651785D01*
X96732200Y-102651785D02*
X96589342Y-102508928D01*
X96589342Y-102508928D02*
X96541723Y-102413690D01*
X96541723Y-102413690D02*
X96541723Y-102318452D01*
X96779819Y-102366071D02*
X96732200Y-102270833D01*
X96732200Y-102270833D02*
X96636961Y-102175595D01*
X96636961Y-102175595D02*
X96446485Y-102127976D01*
X96446485Y-102127976D02*
X96113152Y-102127976D01*
X96113152Y-102127976D02*
X95922676Y-102175595D01*
X95922676Y-102175595D02*
X95827438Y-102270833D01*
X95827438Y-102270833D02*
X95779819Y-102366071D01*
X95779819Y-102366071D02*
X95779819Y-102556547D01*
X95779819Y-102556547D02*
X95827438Y-102651785D01*
X95827438Y-102651785D02*
X95922676Y-102747023D01*
X95922676Y-102747023D02*
X96113152Y-102794642D01*
X96113152Y-102794642D02*
X96446485Y-102794642D01*
X96446485Y-102794642D02*
X96636961Y-102747023D01*
X96636961Y-102747023D02*
X96732200Y-102651785D01*
X96732200Y-102651785D02*
X96779819Y-102556547D01*
X96779819Y-102556547D02*
X96779819Y-102366071D01*
X95875057Y-103175595D02*
X95827438Y-103223214D01*
X95827438Y-103223214D02*
X95779819Y-103318452D01*
X95779819Y-103318452D02*
X95779819Y-103556547D01*
X95779819Y-103556547D02*
X95827438Y-103651785D01*
X95827438Y-103651785D02*
X95875057Y-103699404D01*
X95875057Y-103699404D02*
X95970295Y-103747023D01*
X95970295Y-103747023D02*
X96065533Y-103747023D01*
X96065533Y-103747023D02*
X96208390Y-103699404D01*
X96208390Y-103699404D02*
X96779819Y-103127976D01*
X96779819Y-103127976D02*
X96779819Y-103747023D01*
X100529819Y-97738095D02*
X101339342Y-97738095D01*
X101339342Y-97738095D02*
X101434580Y-97785714D01*
X101434580Y-97785714D02*
X101482200Y-97833333D01*
X101482200Y-97833333D02*
X101529819Y-97928571D01*
X101529819Y-97928571D02*
X101529819Y-98119047D01*
X101529819Y-98119047D02*
X101482200Y-98214285D01*
X101482200Y-98214285D02*
X101434580Y-98261904D01*
X101434580Y-98261904D02*
X101339342Y-98309523D01*
X101339342Y-98309523D02*
X100529819Y-98309523D01*
X100625057Y-98738095D02*
X100577438Y-98785714D01*
X100577438Y-98785714D02*
X100529819Y-98880952D01*
X100529819Y-98880952D02*
X100529819Y-99119047D01*
X100529819Y-99119047D02*
X100577438Y-99214285D01*
X100577438Y-99214285D02*
X100625057Y-99261904D01*
X100625057Y-99261904D02*
X100720295Y-99309523D01*
X100720295Y-99309523D02*
X100815533Y-99309523D01*
X100815533Y-99309523D02*
X100958390Y-99261904D01*
X100958390Y-99261904D02*
X101529819Y-98690476D01*
X101529819Y-98690476D02*
X101529819Y-99309523D01*
X100329819Y-60538095D02*
X101139342Y-60538095D01*
X101139342Y-60538095D02*
X101234580Y-60585714D01*
X101234580Y-60585714D02*
X101282200Y-60633333D01*
X101282200Y-60633333D02*
X101329819Y-60728571D01*
X101329819Y-60728571D02*
X101329819Y-60919047D01*
X101329819Y-60919047D02*
X101282200Y-61014285D01*
X101282200Y-61014285D02*
X101234580Y-61061904D01*
X101234580Y-61061904D02*
X101139342Y-61109523D01*
X101139342Y-61109523D02*
X100329819Y-61109523D01*
X101329819Y-62109523D02*
X101329819Y-61538095D01*
X101329819Y-61823809D02*
X100329819Y-61823809D01*
X100329819Y-61823809D02*
X100472676Y-61728571D01*
X100472676Y-61728571D02*
X100567914Y-61633333D01*
X100567914Y-61633333D02*
X100615533Y-61538095D01*
X101166666Y-68954819D02*
X101499999Y-68478628D01*
X101738094Y-68954819D02*
X101738094Y-67954819D01*
X101738094Y-67954819D02*
X101357142Y-67954819D01*
X101357142Y-67954819D02*
X101261904Y-68002438D01*
X101261904Y-68002438D02*
X101214285Y-68050057D01*
X101214285Y-68050057D02*
X101166666Y-68145295D01*
X101166666Y-68145295D02*
X101166666Y-68288152D01*
X101166666Y-68288152D02*
X101214285Y-68383390D01*
X101214285Y-68383390D02*
X101261904Y-68431009D01*
X101261904Y-68431009D02*
X101357142Y-68478628D01*
X101357142Y-68478628D02*
X101738094Y-68478628D01*
X100214285Y-68954819D02*
X100785713Y-68954819D01*
X100499999Y-68954819D02*
X100499999Y-67954819D01*
X100499999Y-67954819D02*
X100595237Y-68097676D01*
X100595237Y-68097676D02*
X100690475Y-68192914D01*
X100690475Y-68192914D02*
X100785713Y-68240533D01*
%TO.C,D2*%
D13*
X96515000Y-51952500D02*
X99435000Y-51952500D01*
X96515000Y-55837500D02*
X96515000Y-51952500D01*
X99435000Y-51952500D02*
X99435000Y-55837500D01*
%TO.C,D3*%
X96540000Y-75215000D02*
X99460000Y-75215000D01*
X96540000Y-79100000D02*
X96540000Y-75215000D01*
X99460000Y-75215000D02*
X99460000Y-79100000D01*
%TO.C,R2*%
X98712258Y-57777500D02*
X98237742Y-57777500D01*
X98712258Y-58822500D02*
X98237742Y-58822500D01*
%TO.C,D4*%
X109350000Y-50010000D02*
X109350000Y-44500000D01*
X112650000Y-50010000D02*
X109350000Y-50010000D01*
X112650000Y-50010000D02*
X112650000Y-44500000D01*
%TO.C,R4*%
X98912258Y-105477500D02*
X98437742Y-105477500D01*
X98912258Y-106522500D02*
X98437742Y-106522500D01*
%TO.C,R5*%
X126262742Y-57977500D02*
X126737258Y-57977500D01*
X126262742Y-59022500D02*
X126737258Y-59022500D01*
%TO.C,D6*%
X106850000Y-105490000D02*
X106850000Y-111000000D01*
X106850000Y-105490000D02*
X110150000Y-105490000D01*
X110150000Y-105490000D02*
X110150000Y-111000000D01*
%TO.C,D5*%
X101850000Y-105490000D02*
X101850000Y-111000000D01*
X101850000Y-105490000D02*
X105150000Y-105490000D01*
X105150000Y-105490000D02*
X105150000Y-111000000D01*
%TO.C,Q1*%
X96915000Y-65040000D02*
X96915000Y-66560000D01*
X96915000Y-66560000D02*
X97915000Y-66560000D01*
X96965000Y-65040000D02*
X96915000Y-65040000D01*
X98865000Y-65040000D02*
X98085000Y-65040000D01*
X99035000Y-66560000D02*
X100035000Y-66560000D01*
X100035000Y-65040000D02*
X99985000Y-65040000D01*
X100035000Y-66560000D02*
X100035000Y-65040000D01*
X98425000Y-64740000D02*
X98095000Y-64500000D01*
X98425000Y-64260000D01*
X98425000Y-64740000D01*
G36*
X98425000Y-64740000D02*
G01*
X98095000Y-64500000D01*
X98425000Y-64260000D01*
X98425000Y-64740000D01*
G37*
%TO.C,R3*%
X98912258Y-94977500D02*
X98437742Y-94977500D01*
X98912258Y-96022500D02*
X98437742Y-96022500D01*
%TO.C,Q2*%
X97165000Y-102177500D02*
X97165000Y-103697500D01*
X97165000Y-103697500D02*
X98165000Y-103697500D01*
X97215000Y-102177500D02*
X97165000Y-102177500D01*
X99115000Y-102177500D02*
X98335000Y-102177500D01*
X99285000Y-103697500D02*
X100285000Y-103697500D01*
X100285000Y-102177500D02*
X100235000Y-102177500D01*
X100285000Y-103697500D02*
X100285000Y-102177500D01*
X98675000Y-101877500D02*
X98345000Y-101637500D01*
X98675000Y-101397500D01*
X98675000Y-101877500D01*
G36*
X98675000Y-101877500D02*
G01*
X98345000Y-101637500D01*
X98675000Y-101397500D01*
X98675000Y-101877500D01*
G37*
%TO.C,U2*%
X97115000Y-97740000D02*
X97115000Y-99260000D01*
X97115000Y-99260000D02*
X97165000Y-99260000D01*
X98115000Y-97740000D02*
X97115000Y-97740000D01*
X98285000Y-99260000D02*
X99065000Y-99260000D01*
X100185000Y-99260000D02*
X100235000Y-99260000D01*
X100235000Y-97740000D02*
X99235000Y-97740000D01*
X100235000Y-99260000D02*
X100235000Y-97740000D01*
X99055000Y-99800000D02*
X98725000Y-100040000D01*
X98725000Y-99560000D01*
X99055000Y-99800000D01*
G36*
X99055000Y-99800000D02*
G01*
X98725000Y-100040000D01*
X98725000Y-99560000D01*
X99055000Y-99800000D01*
G37*
%TO.C,U1*%
X96915000Y-60540000D02*
X96915000Y-62060000D01*
X96915000Y-62060000D02*
X96965000Y-62060000D01*
X97915000Y-60540000D02*
X96915000Y-60540000D01*
X98085000Y-62060000D02*
X98865000Y-62060000D01*
X99985000Y-62060000D02*
X100035000Y-62060000D01*
X100035000Y-60540000D02*
X99035000Y-60540000D01*
X100035000Y-62060000D02*
X100035000Y-60540000D01*
X98855000Y-62600000D02*
X98525000Y-62840000D01*
X98525000Y-62360000D01*
X98855000Y-62600000D01*
G36*
X98855000Y-62600000D02*
G01*
X98525000Y-62840000D01*
X98525000Y-62360000D01*
X98855000Y-62600000D01*
G37*
%TO.C,R1*%
X98712258Y-68277500D02*
X98237742Y-68277500D01*
X98712258Y-69322500D02*
X98237742Y-69322500D01*
%TD*%
M02*
