%TF.GenerationSoftware,KiCad,Pcbnew,9.0.8-9.0.8~ubuntu24.04.1*%
%TF.CreationDate,2026-03-22T18:07:52+01:00*%
%TF.ProjectId,Relais-Karte,52656c61-6973-42d4-9b61-7274652e6b69,V1.0*%
%TF.SameCoordinates,Original*%
%TF.FileFunction,AssemblyDrawing,Bot*%
%FSLAX46Y46*%
G04 Gerber Fmt 4.6, Leading zero omitted, Abs format (unit mm)*
G04 Created by KiCad (PCBNEW 9.0.8-9.0.8~ubuntu24.04.1) date 2026-03-22 18:07:52*
%MOMM*%
%LPD*%
G01*
G04 APERTURE LIST*
%ADD10C,0.150000*%
%ADD11C,0.120000*%
%ADD12C,0.060000*%
%ADD13C,0.110000*%
%ADD14C,0.012500*%
%ADD15C,0.100000*%
G04 APERTURE END LIST*
D10*
X112095237Y-54454819D02*
X112095237Y-53454819D01*
X111523809Y-54454819D02*
X111952380Y-53883390D01*
X111523809Y-53454819D02*
X112095237Y-54026247D01*
X111095237Y-54454819D02*
X111095237Y-53454819D01*
X111095237Y-53454819D02*
X110714285Y-53454819D01*
X110714285Y-53454819D02*
X110619047Y-53502438D01*
X110619047Y-53502438D02*
X110571428Y-53550057D01*
X110571428Y-53550057D02*
X110523809Y-53645295D01*
X110523809Y-53645295D02*
X110523809Y-53788152D01*
X110523809Y-53788152D02*
X110571428Y-53883390D01*
X110571428Y-53883390D02*
X110619047Y-53931009D01*
X110619047Y-53931009D02*
X110714285Y-53978628D01*
X110714285Y-53978628D02*
X111095237Y-53978628D01*
X110238094Y-53454819D02*
X109666666Y-53454819D01*
X109952380Y-54454819D02*
X109952380Y-53454819D01*
X109333332Y-54454819D02*
X109333332Y-53454819D01*
X109333332Y-53454819D02*
X109095237Y-53454819D01*
X109095237Y-53454819D02*
X108952380Y-53502438D01*
X108952380Y-53502438D02*
X108857142Y-53597676D01*
X108857142Y-53597676D02*
X108809523Y-53692914D01*
X108809523Y-53692914D02*
X108761904Y-53883390D01*
X108761904Y-53883390D02*
X108761904Y-54026247D01*
X108761904Y-54026247D02*
X108809523Y-54216723D01*
X108809523Y-54216723D02*
X108857142Y-54311961D01*
X108857142Y-54311961D02*
X108952380Y-54407200D01*
X108952380Y-54407200D02*
X109095237Y-54454819D01*
X109095237Y-54454819D02*
X109333332Y-54454819D01*
X108333332Y-54073866D02*
X107571428Y-54073866D01*
X107190475Y-53454819D02*
X106571428Y-53454819D01*
X106571428Y-53454819D02*
X106904761Y-53835771D01*
X106904761Y-53835771D02*
X106761904Y-53835771D01*
X106761904Y-53835771D02*
X106666666Y-53883390D01*
X106666666Y-53883390D02*
X106619047Y-53931009D01*
X106619047Y-53931009D02*
X106571428Y-54026247D01*
X106571428Y-54026247D02*
X106571428Y-54264342D01*
X106571428Y-54264342D02*
X106619047Y-54359580D01*
X106619047Y-54359580D02*
X106666666Y-54407200D01*
X106666666Y-54407200D02*
X106761904Y-54454819D01*
X106761904Y-54454819D02*
X107047618Y-54454819D01*
X107047618Y-54454819D02*
X107142856Y-54407200D01*
X107142856Y-54407200D02*
X107190475Y-54359580D01*
X106190475Y-53550057D02*
X106142856Y-53502438D01*
X106142856Y-53502438D02*
X106047618Y-53454819D01*
X106047618Y-53454819D02*
X105809523Y-53454819D01*
X105809523Y-53454819D02*
X105714285Y-53502438D01*
X105714285Y-53502438D02*
X105666666Y-53550057D01*
X105666666Y-53550057D02*
X105619047Y-53645295D01*
X105619047Y-53645295D02*
X105619047Y-53740533D01*
X105619047Y-53740533D02*
X105666666Y-53883390D01*
X105666666Y-53883390D02*
X106238094Y-54454819D01*
X106238094Y-54454819D02*
X105619047Y-54454819D01*
X104666666Y-54454819D02*
X105238094Y-54454819D01*
X104952380Y-54454819D02*
X104952380Y-53454819D01*
X104952380Y-53454819D02*
X105047618Y-53597676D01*
X105047618Y-53597676D02*
X105142856Y-53692914D01*
X105142856Y-53692914D02*
X105238094Y-53740533D01*
X103809523Y-53454819D02*
X103999999Y-53454819D01*
X103999999Y-53454819D02*
X104095237Y-53502438D01*
X104095237Y-53502438D02*
X104142856Y-53550057D01*
X104142856Y-53550057D02*
X104238094Y-53692914D01*
X104238094Y-53692914D02*
X104285713Y-53883390D01*
X104285713Y-53883390D02*
X104285713Y-54264342D01*
X104285713Y-54264342D02*
X104238094Y-54359580D01*
X104238094Y-54359580D02*
X104190475Y-54407200D01*
X104190475Y-54407200D02*
X104095237Y-54454819D01*
X104095237Y-54454819D02*
X103904761Y-54454819D01*
X103904761Y-54454819D02*
X103809523Y-54407200D01*
X103809523Y-54407200D02*
X103761904Y-54359580D01*
X103761904Y-54359580D02*
X103714285Y-54264342D01*
X103714285Y-54264342D02*
X103714285Y-54026247D01*
X103714285Y-54026247D02*
X103761904Y-53931009D01*
X103761904Y-53931009D02*
X103809523Y-53883390D01*
X103809523Y-53883390D02*
X103904761Y-53835771D01*
X103904761Y-53835771D02*
X104095237Y-53835771D01*
X104095237Y-53835771D02*
X104190475Y-53883390D01*
X104190475Y-53883390D02*
X104238094Y-53931009D01*
X104238094Y-53931009D02*
X104285713Y-54026247D01*
X103333332Y-54407200D02*
X103190475Y-54454819D01*
X103190475Y-54454819D02*
X102952380Y-54454819D01*
X102952380Y-54454819D02*
X102857142Y-54407200D01*
X102857142Y-54407200D02*
X102809523Y-54359580D01*
X102809523Y-54359580D02*
X102761904Y-54264342D01*
X102761904Y-54264342D02*
X102761904Y-54169104D01*
X102761904Y-54169104D02*
X102809523Y-54073866D01*
X102809523Y-54073866D02*
X102857142Y-54026247D01*
X102857142Y-54026247D02*
X102952380Y-53978628D01*
X102952380Y-53978628D02*
X103142856Y-53931009D01*
X103142856Y-53931009D02*
X103238094Y-53883390D01*
X103238094Y-53883390D02*
X103285713Y-53835771D01*
X103285713Y-53835771D02*
X103333332Y-53740533D01*
X103333332Y-53740533D02*
X103333332Y-53645295D01*
X103333332Y-53645295D02*
X103285713Y-53550057D01*
X103285713Y-53550057D02*
X103238094Y-53502438D01*
X103238094Y-53502438D02*
X103142856Y-53454819D01*
X103142856Y-53454819D02*
X102904761Y-53454819D01*
X102904761Y-53454819D02*
X102761904Y-53502438D01*
X102333332Y-53931009D02*
X101999999Y-53931009D01*
X101857142Y-54454819D02*
X102333332Y-54454819D01*
X102333332Y-54454819D02*
X102333332Y-53454819D01*
X102333332Y-53454819D02*
X101857142Y-53454819D01*
X100857142Y-54359580D02*
X100904761Y-54407200D01*
X100904761Y-54407200D02*
X101047618Y-54454819D01*
X101047618Y-54454819D02*
X101142856Y-54454819D01*
X101142856Y-54454819D02*
X101285713Y-54407200D01*
X101285713Y-54407200D02*
X101380951Y-54311961D01*
X101380951Y-54311961D02*
X101428570Y-54216723D01*
X101428570Y-54216723D02*
X101476189Y-54026247D01*
X101476189Y-54026247D02*
X101476189Y-53883390D01*
X101476189Y-53883390D02*
X101428570Y-53692914D01*
X101428570Y-53692914D02*
X101380951Y-53597676D01*
X101380951Y-53597676D02*
X101285713Y-53502438D01*
X101285713Y-53502438D02*
X101142856Y-53454819D01*
X101142856Y-53454819D02*
X101047618Y-53454819D01*
X101047618Y-53454819D02*
X100904761Y-53502438D01*
X100904761Y-53502438D02*
X100857142Y-53550057D01*
X100428570Y-54454819D02*
X100428570Y-53454819D01*
X99857142Y-54454819D02*
X100285713Y-53883390D01*
X99857142Y-53454819D02*
X100428570Y-54026247D01*
D11*
X98338855Y-53647024D02*
X97538855Y-53647024D01*
X97538855Y-53647024D02*
X97538855Y-53837500D01*
X97538855Y-53837500D02*
X97576950Y-53951786D01*
X97576950Y-53951786D02*
X97653140Y-54027976D01*
X97653140Y-54027976D02*
X97729331Y-54066071D01*
X97729331Y-54066071D02*
X97881712Y-54104167D01*
X97881712Y-54104167D02*
X97995998Y-54104167D01*
X97995998Y-54104167D02*
X98148379Y-54066071D01*
X98148379Y-54066071D02*
X98224569Y-54027976D01*
X98224569Y-54027976D02*
X98300760Y-53951786D01*
X98300760Y-53951786D02*
X98338855Y-53837500D01*
X98338855Y-53837500D02*
X98338855Y-53647024D01*
X97615045Y-54408928D02*
X97576950Y-54447024D01*
X97576950Y-54447024D02*
X97538855Y-54523214D01*
X97538855Y-54523214D02*
X97538855Y-54713690D01*
X97538855Y-54713690D02*
X97576950Y-54789881D01*
X97576950Y-54789881D02*
X97615045Y-54827976D01*
X97615045Y-54827976D02*
X97691236Y-54866071D01*
X97691236Y-54866071D02*
X97767426Y-54866071D01*
X97767426Y-54866071D02*
X97881712Y-54827976D01*
X97881712Y-54827976D02*
X98338855Y-54370833D01*
X98338855Y-54370833D02*
X98338855Y-54866071D01*
D10*
X111595237Y-77954819D02*
X111595237Y-76954819D01*
X111023809Y-77954819D02*
X111452380Y-77383390D01*
X111023809Y-76954819D02*
X111595237Y-77526247D01*
X110595237Y-77954819D02*
X110595237Y-76954819D01*
X110595237Y-76954819D02*
X110214285Y-76954819D01*
X110214285Y-76954819D02*
X110119047Y-77002438D01*
X110119047Y-77002438D02*
X110071428Y-77050057D01*
X110071428Y-77050057D02*
X110023809Y-77145295D01*
X110023809Y-77145295D02*
X110023809Y-77288152D01*
X110023809Y-77288152D02*
X110071428Y-77383390D01*
X110071428Y-77383390D02*
X110119047Y-77431009D01*
X110119047Y-77431009D02*
X110214285Y-77478628D01*
X110214285Y-77478628D02*
X110595237Y-77478628D01*
X109738094Y-76954819D02*
X109166666Y-76954819D01*
X109452380Y-77954819D02*
X109452380Y-76954819D01*
X108833332Y-77954819D02*
X108833332Y-76954819D01*
X108833332Y-76954819D02*
X108595237Y-76954819D01*
X108595237Y-76954819D02*
X108452380Y-77002438D01*
X108452380Y-77002438D02*
X108357142Y-77097676D01*
X108357142Y-77097676D02*
X108309523Y-77192914D01*
X108309523Y-77192914D02*
X108261904Y-77383390D01*
X108261904Y-77383390D02*
X108261904Y-77526247D01*
X108261904Y-77526247D02*
X108309523Y-77716723D01*
X108309523Y-77716723D02*
X108357142Y-77811961D01*
X108357142Y-77811961D02*
X108452380Y-77907200D01*
X108452380Y-77907200D02*
X108595237Y-77954819D01*
X108595237Y-77954819D02*
X108833332Y-77954819D01*
X107833332Y-77573866D02*
X107071428Y-77573866D01*
X106690475Y-76954819D02*
X106071428Y-76954819D01*
X106071428Y-76954819D02*
X106404761Y-77335771D01*
X106404761Y-77335771D02*
X106261904Y-77335771D01*
X106261904Y-77335771D02*
X106166666Y-77383390D01*
X106166666Y-77383390D02*
X106119047Y-77431009D01*
X106119047Y-77431009D02*
X106071428Y-77526247D01*
X106071428Y-77526247D02*
X106071428Y-77764342D01*
X106071428Y-77764342D02*
X106119047Y-77859580D01*
X106119047Y-77859580D02*
X106166666Y-77907200D01*
X106166666Y-77907200D02*
X106261904Y-77954819D01*
X106261904Y-77954819D02*
X106547618Y-77954819D01*
X106547618Y-77954819D02*
X106642856Y-77907200D01*
X106642856Y-77907200D02*
X106690475Y-77859580D01*
X105690475Y-77050057D02*
X105642856Y-77002438D01*
X105642856Y-77002438D02*
X105547618Y-76954819D01*
X105547618Y-76954819D02*
X105309523Y-76954819D01*
X105309523Y-76954819D02*
X105214285Y-77002438D01*
X105214285Y-77002438D02*
X105166666Y-77050057D01*
X105166666Y-77050057D02*
X105119047Y-77145295D01*
X105119047Y-77145295D02*
X105119047Y-77240533D01*
X105119047Y-77240533D02*
X105166666Y-77383390D01*
X105166666Y-77383390D02*
X105738094Y-77954819D01*
X105738094Y-77954819D02*
X105119047Y-77954819D01*
X104166666Y-77954819D02*
X104738094Y-77954819D01*
X104452380Y-77954819D02*
X104452380Y-76954819D01*
X104452380Y-76954819D02*
X104547618Y-77097676D01*
X104547618Y-77097676D02*
X104642856Y-77192914D01*
X104642856Y-77192914D02*
X104738094Y-77240533D01*
X103309523Y-76954819D02*
X103499999Y-76954819D01*
X103499999Y-76954819D02*
X103595237Y-77002438D01*
X103595237Y-77002438D02*
X103642856Y-77050057D01*
X103642856Y-77050057D02*
X103738094Y-77192914D01*
X103738094Y-77192914D02*
X103785713Y-77383390D01*
X103785713Y-77383390D02*
X103785713Y-77764342D01*
X103785713Y-77764342D02*
X103738094Y-77859580D01*
X103738094Y-77859580D02*
X103690475Y-77907200D01*
X103690475Y-77907200D02*
X103595237Y-77954819D01*
X103595237Y-77954819D02*
X103404761Y-77954819D01*
X103404761Y-77954819D02*
X103309523Y-77907200D01*
X103309523Y-77907200D02*
X103261904Y-77859580D01*
X103261904Y-77859580D02*
X103214285Y-77764342D01*
X103214285Y-77764342D02*
X103214285Y-77526247D01*
X103214285Y-77526247D02*
X103261904Y-77431009D01*
X103261904Y-77431009D02*
X103309523Y-77383390D01*
X103309523Y-77383390D02*
X103404761Y-77335771D01*
X103404761Y-77335771D02*
X103595237Y-77335771D01*
X103595237Y-77335771D02*
X103690475Y-77383390D01*
X103690475Y-77383390D02*
X103738094Y-77431009D01*
X103738094Y-77431009D02*
X103785713Y-77526247D01*
X102833332Y-77907200D02*
X102690475Y-77954819D01*
X102690475Y-77954819D02*
X102452380Y-77954819D01*
X102452380Y-77954819D02*
X102357142Y-77907200D01*
X102357142Y-77907200D02*
X102309523Y-77859580D01*
X102309523Y-77859580D02*
X102261904Y-77764342D01*
X102261904Y-77764342D02*
X102261904Y-77669104D01*
X102261904Y-77669104D02*
X102309523Y-77573866D01*
X102309523Y-77573866D02*
X102357142Y-77526247D01*
X102357142Y-77526247D02*
X102452380Y-77478628D01*
X102452380Y-77478628D02*
X102642856Y-77431009D01*
X102642856Y-77431009D02*
X102738094Y-77383390D01*
X102738094Y-77383390D02*
X102785713Y-77335771D01*
X102785713Y-77335771D02*
X102833332Y-77240533D01*
X102833332Y-77240533D02*
X102833332Y-77145295D01*
X102833332Y-77145295D02*
X102785713Y-77050057D01*
X102785713Y-77050057D02*
X102738094Y-77002438D01*
X102738094Y-77002438D02*
X102642856Y-76954819D01*
X102642856Y-76954819D02*
X102404761Y-76954819D01*
X102404761Y-76954819D02*
X102261904Y-77002438D01*
X101833332Y-77431009D02*
X101499999Y-77431009D01*
X101357142Y-77954819D02*
X101833332Y-77954819D01*
X101833332Y-77954819D02*
X101833332Y-76954819D01*
X101833332Y-76954819D02*
X101357142Y-76954819D01*
X100357142Y-77859580D02*
X100404761Y-77907200D01*
X100404761Y-77907200D02*
X100547618Y-77954819D01*
X100547618Y-77954819D02*
X100642856Y-77954819D01*
X100642856Y-77954819D02*
X100785713Y-77907200D01*
X100785713Y-77907200D02*
X100880951Y-77811961D01*
X100880951Y-77811961D02*
X100928570Y-77716723D01*
X100928570Y-77716723D02*
X100976189Y-77526247D01*
X100976189Y-77526247D02*
X100976189Y-77383390D01*
X100976189Y-77383390D02*
X100928570Y-77192914D01*
X100928570Y-77192914D02*
X100880951Y-77097676D01*
X100880951Y-77097676D02*
X100785713Y-77002438D01*
X100785713Y-77002438D02*
X100642856Y-76954819D01*
X100642856Y-76954819D02*
X100547618Y-76954819D01*
X100547618Y-76954819D02*
X100404761Y-77002438D01*
X100404761Y-77002438D02*
X100357142Y-77050057D01*
X99928570Y-77954819D02*
X99928570Y-76954819D01*
X99357142Y-77954819D02*
X99785713Y-77383390D01*
X99357142Y-76954819D02*
X99928570Y-77526247D01*
D11*
X98363855Y-76909524D02*
X97563855Y-76909524D01*
X97563855Y-76909524D02*
X97563855Y-77100000D01*
X97563855Y-77100000D02*
X97601950Y-77214286D01*
X97601950Y-77214286D02*
X97678140Y-77290476D01*
X97678140Y-77290476D02*
X97754331Y-77328571D01*
X97754331Y-77328571D02*
X97906712Y-77366667D01*
X97906712Y-77366667D02*
X98020998Y-77366667D01*
X98020998Y-77366667D02*
X98173379Y-77328571D01*
X98173379Y-77328571D02*
X98249569Y-77290476D01*
X98249569Y-77290476D02*
X98325760Y-77214286D01*
X98325760Y-77214286D02*
X98363855Y-77100000D01*
X98363855Y-77100000D02*
X98363855Y-76909524D01*
X97563855Y-77633333D02*
X97563855Y-78128571D01*
X97563855Y-78128571D02*
X97868617Y-77861905D01*
X97868617Y-77861905D02*
X97868617Y-77976190D01*
X97868617Y-77976190D02*
X97906712Y-78052381D01*
X97906712Y-78052381D02*
X97944807Y-78090476D01*
X97944807Y-78090476D02*
X98020998Y-78128571D01*
X98020998Y-78128571D02*
X98211474Y-78128571D01*
X98211474Y-78128571D02*
X98287664Y-78090476D01*
X98287664Y-78090476D02*
X98325760Y-78052381D01*
X98325760Y-78052381D02*
X98363855Y-77976190D01*
X98363855Y-77976190D02*
X98363855Y-77747619D01*
X98363855Y-77747619D02*
X98325760Y-77671428D01*
X98325760Y-77671428D02*
X98287664Y-77633333D01*
D10*
X100738094Y-56550057D02*
X100690475Y-56502438D01*
X100690475Y-56502438D02*
X100595237Y-56454819D01*
X100595237Y-56454819D02*
X100357142Y-56454819D01*
X100357142Y-56454819D02*
X100261904Y-56502438D01*
X100261904Y-56502438D02*
X100214285Y-56550057D01*
X100214285Y-56550057D02*
X100166666Y-56645295D01*
X100166666Y-56645295D02*
X100166666Y-56740533D01*
X100166666Y-56740533D02*
X100214285Y-56883390D01*
X100214285Y-56883390D02*
X100785713Y-57454819D01*
X100785713Y-57454819D02*
X100166666Y-57454819D01*
X99833332Y-56454819D02*
X99166666Y-56454819D01*
X99166666Y-56454819D02*
X99595237Y-57454819D01*
X98595237Y-56454819D02*
X98499999Y-56454819D01*
X98499999Y-56454819D02*
X98404761Y-56502438D01*
X98404761Y-56502438D02*
X98357142Y-56550057D01*
X98357142Y-56550057D02*
X98309523Y-56645295D01*
X98309523Y-56645295D02*
X98261904Y-56835771D01*
X98261904Y-56835771D02*
X98261904Y-57073866D01*
X98261904Y-57073866D02*
X98309523Y-57264342D01*
X98309523Y-57264342D02*
X98357142Y-57359580D01*
X98357142Y-57359580D02*
X98404761Y-57407200D01*
X98404761Y-57407200D02*
X98499999Y-57454819D01*
X98499999Y-57454819D02*
X98595237Y-57454819D01*
X98595237Y-57454819D02*
X98690475Y-57407200D01*
X98690475Y-57407200D02*
X98738094Y-57359580D01*
X98738094Y-57359580D02*
X98785713Y-57264342D01*
X98785713Y-57264342D02*
X98833332Y-57073866D01*
X98833332Y-57073866D02*
X98833332Y-56835771D01*
X98833332Y-56835771D02*
X98785713Y-56645295D01*
X98785713Y-56645295D02*
X98738094Y-56550057D01*
X98738094Y-56550057D02*
X98690475Y-56502438D01*
X98690475Y-56502438D02*
X98595237Y-56454819D01*
X97261904Y-57454819D02*
X97595237Y-56978628D01*
X97833332Y-57454819D02*
X97833332Y-56454819D01*
X97833332Y-56454819D02*
X97452380Y-56454819D01*
X97452380Y-56454819D02*
X97357142Y-56502438D01*
X97357142Y-56502438D02*
X97309523Y-56550057D01*
X97309523Y-56550057D02*
X97261904Y-56645295D01*
X97261904Y-56645295D02*
X97261904Y-56788152D01*
X97261904Y-56788152D02*
X97309523Y-56883390D01*
X97309523Y-56883390D02*
X97357142Y-56931009D01*
X97357142Y-56931009D02*
X97452380Y-56978628D01*
X97452380Y-56978628D02*
X97833332Y-56978628D01*
D12*
X98541666Y-58481927D02*
X98674999Y-58291451D01*
X98770237Y-58481927D02*
X98770237Y-58081927D01*
X98770237Y-58081927D02*
X98617856Y-58081927D01*
X98617856Y-58081927D02*
X98579761Y-58100975D01*
X98579761Y-58100975D02*
X98560714Y-58120022D01*
X98560714Y-58120022D02*
X98541666Y-58158118D01*
X98541666Y-58158118D02*
X98541666Y-58215260D01*
X98541666Y-58215260D02*
X98560714Y-58253356D01*
X98560714Y-58253356D02*
X98579761Y-58272403D01*
X98579761Y-58272403D02*
X98617856Y-58291451D01*
X98617856Y-58291451D02*
X98770237Y-58291451D01*
X98389285Y-58120022D02*
X98370237Y-58100975D01*
X98370237Y-58100975D02*
X98332142Y-58081927D01*
X98332142Y-58081927D02*
X98236904Y-58081927D01*
X98236904Y-58081927D02*
X98198809Y-58100975D01*
X98198809Y-58100975D02*
X98179761Y-58120022D01*
X98179761Y-58120022D02*
X98160714Y-58158118D01*
X98160714Y-58158118D02*
X98160714Y-58196213D01*
X98160714Y-58196213D02*
X98179761Y-58253356D01*
X98179761Y-58253356D02*
X98408333Y-58481927D01*
X98408333Y-58481927D02*
X98160714Y-58481927D01*
D10*
X99936904Y-106980057D02*
X99889285Y-106932438D01*
X99889285Y-106932438D02*
X99794047Y-106884819D01*
X99794047Y-106884819D02*
X99555952Y-106884819D01*
X99555952Y-106884819D02*
X99460714Y-106932438D01*
X99460714Y-106932438D02*
X99413095Y-106980057D01*
X99413095Y-106980057D02*
X99365476Y-107075295D01*
X99365476Y-107075295D02*
X99365476Y-107170533D01*
X99365476Y-107170533D02*
X99413095Y-107313390D01*
X99413095Y-107313390D02*
X99984523Y-107884819D01*
X99984523Y-107884819D02*
X99365476Y-107884819D01*
X98984523Y-106980057D02*
X98936904Y-106932438D01*
X98936904Y-106932438D02*
X98841666Y-106884819D01*
X98841666Y-106884819D02*
X98603571Y-106884819D01*
X98603571Y-106884819D02*
X98508333Y-106932438D01*
X98508333Y-106932438D02*
X98460714Y-106980057D01*
X98460714Y-106980057D02*
X98413095Y-107075295D01*
X98413095Y-107075295D02*
X98413095Y-107170533D01*
X98413095Y-107170533D02*
X98460714Y-107313390D01*
X98460714Y-107313390D02*
X99032142Y-107884819D01*
X99032142Y-107884819D02*
X98413095Y-107884819D01*
X97984523Y-107884819D02*
X97984523Y-106884819D01*
X97413095Y-107884819D02*
X97841666Y-107313390D01*
X97413095Y-106884819D02*
X97984523Y-107456247D01*
D12*
X98741666Y-106181927D02*
X98874999Y-105991451D01*
X98970237Y-106181927D02*
X98970237Y-105781927D01*
X98970237Y-105781927D02*
X98817856Y-105781927D01*
X98817856Y-105781927D02*
X98779761Y-105800975D01*
X98779761Y-105800975D02*
X98760714Y-105820022D01*
X98760714Y-105820022D02*
X98741666Y-105858118D01*
X98741666Y-105858118D02*
X98741666Y-105915260D01*
X98741666Y-105915260D02*
X98760714Y-105953356D01*
X98760714Y-105953356D02*
X98779761Y-105972403D01*
X98779761Y-105972403D02*
X98817856Y-105991451D01*
X98817856Y-105991451D02*
X98970237Y-105991451D01*
X98398809Y-105915260D02*
X98398809Y-106181927D01*
X98494047Y-105762880D02*
X98589285Y-106048594D01*
X98589285Y-106048594D02*
X98341666Y-106048594D01*
D10*
X104857142Y-65731009D02*
X104714285Y-65778628D01*
X104714285Y-65778628D02*
X104666666Y-65826247D01*
X104666666Y-65826247D02*
X104619047Y-65921485D01*
X104619047Y-65921485D02*
X104619047Y-66064342D01*
X104619047Y-66064342D02*
X104666666Y-66159580D01*
X104666666Y-66159580D02*
X104714285Y-66207200D01*
X104714285Y-66207200D02*
X104809523Y-66254819D01*
X104809523Y-66254819D02*
X105190475Y-66254819D01*
X105190475Y-66254819D02*
X105190475Y-65254819D01*
X105190475Y-65254819D02*
X104857142Y-65254819D01*
X104857142Y-65254819D02*
X104761904Y-65302438D01*
X104761904Y-65302438D02*
X104714285Y-65350057D01*
X104714285Y-65350057D02*
X104666666Y-65445295D01*
X104666666Y-65445295D02*
X104666666Y-65540533D01*
X104666666Y-65540533D02*
X104714285Y-65635771D01*
X104714285Y-65635771D02*
X104761904Y-65683390D01*
X104761904Y-65683390D02*
X104857142Y-65731009D01*
X104857142Y-65731009D02*
X105190475Y-65731009D01*
X103619047Y-66159580D02*
X103666666Y-66207200D01*
X103666666Y-66207200D02*
X103809523Y-66254819D01*
X103809523Y-66254819D02*
X103904761Y-66254819D01*
X103904761Y-66254819D02*
X104047618Y-66207200D01*
X104047618Y-66207200D02*
X104142856Y-66111961D01*
X104142856Y-66111961D02*
X104190475Y-66016723D01*
X104190475Y-66016723D02*
X104238094Y-65826247D01*
X104238094Y-65826247D02*
X104238094Y-65683390D01*
X104238094Y-65683390D02*
X104190475Y-65492914D01*
X104190475Y-65492914D02*
X104142856Y-65397676D01*
X104142856Y-65397676D02*
X104047618Y-65302438D01*
X104047618Y-65302438D02*
X103904761Y-65254819D01*
X103904761Y-65254819D02*
X103809523Y-65254819D01*
X103809523Y-65254819D02*
X103666666Y-65302438D01*
X103666666Y-65302438D02*
X103619047Y-65350057D01*
X103047618Y-65683390D02*
X103142856Y-65635771D01*
X103142856Y-65635771D02*
X103190475Y-65588152D01*
X103190475Y-65588152D02*
X103238094Y-65492914D01*
X103238094Y-65492914D02*
X103238094Y-65445295D01*
X103238094Y-65445295D02*
X103190475Y-65350057D01*
X103190475Y-65350057D02*
X103142856Y-65302438D01*
X103142856Y-65302438D02*
X103047618Y-65254819D01*
X103047618Y-65254819D02*
X102857142Y-65254819D01*
X102857142Y-65254819D02*
X102761904Y-65302438D01*
X102761904Y-65302438D02*
X102714285Y-65350057D01*
X102714285Y-65350057D02*
X102666666Y-65445295D01*
X102666666Y-65445295D02*
X102666666Y-65492914D01*
X102666666Y-65492914D02*
X102714285Y-65588152D01*
X102714285Y-65588152D02*
X102761904Y-65635771D01*
X102761904Y-65635771D02*
X102857142Y-65683390D01*
X102857142Y-65683390D02*
X103047618Y-65683390D01*
X103047618Y-65683390D02*
X103142856Y-65731009D01*
X103142856Y-65731009D02*
X103190475Y-65778628D01*
X103190475Y-65778628D02*
X103238094Y-65873866D01*
X103238094Y-65873866D02*
X103238094Y-66064342D01*
X103238094Y-66064342D02*
X103190475Y-66159580D01*
X103190475Y-66159580D02*
X103142856Y-66207200D01*
X103142856Y-66207200D02*
X103047618Y-66254819D01*
X103047618Y-66254819D02*
X102857142Y-66254819D01*
X102857142Y-66254819D02*
X102761904Y-66207200D01*
X102761904Y-66207200D02*
X102714285Y-66159580D01*
X102714285Y-66159580D02*
X102666666Y-66064342D01*
X102666666Y-66064342D02*
X102666666Y-65873866D01*
X102666666Y-65873866D02*
X102714285Y-65778628D01*
X102714285Y-65778628D02*
X102761904Y-65731009D01*
X102761904Y-65731009D02*
X102857142Y-65683390D01*
X101809523Y-65588152D02*
X101809523Y-66254819D01*
X102047618Y-65207200D02*
X102285713Y-65921485D01*
X102285713Y-65921485D02*
X101666666Y-65921485D01*
X100857142Y-65254819D02*
X101047618Y-65254819D01*
X101047618Y-65254819D02*
X101142856Y-65302438D01*
X101142856Y-65302438D02*
X101190475Y-65350057D01*
X101190475Y-65350057D02*
X101285713Y-65492914D01*
X101285713Y-65492914D02*
X101333332Y-65683390D01*
X101333332Y-65683390D02*
X101333332Y-66064342D01*
X101333332Y-66064342D02*
X101285713Y-66159580D01*
X101285713Y-66159580D02*
X101238094Y-66207200D01*
X101238094Y-66207200D02*
X101142856Y-66254819D01*
X101142856Y-66254819D02*
X100952380Y-66254819D01*
X100952380Y-66254819D02*
X100857142Y-66207200D01*
X100857142Y-66207200D02*
X100809523Y-66159580D01*
X100809523Y-66159580D02*
X100761904Y-66064342D01*
X100761904Y-66064342D02*
X100761904Y-65826247D01*
X100761904Y-65826247D02*
X100809523Y-65731009D01*
X100809523Y-65731009D02*
X100857142Y-65683390D01*
X100857142Y-65683390D02*
X100952380Y-65635771D01*
X100952380Y-65635771D02*
X101142856Y-65635771D01*
X101142856Y-65635771D02*
X101238094Y-65683390D01*
X101238094Y-65683390D02*
X101285713Y-65731009D01*
X101285713Y-65731009D02*
X101333332Y-65826247D01*
D13*
X98543571Y-66195937D02*
X98612142Y-66161651D01*
X98612142Y-66161651D02*
X98680714Y-66093080D01*
X98680714Y-66093080D02*
X98783571Y-65990222D01*
X98783571Y-65990222D02*
X98852142Y-65955937D01*
X98852142Y-65955937D02*
X98920714Y-65955937D01*
X98886428Y-66127365D02*
X98955000Y-66093080D01*
X98955000Y-66093080D02*
X99023571Y-66024508D01*
X99023571Y-66024508D02*
X99057857Y-65887365D01*
X99057857Y-65887365D02*
X99057857Y-65647365D01*
X99057857Y-65647365D02*
X99023571Y-65510222D01*
X99023571Y-65510222D02*
X98955000Y-65441651D01*
X98955000Y-65441651D02*
X98886428Y-65407365D01*
X98886428Y-65407365D02*
X98749285Y-65407365D01*
X98749285Y-65407365D02*
X98680714Y-65441651D01*
X98680714Y-65441651D02*
X98612142Y-65510222D01*
X98612142Y-65510222D02*
X98577857Y-65647365D01*
X98577857Y-65647365D02*
X98577857Y-65887365D01*
X98577857Y-65887365D02*
X98612142Y-66024508D01*
X98612142Y-66024508D02*
X98680714Y-66093080D01*
X98680714Y-66093080D02*
X98749285Y-66127365D01*
X98749285Y-66127365D02*
X98886428Y-66127365D01*
X97892142Y-66127365D02*
X98303571Y-66127365D01*
X98097856Y-66127365D02*
X98097856Y-65407365D01*
X98097856Y-65407365D02*
X98166428Y-65510222D01*
X98166428Y-65510222D02*
X98234999Y-65578794D01*
X98234999Y-65578794D02*
X98303571Y-65613080D01*
D10*
X103738094Y-95050057D02*
X103690475Y-95002438D01*
X103690475Y-95002438D02*
X103595237Y-94954819D01*
X103595237Y-94954819D02*
X103357142Y-94954819D01*
X103357142Y-94954819D02*
X103261904Y-95002438D01*
X103261904Y-95002438D02*
X103214285Y-95050057D01*
X103214285Y-95050057D02*
X103166666Y-95145295D01*
X103166666Y-95145295D02*
X103166666Y-95240533D01*
X103166666Y-95240533D02*
X103214285Y-95383390D01*
X103214285Y-95383390D02*
X103785713Y-95954819D01*
X103785713Y-95954819D02*
X103166666Y-95954819D01*
X102833332Y-94954819D02*
X102166666Y-94954819D01*
X102166666Y-94954819D02*
X102595237Y-95954819D01*
X101595237Y-94954819D02*
X101499999Y-94954819D01*
X101499999Y-94954819D02*
X101404761Y-95002438D01*
X101404761Y-95002438D02*
X101357142Y-95050057D01*
X101357142Y-95050057D02*
X101309523Y-95145295D01*
X101309523Y-95145295D02*
X101261904Y-95335771D01*
X101261904Y-95335771D02*
X101261904Y-95573866D01*
X101261904Y-95573866D02*
X101309523Y-95764342D01*
X101309523Y-95764342D02*
X101357142Y-95859580D01*
X101357142Y-95859580D02*
X101404761Y-95907200D01*
X101404761Y-95907200D02*
X101499999Y-95954819D01*
X101499999Y-95954819D02*
X101595237Y-95954819D01*
X101595237Y-95954819D02*
X101690475Y-95907200D01*
X101690475Y-95907200D02*
X101738094Y-95859580D01*
X101738094Y-95859580D02*
X101785713Y-95764342D01*
X101785713Y-95764342D02*
X101833332Y-95573866D01*
X101833332Y-95573866D02*
X101833332Y-95335771D01*
X101833332Y-95335771D02*
X101785713Y-95145295D01*
X101785713Y-95145295D02*
X101738094Y-95050057D01*
X101738094Y-95050057D02*
X101690475Y-95002438D01*
X101690475Y-95002438D02*
X101595237Y-94954819D01*
X100261904Y-95954819D02*
X100595237Y-95478628D01*
X100833332Y-95954819D02*
X100833332Y-94954819D01*
X100833332Y-94954819D02*
X100452380Y-94954819D01*
X100452380Y-94954819D02*
X100357142Y-95002438D01*
X100357142Y-95002438D02*
X100309523Y-95050057D01*
X100309523Y-95050057D02*
X100261904Y-95145295D01*
X100261904Y-95145295D02*
X100261904Y-95288152D01*
X100261904Y-95288152D02*
X100309523Y-95383390D01*
X100309523Y-95383390D02*
X100357142Y-95431009D01*
X100357142Y-95431009D02*
X100452380Y-95478628D01*
X100452380Y-95478628D02*
X100833332Y-95478628D01*
D12*
X98741666Y-95681927D02*
X98874999Y-95491451D01*
X98970237Y-95681927D02*
X98970237Y-95281927D01*
X98970237Y-95281927D02*
X98817856Y-95281927D01*
X98817856Y-95281927D02*
X98779761Y-95300975D01*
X98779761Y-95300975D02*
X98760714Y-95320022D01*
X98760714Y-95320022D02*
X98741666Y-95358118D01*
X98741666Y-95358118D02*
X98741666Y-95415260D01*
X98741666Y-95415260D02*
X98760714Y-95453356D01*
X98760714Y-95453356D02*
X98779761Y-95472403D01*
X98779761Y-95472403D02*
X98817856Y-95491451D01*
X98817856Y-95491451D02*
X98970237Y-95491451D01*
X98608333Y-95281927D02*
X98360714Y-95281927D01*
X98360714Y-95281927D02*
X98494047Y-95434308D01*
X98494047Y-95434308D02*
X98436904Y-95434308D01*
X98436904Y-95434308D02*
X98398809Y-95453356D01*
X98398809Y-95453356D02*
X98379761Y-95472403D01*
X98379761Y-95472403D02*
X98360714Y-95510499D01*
X98360714Y-95510499D02*
X98360714Y-95605737D01*
X98360714Y-95605737D02*
X98379761Y-95643832D01*
X98379761Y-95643832D02*
X98398809Y-95662880D01*
X98398809Y-95662880D02*
X98436904Y-95681927D01*
X98436904Y-95681927D02*
X98551190Y-95681927D01*
X98551190Y-95681927D02*
X98589285Y-95662880D01*
X98589285Y-95662880D02*
X98608333Y-95643832D01*
D14*
X128956017Y-92228545D02*
X129003636Y-92261878D01*
X128956017Y-92285688D02*
X129056017Y-92285688D01*
X129056017Y-92285688D02*
X129056017Y-92247593D01*
X129056017Y-92247593D02*
X129051255Y-92238069D01*
X129051255Y-92238069D02*
X129046493Y-92233307D01*
X129046493Y-92233307D02*
X129036969Y-92228545D01*
X129036969Y-92228545D02*
X129022683Y-92228545D01*
X129022683Y-92228545D02*
X129013159Y-92233307D01*
X129013159Y-92233307D02*
X129008398Y-92238069D01*
X129008398Y-92238069D02*
X129003636Y-92247593D01*
X129003636Y-92247593D02*
X129003636Y-92285688D01*
X128960779Y-92147593D02*
X128956017Y-92157117D01*
X128956017Y-92157117D02*
X128956017Y-92176164D01*
X128956017Y-92176164D02*
X128960779Y-92185688D01*
X128960779Y-92185688D02*
X128970302Y-92190450D01*
X128970302Y-92190450D02*
X129008398Y-92190450D01*
X129008398Y-92190450D02*
X129017921Y-92185688D01*
X129017921Y-92185688D02*
X129022683Y-92176164D01*
X129022683Y-92176164D02*
X129022683Y-92157117D01*
X129022683Y-92157117D02*
X129017921Y-92147593D01*
X129017921Y-92147593D02*
X129008398Y-92142831D01*
X129008398Y-92142831D02*
X128998874Y-92142831D01*
X128998874Y-92142831D02*
X128989350Y-92190450D01*
X129022683Y-92099974D02*
X128922683Y-92099974D01*
X129017921Y-92099974D02*
X129022683Y-92090450D01*
X129022683Y-92090450D02*
X129022683Y-92071403D01*
X129022683Y-92071403D02*
X129017921Y-92061879D01*
X129017921Y-92061879D02*
X129013159Y-92057117D01*
X129013159Y-92057117D02*
X129003636Y-92052355D01*
X129003636Y-92052355D02*
X128975064Y-92052355D01*
X128975064Y-92052355D02*
X128965540Y-92057117D01*
X128965540Y-92057117D02*
X128960779Y-92061879D01*
X128960779Y-92061879D02*
X128956017Y-92071403D01*
X128956017Y-92071403D02*
X128956017Y-92090450D01*
X128956017Y-92090450D02*
X128960779Y-92099974D01*
X128956017Y-91995212D02*
X128960779Y-92004736D01*
X128960779Y-92004736D02*
X128965540Y-92009498D01*
X128965540Y-92009498D02*
X128975064Y-92014260D01*
X128975064Y-92014260D02*
X129003636Y-92014260D01*
X129003636Y-92014260D02*
X129013159Y-92009498D01*
X129013159Y-92009498D02*
X129017921Y-92004736D01*
X129017921Y-92004736D02*
X129022683Y-91995212D01*
X129022683Y-91995212D02*
X129022683Y-91980927D01*
X129022683Y-91980927D02*
X129017921Y-91971403D01*
X129017921Y-91971403D02*
X129013159Y-91966641D01*
X129013159Y-91966641D02*
X129003636Y-91961879D01*
X129003636Y-91961879D02*
X128975064Y-91961879D01*
X128975064Y-91961879D02*
X128965540Y-91966641D01*
X128965540Y-91966641D02*
X128960779Y-91971403D01*
X128960779Y-91971403D02*
X128956017Y-91980927D01*
X128956017Y-91980927D02*
X128956017Y-91995212D01*
X128956017Y-91866641D02*
X128956017Y-91923784D01*
X128956017Y-91895212D02*
X129056017Y-91895212D01*
X129056017Y-91895212D02*
X129041731Y-91904736D01*
X129041731Y-91904736D02*
X129032207Y-91914260D01*
X129032207Y-91914260D02*
X129027445Y-91923784D01*
D10*
X94931009Y-101080357D02*
X94978628Y-101223214D01*
X94978628Y-101223214D02*
X95026247Y-101270833D01*
X95026247Y-101270833D02*
X95121485Y-101318452D01*
X95121485Y-101318452D02*
X95264342Y-101318452D01*
X95264342Y-101318452D02*
X95359580Y-101270833D01*
X95359580Y-101270833D02*
X95407200Y-101223214D01*
X95407200Y-101223214D02*
X95454819Y-101127976D01*
X95454819Y-101127976D02*
X95454819Y-100747024D01*
X95454819Y-100747024D02*
X94454819Y-100747024D01*
X94454819Y-100747024D02*
X94454819Y-101080357D01*
X94454819Y-101080357D02*
X94502438Y-101175595D01*
X94502438Y-101175595D02*
X94550057Y-101223214D01*
X94550057Y-101223214D02*
X94645295Y-101270833D01*
X94645295Y-101270833D02*
X94740533Y-101270833D01*
X94740533Y-101270833D02*
X94835771Y-101223214D01*
X94835771Y-101223214D02*
X94883390Y-101175595D01*
X94883390Y-101175595D02*
X94931009Y-101080357D01*
X94931009Y-101080357D02*
X94931009Y-100747024D01*
X95359580Y-102318452D02*
X95407200Y-102270833D01*
X95407200Y-102270833D02*
X95454819Y-102127976D01*
X95454819Y-102127976D02*
X95454819Y-102032738D01*
X95454819Y-102032738D02*
X95407200Y-101889881D01*
X95407200Y-101889881D02*
X95311961Y-101794643D01*
X95311961Y-101794643D02*
X95216723Y-101747024D01*
X95216723Y-101747024D02*
X95026247Y-101699405D01*
X95026247Y-101699405D02*
X94883390Y-101699405D01*
X94883390Y-101699405D02*
X94692914Y-101747024D01*
X94692914Y-101747024D02*
X94597676Y-101794643D01*
X94597676Y-101794643D02*
X94502438Y-101889881D01*
X94502438Y-101889881D02*
X94454819Y-102032738D01*
X94454819Y-102032738D02*
X94454819Y-102127976D01*
X94454819Y-102127976D02*
X94502438Y-102270833D01*
X94502438Y-102270833D02*
X94550057Y-102318452D01*
X94883390Y-102889881D02*
X94835771Y-102794643D01*
X94835771Y-102794643D02*
X94788152Y-102747024D01*
X94788152Y-102747024D02*
X94692914Y-102699405D01*
X94692914Y-102699405D02*
X94645295Y-102699405D01*
X94645295Y-102699405D02*
X94550057Y-102747024D01*
X94550057Y-102747024D02*
X94502438Y-102794643D01*
X94502438Y-102794643D02*
X94454819Y-102889881D01*
X94454819Y-102889881D02*
X94454819Y-103080357D01*
X94454819Y-103080357D02*
X94502438Y-103175595D01*
X94502438Y-103175595D02*
X94550057Y-103223214D01*
X94550057Y-103223214D02*
X94645295Y-103270833D01*
X94645295Y-103270833D02*
X94692914Y-103270833D01*
X94692914Y-103270833D02*
X94788152Y-103223214D01*
X94788152Y-103223214D02*
X94835771Y-103175595D01*
X94835771Y-103175595D02*
X94883390Y-103080357D01*
X94883390Y-103080357D02*
X94883390Y-102889881D01*
X94883390Y-102889881D02*
X94931009Y-102794643D01*
X94931009Y-102794643D02*
X94978628Y-102747024D01*
X94978628Y-102747024D02*
X95073866Y-102699405D01*
X95073866Y-102699405D02*
X95264342Y-102699405D01*
X95264342Y-102699405D02*
X95359580Y-102747024D01*
X95359580Y-102747024D02*
X95407200Y-102794643D01*
X95407200Y-102794643D02*
X95454819Y-102889881D01*
X95454819Y-102889881D02*
X95454819Y-103080357D01*
X95454819Y-103080357D02*
X95407200Y-103175595D01*
X95407200Y-103175595D02*
X95359580Y-103223214D01*
X95359580Y-103223214D02*
X95264342Y-103270833D01*
X95264342Y-103270833D02*
X95073866Y-103270833D01*
X95073866Y-103270833D02*
X94978628Y-103223214D01*
X94978628Y-103223214D02*
X94931009Y-103175595D01*
X94931009Y-103175595D02*
X94883390Y-103080357D01*
X94788152Y-104127976D02*
X95454819Y-104127976D01*
X94407200Y-103889881D02*
X95121485Y-103651786D01*
X95121485Y-103651786D02*
X95121485Y-104270833D01*
X94454819Y-105080357D02*
X94454819Y-104889881D01*
X94454819Y-104889881D02*
X94502438Y-104794643D01*
X94502438Y-104794643D02*
X94550057Y-104747024D01*
X94550057Y-104747024D02*
X94692914Y-104651786D01*
X94692914Y-104651786D02*
X94883390Y-104604167D01*
X94883390Y-104604167D02*
X95264342Y-104604167D01*
X95264342Y-104604167D02*
X95359580Y-104651786D01*
X95359580Y-104651786D02*
X95407200Y-104699405D01*
X95407200Y-104699405D02*
X95454819Y-104794643D01*
X95454819Y-104794643D02*
X95454819Y-104985119D01*
X95454819Y-104985119D02*
X95407200Y-105080357D01*
X95407200Y-105080357D02*
X95359580Y-105127976D01*
X95359580Y-105127976D02*
X95264342Y-105175595D01*
X95264342Y-105175595D02*
X95026247Y-105175595D01*
X95026247Y-105175595D02*
X94931009Y-105127976D01*
X94931009Y-105127976D02*
X94883390Y-105080357D01*
X94883390Y-105080357D02*
X94835771Y-104985119D01*
X94835771Y-104985119D02*
X94835771Y-104794643D01*
X94835771Y-104794643D02*
X94883390Y-104699405D01*
X94883390Y-104699405D02*
X94931009Y-104651786D01*
X94931009Y-104651786D02*
X95026247Y-104604167D01*
D13*
X98793571Y-103333437D02*
X98862142Y-103299151D01*
X98862142Y-103299151D02*
X98930714Y-103230580D01*
X98930714Y-103230580D02*
X99033571Y-103127722D01*
X99033571Y-103127722D02*
X99102142Y-103093437D01*
X99102142Y-103093437D02*
X99170714Y-103093437D01*
X99136428Y-103264865D02*
X99205000Y-103230580D01*
X99205000Y-103230580D02*
X99273571Y-103162008D01*
X99273571Y-103162008D02*
X99307857Y-103024865D01*
X99307857Y-103024865D02*
X99307857Y-102784865D01*
X99307857Y-102784865D02*
X99273571Y-102647722D01*
X99273571Y-102647722D02*
X99205000Y-102579151D01*
X99205000Y-102579151D02*
X99136428Y-102544865D01*
X99136428Y-102544865D02*
X98999285Y-102544865D01*
X98999285Y-102544865D02*
X98930714Y-102579151D01*
X98930714Y-102579151D02*
X98862142Y-102647722D01*
X98862142Y-102647722D02*
X98827857Y-102784865D01*
X98827857Y-102784865D02*
X98827857Y-103024865D01*
X98827857Y-103024865D02*
X98862142Y-103162008D01*
X98862142Y-103162008D02*
X98930714Y-103230580D01*
X98930714Y-103230580D02*
X98999285Y-103264865D01*
X98999285Y-103264865D02*
X99136428Y-103264865D01*
X98553571Y-102613437D02*
X98519285Y-102579151D01*
X98519285Y-102579151D02*
X98450714Y-102544865D01*
X98450714Y-102544865D02*
X98279285Y-102544865D01*
X98279285Y-102544865D02*
X98210714Y-102579151D01*
X98210714Y-102579151D02*
X98176428Y-102613437D01*
X98176428Y-102613437D02*
X98142142Y-102682008D01*
X98142142Y-102682008D02*
X98142142Y-102750580D01*
X98142142Y-102750580D02*
X98176428Y-102853437D01*
X98176428Y-102853437D02*
X98587856Y-103264865D01*
X98587856Y-103264865D02*
X98142142Y-103264865D01*
D10*
X108095237Y-97954819D02*
X107523809Y-97954819D01*
X107809523Y-98954819D02*
X107809523Y-97954819D01*
X106714285Y-98954819D02*
X107190475Y-98954819D01*
X107190475Y-98954819D02*
X107190475Y-97954819D01*
X105952380Y-98288152D02*
X105952380Y-98954819D01*
X106190475Y-97907200D02*
X106428570Y-98621485D01*
X106428570Y-98621485D02*
X105809523Y-98621485D01*
X105523808Y-97954819D02*
X104904761Y-97954819D01*
X104904761Y-97954819D02*
X105238094Y-98335771D01*
X105238094Y-98335771D02*
X105095237Y-98335771D01*
X105095237Y-98335771D02*
X104999999Y-98383390D01*
X104999999Y-98383390D02*
X104952380Y-98431009D01*
X104952380Y-98431009D02*
X104904761Y-98526247D01*
X104904761Y-98526247D02*
X104904761Y-98764342D01*
X104904761Y-98764342D02*
X104952380Y-98859580D01*
X104952380Y-98859580D02*
X104999999Y-98907200D01*
X104999999Y-98907200D02*
X105095237Y-98954819D01*
X105095237Y-98954819D02*
X105380951Y-98954819D01*
X105380951Y-98954819D02*
X105476189Y-98907200D01*
X105476189Y-98907200D02*
X105523808Y-98859580D01*
X103952380Y-98954819D02*
X104523808Y-98954819D01*
X104238094Y-98954819D02*
X104238094Y-97954819D01*
X104238094Y-97954819D02*
X104333332Y-98097676D01*
X104333332Y-98097676D02*
X104428570Y-98192914D01*
X104428570Y-98192914D02*
X104523808Y-98240533D01*
X103523808Y-98954819D02*
X103523808Y-97954819D01*
X103523808Y-97954819D02*
X103285713Y-97954819D01*
X103285713Y-97954819D02*
X103142856Y-98002438D01*
X103142856Y-98002438D02*
X103047618Y-98097676D01*
X103047618Y-98097676D02*
X102999999Y-98192914D01*
X102999999Y-98192914D02*
X102952380Y-98383390D01*
X102952380Y-98383390D02*
X102952380Y-98526247D01*
X102952380Y-98526247D02*
X102999999Y-98716723D01*
X102999999Y-98716723D02*
X103047618Y-98811961D01*
X103047618Y-98811961D02*
X103142856Y-98907200D01*
X103142856Y-98907200D02*
X103285713Y-98954819D01*
X103285713Y-98954819D02*
X103523808Y-98954819D01*
X102190475Y-98431009D02*
X102047618Y-98478628D01*
X102047618Y-98478628D02*
X101999999Y-98526247D01*
X101999999Y-98526247D02*
X101952380Y-98621485D01*
X101952380Y-98621485D02*
X101952380Y-98764342D01*
X101952380Y-98764342D02*
X101999999Y-98859580D01*
X101999999Y-98859580D02*
X102047618Y-98907200D01*
X102047618Y-98907200D02*
X102142856Y-98954819D01*
X102142856Y-98954819D02*
X102523808Y-98954819D01*
X102523808Y-98954819D02*
X102523808Y-97954819D01*
X102523808Y-97954819D02*
X102190475Y-97954819D01*
X102190475Y-97954819D02*
X102095237Y-98002438D01*
X102095237Y-98002438D02*
X102047618Y-98050057D01*
X102047618Y-98050057D02*
X101999999Y-98145295D01*
X101999999Y-98145295D02*
X101999999Y-98240533D01*
X101999999Y-98240533D02*
X102047618Y-98335771D01*
X102047618Y-98335771D02*
X102095237Y-98383390D01*
X102095237Y-98383390D02*
X102190475Y-98431009D01*
X102190475Y-98431009D02*
X102523808Y-98431009D01*
X101619046Y-97954819D02*
X100952380Y-97954819D01*
X100952380Y-97954819D02*
X101619046Y-98954819D01*
X101619046Y-98954819D02*
X100952380Y-98954819D01*
D13*
X99223571Y-98107365D02*
X99223571Y-98690222D01*
X99223571Y-98690222D02*
X99189285Y-98758794D01*
X99189285Y-98758794D02*
X99155000Y-98793080D01*
X99155000Y-98793080D02*
X99086428Y-98827365D01*
X99086428Y-98827365D02*
X98949285Y-98827365D01*
X98949285Y-98827365D02*
X98880714Y-98793080D01*
X98880714Y-98793080D02*
X98846428Y-98758794D01*
X98846428Y-98758794D02*
X98812142Y-98690222D01*
X98812142Y-98690222D02*
X98812142Y-98107365D01*
X98503571Y-98175937D02*
X98469285Y-98141651D01*
X98469285Y-98141651D02*
X98400714Y-98107365D01*
X98400714Y-98107365D02*
X98229285Y-98107365D01*
X98229285Y-98107365D02*
X98160714Y-98141651D01*
X98160714Y-98141651D02*
X98126428Y-98175937D01*
X98126428Y-98175937D02*
X98092142Y-98244508D01*
X98092142Y-98244508D02*
X98092142Y-98313080D01*
X98092142Y-98313080D02*
X98126428Y-98415937D01*
X98126428Y-98415937D02*
X98537856Y-98827365D01*
X98537856Y-98827365D02*
X98092142Y-98827365D01*
D10*
X107595237Y-60754819D02*
X107023809Y-60754819D01*
X107309523Y-61754819D02*
X107309523Y-60754819D01*
X106214285Y-61754819D02*
X106690475Y-61754819D01*
X106690475Y-61754819D02*
X106690475Y-60754819D01*
X105452380Y-61088152D02*
X105452380Y-61754819D01*
X105690475Y-60707200D02*
X105928570Y-61421485D01*
X105928570Y-61421485D02*
X105309523Y-61421485D01*
X105023808Y-60754819D02*
X104404761Y-60754819D01*
X104404761Y-60754819D02*
X104738094Y-61135771D01*
X104738094Y-61135771D02*
X104595237Y-61135771D01*
X104595237Y-61135771D02*
X104499999Y-61183390D01*
X104499999Y-61183390D02*
X104452380Y-61231009D01*
X104452380Y-61231009D02*
X104404761Y-61326247D01*
X104404761Y-61326247D02*
X104404761Y-61564342D01*
X104404761Y-61564342D02*
X104452380Y-61659580D01*
X104452380Y-61659580D02*
X104499999Y-61707200D01*
X104499999Y-61707200D02*
X104595237Y-61754819D01*
X104595237Y-61754819D02*
X104880951Y-61754819D01*
X104880951Y-61754819D02*
X104976189Y-61707200D01*
X104976189Y-61707200D02*
X105023808Y-61659580D01*
X103452380Y-61754819D02*
X104023808Y-61754819D01*
X103738094Y-61754819D02*
X103738094Y-60754819D01*
X103738094Y-60754819D02*
X103833332Y-60897676D01*
X103833332Y-60897676D02*
X103928570Y-60992914D01*
X103928570Y-60992914D02*
X104023808Y-61040533D01*
X103023808Y-61754819D02*
X103023808Y-60754819D01*
X103023808Y-60754819D02*
X102785713Y-60754819D01*
X102785713Y-60754819D02*
X102642856Y-60802438D01*
X102642856Y-60802438D02*
X102547618Y-60897676D01*
X102547618Y-60897676D02*
X102499999Y-60992914D01*
X102499999Y-60992914D02*
X102452380Y-61183390D01*
X102452380Y-61183390D02*
X102452380Y-61326247D01*
X102452380Y-61326247D02*
X102499999Y-61516723D01*
X102499999Y-61516723D02*
X102547618Y-61611961D01*
X102547618Y-61611961D02*
X102642856Y-61707200D01*
X102642856Y-61707200D02*
X102785713Y-61754819D01*
X102785713Y-61754819D02*
X103023808Y-61754819D01*
X101690475Y-61231009D02*
X101547618Y-61278628D01*
X101547618Y-61278628D02*
X101499999Y-61326247D01*
X101499999Y-61326247D02*
X101452380Y-61421485D01*
X101452380Y-61421485D02*
X101452380Y-61564342D01*
X101452380Y-61564342D02*
X101499999Y-61659580D01*
X101499999Y-61659580D02*
X101547618Y-61707200D01*
X101547618Y-61707200D02*
X101642856Y-61754819D01*
X101642856Y-61754819D02*
X102023808Y-61754819D01*
X102023808Y-61754819D02*
X102023808Y-60754819D01*
X102023808Y-60754819D02*
X101690475Y-60754819D01*
X101690475Y-60754819D02*
X101595237Y-60802438D01*
X101595237Y-60802438D02*
X101547618Y-60850057D01*
X101547618Y-60850057D02*
X101499999Y-60945295D01*
X101499999Y-60945295D02*
X101499999Y-61040533D01*
X101499999Y-61040533D02*
X101547618Y-61135771D01*
X101547618Y-61135771D02*
X101595237Y-61183390D01*
X101595237Y-61183390D02*
X101690475Y-61231009D01*
X101690475Y-61231009D02*
X102023808Y-61231009D01*
X101119046Y-60754819D02*
X100452380Y-60754819D01*
X100452380Y-60754819D02*
X101119046Y-61754819D01*
X101119046Y-61754819D02*
X100452380Y-61754819D01*
D13*
X99023571Y-60907365D02*
X99023571Y-61490222D01*
X99023571Y-61490222D02*
X98989285Y-61558794D01*
X98989285Y-61558794D02*
X98955000Y-61593080D01*
X98955000Y-61593080D02*
X98886428Y-61627365D01*
X98886428Y-61627365D02*
X98749285Y-61627365D01*
X98749285Y-61627365D02*
X98680714Y-61593080D01*
X98680714Y-61593080D02*
X98646428Y-61558794D01*
X98646428Y-61558794D02*
X98612142Y-61490222D01*
X98612142Y-61490222D02*
X98612142Y-60907365D01*
X97892142Y-61627365D02*
X98303571Y-61627365D01*
X98097856Y-61627365D02*
X98097856Y-60907365D01*
X98097856Y-60907365D02*
X98166428Y-61010222D01*
X98166428Y-61010222D02*
X98234999Y-61078794D01*
X98234999Y-61078794D02*
X98303571Y-61113080D01*
D10*
X99736904Y-69780057D02*
X99689285Y-69732438D01*
X99689285Y-69732438D02*
X99594047Y-69684819D01*
X99594047Y-69684819D02*
X99355952Y-69684819D01*
X99355952Y-69684819D02*
X99260714Y-69732438D01*
X99260714Y-69732438D02*
X99213095Y-69780057D01*
X99213095Y-69780057D02*
X99165476Y-69875295D01*
X99165476Y-69875295D02*
X99165476Y-69970533D01*
X99165476Y-69970533D02*
X99213095Y-70113390D01*
X99213095Y-70113390D02*
X99784523Y-70684819D01*
X99784523Y-70684819D02*
X99165476Y-70684819D01*
X98784523Y-69780057D02*
X98736904Y-69732438D01*
X98736904Y-69732438D02*
X98641666Y-69684819D01*
X98641666Y-69684819D02*
X98403571Y-69684819D01*
X98403571Y-69684819D02*
X98308333Y-69732438D01*
X98308333Y-69732438D02*
X98260714Y-69780057D01*
X98260714Y-69780057D02*
X98213095Y-69875295D01*
X98213095Y-69875295D02*
X98213095Y-69970533D01*
X98213095Y-69970533D02*
X98260714Y-70113390D01*
X98260714Y-70113390D02*
X98832142Y-70684819D01*
X98832142Y-70684819D02*
X98213095Y-70684819D01*
X97784523Y-70684819D02*
X97784523Y-69684819D01*
X97213095Y-70684819D02*
X97641666Y-70113390D01*
X97213095Y-69684819D02*
X97784523Y-70256247D01*
D12*
X98541666Y-68981927D02*
X98674999Y-68791451D01*
X98770237Y-68981927D02*
X98770237Y-68581927D01*
X98770237Y-68581927D02*
X98617856Y-68581927D01*
X98617856Y-68581927D02*
X98579761Y-68600975D01*
X98579761Y-68600975D02*
X98560714Y-68620022D01*
X98560714Y-68620022D02*
X98541666Y-68658118D01*
X98541666Y-68658118D02*
X98541666Y-68715260D01*
X98541666Y-68715260D02*
X98560714Y-68753356D01*
X98560714Y-68753356D02*
X98579761Y-68772403D01*
X98579761Y-68772403D02*
X98617856Y-68791451D01*
X98617856Y-68791451D02*
X98770237Y-68791451D01*
X98160714Y-68981927D02*
X98389285Y-68981927D01*
X98274999Y-68981927D02*
X98274999Y-68581927D01*
X98274999Y-68581927D02*
X98313095Y-68639070D01*
X98313095Y-68639070D02*
X98351190Y-68677165D01*
X98351190Y-68677165D02*
X98389285Y-68696213D01*
D15*
%TO.C,D2*%
X97175000Y-53037500D02*
X97575000Y-52637500D01*
X97175000Y-55837500D02*
X97175000Y-53037500D01*
X97575000Y-52637500D02*
X98775000Y-52637500D01*
X98775000Y-52637500D02*
X98775000Y-55837500D01*
X98775000Y-55837500D02*
X97175000Y-55837500D01*
%TO.C,D3*%
X97200000Y-76300000D02*
X97600000Y-75900000D01*
X97200000Y-79100000D02*
X97200000Y-76300000D01*
X97600000Y-75900000D02*
X98800000Y-75900000D01*
X98800000Y-75900000D02*
X98800000Y-79100000D01*
X98800000Y-79100000D02*
X97200000Y-79100000D01*
%TO.C,R2*%
X99275000Y-57887500D02*
X97675000Y-57887500D01*
X97675000Y-58712500D01*
X99275000Y-58712500D01*
X99275000Y-57887500D01*
%TO.C,R4*%
X99475000Y-105587500D02*
X97875000Y-105587500D01*
X97875000Y-106412500D01*
X99475000Y-106412500D01*
X99475000Y-105587500D01*
%TO.C,Q1*%
X99925000Y-66450000D02*
X97025000Y-66450000D01*
X97025000Y-65475000D01*
X97350000Y-65150000D01*
X99925000Y-65150000D01*
X99925000Y-66450000D01*
%TO.C,R3*%
X99475000Y-95087500D02*
X97875000Y-95087500D01*
X97875000Y-95912500D01*
X99475000Y-95912500D01*
X99475000Y-95087500D01*
%TO.C,Q2*%
X100175000Y-103587500D02*
X97275000Y-103587500D01*
X97275000Y-102612500D01*
X97600000Y-102287500D01*
X100175000Y-102287500D01*
X100175000Y-103587500D01*
%TO.C,U2*%
X100125000Y-99150000D02*
X97225000Y-99150000D01*
X97225000Y-98175000D01*
X97550000Y-97850000D01*
X100125000Y-97850000D01*
X100125000Y-99150000D01*
%TO.C,U1*%
X99925000Y-61950000D02*
X97025000Y-61950000D01*
X97025000Y-60975000D01*
X97350000Y-60650000D01*
X99925000Y-60650000D01*
X99925000Y-61950000D01*
%TO.C,R1*%
X99275000Y-68387500D02*
X97675000Y-68387500D01*
X97675000Y-69212500D01*
X99275000Y-69212500D01*
X99275000Y-68387500D01*
%TD*%
M02*
