%TF.GenerationSoftware,KiCad,Pcbnew,9.0.8-9.0.8~ubuntu24.04.1*%
%TF.CreationDate,2026-03-22T18:02:27+01:00*%
%TF.ProjectId,Relais-Karte,52656c61-6973-42d4-9b61-7274652e6b69,V1.0*%
%TF.SameCoordinates,Original*%
%TF.FileFunction,Other,User*%
%FSLAX46Y46*%
G04 Gerber Fmt 4.6, Leading zero omitted, Abs format (unit mm)*
G04 Created by KiCad (PCBNEW 9.0.8-9.0.8~ubuntu24.04.1) date 2026-03-22 18:02:27*
%MOMM*%
%LPD*%
G01*
G04 APERTURE LIST*
%ADD10C,0.349069*%
%ADD11C,1.047206*%
%ADD12C,0.698138*%
%ADD13C,0.179521*%
%ADD14C,0.250000*%
%ADD15C,0.300000*%
%ADD16C,0.312500*%
%ADD17C,0.375000*%
G04 APERTURE END LIST*
D10*
X4982893Y-204517107D02*
X9965786Y-204517107D01*
X9965786Y-209500000D01*
X0Y-209500000D01*
X0Y-199534173D01*
X4982893Y-199534173D01*
X4982893Y-204517107D01*
G36*
X4982893Y-204517107D02*
G01*
X9965786Y-204517107D01*
X9965786Y-209500000D01*
X0Y-209500000D01*
X0Y-199534173D01*
X4982893Y-199534173D01*
X4982893Y-204517107D01*
G37*
X9965786Y-5034790D02*
X4982893Y-5034790D01*
X4982893Y-10017690D01*
X0Y-10017690D01*
X0Y-51890D01*
X9965786Y-51890D01*
X9965786Y-5034790D01*
G36*
X9965786Y-5034790D02*
G01*
X4982893Y-5034790D01*
X4982893Y-10017690D01*
X0Y-10017690D01*
X0Y-51890D01*
X9965786Y-51890D01*
X9965786Y-5034790D01*
G37*
X296183556Y-209500000D02*
X286217756Y-209500000D01*
X286217756Y-204517107D01*
X291200635Y-204517107D01*
X291200635Y-199534173D01*
X296183556Y-199534173D01*
X296183556Y-209500000D01*
G36*
X296183556Y-209500000D02*
G01*
X286217756Y-209500000D01*
X286217756Y-204517107D01*
X291200635Y-204517107D01*
X291200635Y-199534173D01*
X296183556Y-199534173D01*
X296183556Y-209500000D01*
G37*
X296183556Y-10017690D02*
X291200635Y-10017690D01*
X291200635Y-5034790D01*
X286217756Y-5034790D01*
X286217756Y-51890D01*
X296183556Y-51890D01*
X296183556Y-10017690D01*
G36*
X296183556Y-10017690D02*
G01*
X291200635Y-10017690D01*
X291200635Y-5034790D01*
X286217756Y-5034790D01*
X286217756Y-51890D01*
X296183556Y-51890D01*
X296183556Y-10017690D01*
G37*
X14948700Y-5034790D02*
X14948700Y-204517107D01*
X14948700Y-54947637D02*
X19931593Y-54947637D01*
X14948700Y-104776625D02*
X19931593Y-104776625D01*
D11*
X14948700Y-104776625D02*
X19931593Y-104776625D01*
D10*
X14948700Y-154604248D02*
X19931593Y-154604248D01*
X14948700Y-204517107D02*
X291200635Y-204517107D01*
D12*
X19931593Y-10017690D02*
X19931593Y-199534173D01*
X19931593Y-199534173D02*
X286217756Y-199534173D01*
D10*
X22803119Y-6469864D02*
X22464978Y-6638939D01*
X23141261Y-6133090D02*
X22803119Y-6469864D01*
X23479423Y-5625865D02*
X23141261Y-6133090D01*
X23479423Y-9088464D02*
X23479423Y-5625865D01*
X24407274Y-9088464D02*
X22464978Y-9088464D01*
X48392550Y-5034790D02*
X48392550Y-10017690D01*
X48392550Y-204517107D02*
X48392550Y-199534173D01*
X72124900Y-9088464D02*
X74320122Y-9088464D01*
X72293971Y-5964015D02*
X72463042Y-5794940D01*
X72463042Y-5794940D02*
X72801183Y-5625865D01*
X72801183Y-5625865D02*
X73645198Y-5625865D01*
X73645198Y-5625865D02*
X73983340Y-5794940D01*
X73983340Y-5794940D02*
X74152411Y-5964015D01*
X74152411Y-5964015D02*
X74316098Y-6294052D01*
X74320122Y-6302164D01*
X74152411Y-7146164D02*
X73454583Y-7814660D01*
X72124900Y-9088464D01*
X74320122Y-6302164D02*
X74320122Y-6638939D01*
X74320122Y-6638939D02*
X74152411Y-7146164D01*
X98221543Y-5034790D02*
X98221543Y-10017690D01*
X98221543Y-204517107D02*
X98221543Y-199534173D01*
X122037728Y-5625865D02*
X124149095Y-5625865D01*
X122206799Y-9004615D02*
X122154544Y-8952354D01*
X122037728Y-8835539D01*
X122544961Y-9088464D02*
X122206799Y-9004615D01*
X122966958Y-6977089D02*
X123474191Y-6977089D01*
X123474191Y-6977089D02*
X123646647Y-7063672D01*
X123810953Y-7146164D01*
X123474191Y-9088464D02*
X122544961Y-9088464D01*
X123810953Y-7146164D02*
X123922763Y-7257972D01*
X123980024Y-7315239D01*
X123810953Y-9004615D02*
X123638992Y-9047431D01*
X123474191Y-9088464D01*
X123980024Y-7315239D02*
X124091834Y-7538855D01*
X124149095Y-7653389D01*
X123980024Y-8835539D02*
X123924643Y-8890926D01*
X123810953Y-9004615D01*
X124149095Y-5625865D02*
X122966958Y-6977089D01*
X124149095Y-7653389D02*
X124149095Y-8497389D01*
X124149095Y-8497389D02*
X124093208Y-8609175D01*
X123980024Y-8835539D01*
X148134392Y-5034790D02*
X148134392Y-10017690D01*
D11*
X148134392Y-5034790D02*
X148134392Y-10017690D01*
D12*
X148134392Y-163640835D02*
X148134392Y-199534173D01*
X148134392Y-199534173D02*
X286217756Y-199534173D01*
D10*
X148134392Y-204517107D02*
X148134392Y-199534173D01*
D11*
X148134392Y-204517107D02*
X148134392Y-199534173D01*
D13*
X149401764Y-182981339D02*
X150583910Y-182981339D01*
X149738536Y-175465082D02*
X149738536Y-173522786D01*
X149992832Y-185008871D02*
X149992832Y-182981339D01*
X150667766Y-175465082D02*
X149738536Y-175465082D01*
X151089753Y-183065215D02*
X151258824Y-183150410D01*
X151174989Y-173606621D02*
X151306686Y-173673020D01*
X151344060Y-173691857D01*
X151258824Y-182981339D02*
X151155001Y-183032847D01*
X151089753Y-183065215D01*
X151258824Y-182981339D02*
X151258824Y-183150410D01*
X151258824Y-183150410D02*
X151344060Y-183065215D01*
X151258824Y-185008871D02*
X151258824Y-183657643D01*
X151344060Y-173522786D02*
X151174989Y-173606621D01*
X151344060Y-173522786D02*
X151344060Y-173691857D01*
X151344060Y-173691857D02*
X151375544Y-173659856D01*
X151427905Y-173606621D01*
X151344060Y-175465082D02*
X151344060Y-174197689D01*
X151344060Y-183065215D02*
X151268633Y-182990991D01*
X151258824Y-182981339D01*
X151427905Y-173606621D02*
X151344060Y-173522786D01*
X151849913Y-183657643D02*
X152610062Y-183657643D01*
X152188065Y-174535851D02*
X152216087Y-174480243D01*
X152273280Y-174366760D01*
X152188065Y-175126940D02*
X152188065Y-174535851D01*
X152188065Y-182981339D02*
X152188065Y-184670729D01*
X152188065Y-184670729D02*
X152273280Y-184923635D01*
X152273280Y-174366760D02*
X152325042Y-174315016D01*
X152357136Y-174282925D01*
X152273280Y-175296011D02*
X152229669Y-175209484D01*
X152188065Y-175126940D01*
X152273280Y-184923635D02*
X152440991Y-185008871D01*
X152357136Y-174282925D02*
X152475551Y-174223235D01*
X152526217Y-174197689D01*
X152357136Y-175379846D02*
X152273280Y-175296011D01*
X152440991Y-185008871D02*
X152610062Y-185008871D01*
X152526217Y-174197689D02*
X152948214Y-174197689D01*
X152526217Y-175465082D02*
X152465804Y-175434632D01*
X152357136Y-175379846D01*
X152948214Y-174197689D02*
X153117285Y-174282925D01*
X152948214Y-175465082D02*
X152526217Y-175465082D01*
X153117285Y-175379846D02*
X152948214Y-175465082D01*
X153286366Y-184670729D02*
X153286366Y-182981339D01*
X153370201Y-184923635D02*
X153286366Y-184670729D01*
X153624518Y-185008871D02*
X153370201Y-184923635D01*
X153877424Y-174451996D02*
X153934342Y-174337256D01*
X153961290Y-174282925D01*
X153877424Y-175212135D02*
X153877424Y-174451996D01*
X153961290Y-174282925D02*
X154130361Y-174197689D01*
X153961290Y-175379846D02*
X153877424Y-175212135D01*
X154130361Y-174197689D02*
X154552368Y-174197689D01*
X154130361Y-175465082D02*
X153961290Y-175379846D01*
X154215576Y-183910590D02*
X154258363Y-183867793D01*
X154321508Y-183804635D01*
X154384657Y-183741499D01*
X154215576Y-184670729D02*
X154215576Y-183910590D01*
X154384657Y-183741499D02*
X154500018Y-183683809D01*
X154549748Y-183658953D01*
X154552368Y-183657643D01*
X154384657Y-184923635D02*
X154215576Y-184670729D01*
X154552368Y-174197689D02*
X154721439Y-174282925D01*
X154552368Y-175465082D02*
X154130361Y-175465082D01*
X154552368Y-183657643D02*
X154890510Y-183657643D01*
X154552368Y-185008871D02*
X154384657Y-184923635D01*
X154721439Y-174282925D02*
X154721773Y-174283588D01*
X154806665Y-174451996D01*
X154721439Y-175379846D02*
X154552368Y-175465082D01*
X154806665Y-174451996D02*
X154806665Y-174619707D01*
X154806665Y-174619707D02*
X154345551Y-174745890D01*
X153877424Y-174873993D01*
X154890510Y-183657643D02*
X155144816Y-183741499D01*
X154890510Y-185008871D02*
X154552368Y-185008871D01*
X155144816Y-183741499D02*
X155228662Y-183910590D01*
X155144816Y-184923635D02*
X154890510Y-185008871D01*
X155228662Y-183910590D02*
X155228662Y-184163496D01*
X155228662Y-184163496D02*
X154223891Y-184331199D01*
X154215576Y-184332587D01*
X155650649Y-174197689D02*
X155650649Y-175465082D01*
X155650649Y-174366760D02*
X155735885Y-174282925D01*
X155735885Y-174282925D02*
X155895523Y-174229129D01*
X155988801Y-174197689D01*
X155988801Y-174197689D02*
X156241738Y-174197689D01*
X156241738Y-174197689D02*
X156410809Y-174282925D01*
X156410809Y-174282925D02*
X156452248Y-174365143D01*
X156496024Y-174451996D01*
X156496024Y-174451996D02*
X156496024Y-175465082D01*
X157423874Y-174451996D02*
X157509110Y-174282925D01*
X157423874Y-174535851D02*
X157423874Y-174451996D01*
X157423874Y-175379846D02*
X157529470Y-175433081D01*
X157592955Y-175465082D01*
X157509110Y-174282925D02*
X157613088Y-174230512D01*
X157678191Y-174197689D01*
X157509110Y-174704922D02*
X157423874Y-174535851D01*
X157592955Y-175465082D02*
X157931107Y-175465082D01*
X157678191Y-174197689D02*
X157931107Y-174197689D01*
X157678191Y-174873993D02*
X157586654Y-174782464D01*
X157509110Y-174704922D01*
X157931107Y-174197689D02*
X158004936Y-174222574D01*
X158184034Y-174282925D01*
X157931107Y-174873993D02*
X157678191Y-174873993D01*
X157931107Y-175465082D02*
X158024876Y-175433486D01*
X158184034Y-175379846D01*
X158184034Y-174957849D02*
X158062867Y-174917678D01*
X157931107Y-174873993D01*
X158184034Y-175379846D02*
X158267313Y-175215947D01*
X158269249Y-175212135D01*
X158269249Y-175126940D02*
X158184034Y-174957849D01*
X158269249Y-175212135D02*
X158269249Y-175126940D01*
X159029408Y-174451996D02*
X159073189Y-174363725D01*
X159113264Y-174282925D01*
X159029408Y-175212135D02*
X159029408Y-174451996D01*
X159113264Y-174282925D02*
X159214625Y-174231828D01*
X159282335Y-174197689D01*
X159113264Y-175379846D02*
X159029408Y-175212135D01*
X159282335Y-174197689D02*
X159704332Y-174197689D01*
X159282335Y-175465082D02*
X159244961Y-175446245D01*
X159113264Y-175379846D01*
X159704332Y-174197689D02*
X159772042Y-174231828D01*
X159873403Y-174282925D01*
X159704332Y-175465082D02*
X159282335Y-175465082D01*
X159873403Y-174282925D02*
X159958639Y-174451996D01*
X159873403Y-175379846D02*
X159741706Y-175446245D01*
X159704332Y-175465082D01*
X159958639Y-174451996D02*
X159958639Y-174619707D01*
X159958639Y-174619707D02*
X159523367Y-174738819D01*
X159029408Y-174873993D01*
X160718778Y-174535851D02*
X160793018Y-174386152D01*
X160802634Y-174366760D01*
X160718778Y-175126940D02*
X160718778Y-174535851D01*
X160802634Y-174366760D02*
X160852944Y-174316464D01*
X160886489Y-174282925D01*
X160802634Y-175296011D02*
X160798927Y-175288536D01*
X160718778Y-175126940D01*
X160886489Y-174282925D02*
X160987850Y-174231828D01*
X161055560Y-174197689D01*
X160886489Y-175379846D02*
X160802634Y-175296011D01*
X161055560Y-174197689D02*
X161478937Y-174197689D01*
X161055560Y-175465082D02*
X161018186Y-175446245D01*
X160886489Y-175379846D01*
X161478937Y-174197689D02*
X161539660Y-174228559D01*
X161646628Y-174282925D01*
X161478937Y-175465082D02*
X161055560Y-175465082D01*
X161646628Y-175379846D02*
X161527925Y-175440186D01*
X161478937Y-175465082D01*
X161646628Y-175465082D02*
X161646628Y-173522786D01*
X164096147Y-174197689D02*
X164096147Y-175212135D01*
X164096147Y-175212135D02*
X164148300Y-175263868D01*
X164265228Y-175379846D01*
X164265228Y-175379846D02*
X164434299Y-175465082D01*
X164434299Y-175465082D02*
X164687236Y-175465082D01*
X164687236Y-175465082D02*
X164751002Y-175432939D01*
X164856317Y-175379846D01*
X164856317Y-175379846D02*
X165025388Y-175296011D01*
X165025388Y-174197689D02*
X165025388Y-175465082D01*
X165954598Y-174197689D02*
X165954598Y-175465082D01*
X165954598Y-174366760D02*
X166021686Y-174299693D01*
X166038453Y-174282925D01*
X166038453Y-174282925D02*
X166207524Y-174197689D01*
X166207524Y-174197689D02*
X166545676Y-174197689D01*
X166545676Y-174197689D02*
X166714747Y-174282925D01*
X166714747Y-174282925D02*
X166741793Y-174337454D01*
X166798613Y-174451996D01*
X166798613Y-174451996D02*
X166798613Y-175465082D01*
X167643987Y-174535851D02*
X167727823Y-174366760D01*
X167643987Y-175126940D02*
X167643987Y-174535851D01*
X167727823Y-174366760D02*
X167784343Y-174311175D01*
X167813058Y-174282925D01*
X167727823Y-175296011D02*
X167643987Y-175126940D01*
X167813058Y-174282925D02*
X167986579Y-174224451D01*
X168065975Y-174197689D01*
X167813058Y-175379846D02*
X167727823Y-175296011D01*
X168065975Y-174197689D02*
X168404127Y-174197689D01*
X168065975Y-175465082D02*
X167976122Y-175434804D01*
X167813058Y-175379846D01*
X168404127Y-174197689D02*
X168468266Y-174230290D01*
X168571838Y-174282925D01*
X168404127Y-175465082D02*
X168065975Y-175465082D01*
X168571838Y-175379846D02*
X168450115Y-175441714D01*
X168404127Y-175465082D01*
X168571838Y-175465082D02*
X168571838Y-173522786D01*
X169417213Y-174451996D02*
X169510931Y-174358280D01*
X169586283Y-174282925D01*
X169417213Y-175212135D02*
X169417213Y-174451996D01*
X169586283Y-174282925D02*
X169692044Y-174229614D01*
X169755364Y-174197689D01*
X169586283Y-175379846D02*
X169450239Y-175244900D01*
X169417213Y-175212135D01*
X169755364Y-174197689D02*
X170092126Y-174197689D01*
X169755364Y-175465082D02*
X169713825Y-175444145D01*
X169586283Y-175379846D01*
X170092126Y-174197689D02*
X170164691Y-174222016D01*
X170346423Y-174282925D01*
X170092126Y-175465082D02*
X169755364Y-175465082D01*
X170346423Y-174282925D02*
X170388526Y-174367815D01*
X170430278Y-174451996D01*
X170346423Y-175379846D02*
X170184630Y-175434081D01*
X170092126Y-175465082D01*
X170430278Y-174451996D02*
X170430278Y-174619707D01*
X170430278Y-174619707D02*
X169417213Y-174873993D01*
X171275653Y-174535851D02*
X171349893Y-174386152D01*
X171359509Y-174366760D01*
X171275653Y-175465082D02*
X171275653Y-174197689D01*
X171359509Y-174366760D02*
X171422395Y-174303886D01*
X171443354Y-174282925D01*
X171443354Y-174282925D02*
X171612425Y-174197689D01*
X171612425Y-174197689D02*
X171866742Y-174197689D01*
D10*
X172035812Y-7990165D02*
X174231025Y-7990165D01*
X172879797Y-5456789D02*
X172035812Y-7990165D01*
X173723802Y-6808014D02*
X173723802Y-9088464D01*
X197963385Y-5034790D02*
X197963385Y-10017690D01*
X197963385Y-204517107D02*
X197963385Y-199534173D01*
X219413886Y-163640835D02*
X219413886Y-181546256D01*
D13*
X220512208Y-166512361D02*
X220512208Y-164570055D01*
X220597413Y-165330194D02*
X220561674Y-165365948D01*
X220512208Y-165415430D01*
X220765134Y-165161123D02*
X220661352Y-165265743D01*
X220597413Y-165330194D01*
X221019436Y-175465082D02*
X221019436Y-173522786D01*
X221103286Y-165161123D02*
X220765134Y-165161123D01*
X221272362Y-165330194D02*
X221238542Y-165296378D01*
X221103286Y-165161123D01*
X221356187Y-165499275D02*
X221304799Y-165395612D01*
X221272362Y-165330194D01*
X221356187Y-166512361D02*
X221356187Y-165499275D01*
D10*
X221948661Y-7315239D02*
X222024510Y-7238768D01*
X222116362Y-7146164D01*
D13*
X221948661Y-175465082D02*
X221019436Y-175465082D01*
X222032486Y-165161123D02*
X222792661Y-165161123D01*
D10*
X222116362Y-5625865D02*
X222022849Y-6567873D01*
X221948661Y-7315239D01*
X222116362Y-7146164D02*
X222250179Y-7057185D01*
X222370638Y-6977089D01*
X222116362Y-9004615D02*
X222023675Y-8911169D01*
X221948661Y-8835539D01*
D13*
X222285433Y-164570055D02*
X222285433Y-166259435D01*
X222285433Y-166259435D02*
X222370638Y-166428505D01*
D10*
X222370638Y-6977089D02*
X223214658Y-6977089D01*
X222370638Y-9088464D02*
X222253267Y-9049760D01*
X222116362Y-9004615D01*
D13*
X222370638Y-166428505D02*
X222508524Y-166474217D01*
X222623585Y-166512361D01*
X222539714Y-173606621D02*
X222623585Y-173691857D01*
X222623585Y-166512361D02*
X222792661Y-166512361D01*
X222623585Y-173522786D02*
X222539714Y-173606621D01*
X222623585Y-173522786D02*
X222623585Y-173691857D01*
X222623585Y-173691857D02*
X222692766Y-173622654D01*
X222708790Y-173606621D01*
X222623585Y-175465082D02*
X222623585Y-174197689D01*
X222708790Y-173606621D02*
X222623585Y-173522786D01*
X223130808Y-165161123D02*
X223890957Y-165161123D01*
D10*
X223214658Y-6977089D02*
X223552810Y-7146164D01*
X223214658Y-9088464D02*
X222370638Y-9088464D01*
D13*
X223467564Y-164570055D02*
X223467564Y-166259435D01*
X223467564Y-166259435D02*
X223545656Y-166414317D01*
X223552810Y-166428505D01*
X223467564Y-174535851D02*
X223498694Y-174474100D01*
X223552810Y-174366760D01*
X223467564Y-175126940D02*
X223467564Y-174535851D01*
D10*
X223552810Y-7146164D02*
X223721886Y-7315239D01*
X223552810Y-9004615D02*
X223214658Y-9088464D01*
D13*
X223552810Y-166428505D02*
X223653229Y-166478311D01*
X223721886Y-166512361D01*
X223552810Y-174366760D02*
X223636640Y-174282925D01*
X223552810Y-175296011D02*
X223518766Y-175228488D01*
X223467564Y-175126940D01*
X223636640Y-174282925D02*
X223811059Y-174224472D01*
X223890957Y-174197689D01*
X223636640Y-175379846D02*
X223552810Y-175296011D01*
D10*
X223721886Y-5625865D02*
X222116362Y-5625865D01*
X223721886Y-7315239D02*
X223890957Y-7653389D01*
X223721886Y-8835539D02*
X223552810Y-9004615D01*
D13*
X223721886Y-166512361D02*
X223890957Y-166512361D01*
D10*
X223890957Y-7653389D02*
X223890957Y-8497389D01*
X223890957Y-8497389D02*
X223721886Y-8835539D01*
D13*
X223890957Y-174197689D02*
X224227734Y-174197689D01*
X223890957Y-175465082D02*
X223801581Y-175435131D01*
X223636640Y-175379846D01*
X224227734Y-174197689D02*
X224396810Y-174282925D01*
X224227734Y-175465082D02*
X223890957Y-175465082D01*
X224396810Y-175379846D02*
X224303462Y-175426908D01*
X224227734Y-175465082D01*
X224565886Y-165161123D02*
X224565886Y-167188655D01*
X224565886Y-165330194D02*
X224678535Y-165255294D01*
X224820162Y-165161123D01*
X224820162Y-165161123D02*
X225156959Y-165161123D01*
X224820162Y-166512361D02*
X224702595Y-166473590D01*
X224565886Y-166428505D01*
X225156959Y-165161123D02*
X225262632Y-165266796D01*
X225326035Y-165330194D01*
X225156959Y-166512361D02*
X224820162Y-166512361D01*
X225156959Y-174451996D02*
X225275313Y-174333650D01*
X225326035Y-174282925D01*
X225156959Y-175212135D02*
X225156959Y-174451996D01*
X225326035Y-165330194D02*
X225347356Y-165351519D01*
X225411261Y-165415430D01*
X225326035Y-166428505D02*
X225238240Y-166472048D01*
X225156959Y-166512361D01*
X225326035Y-174282925D02*
X225434205Y-174228397D01*
X225495111Y-174197689D01*
X225326035Y-175379846D02*
X225156959Y-175212135D01*
X225411261Y-165415430D02*
X225493054Y-165497235D01*
X225578936Y-165583131D01*
X225411261Y-166343280D02*
X225362363Y-166392176D01*
X225326035Y-166428505D01*
X225495111Y-174197689D02*
X225833258Y-174197689D01*
X225495111Y-175465082D02*
X225443692Y-175439165D01*
X225326035Y-175379846D01*
X225578936Y-165583131D02*
X225578936Y-166174209D01*
X225578936Y-166174209D02*
X225507020Y-166246721D01*
X225411261Y-166343280D01*
X225833258Y-174197689D02*
X226086164Y-174282925D01*
X225833258Y-175465082D02*
X225495111Y-175465082D01*
X226086164Y-174282925D02*
X226103323Y-174316962D01*
X226171410Y-174451996D01*
X226086164Y-175379846D02*
X225833258Y-175465082D01*
X226171410Y-174451996D02*
X226171410Y-174619707D01*
X226171410Y-174619707D02*
X225156959Y-174873993D01*
X226339111Y-165499275D02*
X226424311Y-165330194D01*
X226339111Y-165583131D02*
X226339111Y-165499275D01*
X226339111Y-166428505D02*
X226447103Y-166482069D01*
X226508187Y-166512361D01*
X226424311Y-165330194D02*
X226474045Y-165280469D01*
X226533724Y-165220799D01*
X226593387Y-165161123D01*
X226424311Y-165752202D02*
X226339111Y-165583131D01*
X226508187Y-166512361D02*
X226846334Y-166512361D01*
X226593387Y-165161123D02*
X226846334Y-165161123D01*
X226593387Y-165837417D02*
X226589395Y-165835405D01*
X226424311Y-165752202D01*
X226846334Y-165161123D02*
X226995088Y-165260561D01*
X227099260Y-165330194D01*
X226846334Y-165837417D02*
X226593387Y-165837417D01*
X226846334Y-166512361D02*
X226969106Y-166471657D01*
X227099260Y-166428505D01*
X227015410Y-174197689D02*
X227015410Y-175465082D01*
X227015410Y-174366760D02*
X227054530Y-174327646D01*
X227099260Y-174282925D01*
X227099260Y-165921283D02*
X226963930Y-165876410D01*
X226846334Y-165837417D01*
X227099260Y-166428505D02*
X227184486Y-166259435D01*
X227099260Y-174282925D02*
X227207430Y-174228397D01*
X227268336Y-174197689D01*
X227184486Y-166174209D02*
X227099260Y-165921283D01*
X227184486Y-166259435D02*
X227184486Y-166174209D01*
X227268336Y-174197689D02*
X227606483Y-174197689D01*
X227606483Y-174197689D02*
X227667389Y-174228397D01*
X227775559Y-174282925D01*
X227775559Y-174282925D02*
X227797496Y-174327164D01*
X227859389Y-174451996D01*
X227859389Y-174451996D02*
X227859389Y-175465082D01*
X227944635Y-165415430D02*
X227975447Y-165384107D01*
X228028465Y-165330194D01*
X227944635Y-166428505D02*
X227981317Y-166391215D01*
X228028465Y-166343280D01*
X228028465Y-165330194D02*
X228028465Y-165499275D01*
X228028465Y-165330194D02*
X228089353Y-165391078D01*
X228113711Y-165415430D01*
X228028465Y-165499275D02*
X227972581Y-165443378D01*
X227944635Y-165415430D01*
X228028465Y-166343280D02*
X228028465Y-166512361D01*
X228028465Y-166343280D02*
X228099505Y-166414302D01*
X228113711Y-166428505D01*
X228028465Y-166512361D02*
X227979490Y-166463367D01*
X227944635Y-166428505D01*
X228113711Y-165415430D02*
X228057187Y-165471024D01*
X228028465Y-165499275D01*
X228113711Y-166428505D02*
X228077530Y-166464095D01*
X228028465Y-166512361D01*
X228704764Y-174451996D02*
X228752369Y-174356037D01*
X228788635Y-174282925D01*
X228704764Y-174535851D02*
X228704764Y-174451996D01*
X228704764Y-175379846D02*
X228801297Y-175428514D01*
X228873840Y-175465082D01*
X228788635Y-174282925D02*
X228892539Y-174230546D01*
X228957711Y-174197689D01*
X228788635Y-174704922D02*
X228752369Y-174631810D01*
X228704764Y-174535851D01*
X228873840Y-175465082D02*
X229295858Y-175465082D01*
X228957711Y-174197689D02*
X229295858Y-174197689D01*
X228957711Y-174873993D02*
X228840833Y-174757124D01*
X228788635Y-174704922D01*
X229295858Y-174197689D02*
X229464934Y-174282925D01*
X229295858Y-174873993D02*
X228957711Y-174873993D01*
X229295858Y-175465082D02*
X229372163Y-175426617D01*
X229464934Y-175379846D01*
X229464934Y-174957849D02*
X229387712Y-174919552D01*
X229295858Y-174873993D01*
X229464934Y-175379846D02*
X229496767Y-175316172D01*
X229548784Y-175212135D01*
X229548784Y-175126940D02*
X229485805Y-174999942D01*
X229464934Y-174957849D01*
X229548784Y-175212135D02*
X229548784Y-175126940D01*
X230308913Y-174451996D02*
X230362213Y-174346289D01*
X230394159Y-174282925D01*
X230308913Y-175212135D02*
X230308913Y-174451996D01*
X230394159Y-164400984D02*
X230017832Y-164984294D01*
X228704764Y-167019584D01*
X230394159Y-174282925D02*
X230647065Y-174197689D01*
X230394159Y-175379846D02*
X230328393Y-175250464D01*
X230308913Y-175212135D01*
X230647065Y-174197689D02*
X230985212Y-174197689D01*
X230647065Y-175465082D02*
X230394159Y-175379846D01*
X230985212Y-174197689D02*
X231035824Y-174223206D01*
X231154288Y-174282925D01*
X230985212Y-175465082D02*
X230647065Y-175465082D01*
X231154288Y-174282925D02*
X231190554Y-174356037D01*
X231238159Y-174451996D01*
X231154288Y-175379846D02*
X231071784Y-175421450D01*
X231043065Y-175435923D01*
X230985212Y-175465082D01*
X231238159Y-174451996D02*
X231238159Y-174619707D01*
X231238159Y-174619707D02*
X230308913Y-174873993D01*
X232505536Y-164400984D02*
X231890021Y-165309231D01*
X230730936Y-167019584D01*
X233011384Y-165583131D02*
X233120929Y-165474472D01*
X233180460Y-165415430D01*
X233011384Y-166174209D02*
X233011384Y-165583131D01*
X233180460Y-165415430D02*
X233234261Y-165361609D01*
X233265660Y-165330194D01*
X233180460Y-166343280D02*
X233104367Y-166267192D01*
X233011384Y-166174209D01*
X233265660Y-165330194D02*
X233300711Y-165294863D01*
X233433386Y-165161123D01*
X233265660Y-166428505D02*
X233229144Y-166391975D01*
X233180460Y-166343280D01*
X233349536Y-167188655D02*
X233180460Y-167103419D01*
X233433386Y-165161123D02*
X233771533Y-165161123D01*
X233433386Y-166512361D02*
X233352229Y-166471786D01*
X233265660Y-166428505D01*
X233602457Y-167188655D02*
X233349536Y-167188655D01*
X233687683Y-173522786D02*
X233687683Y-175126940D01*
X233687683Y-175126940D02*
X233722526Y-175197202D01*
X233771533Y-175296011D01*
X233771533Y-165161123D02*
X234024439Y-165330194D01*
X233771533Y-166512361D02*
X233433386Y-166512361D01*
X233771533Y-167103419D02*
X233602457Y-167188655D01*
X233771533Y-175296011D02*
X233856759Y-175379846D01*
X233856759Y-175379846D02*
X233960233Y-175432449D01*
X234024439Y-175465082D01*
X233940609Y-167019584D02*
X233771533Y-167103419D01*
X234024439Y-165161123D02*
X234024439Y-166850503D01*
X234024439Y-166428505D02*
X233771533Y-166512361D01*
X234024439Y-166850503D02*
X233970929Y-166958437D01*
X233940609Y-167019584D01*
X234024439Y-175465082D02*
X234447832Y-175465082D01*
X234447832Y-175465082D02*
X234499251Y-175439165D01*
X234616908Y-175379846D01*
X234616908Y-175379846D02*
X234700738Y-175296011D01*
X234700738Y-175296011D02*
X234738043Y-175220805D01*
X234784609Y-175126940D01*
X234784609Y-175126940D02*
X234784609Y-173522786D01*
X234869814Y-164655280D02*
X234897768Y-164683230D01*
X234953685Y-164739136D01*
X234953685Y-164570055D02*
X234898521Y-164626107D01*
X234869814Y-164655280D01*
X234953685Y-164570055D02*
X234953685Y-164739136D01*
X234953685Y-164739136D02*
X235000188Y-164693368D01*
X235038885Y-164655280D01*
X234953685Y-166512361D02*
X234953685Y-165161123D01*
X235038885Y-164655280D02*
X235003009Y-164619390D01*
X234953685Y-164570055D01*
D10*
X235377037Y-181546256D02*
X235377037Y-199534173D01*
D13*
X235629984Y-165161123D02*
X236390133Y-165161123D01*
X235713834Y-173522786D02*
X236473963Y-173522786D01*
X235713834Y-175465082D02*
X235713834Y-173522786D01*
X235882910Y-164570055D02*
X235882910Y-166259435D01*
X235882910Y-166259435D02*
X235919254Y-166331535D01*
X235968136Y-166428505D01*
X235968136Y-166428505D02*
X236097689Y-166471459D01*
X236221057Y-166512361D01*
X236221057Y-166512361D02*
X236390133Y-166512361D01*
X236473963Y-173522786D02*
X236728285Y-173606621D01*
X236473963Y-174535851D02*
X235713834Y-174535851D01*
X236728285Y-173606621D02*
X236770100Y-173649140D01*
X236812110Y-173691857D01*
X236728285Y-174451996D02*
X236473963Y-174535851D01*
X236812110Y-173691857D02*
X236860674Y-173789743D01*
X236895986Y-173860928D01*
X236812110Y-174366760D02*
X236767046Y-174412604D01*
X236734653Y-174445525D01*
X236728285Y-174451996D01*
X236895986Y-173860928D02*
X236895986Y-174197689D01*
X236895986Y-174197689D02*
X236860674Y-174268874D01*
X236812110Y-174366760D01*
X236895986Y-175465082D02*
X236626585Y-175094170D01*
X236221057Y-174535851D01*
X236895986Y-183319481D02*
X236942600Y-183134483D01*
X236981186Y-182981339D01*
X236895986Y-183657643D02*
X236895986Y-183319481D01*
X236981186Y-182981339D02*
X237056012Y-182755710D01*
X237065057Y-182728433D01*
X236981186Y-183994425D02*
X236938411Y-183825343D01*
X236895986Y-183657643D01*
X236981186Y-191426827D02*
X237741361Y-191426827D01*
X236981186Y-193454379D02*
X236981186Y-191426827D01*
X237065057Y-166512361D02*
X237065057Y-164570055D01*
X237065057Y-182728433D02*
X237234133Y-182559362D01*
X237065057Y-184163496D02*
X236981186Y-183994425D01*
X237150262Y-165330194D02*
X237114523Y-165365948D01*
X237065057Y-165415430D01*
X237234133Y-182559362D02*
X237572285Y-182474106D01*
X237234133Y-184417803D02*
X237175206Y-184329182D01*
X237120124Y-184246346D01*
X237065057Y-184163496D01*
X237319338Y-165161123D02*
X237209443Y-165271022D01*
X237150262Y-165330194D01*
X237572285Y-165161123D02*
X237319338Y-165161123D01*
X237572285Y-182474106D02*
X237741361Y-182474106D01*
X237572285Y-184501658D02*
X237416584Y-184463048D01*
X237234133Y-184417803D01*
X237741361Y-175465082D02*
X237741361Y-173522786D01*
X237741361Y-182474106D02*
X237804936Y-182495532D01*
X237994282Y-182559362D01*
X237741361Y-184501658D02*
X237572285Y-184501658D01*
X237741361Y-191426827D02*
X237745238Y-191430705D01*
X237827828Y-191513320D01*
X237910432Y-191595918D01*
X237741361Y-192525149D02*
X236981186Y-192525149D01*
X237825211Y-165330194D02*
X237721039Y-165260561D01*
X237572285Y-165161123D01*
X237910432Y-165499275D02*
X237825211Y-165330194D01*
X237910432Y-166512361D02*
X237910432Y-165499275D01*
X237910432Y-191595918D02*
X237994282Y-191679774D01*
X237910432Y-192439933D02*
X237838021Y-192476428D01*
X237741361Y-192525149D01*
X237994282Y-182559362D02*
X238023806Y-182588405D01*
X238051656Y-182615802D01*
X238079508Y-182643177D01*
X237994282Y-184417803D02*
X237741361Y-184501658D01*
X237994282Y-191679774D02*
X238056330Y-191802869D01*
X238079508Y-191848865D01*
X237994282Y-192356078D02*
X237962024Y-192388334D01*
X237910432Y-192439933D01*
X238079508Y-184248732D02*
X238033333Y-184340332D01*
X237994282Y-184417803D01*
X238079508Y-191848865D02*
X238079508Y-192103131D01*
X238079508Y-192103131D02*
X238046275Y-192201769D01*
X237994282Y-192356078D01*
X238079508Y-193454379D02*
X237998500Y-193343079D01*
X237700846Y-192934119D01*
X237403209Y-192525149D01*
X238670586Y-175465082D02*
X237741361Y-175465082D01*
X238839657Y-165161123D02*
X238839657Y-166259435D01*
X238839657Y-166259435D02*
X238865782Y-166312113D01*
X238894643Y-166370309D01*
X238923487Y-166428505D01*
X238839657Y-183488552D02*
X238944041Y-183383322D01*
X239007358Y-183319481D01*
X238839657Y-184079661D02*
X238839657Y-183488552D01*
X238839657Y-192439933D02*
X238861667Y-192373540D01*
X238892586Y-192280271D01*
X238923487Y-192187007D01*
X238839657Y-193200052D02*
X238839657Y-192439933D01*
X238923487Y-166428505D02*
X238994119Y-166463534D01*
X239092563Y-166512361D01*
X238923487Y-192187007D02*
X239176434Y-192103131D01*
X238923487Y-193369143D02*
X238858949Y-193238956D01*
X238839657Y-193200052D01*
X239007358Y-183319481D02*
X239062211Y-183264640D01*
X239092563Y-183234286D01*
X239007358Y-184248732D02*
X238944041Y-184184891D01*
X238839657Y-184079661D01*
X239092563Y-166512361D02*
X239430710Y-166512361D01*
X239092563Y-183234286D02*
X239164608Y-183198548D01*
X239261639Y-183150410D01*
X239092563Y-184417803D02*
X239053602Y-184340488D01*
X239007358Y-184248732D01*
X239176434Y-192103131D02*
X239514586Y-192103131D01*
X239176434Y-193454379D02*
X238923487Y-193369143D01*
X239261639Y-183150410D02*
X239514586Y-183150410D01*
X239261639Y-184501658D02*
X239169533Y-184455974D01*
X239092563Y-184417803D01*
X239430710Y-166512361D02*
X239491794Y-166482069D01*
X239599786Y-166428505D01*
X239514586Y-183150410D02*
X239647055Y-183194341D01*
X239767507Y-183234286D01*
X239514586Y-184501658D02*
X239261639Y-184501658D01*
X239514586Y-192103131D02*
X239609771Y-192150355D01*
X239683657Y-192187007D01*
X239514586Y-193454379D02*
X239176434Y-193454379D01*
X239599786Y-166428505D02*
X239638034Y-166389639D01*
X239683657Y-166343280D01*
X239683657Y-165161123D02*
X239683657Y-166512361D01*
X239683657Y-192187007D02*
X239807278Y-192371941D01*
X239852733Y-192439933D01*
X239683657Y-193369143D02*
X239514586Y-193454379D01*
X239767507Y-183234286D02*
X239781249Y-183248025D01*
X239852733Y-183319481D01*
X239767507Y-184417803D02*
X239643253Y-184458999D01*
X239514586Y-184501658D01*
X239852733Y-183319481D02*
X239873662Y-183361692D01*
X239905117Y-183425129D01*
X239936583Y-183488552D01*
X239852733Y-184248732D02*
X239804604Y-184344205D01*
X239767507Y-184417803D01*
X239852733Y-192439933D02*
X239852733Y-192609004D01*
X239852733Y-192609004D02*
X238839657Y-192778075D01*
X239936583Y-183488552D02*
X239936583Y-184079661D01*
X239936583Y-184079661D02*
X239888273Y-184177052D01*
X239873662Y-184206521D01*
X239852733Y-184248732D01*
X240443811Y-192103131D02*
X240951034Y-193454379D01*
X240612882Y-165330194D02*
X240865788Y-165161123D01*
X240612882Y-166512361D02*
X240612882Y-164570055D01*
X240781958Y-183150410D02*
X240781958Y-185176582D01*
X240781958Y-183234286D02*
X240864657Y-183193261D01*
X240951034Y-183150410D01*
X240865788Y-165161123D02*
X241203935Y-165161123D01*
X240865788Y-166512361D02*
X240612882Y-166428505D01*
X240951034Y-183150410D02*
X241373011Y-183150410D01*
X240951034Y-184501658D02*
X240781958Y-184417803D01*
X240951034Y-193454379D02*
X241253493Y-192646440D01*
X241456882Y-192103131D01*
X241203935Y-165161123D02*
X241273565Y-165230747D01*
X241373011Y-165330194D01*
X241203935Y-166512361D02*
X240865788Y-166512361D01*
X241373011Y-165330194D02*
X241457452Y-165372763D01*
X241542087Y-165415430D01*
X241373011Y-166428505D02*
X241265019Y-166482069D01*
X241203935Y-166512361D01*
X241373011Y-183150410D02*
X241447597Y-183187409D01*
X241542087Y-183234286D01*
X241373011Y-184501658D02*
X240951034Y-184501658D01*
X241542087Y-165415430D02*
X241584464Y-165500163D01*
X241625958Y-165583131D01*
X241542087Y-166343280D02*
X241453794Y-166387785D01*
X241373011Y-166428505D01*
X241542087Y-183234286D02*
X241554441Y-183246838D01*
X241625958Y-183319481D01*
X241542087Y-184417803D02*
X241450248Y-184463354D01*
X241373011Y-184501658D01*
X241625958Y-165583131D02*
X241625958Y-166174209D01*
X241625958Y-166174209D02*
X241577743Y-166271401D01*
X241542087Y-166343280D01*
X241625958Y-183319481D02*
X241665050Y-183397055D01*
X241711163Y-183488552D01*
X241625958Y-184248732D02*
X241578512Y-184344371D01*
X241542087Y-184417803D01*
X241711163Y-183488552D02*
X241711163Y-184079661D01*
X241711163Y-184079661D02*
X241665050Y-184171158D01*
X241625958Y-184248732D01*
X242133186Y-193369143D02*
X242175674Y-193326660D01*
X242217031Y-193285308D01*
X242217031Y-193285308D02*
X242217031Y-193454379D01*
X242217031Y-193285308D02*
X242252614Y-193320314D01*
X242302257Y-193369143D01*
X242217031Y-193454379D02*
X242133186Y-193369143D01*
X242302257Y-193369143D02*
X242217031Y-193454379D01*
X242386107Y-166428505D02*
X242415460Y-166398668D01*
X242469937Y-166343280D01*
X242386107Y-183150410D02*
X242893335Y-184501658D01*
X242469937Y-166343280D02*
X242469937Y-166512361D01*
X242469937Y-166343280D02*
X242530828Y-166404154D01*
X242555183Y-166428505D01*
X242469937Y-166512361D02*
X242416255Y-166458657D01*
X242386107Y-166428505D01*
X242555183Y-166428505D02*
X242508742Y-166474189D01*
X242469937Y-166512361D01*
X242555183Y-185008871D02*
X242457958Y-185105312D01*
X242386107Y-185176582D01*
X242639013Y-184923635D02*
X242555183Y-185008871D01*
X242893335Y-184501658D02*
X242639013Y-184923635D01*
X243315312Y-165583131D02*
X243357663Y-165498450D01*
X243399183Y-165415430D01*
X243315312Y-166174209D02*
X243315312Y-165583131D01*
X243315312Y-183150410D02*
X242893335Y-184501658D01*
X243399183Y-165415430D02*
X243448649Y-165365948D01*
X243484388Y-165330194D01*
X243399183Y-166343280D02*
X243364167Y-166272689D01*
X243315312Y-166174209D01*
X243484388Y-165330194D02*
X243543569Y-165271022D01*
X243653464Y-165161123D01*
X243484388Y-166428505D02*
X243445505Y-166389611D01*
X243399183Y-166343280D01*
X243653464Y-165161123D02*
X244075482Y-165161123D01*
X243653464Y-166512361D02*
X243555400Y-166463722D01*
X243484388Y-166428505D01*
X244075482Y-165161123D02*
X244165166Y-165250815D01*
X244185459Y-165271104D01*
X244244558Y-165330194D01*
X244075482Y-166512361D02*
X243653464Y-166512361D01*
X244075482Y-183488552D02*
X244110325Y-183418290D01*
X244159332Y-183319481D01*
X244075482Y-184501658D02*
X244075482Y-183150410D01*
X244159332Y-183319481D02*
X244328408Y-183234286D01*
X244244558Y-166428505D02*
X244173926Y-166463534D01*
X244075482Y-166512361D01*
X244328408Y-183234286D02*
X244411107Y-183193261D01*
X244497484Y-183150410D01*
D10*
X244328408Y-190582853D02*
X244328408Y-199534173D01*
D13*
X244497484Y-183150410D02*
X244666560Y-183150410D01*
X245004707Y-165583131D02*
X245031024Y-165530495D01*
X245088537Y-165415430D01*
X245004707Y-166174209D02*
X245004707Y-165583131D01*
X245088537Y-165415430D02*
X245109851Y-165394120D01*
X245173783Y-165330194D01*
X245088537Y-166343280D02*
X245045681Y-166256824D01*
X245030970Y-166227164D01*
X245004707Y-166174209D01*
X245173783Y-165330194D02*
X245426689Y-165161123D01*
X245173783Y-166428505D02*
X245149428Y-166404154D01*
X245088537Y-166343280D01*
X245257613Y-182559362D02*
X245287032Y-182588770D01*
X245314255Y-182615985D01*
X245341484Y-182643177D01*
X245341484Y-182474106D02*
X245274558Y-182542134D01*
X245257613Y-182559362D01*
X245341484Y-182474106D02*
X245341484Y-182643177D01*
X245341484Y-182643177D02*
X245377065Y-182608195D01*
X245394148Y-182591382D01*
X245426689Y-182559362D01*
X245341484Y-184501658D02*
X245341484Y-183150410D01*
X245426689Y-165161123D02*
X245679636Y-165161123D01*
X245426689Y-166512361D02*
X245173783Y-166428505D01*
X245426689Y-182559362D02*
X245395905Y-182528555D01*
X245341484Y-182474106D01*
X245679636Y-165161123D02*
X245848707Y-165330194D01*
X245679636Y-166512361D02*
X245426689Y-166512361D01*
X245848707Y-165330194D02*
X245884446Y-165365948D01*
X245933912Y-165415430D01*
X245848707Y-166428505D02*
X245779019Y-166463067D01*
X245679636Y-166512361D01*
X245933912Y-165415430D02*
X246011321Y-165492829D01*
X246101633Y-165583131D01*
X245933912Y-166343280D02*
X245887590Y-166389611D01*
X245848707Y-166428505D01*
X245933912Y-191426827D02*
X246439785Y-191426827D01*
X245933912Y-193454379D02*
X245933912Y-191426827D01*
X246101633Y-165583131D02*
X246101633Y-166174209D01*
X246101633Y-166174209D02*
X246037694Y-166238660D01*
X245933912Y-166343280D01*
X246186859Y-183488552D02*
X246214646Y-183432517D01*
X246270709Y-183319481D01*
X246186859Y-184079661D02*
X246186859Y-183488552D01*
X246270709Y-183319481D02*
X246342193Y-183248025D01*
X246355935Y-183234286D01*
X246270709Y-184248732D02*
X246214646Y-184135696D01*
X246186859Y-184079661D01*
X246355935Y-183234286D02*
X246476387Y-183194341D01*
X246608856Y-183150410D01*
X246355935Y-184417803D02*
X246318838Y-184344205D01*
X246270709Y-184248732D01*
X246439785Y-185176582D02*
X246367934Y-185105312D01*
X246270709Y-185008871D01*
X246439785Y-191426827D02*
X246535345Y-191490725D01*
X246692686Y-191595918D01*
X246439785Y-193454379D02*
X245933912Y-193454379D01*
X246608856Y-183150410D02*
X246947008Y-183150410D01*
X246608856Y-184501658D02*
X246480189Y-184458999D01*
X246355935Y-184417803D01*
X246692686Y-191595918D02*
X246861762Y-191764989D01*
X246692686Y-193369143D02*
X246439785Y-193454379D01*
X246777932Y-185176582D02*
X246439785Y-185176582D01*
X246861762Y-191764989D02*
X246893708Y-191828353D01*
X246947008Y-191934060D01*
X246861762Y-193200052D02*
X246723427Y-193338402D01*
X246692686Y-193369143D01*
X246947008Y-165415430D02*
X246973263Y-165388742D01*
X247030838Y-165330194D01*
X246947008Y-166512361D02*
X246947008Y-165161123D01*
X246947008Y-183150410D02*
X247033385Y-183193261D01*
X247116084Y-183234286D01*
X246947008Y-184501658D02*
X246608856Y-184501658D01*
X246947008Y-185008871D02*
X246849783Y-185105312D01*
X246777932Y-185176582D01*
X246947008Y-191934060D02*
X247116084Y-192356078D01*
X246947008Y-192947146D02*
X246876283Y-193156973D01*
X246861762Y-193200052D01*
X247030838Y-165330194D02*
X247089937Y-165271104D01*
X247144933Y-165216117D01*
X247199914Y-165161123D01*
X247030838Y-184923635D02*
X246947008Y-185008871D01*
X247116084Y-183150410D02*
X247116084Y-184754564D01*
X247116084Y-184417803D02*
X246947008Y-184501658D01*
X247116084Y-184754564D02*
X247082358Y-184821456D01*
X247030838Y-184923635D01*
X247116084Y-192356078D02*
X247116084Y-192609004D01*
X247116084Y-192609004D02*
X246947008Y-192947146D01*
X247199914Y-165161123D02*
X247452861Y-165161123D01*
X247452861Y-165161123D02*
X247606565Y-165263326D01*
X247707137Y-165330194D01*
X247707137Y-165330194D02*
X247750418Y-165417447D01*
X247791008Y-165499275D01*
X247791008Y-165499275D02*
X247791008Y-166512361D01*
X247791008Y-165499275D02*
X247876213Y-165330194D01*
D10*
X247876213Y-5034790D02*
X247876213Y-10017690D01*
D13*
X247876213Y-165330194D02*
X247935394Y-165271022D01*
X248045289Y-165161123D01*
X247876213Y-192947146D02*
X247960084Y-192778075D01*
X247876213Y-193200052D02*
X247876213Y-192947146D01*
D10*
X247876213Y-204517107D02*
X247876213Y-199534173D01*
D13*
X247960084Y-192778075D02*
X248044391Y-192736260D01*
X248075997Y-192720594D01*
X248129160Y-192694240D01*
X247960084Y-193369143D02*
X247918741Y-193285791D01*
X247876213Y-193200052D01*
X248045289Y-165161123D02*
X248298231Y-165161123D01*
X248129160Y-184501658D02*
X248129160Y-182474106D01*
X248129160Y-192103131D02*
X248061204Y-192136839D01*
X247960084Y-192187007D01*
X248129160Y-192694240D02*
X248636383Y-192694240D01*
X248129160Y-193454379D02*
X247960084Y-193369143D01*
X248213010Y-183234286D02*
X248129160Y-183319481D01*
X248298231Y-165161123D02*
X248446985Y-165260561D01*
X248551157Y-165330194D01*
X248382081Y-183150410D02*
X248213010Y-183234286D01*
X248467307Y-192103131D02*
X248129160Y-192103131D01*
X248551157Y-165330194D02*
X248636383Y-165499275D01*
X248636383Y-165499275D02*
X248636383Y-166512361D01*
X248636383Y-183150410D02*
X248382081Y-183150410D01*
X248636383Y-192694240D02*
X248739857Y-192641637D01*
X248804063Y-192609004D01*
X248636383Y-193454379D02*
X248129160Y-193454379D01*
X248720233Y-192187007D02*
X248591439Y-192144296D01*
X248467307Y-192103131D01*
X248804063Y-192439933D02*
X248740002Y-192246640D01*
X248720233Y-192187007D01*
X248804063Y-193369143D02*
X248636383Y-193454379D01*
X248804063Y-193454379D02*
X248804063Y-192439933D01*
X248889309Y-183234286D02*
X248765177Y-183193121D01*
X248636383Y-183150410D01*
X248973139Y-183403357D02*
X248916057Y-183288218D01*
X248902816Y-183261520D01*
X248889309Y-183234286D01*
X248973139Y-184501658D02*
X248973139Y-183403357D01*
X249480362Y-192103131D02*
X250240532Y-192103131D01*
X249649438Y-183150410D02*
X250409608Y-183150410D01*
X249733309Y-191426827D02*
X249733309Y-193200052D01*
X249733309Y-193200052D02*
X249818514Y-193369143D01*
X249818514Y-193369143D02*
X249987585Y-193454379D01*
X249902385Y-182474106D02*
X249902385Y-184163496D01*
X249902385Y-184163496D02*
X249939487Y-184274245D01*
X249987585Y-184417803D01*
X249987585Y-184417803D02*
X250062363Y-184454887D01*
X250156661Y-184501658D01*
X249987585Y-193454379D02*
X250240532Y-193454379D01*
X250156661Y-184501658D02*
X250409608Y-184501658D01*
X250747760Y-192439933D02*
X250915435Y-192187007D01*
X250747760Y-193200052D02*
X250747760Y-192439933D01*
X250915435Y-192187007D02*
X250985567Y-192152218D01*
X251084511Y-192103131D01*
X250915435Y-193369143D02*
X250747760Y-193200052D01*
X251084511Y-192103131D02*
X251422663Y-192103131D01*
X251084511Y-193454379D02*
X250915435Y-193369143D01*
X251422663Y-192103131D02*
X251542992Y-192143031D01*
X251675610Y-192187007D01*
X251422663Y-193454379D02*
X251084511Y-193454379D01*
X251675610Y-192187007D02*
X251760810Y-192439933D01*
X251675610Y-193369143D02*
X251422663Y-193454379D01*
X251760810Y-192439933D02*
X251760810Y-192609004D01*
X251760810Y-192609004D02*
X250747760Y-192778075D01*
X254041261Y-192525149D02*
X254077394Y-192452308D01*
X254125134Y-192356078D01*
X254041261Y-193116237D02*
X254041261Y-192525149D01*
X254125134Y-192356078D02*
X254163494Y-192279954D01*
X254210337Y-192187007D01*
X254125134Y-193285308D02*
X254041261Y-193116237D01*
X254210337Y-192187007D02*
X254286064Y-192149442D01*
X254379413Y-192103131D01*
X254210337Y-193369143D02*
X254161175Y-193320776D01*
X254125134Y-193285308D01*
X254379413Y-192103131D02*
X254716207Y-192103131D01*
X254379413Y-193454379D02*
X254210337Y-193369143D01*
X254716207Y-192103131D02*
X254797462Y-192143440D01*
X254885283Y-192187007D01*
X254716207Y-193454379D02*
X254379413Y-193454379D01*
X254885283Y-192187007D02*
X254932532Y-192280736D01*
X254970509Y-192356078D01*
X254885283Y-193369143D02*
X254716207Y-193454379D01*
X254970509Y-192356078D02*
X255002325Y-192420235D01*
X255054359Y-192525149D01*
X254970509Y-193285308D02*
X254935524Y-193319727D01*
X254885283Y-193369143D01*
X255054359Y-192525149D02*
X255054359Y-193116237D01*
X255054359Y-193116237D02*
X254970509Y-193285308D01*
X255645412Y-192103131D02*
X256405582Y-192103131D01*
X255898359Y-191764989D02*
X255944579Y-191673278D01*
X255983562Y-191595918D01*
X255898359Y-193454379D02*
X255898359Y-191764989D01*
X255983562Y-191595918D02*
X256100241Y-191517929D01*
X256130505Y-191497694D01*
X256236508Y-191426827D01*
X256236508Y-191426827D02*
X256405582Y-191426827D01*
X258516959Y-191595918D02*
X258570293Y-191648404D01*
X258602162Y-191679774D01*
X258602162Y-191426827D02*
X258561883Y-191506767D01*
X258516959Y-191595918D01*
X258602162Y-191426827D02*
X258602162Y-191679774D01*
X258602162Y-191679774D02*
X258686032Y-191595918D01*
X258602162Y-193454379D02*
X258602162Y-192103131D01*
X258686032Y-191595918D02*
X258638537Y-191500168D01*
X258602162Y-191426827D01*
X259446182Y-192439933D02*
X259467024Y-192377064D01*
X259530012Y-192187007D01*
X259446182Y-192525149D02*
X259446182Y-192439933D01*
X259446182Y-193369143D02*
X259615258Y-193454379D01*
X259530012Y-192187007D02*
X259603832Y-192150387D01*
X259699085Y-192103131D01*
X259530012Y-192694240D02*
X259446182Y-192525149D01*
X259615258Y-193454379D02*
X260037237Y-193454379D01*
X259699085Y-192103131D02*
X260037237Y-192103131D01*
X259699085Y-192778075D02*
X259616142Y-192736936D01*
X259586974Y-192722478D01*
X259530012Y-192694240D01*
X260037237Y-192103131D02*
X260109261Y-192138859D01*
X260206311Y-192187007D01*
X260037237Y-192778075D02*
X259699085Y-192778075D01*
X260037237Y-193454379D02*
X260206311Y-193369143D01*
X260206311Y-192863311D02*
X260037237Y-192778075D01*
X260206311Y-193369143D02*
X260290184Y-193200052D01*
X260290184Y-193116237D02*
X260206311Y-192863311D01*
X260290184Y-193200052D02*
X260290184Y-193116237D01*
X261050333Y-192439933D02*
X261091463Y-192317871D01*
X261135559Y-192187007D01*
X261050333Y-192525149D02*
X261050333Y-192439933D01*
X261050333Y-193369143D02*
X261219407Y-193454379D01*
X261135559Y-192187007D02*
X261233089Y-192138620D01*
X261304632Y-192103131D01*
X261135559Y-192694240D02*
X261105053Y-192633706D01*
X261050333Y-192525149D01*
X261219407Y-193454379D02*
X261641386Y-193454379D01*
X261304632Y-192103131D02*
X261641386Y-192103131D01*
X261304632Y-192778075D02*
X261211389Y-192731838D01*
X261135559Y-192694240D01*
X261641386Y-192103131D02*
X261710936Y-192137630D01*
X261810462Y-192187007D01*
X261641386Y-192778075D02*
X261304632Y-192778075D01*
X261641386Y-193454379D02*
X261810462Y-193369143D01*
X261810462Y-192863311D02*
X261641386Y-192778075D01*
X261810462Y-193369143D02*
X261849557Y-193291595D01*
X261895708Y-193200052D01*
X261895708Y-193116237D02*
X261848208Y-192975305D01*
X261810462Y-192863311D01*
X261895708Y-193200052D02*
X261895708Y-193116237D01*
X262739708Y-192103131D02*
X262739708Y-193200052D01*
X262739708Y-193200052D02*
X262781888Y-193283762D01*
X262824911Y-193369143D01*
X262824911Y-193369143D02*
X263077857Y-193454379D01*
X263077857Y-193454379D02*
X263330784Y-193454379D01*
X263330784Y-193454379D02*
X263499857Y-193369143D01*
X263499857Y-193369143D02*
X263583687Y-193285308D01*
X263583687Y-192103131D02*
X263583687Y-193454379D01*
X264429062Y-192439933D02*
X264470534Y-192377898D01*
X264598136Y-192187007D01*
X264429062Y-193200052D02*
X264429062Y-192439933D01*
X264598136Y-192187007D02*
X264671162Y-192150782D01*
X264767212Y-192103131D01*
X264598136Y-193369143D02*
X264448570Y-193219560D01*
X264429062Y-193200052D01*
X264767212Y-192103131D02*
X265104009Y-192103131D01*
X264767212Y-193454379D02*
X264598136Y-193369143D01*
X265104009Y-192103131D02*
X265231111Y-192145053D01*
X265358308Y-192187007D01*
X265104009Y-193454379D02*
X264767212Y-193454379D01*
X265358308Y-192187007D02*
X265372081Y-192228563D01*
X265442158Y-192439933D01*
X265358308Y-193369143D02*
X265104009Y-193454379D01*
X265442158Y-192439933D02*
X265442158Y-192609004D01*
X265442158Y-192609004D02*
X264429062Y-192778075D01*
D10*
X269917811Y-203587856D02*
X270296601Y-202479669D01*
X270698976Y-201302482D01*
X271101335Y-200125282D01*
X270255960Y-202660006D02*
X271945358Y-202660006D01*
X271101335Y-200125282D02*
X271878080Y-202400369D01*
X272283507Y-203587856D01*
X271776282Y-7146164D02*
X271776282Y-8497389D01*
X271776282Y-8497389D02*
X271837764Y-8620353D01*
X271945358Y-8835539D01*
X271945358Y-6469864D02*
X271776282Y-7146164D01*
X271945358Y-7315239D02*
X271848743Y-7508468D01*
X271776282Y-7653389D01*
X271945358Y-8835539D02*
X272020502Y-8910684D01*
X272114431Y-9004615D01*
X272114431Y-7146164D02*
X271945358Y-7315239D01*
X272114431Y-9004615D02*
X272452583Y-9088464D01*
X272283507Y-5964015D02*
X271945358Y-6469864D01*
X272452583Y-5794940D02*
X272283507Y-5964015D01*
X272452583Y-6977089D02*
X272114431Y-7146164D01*
X272452583Y-9088464D02*
X273127507Y-9088464D01*
X272789358Y-5625865D02*
X272756756Y-5642231D01*
X272452583Y-5794940D01*
X273127507Y-6977089D02*
X272452583Y-6977089D01*
X273127507Y-9088464D02*
X273228860Y-9063331D01*
X273465656Y-9004615D01*
X273296583Y-202490935D02*
X275407957Y-202490935D01*
X273465656Y-5625865D02*
X272789358Y-5625865D01*
X273465656Y-7146164D02*
X273230156Y-7028416D01*
X273127507Y-6977089D01*
X273465656Y-9004615D02*
X273578368Y-8891898D01*
X273634732Y-8835539D01*
X273634732Y-7315239D02*
X273580103Y-7260615D01*
X273465656Y-7146164D01*
X273634732Y-8835539D02*
X273744432Y-8616129D01*
X273803806Y-8497389D01*
X273803806Y-7653389D02*
X273745682Y-7537150D01*
X273634732Y-7315239D01*
X273803806Y-8497389D02*
X273803806Y-7653389D01*
X274140560Y-199956211D02*
X273296583Y-202490935D01*
X274900732Y-201308799D02*
X274900732Y-203587856D01*
X277266385Y-190582853D02*
X277266385Y-199534173D01*
D13*
X277772257Y-191848865D02*
X277802424Y-191789003D01*
X277857481Y-191679774D01*
X277772257Y-192017936D02*
X277772257Y-191848865D01*
X277772257Y-193369143D02*
X278026557Y-193454379D01*
X277857481Y-191679774D02*
X277941332Y-191595918D01*
X277857481Y-192187007D02*
X277821994Y-192116601D01*
X277772257Y-192017936D01*
X277941332Y-191595918D02*
X278110406Y-191426827D01*
X277941332Y-192356078D02*
X277891232Y-192255064D01*
X277857481Y-192187007D01*
X278026557Y-193454379D02*
X278532385Y-193454379D01*
X278110406Y-191426827D02*
X278617632Y-191426827D01*
X278110406Y-192439933D02*
X277941332Y-192356078D01*
X278532385Y-192525149D02*
X278319244Y-192482106D01*
X278110406Y-192439933D01*
X278532385Y-193454379D02*
X278701461Y-193369143D01*
X278617632Y-191426827D02*
X278717963Y-191493913D01*
X278870536Y-191595918D01*
X278701461Y-192609004D02*
X278608678Y-192562984D01*
X278532385Y-192525149D01*
X278701461Y-193369143D02*
X278757375Y-193314159D01*
X278786707Y-193285308D01*
X278786707Y-192694240D02*
X278731708Y-192639244D01*
X278701461Y-192609004D01*
X278786707Y-193285308D02*
X278870536Y-193116237D01*
X278870536Y-192863311D02*
X278815953Y-192753207D01*
X278795595Y-192712161D01*
X278786707Y-192694240D01*
X278870536Y-193116237D02*
X278870536Y-192863311D01*
X279715910Y-193454379D02*
X279715910Y-191426827D01*
X279883632Y-192187007D02*
X279770845Y-192300697D01*
X279715910Y-192356078D01*
X280052706Y-192103131D02*
X279883632Y-192187007D01*
X280307006Y-192103131D02*
X280052706Y-192103131D01*
X280474686Y-192187007D02*
X280307006Y-192103131D01*
X280643761Y-192439933D02*
X280512823Y-192244052D01*
X280474686Y-192187007D01*
X280643761Y-193454379D02*
X280643761Y-192439933D01*
X281489135Y-192439933D02*
X281573006Y-192187007D01*
X281489135Y-193200052D02*
X281489135Y-192439933D01*
X281573006Y-192187007D02*
X281670228Y-192138774D01*
X281742082Y-192103131D01*
X281573006Y-193369143D02*
X281489135Y-193200052D01*
X281742082Y-192103131D02*
X282164082Y-192103131D01*
X281742082Y-193454379D02*
X281573006Y-193369143D01*
X282164082Y-192103131D02*
X282246606Y-192144070D01*
X282333157Y-192187007D01*
X282164082Y-193454379D02*
X281742082Y-193454379D01*
X282333157Y-192187007D02*
X282376581Y-192315880D01*
X282418381Y-192439933D01*
X282333157Y-193369143D02*
X282164082Y-193454379D01*
X282418381Y-192439933D02*
X282418381Y-192609004D01*
X282418381Y-192609004D02*
X281489135Y-192778075D01*
X283178532Y-192439933D02*
X283203928Y-192363319D01*
X283262360Y-192187007D01*
X283178532Y-193200052D02*
X283178532Y-192439933D01*
X283262360Y-192187007D02*
X283335227Y-192150861D01*
X283431435Y-192103131D01*
X283262360Y-193369143D02*
X283201469Y-193246310D01*
X283178532Y-193200052D01*
X283431435Y-192103131D02*
X283853457Y-192103131D01*
X283431435Y-193454379D02*
X283262360Y-193369143D01*
X283853457Y-192103131D02*
X283949351Y-192150705D01*
X284022531Y-192187007D01*
X283853457Y-193454379D02*
X283431435Y-193454379D01*
X284022531Y-192187007D02*
X284037159Y-192231141D01*
X284106382Y-192439933D01*
X284022531Y-193369143D02*
X283853457Y-193454379D01*
X284106382Y-192439933D02*
X284106382Y-192609004D01*
X284106382Y-192609004D02*
X283178532Y-192778075D01*
X284697435Y-192103131D02*
X285457607Y-192103131D01*
X284951757Y-191426827D02*
X284951757Y-193200052D01*
X284951757Y-193200052D02*
X284975225Y-193247382D01*
X285035586Y-193369143D01*
X285035586Y-193369143D02*
X285289906Y-193454379D01*
X285289906Y-193454379D02*
X285457607Y-193454379D01*
D12*
X286217756Y-10017690D02*
X19931593Y-10017690D01*
X286217756Y-163640835D02*
X148134392Y-163640835D01*
D10*
X286217756Y-172593555D02*
X148134392Y-172593555D01*
X286217756Y-181630132D02*
X148134392Y-181630132D01*
X286217756Y-190582853D02*
X235377037Y-190582853D01*
D12*
X286217756Y-199534173D02*
X286217756Y-10017690D01*
X286217756Y-199534173D02*
X286217756Y-163640835D01*
D10*
X287568982Y-31553439D02*
X288355907Y-29251142D01*
X288752506Y-28090837D01*
X287654185Y-129267744D02*
X287707873Y-129080076D01*
X287823259Y-128676686D01*
X287654185Y-129774977D02*
X287654185Y-129267744D01*
X287823259Y-77919832D02*
X289005431Y-77919832D01*
X287823259Y-81466283D02*
X287823259Y-77919832D01*
X287823259Y-128676686D02*
X287889018Y-128545174D01*
X287992335Y-128338534D01*
X287823259Y-130449911D02*
X287712565Y-130008011D01*
X287654185Y-129774977D01*
X287823259Y-177660304D02*
X288667281Y-177660304D01*
X287823259Y-181208114D02*
X287823259Y-177660304D01*
X287907132Y-30540361D02*
X289596485Y-30540361D01*
X287992335Y-128338534D02*
X288196825Y-128134056D01*
X288329131Y-128001752D01*
X287992335Y-130788063D02*
X287892795Y-130588963D01*
X287857699Y-130518780D01*
X287823259Y-130449911D01*
X288329131Y-128001752D02*
X288836356Y-127832671D01*
X288329131Y-131126205D02*
X288218066Y-131014689D01*
X288105208Y-130901373D01*
X287992335Y-130788063D01*
X288667281Y-177660304D02*
X289174506Y-177829375D01*
X288667281Y-181208114D02*
X287823259Y-181208114D01*
X288752506Y-28090837D02*
X289366365Y-29888908D01*
X289934635Y-31553439D01*
X288836356Y-127832671D02*
X289174506Y-127832671D01*
X288836356Y-131295286D02*
X288329131Y-131126205D01*
X289005431Y-77919832D02*
X289121670Y-77977951D01*
X289343581Y-78088903D01*
X289005431Y-79607837D02*
X287823259Y-79607837D01*
X289005431Y-79607837D02*
X289512656Y-79776913D01*
X289174506Y-81466283D02*
X287823259Y-81466283D01*
X289174506Y-127832671D02*
X289430818Y-127918344D01*
X289680357Y-128001752D01*
X289174506Y-131295286D02*
X288836356Y-131295286D01*
X289174506Y-177829375D02*
X289512656Y-178167537D01*
X289174506Y-181039043D02*
X288667281Y-181208114D01*
X289343581Y-78088903D02*
X289478786Y-78223015D01*
X289512656Y-78256609D01*
X289343581Y-79440136D02*
X289005431Y-79607837D01*
X289512656Y-78256609D02*
X289670412Y-78574710D01*
X289680357Y-78594761D01*
X289512656Y-79271060D02*
X289420433Y-79363284D01*
X289343581Y-79440136D01*
X289512656Y-79776913D02*
X289680357Y-79945984D01*
X289512656Y-81297207D02*
X289174506Y-81466283D01*
X289512656Y-178167537D02*
X289680357Y-178505679D01*
X289512656Y-180700881D02*
X289174506Y-181039043D01*
X289680357Y-78594761D02*
X289680357Y-78932913D01*
X289680357Y-78932913D02*
X289512656Y-79271060D01*
X289680357Y-79945984D02*
X289785887Y-80157056D01*
X289849431Y-80284136D01*
X289680357Y-81128131D02*
X289512656Y-81297207D01*
X289680357Y-128001752D02*
X289807334Y-128127710D01*
X289849431Y-128169463D01*
X289680357Y-131126205D02*
X289174506Y-131295286D01*
X289680357Y-178505679D02*
X289775118Y-178883990D01*
X289802640Y-178993841D01*
X289849431Y-179180603D01*
X289680357Y-180362739D02*
X289615453Y-180493602D01*
X289512656Y-180700881D01*
X289849431Y-80284136D02*
X289849431Y-80791359D01*
X289849431Y-80791359D02*
X289788210Y-80913292D01*
X289680357Y-81128131D01*
X289849431Y-130957134D02*
X289680357Y-131126205D01*
X289849431Y-179180603D02*
X289849431Y-179687836D01*
X289849431Y-179687836D02*
X289798114Y-179892664D01*
X289680357Y-180362739D01*
X291200635Y-5034790D02*
X14948700Y-5034790D01*
X291200635Y-54947637D02*
X286217756Y-54947637D01*
X291200635Y-104776625D02*
X286217756Y-104776625D01*
D11*
X291200635Y-104776625D02*
X286217756Y-104776625D01*
D10*
X291200635Y-154604248D02*
X286217756Y-154604248D01*
X291200635Y-204517107D02*
X291200635Y-5034790D01*
D14*
X236854949Y-195742238D02*
X237521615Y-197742238D01*
X237521615Y-197742238D02*
X238188282Y-195742238D01*
X239902568Y-197742238D02*
X238759711Y-197742238D01*
X239331139Y-197742238D02*
X239331139Y-195742238D01*
X239331139Y-195742238D02*
X239140663Y-196027952D01*
X239140663Y-196027952D02*
X238950187Y-196218428D01*
X238950187Y-196218428D02*
X238759711Y-196313666D01*
X240759711Y-197551761D02*
X240854949Y-197647000D01*
X240854949Y-197647000D02*
X240759711Y-197742238D01*
X240759711Y-197742238D02*
X240664473Y-197647000D01*
X240664473Y-197647000D02*
X240759711Y-197551761D01*
X240759711Y-197551761D02*
X240759711Y-197742238D01*
X242093044Y-195742238D02*
X242283521Y-195742238D01*
X242283521Y-195742238D02*
X242473997Y-195837476D01*
X242473997Y-195837476D02*
X242569235Y-195932714D01*
X242569235Y-195932714D02*
X242664473Y-196123190D01*
X242664473Y-196123190D02*
X242759711Y-196504142D01*
X242759711Y-196504142D02*
X242759711Y-196980333D01*
X242759711Y-196980333D02*
X242664473Y-197361285D01*
X242664473Y-197361285D02*
X242569235Y-197551761D01*
X242569235Y-197551761D02*
X242473997Y-197647000D01*
X242473997Y-197647000D02*
X242283521Y-197742238D01*
X242283521Y-197742238D02*
X242093044Y-197742238D01*
X242093044Y-197742238D02*
X241902568Y-197647000D01*
X241902568Y-197647000D02*
X241807330Y-197551761D01*
X241807330Y-197551761D02*
X241712092Y-197361285D01*
X241712092Y-197361285D02*
X241616854Y-196980333D01*
X241616854Y-196980333D02*
X241616854Y-196504142D01*
X241616854Y-196504142D02*
X241712092Y-196123190D01*
X241712092Y-196123190D02*
X241807330Y-195932714D01*
X241807330Y-195932714D02*
X241902568Y-195837476D01*
X241902568Y-195837476D02*
X242093044Y-195742238D01*
D15*
X239711653Y-187362114D02*
X239483082Y-187247828D01*
X239483082Y-187247828D02*
X239025939Y-187247828D01*
X239025939Y-187247828D02*
X238797368Y-187362114D01*
X238797368Y-187362114D02*
X238568796Y-187590685D01*
X238568796Y-187590685D02*
X238454510Y-187819257D01*
X238454510Y-187819257D02*
X238454510Y-188276400D01*
X238454510Y-188276400D02*
X238568796Y-188504971D01*
X238568796Y-188504971D02*
X238797368Y-188733542D01*
X238797368Y-188733542D02*
X239025939Y-188847828D01*
X239025939Y-188847828D02*
X239483082Y-188847828D01*
X239483082Y-188847828D02*
X239711653Y-188733542D01*
X239254510Y-186447828D02*
X238683082Y-186562114D01*
X238683082Y-186562114D02*
X238111653Y-186904971D01*
X238111653Y-186904971D02*
X237768796Y-187476400D01*
X237768796Y-187476400D02*
X237654510Y-188047828D01*
X237654510Y-188047828D02*
X237768796Y-188619257D01*
X237768796Y-188619257D02*
X238111653Y-189190685D01*
X238111653Y-189190685D02*
X238683082Y-189533542D01*
X238683082Y-189533542D02*
X239254510Y-189647828D01*
X239254510Y-189647828D02*
X239825939Y-189533542D01*
X239825939Y-189533542D02*
X240397368Y-189190685D01*
X240397368Y-189190685D02*
X240740225Y-188619257D01*
X240740225Y-188619257D02*
X240854510Y-188047828D01*
X240854510Y-188047828D02*
X240740225Y-187476400D01*
X240740225Y-187476400D02*
X240397368Y-186904971D01*
X240397368Y-186904971D02*
X239825939Y-186562114D01*
X239825939Y-186562114D02*
X239254510Y-186447828D01*
X243597367Y-187019257D02*
X243711653Y-186904971D01*
X243711653Y-186904971D02*
X243940225Y-186790685D01*
X243940225Y-186790685D02*
X244511653Y-186790685D01*
X244511653Y-186790685D02*
X244740225Y-186904971D01*
X244740225Y-186904971D02*
X244854510Y-187019257D01*
X244854510Y-187019257D02*
X244968796Y-187247828D01*
X244968796Y-187247828D02*
X244968796Y-187476400D01*
X244968796Y-187476400D02*
X244854510Y-187819257D01*
X244854510Y-187819257D02*
X243483082Y-189190685D01*
X243483082Y-189190685D02*
X244968796Y-189190685D01*
X246454510Y-186790685D02*
X246683081Y-186790685D01*
X246683081Y-186790685D02*
X246911653Y-186904971D01*
X246911653Y-186904971D02*
X247025939Y-187019257D01*
X247025939Y-187019257D02*
X247140224Y-187247828D01*
X247140224Y-187247828D02*
X247254510Y-187704971D01*
X247254510Y-187704971D02*
X247254510Y-188276400D01*
X247254510Y-188276400D02*
X247140224Y-188733542D01*
X247140224Y-188733542D02*
X247025939Y-188962114D01*
X247025939Y-188962114D02*
X246911653Y-189076400D01*
X246911653Y-189076400D02*
X246683081Y-189190685D01*
X246683081Y-189190685D02*
X246454510Y-189190685D01*
X246454510Y-189190685D02*
X246225939Y-189076400D01*
X246225939Y-189076400D02*
X246111653Y-188962114D01*
X246111653Y-188962114D02*
X245997367Y-188733542D01*
X245997367Y-188733542D02*
X245883081Y-188276400D01*
X245883081Y-188276400D02*
X245883081Y-187704971D01*
X245883081Y-187704971D02*
X245997367Y-187247828D01*
X245997367Y-187247828D02*
X246111653Y-187019257D01*
X246111653Y-187019257D02*
X246225939Y-186904971D01*
X246225939Y-186904971D02*
X246454510Y-186790685D01*
X248168795Y-187019257D02*
X248283081Y-186904971D01*
X248283081Y-186904971D02*
X248511653Y-186790685D01*
X248511653Y-186790685D02*
X249083081Y-186790685D01*
X249083081Y-186790685D02*
X249311653Y-186904971D01*
X249311653Y-186904971D02*
X249425938Y-187019257D01*
X249425938Y-187019257D02*
X249540224Y-187247828D01*
X249540224Y-187247828D02*
X249540224Y-187476400D01*
X249540224Y-187476400D02*
X249425938Y-187819257D01*
X249425938Y-187819257D02*
X248054510Y-189190685D01*
X248054510Y-189190685D02*
X249540224Y-189190685D01*
X251597367Y-186790685D02*
X251140224Y-186790685D01*
X251140224Y-186790685D02*
X250911652Y-186904971D01*
X250911652Y-186904971D02*
X250797367Y-187019257D01*
X250797367Y-187019257D02*
X250568795Y-187362114D01*
X250568795Y-187362114D02*
X250454509Y-187819257D01*
X250454509Y-187819257D02*
X250454509Y-188733542D01*
X250454509Y-188733542D02*
X250568795Y-188962114D01*
X250568795Y-188962114D02*
X250683081Y-189076400D01*
X250683081Y-189076400D02*
X250911652Y-189190685D01*
X250911652Y-189190685D02*
X251368795Y-189190685D01*
X251368795Y-189190685D02*
X251597367Y-189076400D01*
X251597367Y-189076400D02*
X251711652Y-188962114D01*
X251711652Y-188962114D02*
X251825938Y-188733542D01*
X251825938Y-188733542D02*
X251825938Y-188162114D01*
X251825938Y-188162114D02*
X251711652Y-187933542D01*
X251711652Y-187933542D02*
X251597367Y-187819257D01*
X251597367Y-187819257D02*
X251368795Y-187704971D01*
X251368795Y-187704971D02*
X250911652Y-187704971D01*
X250911652Y-187704971D02*
X250683081Y-187819257D01*
X250683081Y-187819257D02*
X250568795Y-187933542D01*
X250568795Y-187933542D02*
X250454509Y-188162114D01*
X254683080Y-189190685D02*
X254683080Y-186790685D01*
X254683080Y-186790685D02*
X255597366Y-186790685D01*
X255597366Y-186790685D02*
X255825937Y-186904971D01*
X255825937Y-186904971D02*
X255940223Y-187019257D01*
X255940223Y-187019257D02*
X256054509Y-187247828D01*
X256054509Y-187247828D02*
X256054509Y-187590685D01*
X256054509Y-187590685D02*
X255940223Y-187819257D01*
X255940223Y-187819257D02*
X255825937Y-187933542D01*
X255825937Y-187933542D02*
X255597366Y-188047828D01*
X255597366Y-188047828D02*
X254683080Y-188047828D01*
X257997366Y-189076400D02*
X257768794Y-189190685D01*
X257768794Y-189190685D02*
X257311652Y-189190685D01*
X257311652Y-189190685D02*
X257083080Y-189076400D01*
X257083080Y-189076400D02*
X256968794Y-188847828D01*
X256968794Y-188847828D02*
X256968794Y-187933542D01*
X256968794Y-187933542D02*
X257083080Y-187704971D01*
X257083080Y-187704971D02*
X257311652Y-187590685D01*
X257311652Y-187590685D02*
X257768794Y-187590685D01*
X257768794Y-187590685D02*
X257997366Y-187704971D01*
X257997366Y-187704971D02*
X258111652Y-187933542D01*
X258111652Y-187933542D02*
X258111652Y-188162114D01*
X258111652Y-188162114D02*
X256968794Y-188390685D01*
X259140223Y-189190685D02*
X259140223Y-187590685D01*
X259140223Y-188047828D02*
X259254509Y-187819257D01*
X259254509Y-187819257D02*
X259368795Y-187704971D01*
X259368795Y-187704971D02*
X259597366Y-187590685D01*
X259597366Y-187590685D02*
X259825937Y-187590685D01*
X260625937Y-188276400D02*
X262454509Y-188276400D01*
X263483080Y-189076400D02*
X263825938Y-189190685D01*
X263825938Y-189190685D02*
X264397366Y-189190685D01*
X264397366Y-189190685D02*
X264625938Y-189076400D01*
X264625938Y-189076400D02*
X264740223Y-188962114D01*
X264740223Y-188962114D02*
X264854509Y-188733542D01*
X264854509Y-188733542D02*
X264854509Y-188504971D01*
X264854509Y-188504971D02*
X264740223Y-188276400D01*
X264740223Y-188276400D02*
X264625938Y-188162114D01*
X264625938Y-188162114D02*
X264397366Y-188047828D01*
X264397366Y-188047828D02*
X263940223Y-187933542D01*
X263940223Y-187933542D02*
X263711652Y-187819257D01*
X263711652Y-187819257D02*
X263597366Y-187704971D01*
X263597366Y-187704971D02*
X263483080Y-187476400D01*
X263483080Y-187476400D02*
X263483080Y-187247828D01*
X263483080Y-187247828D02*
X263597366Y-187019257D01*
X263597366Y-187019257D02*
X263711652Y-186904971D01*
X263711652Y-186904971D02*
X263940223Y-186790685D01*
X263940223Y-186790685D02*
X264511652Y-186790685D01*
X264511652Y-186790685D02*
X264854509Y-186904971D01*
X265883080Y-189190685D02*
X265883080Y-187590685D01*
X265883080Y-186790685D02*
X265768794Y-186904971D01*
X265768794Y-186904971D02*
X265883080Y-187019257D01*
X265883080Y-187019257D02*
X265997366Y-186904971D01*
X265997366Y-186904971D02*
X265883080Y-186790685D01*
X265883080Y-186790685D02*
X265883080Y-187019257D01*
X267025937Y-189190685D02*
X267025937Y-187590685D01*
X267025937Y-187819257D02*
X267140223Y-187704971D01*
X267140223Y-187704971D02*
X267368794Y-187590685D01*
X267368794Y-187590685D02*
X267711651Y-187590685D01*
X267711651Y-187590685D02*
X267940223Y-187704971D01*
X267940223Y-187704971D02*
X268054509Y-187933542D01*
X268054509Y-187933542D02*
X268054509Y-189190685D01*
X268054509Y-187933542D02*
X268168794Y-187704971D01*
X268168794Y-187704971D02*
X268397366Y-187590685D01*
X268397366Y-187590685D02*
X268740223Y-187590685D01*
X268740223Y-187590685D02*
X268968794Y-187704971D01*
X268968794Y-187704971D02*
X269083080Y-187933542D01*
X269083080Y-187933542D02*
X269083080Y-189190685D01*
X270568794Y-189190685D02*
X270340223Y-189076400D01*
X270340223Y-189076400D02*
X270225937Y-188962114D01*
X270225937Y-188962114D02*
X270111651Y-188733542D01*
X270111651Y-188733542D02*
X270111651Y-188047828D01*
X270111651Y-188047828D02*
X270225937Y-187819257D01*
X270225937Y-187819257D02*
X270340223Y-187704971D01*
X270340223Y-187704971D02*
X270568794Y-187590685D01*
X270568794Y-187590685D02*
X270911651Y-187590685D01*
X270911651Y-187590685D02*
X271140223Y-187704971D01*
X271140223Y-187704971D02*
X271254509Y-187819257D01*
X271254509Y-187819257D02*
X271368794Y-188047828D01*
X271368794Y-188047828D02*
X271368794Y-188733542D01*
X271368794Y-188733542D02*
X271254509Y-188962114D01*
X271254509Y-188962114D02*
X271140223Y-189076400D01*
X271140223Y-189076400D02*
X270911651Y-189190685D01*
X270911651Y-189190685D02*
X270568794Y-189190685D01*
X272397366Y-187590685D02*
X272397366Y-189190685D01*
X272397366Y-187819257D02*
X272511652Y-187704971D01*
X272511652Y-187704971D02*
X272740223Y-187590685D01*
X272740223Y-187590685D02*
X273083080Y-187590685D01*
X273083080Y-187590685D02*
X273311652Y-187704971D01*
X273311652Y-187704971D02*
X273425938Y-187933542D01*
X273425938Y-187933542D02*
X273425938Y-189190685D01*
X276283080Y-189076400D02*
X276625938Y-189190685D01*
X276625938Y-189190685D02*
X277197366Y-189190685D01*
X277197366Y-189190685D02*
X277425938Y-189076400D01*
X277425938Y-189076400D02*
X277540223Y-188962114D01*
X277540223Y-188962114D02*
X277654509Y-188733542D01*
X277654509Y-188733542D02*
X277654509Y-188504971D01*
X277654509Y-188504971D02*
X277540223Y-188276400D01*
X277540223Y-188276400D02*
X277425938Y-188162114D01*
X277425938Y-188162114D02*
X277197366Y-188047828D01*
X277197366Y-188047828D02*
X276740223Y-187933542D01*
X276740223Y-187933542D02*
X276511652Y-187819257D01*
X276511652Y-187819257D02*
X276397366Y-187704971D01*
X276397366Y-187704971D02*
X276283080Y-187476400D01*
X276283080Y-187476400D02*
X276283080Y-187247828D01*
X276283080Y-187247828D02*
X276397366Y-187019257D01*
X276397366Y-187019257D02*
X276511652Y-186904971D01*
X276511652Y-186904971D02*
X276740223Y-186790685D01*
X276740223Y-186790685D02*
X277311652Y-186790685D01*
X277311652Y-186790685D02*
X277654509Y-186904971D01*
X279711652Y-189190685D02*
X279711652Y-187933542D01*
X279711652Y-187933542D02*
X279597366Y-187704971D01*
X279597366Y-187704971D02*
X279368794Y-187590685D01*
X279368794Y-187590685D02*
X278911652Y-187590685D01*
X278911652Y-187590685D02*
X278683080Y-187704971D01*
X279711652Y-189076400D02*
X279483080Y-189190685D01*
X279483080Y-189190685D02*
X278911652Y-189190685D01*
X278911652Y-189190685D02*
X278683080Y-189076400D01*
X278683080Y-189076400D02*
X278568794Y-188847828D01*
X278568794Y-188847828D02*
X278568794Y-188619257D01*
X278568794Y-188619257D02*
X278683080Y-188390685D01*
X278683080Y-188390685D02*
X278911652Y-188276400D01*
X278911652Y-188276400D02*
X279483080Y-188276400D01*
X279483080Y-188276400D02*
X279711652Y-188162114D01*
X281883081Y-189190685D02*
X281883081Y-187933542D01*
X281883081Y-187933542D02*
X281768795Y-187704971D01*
X281768795Y-187704971D02*
X281540223Y-187590685D01*
X281540223Y-187590685D02*
X281083081Y-187590685D01*
X281083081Y-187590685D02*
X280854509Y-187704971D01*
X281883081Y-189076400D02*
X281654509Y-189190685D01*
X281654509Y-189190685D02*
X281083081Y-189190685D01*
X281083081Y-189190685D02*
X280854509Y-189076400D01*
X280854509Y-189076400D02*
X280740223Y-188847828D01*
X280740223Y-188847828D02*
X280740223Y-188619257D01*
X280740223Y-188619257D02*
X280854509Y-188390685D01*
X280854509Y-188390685D02*
X281083081Y-188276400D01*
X281083081Y-188276400D02*
X281654509Y-188276400D01*
X281654509Y-188276400D02*
X281883081Y-188162114D01*
X283368795Y-189190685D02*
X283140224Y-189076400D01*
X283140224Y-189076400D02*
X283025938Y-188847828D01*
X283025938Y-188847828D02*
X283025938Y-186790685D01*
D16*
X221277020Y-180116607D02*
X221277020Y-177116607D01*
X222305592Y-180116607D02*
X222305592Y-178545178D01*
X222305592Y-178545178D02*
X222191306Y-178259464D01*
X222191306Y-178259464D02*
X221962734Y-178116607D01*
X221962734Y-178116607D02*
X221619877Y-178116607D01*
X221619877Y-178116607D02*
X221391306Y-178259464D01*
X221391306Y-178259464D02*
X221277020Y-178402321D01*
X223105592Y-178116607D02*
X224019878Y-178116607D01*
X223448449Y-177116607D02*
X223448449Y-179688035D01*
X223448449Y-179688035D02*
X223562735Y-179973750D01*
X223562735Y-179973750D02*
X223791306Y-180116607D01*
X223791306Y-180116607D02*
X224019878Y-180116607D01*
X224477021Y-178116607D02*
X225391307Y-178116607D01*
X224819878Y-177116607D02*
X224819878Y-179688035D01*
X224819878Y-179688035D02*
X224934164Y-179973750D01*
X224934164Y-179973750D02*
X225162735Y-180116607D01*
X225162735Y-180116607D02*
X225391307Y-180116607D01*
X226191307Y-178116607D02*
X226191307Y-181116607D01*
X226191307Y-178259464D02*
X226419879Y-178116607D01*
X226419879Y-178116607D02*
X226877021Y-178116607D01*
X226877021Y-178116607D02*
X227105593Y-178259464D01*
X227105593Y-178259464D02*
X227219879Y-178402321D01*
X227219879Y-178402321D02*
X227334164Y-178688035D01*
X227334164Y-178688035D02*
X227334164Y-179545178D01*
X227334164Y-179545178D02*
X227219879Y-179830892D01*
X227219879Y-179830892D02*
X227105593Y-179973750D01*
X227105593Y-179973750D02*
X226877021Y-180116607D01*
X226877021Y-180116607D02*
X226419879Y-180116607D01*
X226419879Y-180116607D02*
X226191307Y-179973750D01*
X228248450Y-179973750D02*
X228477022Y-180116607D01*
X228477022Y-180116607D02*
X228934165Y-180116607D01*
X228934165Y-180116607D02*
X229162736Y-179973750D01*
X229162736Y-179973750D02*
X229277022Y-179688035D01*
X229277022Y-179688035D02*
X229277022Y-179545178D01*
X229277022Y-179545178D02*
X229162736Y-179259464D01*
X229162736Y-179259464D02*
X228934165Y-179116607D01*
X228934165Y-179116607D02*
X228591308Y-179116607D01*
X228591308Y-179116607D02*
X228362736Y-178973750D01*
X228362736Y-178973750D02*
X228248450Y-178688035D01*
X228248450Y-178688035D02*
X228248450Y-178545178D01*
X228248450Y-178545178D02*
X228362736Y-178259464D01*
X228362736Y-178259464D02*
X228591308Y-178116607D01*
X228591308Y-178116607D02*
X228934165Y-178116607D01*
X228934165Y-178116607D02*
X229162736Y-178259464D01*
X230305593Y-179830892D02*
X230419879Y-179973750D01*
X230419879Y-179973750D02*
X230305593Y-180116607D01*
X230305593Y-180116607D02*
X230191307Y-179973750D01*
X230191307Y-179973750D02*
X230305593Y-179830892D01*
X230305593Y-179830892D02*
X230305593Y-180116607D01*
X230305593Y-178259464D02*
X230419879Y-178402321D01*
X230419879Y-178402321D02*
X230305593Y-178545178D01*
X230305593Y-178545178D02*
X230191307Y-178402321D01*
X230191307Y-178402321D02*
X230305593Y-178259464D01*
X230305593Y-178259464D02*
X230305593Y-178545178D01*
X233162736Y-176973750D02*
X231105593Y-180830892D01*
X235677022Y-176973750D02*
X233619879Y-180830892D01*
X236819879Y-180116607D02*
X236591308Y-179973750D01*
X236591308Y-179973750D02*
X236477022Y-179830892D01*
X236477022Y-179830892D02*
X236362736Y-179545178D01*
X236362736Y-179545178D02*
X236362736Y-178688035D01*
X236362736Y-178688035D02*
X236477022Y-178402321D01*
X236477022Y-178402321D02*
X236591308Y-178259464D01*
X236591308Y-178259464D02*
X236819879Y-178116607D01*
X236819879Y-178116607D02*
X237162736Y-178116607D01*
X237162736Y-178116607D02*
X237391308Y-178259464D01*
X237391308Y-178259464D02*
X237505594Y-178402321D01*
X237505594Y-178402321D02*
X237619879Y-178688035D01*
X237619879Y-178688035D02*
X237619879Y-179545178D01*
X237619879Y-179545178D02*
X237505594Y-179830892D01*
X237505594Y-179830892D02*
X237391308Y-179973750D01*
X237391308Y-179973750D02*
X237162736Y-180116607D01*
X237162736Y-180116607D02*
X236819879Y-180116607D01*
X238648451Y-180116607D02*
X238648451Y-177116607D01*
X239677023Y-180116607D02*
X239677023Y-178545178D01*
X239677023Y-178545178D02*
X239562737Y-178259464D01*
X239562737Y-178259464D02*
X239334165Y-178116607D01*
X239334165Y-178116607D02*
X238991308Y-178116607D01*
X238991308Y-178116607D02*
X238762737Y-178259464D01*
X238762737Y-178259464D02*
X238648451Y-178402321D01*
X240591309Y-178116607D02*
X241048452Y-180116607D01*
X241048452Y-180116607D02*
X241505594Y-178688035D01*
X241505594Y-178688035D02*
X241962737Y-180116607D01*
X241962737Y-180116607D02*
X242419880Y-178116607D01*
X243334166Y-180116607D02*
X243334166Y-178116607D01*
X243334166Y-178688035D02*
X243448452Y-178402321D01*
X243448452Y-178402321D02*
X243562738Y-178259464D01*
X243562738Y-178259464D02*
X243791309Y-178116607D01*
X243791309Y-178116607D02*
X244019880Y-178116607D01*
X244819880Y-179830892D02*
X244934166Y-179973750D01*
X244934166Y-179973750D02*
X244819880Y-180116607D01*
X244819880Y-180116607D02*
X244705594Y-179973750D01*
X244705594Y-179973750D02*
X244819880Y-179830892D01*
X244819880Y-179830892D02*
X244819880Y-180116607D01*
X246305594Y-180116607D02*
X246077023Y-179973750D01*
X246077023Y-179973750D02*
X245962737Y-179830892D01*
X245962737Y-179830892D02*
X245848451Y-179545178D01*
X245848451Y-179545178D02*
X245848451Y-178688035D01*
X245848451Y-178688035D02*
X245962737Y-178402321D01*
X245962737Y-178402321D02*
X246077023Y-178259464D01*
X246077023Y-178259464D02*
X246305594Y-178116607D01*
X246305594Y-178116607D02*
X246648451Y-178116607D01*
X246648451Y-178116607D02*
X246877023Y-178259464D01*
X246877023Y-178259464D02*
X246991309Y-178402321D01*
X246991309Y-178402321D02*
X247105594Y-178688035D01*
X247105594Y-178688035D02*
X247105594Y-179545178D01*
X247105594Y-179545178D02*
X246991309Y-179830892D01*
X246991309Y-179830892D02*
X246877023Y-179973750D01*
X246877023Y-179973750D02*
X246648451Y-180116607D01*
X246648451Y-180116607D02*
X246305594Y-180116607D01*
X248134166Y-180116607D02*
X248134166Y-178116607D01*
X248134166Y-178688035D02*
X248248452Y-178402321D01*
X248248452Y-178402321D02*
X248362738Y-178259464D01*
X248362738Y-178259464D02*
X248591309Y-178116607D01*
X248591309Y-178116607D02*
X248819880Y-178116607D01*
X250648452Y-178116607D02*
X250648452Y-180545178D01*
X250648452Y-180545178D02*
X250534166Y-180830892D01*
X250534166Y-180830892D02*
X250419880Y-180973750D01*
X250419880Y-180973750D02*
X250191309Y-181116607D01*
X250191309Y-181116607D02*
X249848452Y-181116607D01*
X249848452Y-181116607D02*
X249619880Y-180973750D01*
X250648452Y-179973750D02*
X250419880Y-180116607D01*
X250419880Y-180116607D02*
X249962737Y-180116607D01*
X249962737Y-180116607D02*
X249734166Y-179973750D01*
X249734166Y-179973750D02*
X249619880Y-179830892D01*
X249619880Y-179830892D02*
X249505594Y-179545178D01*
X249505594Y-179545178D02*
X249505594Y-178688035D01*
X249505594Y-178688035D02*
X249619880Y-178402321D01*
X249619880Y-178402321D02*
X249734166Y-178259464D01*
X249734166Y-178259464D02*
X249962737Y-178116607D01*
X249962737Y-178116607D02*
X250419880Y-178116607D01*
X250419880Y-178116607D02*
X250648452Y-178259464D01*
X253505595Y-176973750D02*
X251448452Y-180830892D01*
X255334167Y-179973750D02*
X255105595Y-180116607D01*
X255105595Y-180116607D02*
X254648452Y-180116607D01*
X254648452Y-180116607D02*
X254419881Y-179973750D01*
X254419881Y-179973750D02*
X254305595Y-179830892D01*
X254305595Y-179830892D02*
X254191309Y-179545178D01*
X254191309Y-179545178D02*
X254191309Y-178688035D01*
X254191309Y-178688035D02*
X254305595Y-178402321D01*
X254305595Y-178402321D02*
X254419881Y-178259464D01*
X254419881Y-178259464D02*
X254648452Y-178116607D01*
X254648452Y-178116607D02*
X255105595Y-178116607D01*
X255105595Y-178116607D02*
X255334167Y-178259464D01*
X257277024Y-179973750D02*
X257048452Y-180116607D01*
X257048452Y-180116607D02*
X256591310Y-180116607D01*
X256591310Y-180116607D02*
X256362738Y-179973750D01*
X256362738Y-179973750D02*
X256248452Y-179688035D01*
X256248452Y-179688035D02*
X256248452Y-178545178D01*
X256248452Y-178545178D02*
X256362738Y-178259464D01*
X256362738Y-178259464D02*
X256591310Y-178116607D01*
X256591310Y-178116607D02*
X257048452Y-178116607D01*
X257048452Y-178116607D02*
X257277024Y-178259464D01*
X257277024Y-178259464D02*
X257391310Y-178545178D01*
X257391310Y-178545178D02*
X257391310Y-178830892D01*
X257391310Y-178830892D02*
X256248452Y-179116607D01*
X258419881Y-180116607D02*
X258419881Y-178116607D01*
X258419881Y-178688035D02*
X258534167Y-178402321D01*
X258534167Y-178402321D02*
X258648453Y-178259464D01*
X258648453Y-178259464D02*
X258877024Y-178116607D01*
X258877024Y-178116607D02*
X259105595Y-178116607D01*
X259905595Y-178116607D02*
X259905595Y-180116607D01*
X259905595Y-178402321D02*
X260019881Y-178259464D01*
X260019881Y-178259464D02*
X260248452Y-178116607D01*
X260248452Y-178116607D02*
X260591309Y-178116607D01*
X260591309Y-178116607D02*
X260819881Y-178259464D01*
X260819881Y-178259464D02*
X260934167Y-178545178D01*
X260934167Y-178545178D02*
X260934167Y-180116607D01*
X261505596Y-180402321D02*
X263334167Y-180402321D01*
X264248452Y-180116607D02*
X264019881Y-179973750D01*
X264019881Y-179973750D02*
X263905595Y-179830892D01*
X263905595Y-179830892D02*
X263791309Y-179545178D01*
X263791309Y-179545178D02*
X263791309Y-178688035D01*
X263791309Y-178688035D02*
X263905595Y-178402321D01*
X263905595Y-178402321D02*
X264019881Y-178259464D01*
X264019881Y-178259464D02*
X264248452Y-178116607D01*
X264248452Y-178116607D02*
X264591309Y-178116607D01*
X264591309Y-178116607D02*
X264819881Y-178259464D01*
X264819881Y-178259464D02*
X264934167Y-178402321D01*
X264934167Y-178402321D02*
X265048452Y-178688035D01*
X265048452Y-178688035D02*
X265048452Y-179545178D01*
X265048452Y-179545178D02*
X264934167Y-179830892D01*
X264934167Y-179830892D02*
X264819881Y-179973750D01*
X264819881Y-179973750D02*
X264591309Y-180116607D01*
X264591309Y-180116607D02*
X264248452Y-180116607D01*
X266077024Y-180116607D02*
X266077024Y-177116607D01*
X267105596Y-180116607D02*
X267105596Y-178545178D01*
X267105596Y-178545178D02*
X266991310Y-178259464D01*
X266991310Y-178259464D02*
X266762738Y-178116607D01*
X266762738Y-178116607D02*
X266419881Y-178116607D01*
X266419881Y-178116607D02*
X266191310Y-178259464D01*
X266191310Y-178259464D02*
X266077024Y-178402321D01*
X268591310Y-180116607D02*
X268362739Y-179973750D01*
X268362739Y-179973750D02*
X268248453Y-179688035D01*
X268248453Y-179688035D02*
X268248453Y-177116607D01*
X268934168Y-180402321D02*
X270762739Y-180402321D01*
X271219881Y-179973750D02*
X271448453Y-180116607D01*
X271448453Y-180116607D02*
X271905596Y-180116607D01*
X271905596Y-180116607D02*
X272134167Y-179973750D01*
X272134167Y-179973750D02*
X272248453Y-179688035D01*
X272248453Y-179688035D02*
X272248453Y-179545178D01*
X272248453Y-179545178D02*
X272134167Y-179259464D01*
X272134167Y-179259464D02*
X271905596Y-179116607D01*
X271905596Y-179116607D02*
X271562739Y-179116607D01*
X271562739Y-179116607D02*
X271334167Y-178973750D01*
X271334167Y-178973750D02*
X271219881Y-178688035D01*
X271219881Y-178688035D02*
X271219881Y-178545178D01*
X271219881Y-178545178D02*
X271334167Y-178259464D01*
X271334167Y-178259464D02*
X271562739Y-178116607D01*
X271562739Y-178116607D02*
X271905596Y-178116607D01*
X271905596Y-178116607D02*
X272134167Y-178259464D01*
X272705596Y-180402321D02*
X274534167Y-180402321D01*
X274877024Y-178116607D02*
X275448452Y-180116607D01*
X275448452Y-180116607D02*
X276019881Y-178116607D01*
X276819880Y-177402321D02*
X276934166Y-177259464D01*
X276934166Y-177259464D02*
X277162738Y-177116607D01*
X277162738Y-177116607D02*
X277734166Y-177116607D01*
X277734166Y-177116607D02*
X277962738Y-177259464D01*
X277962738Y-177259464D02*
X278077023Y-177402321D01*
X278077023Y-177402321D02*
X278191309Y-177688035D01*
X278191309Y-177688035D02*
X278191309Y-177973750D01*
X278191309Y-177973750D02*
X278077023Y-178402321D01*
X278077023Y-178402321D02*
X276705595Y-180116607D01*
X276705595Y-180116607D02*
X278191309Y-180116607D01*
X279219880Y-179830892D02*
X279334166Y-179973750D01*
X279334166Y-179973750D02*
X279219880Y-180116607D01*
X279219880Y-180116607D02*
X279105594Y-179973750D01*
X279105594Y-179973750D02*
X279219880Y-179830892D01*
X279219880Y-179830892D02*
X279219880Y-180116607D01*
X280019880Y-178116607D02*
X280934166Y-178116607D01*
X280362737Y-177116607D02*
X280362737Y-179688035D01*
X280362737Y-179688035D02*
X280477023Y-179973750D01*
X280477023Y-179973750D02*
X280705594Y-180116607D01*
X280705594Y-180116607D02*
X280934166Y-180116607D01*
X281505595Y-180116607D02*
X282762738Y-178116607D01*
X281505595Y-178116607D02*
X282762738Y-180116607D01*
X283334166Y-178116607D02*
X284248452Y-178116607D01*
X283677023Y-177116607D02*
X283677023Y-179688035D01*
X283677023Y-179688035D02*
X283791309Y-179973750D01*
X283791309Y-179973750D02*
X284019880Y-180116607D01*
X284019880Y-180116607D02*
X284248452Y-180116607D01*
X151491306Y-180116607D02*
X150300830Y-180116607D01*
X150300830Y-180116607D02*
X150300830Y-177116607D01*
X152324640Y-180116607D02*
X152324640Y-178116607D01*
X152324640Y-177116607D02*
X152205592Y-177259464D01*
X152205592Y-177259464D02*
X152324640Y-177402321D01*
X152324640Y-177402321D02*
X152443687Y-177259464D01*
X152443687Y-177259464D02*
X152324640Y-177116607D01*
X152324640Y-177116607D02*
X152324640Y-177402321D01*
X154586544Y-179973750D02*
X154348449Y-180116607D01*
X154348449Y-180116607D02*
X153872258Y-180116607D01*
X153872258Y-180116607D02*
X153634163Y-179973750D01*
X153634163Y-179973750D02*
X153515116Y-179830892D01*
X153515116Y-179830892D02*
X153396068Y-179545178D01*
X153396068Y-179545178D02*
X153396068Y-178688035D01*
X153396068Y-178688035D02*
X153515116Y-178402321D01*
X153515116Y-178402321D02*
X153634163Y-178259464D01*
X153634163Y-178259464D02*
X153872258Y-178116607D01*
X153872258Y-178116607D02*
X154348449Y-178116607D01*
X154348449Y-178116607D02*
X154586544Y-178259464D01*
X156610354Y-179973750D02*
X156372258Y-180116607D01*
X156372258Y-180116607D02*
X155896068Y-180116607D01*
X155896068Y-180116607D02*
X155657973Y-179973750D01*
X155657973Y-179973750D02*
X155538925Y-179688035D01*
X155538925Y-179688035D02*
X155538925Y-178545178D01*
X155538925Y-178545178D02*
X155657973Y-178259464D01*
X155657973Y-178259464D02*
X155896068Y-178116607D01*
X155896068Y-178116607D02*
X156372258Y-178116607D01*
X156372258Y-178116607D02*
X156610354Y-178259464D01*
X156610354Y-178259464D02*
X156729401Y-178545178D01*
X156729401Y-178545178D02*
X156729401Y-178830892D01*
X156729401Y-178830892D02*
X155538925Y-179116607D01*
X157800830Y-178116607D02*
X157800830Y-180116607D01*
X157800830Y-178402321D02*
X157919877Y-178259464D01*
X157919877Y-178259464D02*
X158157972Y-178116607D01*
X158157972Y-178116607D02*
X158515115Y-178116607D01*
X158515115Y-178116607D02*
X158753211Y-178259464D01*
X158753211Y-178259464D02*
X158872258Y-178545178D01*
X158872258Y-178545178D02*
X158872258Y-180116607D01*
X159943687Y-179973750D02*
X160181782Y-180116607D01*
X160181782Y-180116607D02*
X160657973Y-180116607D01*
X160657973Y-180116607D02*
X160896068Y-179973750D01*
X160896068Y-179973750D02*
X161015116Y-179688035D01*
X161015116Y-179688035D02*
X161015116Y-179545178D01*
X161015116Y-179545178D02*
X160896068Y-179259464D01*
X160896068Y-179259464D02*
X160657973Y-179116607D01*
X160657973Y-179116607D02*
X160300830Y-179116607D01*
X160300830Y-179116607D02*
X160062735Y-178973750D01*
X160062735Y-178973750D02*
X159943687Y-178688035D01*
X159943687Y-178688035D02*
X159943687Y-178545178D01*
X159943687Y-178545178D02*
X160062735Y-178259464D01*
X160062735Y-178259464D02*
X160300830Y-178116607D01*
X160300830Y-178116607D02*
X160657973Y-178116607D01*
X160657973Y-178116607D02*
X160896068Y-178259464D01*
X163038926Y-179973750D02*
X162800830Y-180116607D01*
X162800830Y-180116607D02*
X162324640Y-180116607D01*
X162324640Y-180116607D02*
X162086545Y-179973750D01*
X162086545Y-179973750D02*
X161967497Y-179688035D01*
X161967497Y-179688035D02*
X161967497Y-178545178D01*
X161967497Y-178545178D02*
X162086545Y-178259464D01*
X162086545Y-178259464D02*
X162324640Y-178116607D01*
X162324640Y-178116607D02*
X162800830Y-178116607D01*
X162800830Y-178116607D02*
X163038926Y-178259464D01*
X163038926Y-178259464D02*
X163157973Y-178545178D01*
X163157973Y-178545178D02*
X163157973Y-178830892D01*
X163157973Y-178830892D02*
X161967497Y-179116607D01*
X165300830Y-180116607D02*
X165300830Y-177116607D01*
X165300830Y-179973750D02*
X165062735Y-180116607D01*
X165062735Y-180116607D02*
X164586544Y-180116607D01*
X164586544Y-180116607D02*
X164348449Y-179973750D01*
X164348449Y-179973750D02*
X164229402Y-179830892D01*
X164229402Y-179830892D02*
X164110354Y-179545178D01*
X164110354Y-179545178D02*
X164110354Y-178688035D01*
X164110354Y-178688035D02*
X164229402Y-178402321D01*
X164229402Y-178402321D02*
X164348449Y-178259464D01*
X164348449Y-178259464D02*
X164586544Y-178116607D01*
X164586544Y-178116607D02*
X165062735Y-178116607D01*
X165062735Y-178116607D02*
X165300830Y-178259464D01*
X169467497Y-178116607D02*
X169467497Y-180116607D01*
X168396069Y-178116607D02*
X168396069Y-179688035D01*
X168396069Y-179688035D02*
X168515116Y-179973750D01*
X168515116Y-179973750D02*
X168753211Y-180116607D01*
X168753211Y-180116607D02*
X169110354Y-180116607D01*
X169110354Y-180116607D02*
X169348450Y-179973750D01*
X169348450Y-179973750D02*
X169467497Y-179830892D01*
X170657974Y-178116607D02*
X170657974Y-180116607D01*
X170657974Y-178402321D02*
X170777021Y-178259464D01*
X170777021Y-178259464D02*
X171015116Y-178116607D01*
X171015116Y-178116607D02*
X171372259Y-178116607D01*
X171372259Y-178116607D02*
X171610355Y-178259464D01*
X171610355Y-178259464D02*
X171729402Y-178545178D01*
X171729402Y-178545178D02*
X171729402Y-180116607D01*
X173991307Y-180116607D02*
X173991307Y-177116607D01*
X173991307Y-179973750D02*
X173753212Y-180116607D01*
X173753212Y-180116607D02*
X173277021Y-180116607D01*
X173277021Y-180116607D02*
X173038926Y-179973750D01*
X173038926Y-179973750D02*
X172919879Y-179830892D01*
X172919879Y-179830892D02*
X172800831Y-179545178D01*
X172800831Y-179545178D02*
X172800831Y-178688035D01*
X172800831Y-178688035D02*
X172919879Y-178402321D01*
X172919879Y-178402321D02*
X173038926Y-178259464D01*
X173038926Y-178259464D02*
X173277021Y-178116607D01*
X173277021Y-178116607D02*
X173753212Y-178116607D01*
X173753212Y-178116607D02*
X173991307Y-178259464D01*
X176134165Y-179973750D02*
X175896069Y-180116607D01*
X175896069Y-180116607D02*
X175419879Y-180116607D01*
X175419879Y-180116607D02*
X175181784Y-179973750D01*
X175181784Y-179973750D02*
X175062736Y-179688035D01*
X175062736Y-179688035D02*
X175062736Y-178545178D01*
X175062736Y-178545178D02*
X175181784Y-178259464D01*
X175181784Y-178259464D02*
X175419879Y-178116607D01*
X175419879Y-178116607D02*
X175896069Y-178116607D01*
X175896069Y-178116607D02*
X176134165Y-178259464D01*
X176134165Y-178259464D02*
X176253212Y-178545178D01*
X176253212Y-178545178D02*
X176253212Y-178830892D01*
X176253212Y-178830892D02*
X175062736Y-179116607D01*
X177324641Y-180116607D02*
X177324641Y-178116607D01*
X177324641Y-178688035D02*
X177443688Y-178402321D01*
X177443688Y-178402321D02*
X177562736Y-178259464D01*
X177562736Y-178259464D02*
X177800831Y-178116607D01*
X177800831Y-178116607D02*
X178038926Y-178116607D01*
X182205593Y-179830892D02*
X182086545Y-179973750D01*
X182086545Y-179973750D02*
X181729403Y-180116607D01*
X181729403Y-180116607D02*
X181491307Y-180116607D01*
X181491307Y-180116607D02*
X181134164Y-179973750D01*
X181134164Y-179973750D02*
X180896069Y-179688035D01*
X180896069Y-179688035D02*
X180777022Y-179402321D01*
X180777022Y-179402321D02*
X180657974Y-178830892D01*
X180657974Y-178830892D02*
X180657974Y-178402321D01*
X180657974Y-178402321D02*
X180777022Y-177830892D01*
X180777022Y-177830892D02*
X180896069Y-177545178D01*
X180896069Y-177545178D02*
X181134164Y-177259464D01*
X181134164Y-177259464D02*
X181491307Y-177116607D01*
X181491307Y-177116607D02*
X181729403Y-177116607D01*
X181729403Y-177116607D02*
X182086545Y-177259464D01*
X182086545Y-177259464D02*
X182205593Y-177402321D01*
X183277022Y-178545178D02*
X184110355Y-178545178D01*
X184467498Y-180116607D02*
X183277022Y-180116607D01*
X183277022Y-180116607D02*
X183277022Y-177116607D01*
X183277022Y-177116607D02*
X184467498Y-177116607D01*
X186967498Y-180116607D02*
X186134165Y-178688035D01*
X185538927Y-180116607D02*
X185538927Y-177116607D01*
X185538927Y-177116607D02*
X186491308Y-177116607D01*
X186491308Y-177116607D02*
X186729403Y-177259464D01*
X186729403Y-177259464D02*
X186848450Y-177402321D01*
X186848450Y-177402321D02*
X186967498Y-177688035D01*
X186967498Y-177688035D02*
X186967498Y-178116607D01*
X186967498Y-178116607D02*
X186848450Y-178402321D01*
X186848450Y-178402321D02*
X186729403Y-178545178D01*
X186729403Y-178545178D02*
X186491308Y-178688035D01*
X186491308Y-178688035D02*
X185538927Y-178688035D01*
X188038927Y-180116607D02*
X188038927Y-177116607D01*
X188038927Y-177116607D02*
X189467498Y-180116607D01*
X189467498Y-180116607D02*
X189467498Y-177116607D01*
X190657975Y-178973750D02*
X192562737Y-178973750D01*
X194229403Y-177116607D02*
X194705594Y-177116607D01*
X194705594Y-177116607D02*
X194943689Y-177259464D01*
X194943689Y-177259464D02*
X195181784Y-177545178D01*
X195181784Y-177545178D02*
X195300832Y-178116607D01*
X195300832Y-178116607D02*
X195300832Y-179116607D01*
X195300832Y-179116607D02*
X195181784Y-179688035D01*
X195181784Y-179688035D02*
X194943689Y-179973750D01*
X194943689Y-179973750D02*
X194705594Y-180116607D01*
X194705594Y-180116607D02*
X194229403Y-180116607D01*
X194229403Y-180116607D02*
X193991308Y-179973750D01*
X193991308Y-179973750D02*
X193753213Y-179688035D01*
X193753213Y-179688035D02*
X193634165Y-179116607D01*
X193634165Y-179116607D02*
X193634165Y-178116607D01*
X193634165Y-178116607D02*
X193753213Y-177545178D01*
X193753213Y-177545178D02*
X193991308Y-177259464D01*
X193991308Y-177259464D02*
X194229403Y-177116607D01*
X196372261Y-180116607D02*
X196372261Y-177116607D01*
X196372261Y-178545178D02*
X197800832Y-178545178D01*
X197800832Y-180116607D02*
X197800832Y-177116607D01*
X200181785Y-180116607D02*
X198991309Y-180116607D01*
X198991309Y-180116607D02*
X198991309Y-177116607D01*
X201015119Y-178973750D02*
X202919881Y-178973750D01*
X203991309Y-179973750D02*
X204348452Y-180116607D01*
X204348452Y-180116607D02*
X204943690Y-180116607D01*
X204943690Y-180116607D02*
X205181785Y-179973750D01*
X205181785Y-179973750D02*
X205300833Y-179830892D01*
X205300833Y-179830892D02*
X205419880Y-179545178D01*
X205419880Y-179545178D02*
X205419880Y-179259464D01*
X205419880Y-179259464D02*
X205300833Y-178973750D01*
X205300833Y-178973750D02*
X205181785Y-178830892D01*
X205181785Y-178830892D02*
X204943690Y-178688035D01*
X204943690Y-178688035D02*
X204467499Y-178545178D01*
X204467499Y-178545178D02*
X204229404Y-178402321D01*
X204229404Y-178402321D02*
X204110357Y-178259464D01*
X204110357Y-178259464D02*
X203991309Y-177973750D01*
X203991309Y-177973750D02*
X203991309Y-177688035D01*
X203991309Y-177688035D02*
X204110357Y-177402321D01*
X204110357Y-177402321D02*
X204229404Y-177259464D01*
X204229404Y-177259464D02*
X204467499Y-177116607D01*
X204467499Y-177116607D02*
X205062738Y-177116607D01*
X205062738Y-177116607D02*
X205419880Y-177259464D01*
X208157975Y-178116607D02*
X208753213Y-180116607D01*
X208753213Y-180116607D02*
X209348452Y-178116607D01*
X210181785Y-177402321D02*
X210300833Y-177259464D01*
X210300833Y-177259464D02*
X210538928Y-177116607D01*
X210538928Y-177116607D02*
X211134166Y-177116607D01*
X211134166Y-177116607D02*
X211372261Y-177259464D01*
X211372261Y-177259464D02*
X211491309Y-177402321D01*
X211491309Y-177402321D02*
X211610356Y-177688035D01*
X211610356Y-177688035D02*
X211610356Y-177973750D01*
X211610356Y-177973750D02*
X211491309Y-178402321D01*
X211491309Y-178402321D02*
X210062737Y-180116607D01*
X210062737Y-180116607D02*
X211610356Y-180116607D01*
D17*
X150460995Y-169613357D02*
X150460995Y-166613357D01*
X151746710Y-169613357D02*
X151746710Y-168041928D01*
X151746710Y-168041928D02*
X151603852Y-167756214D01*
X151603852Y-167756214D02*
X151318138Y-167613357D01*
X151318138Y-167613357D02*
X150889567Y-167613357D01*
X150889567Y-167613357D02*
X150603852Y-167756214D01*
X150603852Y-167756214D02*
X150460995Y-167899071D01*
X154460996Y-169613357D02*
X154460996Y-168041928D01*
X154460996Y-168041928D02*
X154318138Y-167756214D01*
X154318138Y-167756214D02*
X154032424Y-167613357D01*
X154032424Y-167613357D02*
X153460996Y-167613357D01*
X153460996Y-167613357D02*
X153175281Y-167756214D01*
X154460996Y-169470500D02*
X154175281Y-169613357D01*
X154175281Y-169613357D02*
X153460996Y-169613357D01*
X153460996Y-169613357D02*
X153175281Y-169470500D01*
X153175281Y-169470500D02*
X153032424Y-169184785D01*
X153032424Y-169184785D02*
X153032424Y-168899071D01*
X153032424Y-168899071D02*
X153175281Y-168613357D01*
X153175281Y-168613357D02*
X153460996Y-168470500D01*
X153460996Y-168470500D02*
X154175281Y-168470500D01*
X154175281Y-168470500D02*
X154460996Y-168327642D01*
X155889567Y-167613357D02*
X155889567Y-169613357D01*
X155889567Y-167899071D02*
X156032424Y-167756214D01*
X156032424Y-167756214D02*
X156318139Y-167613357D01*
X156318139Y-167613357D02*
X156746710Y-167613357D01*
X156746710Y-167613357D02*
X157032424Y-167756214D01*
X157032424Y-167756214D02*
X157175282Y-168041928D01*
X157175282Y-168041928D02*
X157175282Y-169613357D01*
X159889568Y-169613357D02*
X159889568Y-166613357D01*
X159889568Y-169470500D02*
X159603853Y-169613357D01*
X159603853Y-169613357D02*
X159032425Y-169613357D01*
X159032425Y-169613357D02*
X158746710Y-169470500D01*
X158746710Y-169470500D02*
X158603853Y-169327642D01*
X158603853Y-169327642D02*
X158460996Y-169041928D01*
X158460996Y-169041928D02*
X158460996Y-168184785D01*
X158460996Y-168184785D02*
X158603853Y-167899071D01*
X158603853Y-167899071D02*
X158746710Y-167756214D01*
X158746710Y-167756214D02*
X159032425Y-167613357D01*
X159032425Y-167613357D02*
X159603853Y-167613357D01*
X159603853Y-167613357D02*
X159889568Y-167756214D01*
X161318139Y-168470500D02*
X163603854Y-168470500D01*
X166318140Y-169470500D02*
X166032425Y-169613357D01*
X166032425Y-169613357D02*
X165460997Y-169613357D01*
X165460997Y-169613357D02*
X165175282Y-169470500D01*
X165175282Y-169470500D02*
X165032425Y-169327642D01*
X165032425Y-169327642D02*
X164889568Y-169041928D01*
X164889568Y-169041928D02*
X164889568Y-168184785D01*
X164889568Y-168184785D02*
X165032425Y-167899071D01*
X165032425Y-167899071D02*
X165175282Y-167756214D01*
X165175282Y-167756214D02*
X165460997Y-167613357D01*
X165460997Y-167613357D02*
X166032425Y-167613357D01*
X166032425Y-167613357D02*
X166318140Y-167756214D01*
X167603854Y-169613357D02*
X167603854Y-167613357D01*
X167603854Y-168184785D02*
X167746711Y-167899071D01*
X167746711Y-167899071D02*
X167889569Y-167756214D01*
X167889569Y-167756214D02*
X168175283Y-167613357D01*
X168175283Y-167613357D02*
X168460997Y-167613357D01*
X170746712Y-169613357D02*
X170746712Y-168041928D01*
X170746712Y-168041928D02*
X170603854Y-167756214D01*
X170603854Y-167756214D02*
X170318140Y-167613357D01*
X170318140Y-167613357D02*
X169746712Y-167613357D01*
X169746712Y-167613357D02*
X169460997Y-167756214D01*
X170746712Y-169470500D02*
X170460997Y-169613357D01*
X170460997Y-169613357D02*
X169746712Y-169613357D01*
X169746712Y-169613357D02*
X169460997Y-169470500D01*
X169460997Y-169470500D02*
X169318140Y-169184785D01*
X169318140Y-169184785D02*
X169318140Y-168899071D01*
X169318140Y-168899071D02*
X169460997Y-168613357D01*
X169460997Y-168613357D02*
X169746712Y-168470500D01*
X169746712Y-168470500D02*
X170460997Y-168470500D01*
X170460997Y-168470500D02*
X170746712Y-168327642D01*
X171746712Y-167613357D02*
X172889569Y-167613357D01*
X172175283Y-169613357D02*
X172175283Y-167041928D01*
X172175283Y-167041928D02*
X172318140Y-166756214D01*
X172318140Y-166756214D02*
X172603855Y-166613357D01*
X172603855Y-166613357D02*
X172889569Y-166613357D01*
X173460998Y-167613357D02*
X174603855Y-167613357D01*
X173889569Y-166613357D02*
X173889569Y-169184785D01*
X173889569Y-169184785D02*
X174032426Y-169470500D01*
X174032426Y-169470500D02*
X174318141Y-169613357D01*
X174318141Y-169613357D02*
X174603855Y-169613357D01*
X176746712Y-169470500D02*
X176460998Y-169613357D01*
X176460998Y-169613357D02*
X175889570Y-169613357D01*
X175889570Y-169613357D02*
X175603855Y-169470500D01*
X175603855Y-169470500D02*
X175460998Y-169184785D01*
X175460998Y-169184785D02*
X175460998Y-168041928D01*
X175460998Y-168041928D02*
X175603855Y-167756214D01*
X175603855Y-167756214D02*
X175889570Y-167613357D01*
X175889570Y-167613357D02*
X176460998Y-167613357D01*
X176460998Y-167613357D02*
X176746712Y-167756214D01*
X176746712Y-167756214D02*
X176889570Y-168041928D01*
X176889570Y-168041928D02*
X176889570Y-168327642D01*
X176889570Y-168327642D02*
X175460998Y-168613357D01*
X179460999Y-169613357D02*
X179460999Y-166613357D01*
X179460999Y-169470500D02*
X179175284Y-169613357D01*
X179175284Y-169613357D02*
X178603856Y-169613357D01*
X178603856Y-169613357D02*
X178318141Y-169470500D01*
X178318141Y-169470500D02*
X178175284Y-169327642D01*
X178175284Y-169327642D02*
X178032427Y-169041928D01*
X178032427Y-169041928D02*
X178032427Y-168184785D01*
X178032427Y-168184785D02*
X178175284Y-167899071D01*
X178175284Y-167899071D02*
X178318141Y-167756214D01*
X178318141Y-167756214D02*
X178603856Y-167613357D01*
X178603856Y-167613357D02*
X179175284Y-167613357D01*
X179175284Y-167613357D02*
X179460999Y-167756214D01*
X180889570Y-168470500D02*
X183175285Y-168470500D01*
X185746713Y-169470500D02*
X185460999Y-169613357D01*
X185460999Y-169613357D02*
X184889571Y-169613357D01*
X184889571Y-169613357D02*
X184603856Y-169470500D01*
X184603856Y-169470500D02*
X184460999Y-169184785D01*
X184460999Y-169184785D02*
X184460999Y-168041928D01*
X184460999Y-168041928D02*
X184603856Y-167756214D01*
X184603856Y-167756214D02*
X184889571Y-167613357D01*
X184889571Y-167613357D02*
X185460999Y-167613357D01*
X185460999Y-167613357D02*
X185746713Y-167756214D01*
X185746713Y-167756214D02*
X185889571Y-168041928D01*
X185889571Y-168041928D02*
X185889571Y-168327642D01*
X185889571Y-168327642D02*
X184460999Y-168613357D01*
X187603857Y-169613357D02*
X187318142Y-169470500D01*
X187318142Y-169470500D02*
X187175285Y-169184785D01*
X187175285Y-169184785D02*
X187175285Y-166613357D01*
X189889571Y-169470500D02*
X189603857Y-169613357D01*
X189603857Y-169613357D02*
X189032429Y-169613357D01*
X189032429Y-169613357D02*
X188746714Y-169470500D01*
X188746714Y-169470500D02*
X188603857Y-169184785D01*
X188603857Y-169184785D02*
X188603857Y-168041928D01*
X188603857Y-168041928D02*
X188746714Y-167756214D01*
X188746714Y-167756214D02*
X189032429Y-167613357D01*
X189032429Y-167613357D02*
X189603857Y-167613357D01*
X189603857Y-167613357D02*
X189889571Y-167756214D01*
X189889571Y-167756214D02*
X190032429Y-168041928D01*
X190032429Y-168041928D02*
X190032429Y-168327642D01*
X190032429Y-168327642D02*
X188603857Y-168613357D01*
X192603858Y-169470500D02*
X192318143Y-169613357D01*
X192318143Y-169613357D02*
X191746715Y-169613357D01*
X191746715Y-169613357D02*
X191461000Y-169470500D01*
X191461000Y-169470500D02*
X191318143Y-169327642D01*
X191318143Y-169327642D02*
X191175286Y-169041928D01*
X191175286Y-169041928D02*
X191175286Y-168184785D01*
X191175286Y-168184785D02*
X191318143Y-167899071D01*
X191318143Y-167899071D02*
X191461000Y-167756214D01*
X191461000Y-167756214D02*
X191746715Y-167613357D01*
X191746715Y-167613357D02*
X192318143Y-167613357D01*
X192318143Y-167613357D02*
X192603858Y-167756214D01*
X193461001Y-167613357D02*
X194603858Y-167613357D01*
X193889572Y-166613357D02*
X193889572Y-169184785D01*
X193889572Y-169184785D02*
X194032429Y-169470500D01*
X194032429Y-169470500D02*
X194318144Y-169613357D01*
X194318144Y-169613357D02*
X194603858Y-169613357D01*
X195603858Y-169613357D02*
X195603858Y-167613357D01*
X195603858Y-168184785D02*
X195746715Y-167899071D01*
X195746715Y-167899071D02*
X195889573Y-167756214D01*
X195889573Y-167756214D02*
X196175287Y-167613357D01*
X196175287Y-167613357D02*
X196461001Y-167613357D01*
X197889573Y-169613357D02*
X197603858Y-169470500D01*
X197603858Y-169470500D02*
X197461001Y-169327642D01*
X197461001Y-169327642D02*
X197318144Y-169041928D01*
X197318144Y-169041928D02*
X197318144Y-168184785D01*
X197318144Y-168184785D02*
X197461001Y-167899071D01*
X197461001Y-167899071D02*
X197603858Y-167756214D01*
X197603858Y-167756214D02*
X197889573Y-167613357D01*
X197889573Y-167613357D02*
X198318144Y-167613357D01*
X198318144Y-167613357D02*
X198603858Y-167756214D01*
X198603858Y-167756214D02*
X198746716Y-167899071D01*
X198746716Y-167899071D02*
X198889573Y-168184785D01*
X198889573Y-168184785D02*
X198889573Y-169041928D01*
X198889573Y-169041928D02*
X198746716Y-169327642D01*
X198746716Y-169327642D02*
X198603858Y-169470500D01*
X198603858Y-169470500D02*
X198318144Y-169613357D01*
X198318144Y-169613357D02*
X197889573Y-169613357D01*
X200175287Y-167613357D02*
X200175287Y-169613357D01*
X200175287Y-167899071D02*
X200318144Y-167756214D01*
X200318144Y-167756214D02*
X200603859Y-167613357D01*
X200603859Y-167613357D02*
X201032430Y-167613357D01*
X201032430Y-167613357D02*
X201318144Y-167756214D01*
X201318144Y-167756214D02*
X201461002Y-168041928D01*
X201461002Y-168041928D02*
X201461002Y-169613357D01*
X202889573Y-169613357D02*
X202889573Y-167613357D01*
X202889573Y-166613357D02*
X202746716Y-166756214D01*
X202746716Y-166756214D02*
X202889573Y-166899071D01*
X202889573Y-166899071D02*
X203032430Y-166756214D01*
X203032430Y-166756214D02*
X202889573Y-166613357D01*
X202889573Y-166613357D02*
X202889573Y-166899071D01*
X205603859Y-169470500D02*
X205318144Y-169613357D01*
X205318144Y-169613357D02*
X204746716Y-169613357D01*
X204746716Y-169613357D02*
X204461001Y-169470500D01*
X204461001Y-169470500D02*
X204318144Y-169327642D01*
X204318144Y-169327642D02*
X204175287Y-169041928D01*
X204175287Y-169041928D02*
X204175287Y-168184785D01*
X204175287Y-168184785D02*
X204318144Y-167899071D01*
X204318144Y-167899071D02*
X204461001Y-167756214D01*
X204461001Y-167756214D02*
X204746716Y-167613357D01*
X204746716Y-167613357D02*
X205318144Y-167613357D01*
X205318144Y-167613357D02*
X205603859Y-167756214D01*
X206746716Y-169470500D02*
X207032430Y-169613357D01*
X207032430Y-169613357D02*
X207603859Y-169613357D01*
X207603859Y-169613357D02*
X207889573Y-169470500D01*
X207889573Y-169470500D02*
X208032430Y-169184785D01*
X208032430Y-169184785D02*
X208032430Y-169041928D01*
X208032430Y-169041928D02*
X207889573Y-168756214D01*
X207889573Y-168756214D02*
X207603859Y-168613357D01*
X207603859Y-168613357D02*
X207175288Y-168613357D01*
X207175288Y-168613357D02*
X206889573Y-168470500D01*
X206889573Y-168470500D02*
X206746716Y-168184785D01*
X206746716Y-168184785D02*
X206746716Y-168041928D01*
X206746716Y-168041928D02*
X206889573Y-167756214D01*
X206889573Y-167756214D02*
X207175288Y-167613357D01*
X207175288Y-167613357D02*
X207603859Y-167613357D01*
X207603859Y-167613357D02*
X207889573Y-167756214D01*
X173675281Y-192113357D02*
X172675281Y-190684785D01*
X171960995Y-192113357D02*
X171960995Y-189113357D01*
X171960995Y-189113357D02*
X173103852Y-189113357D01*
X173103852Y-189113357D02*
X173389567Y-189256214D01*
X173389567Y-189256214D02*
X173532424Y-189399071D01*
X173532424Y-189399071D02*
X173675281Y-189684785D01*
X173675281Y-189684785D02*
X173675281Y-190113357D01*
X173675281Y-190113357D02*
X173532424Y-190399071D01*
X173532424Y-190399071D02*
X173389567Y-190541928D01*
X173389567Y-190541928D02*
X173103852Y-190684785D01*
X173103852Y-190684785D02*
X171960995Y-190684785D01*
X176103852Y-191970500D02*
X175818138Y-192113357D01*
X175818138Y-192113357D02*
X175246710Y-192113357D01*
X175246710Y-192113357D02*
X174960995Y-191970500D01*
X174960995Y-191970500D02*
X174818138Y-191684785D01*
X174818138Y-191684785D02*
X174818138Y-190541928D01*
X174818138Y-190541928D02*
X174960995Y-190256214D01*
X174960995Y-190256214D02*
X175246710Y-190113357D01*
X175246710Y-190113357D02*
X175818138Y-190113357D01*
X175818138Y-190113357D02*
X176103852Y-190256214D01*
X176103852Y-190256214D02*
X176246710Y-190541928D01*
X176246710Y-190541928D02*
X176246710Y-190827642D01*
X176246710Y-190827642D02*
X174818138Y-191113357D01*
X177960996Y-192113357D02*
X177675281Y-191970500D01*
X177675281Y-191970500D02*
X177532424Y-191684785D01*
X177532424Y-191684785D02*
X177532424Y-189113357D01*
X180389568Y-192113357D02*
X180389568Y-190541928D01*
X180389568Y-190541928D02*
X180246710Y-190256214D01*
X180246710Y-190256214D02*
X179960996Y-190113357D01*
X179960996Y-190113357D02*
X179389568Y-190113357D01*
X179389568Y-190113357D02*
X179103853Y-190256214D01*
X180389568Y-191970500D02*
X180103853Y-192113357D01*
X180103853Y-192113357D02*
X179389568Y-192113357D01*
X179389568Y-192113357D02*
X179103853Y-191970500D01*
X179103853Y-191970500D02*
X178960996Y-191684785D01*
X178960996Y-191684785D02*
X178960996Y-191399071D01*
X178960996Y-191399071D02*
X179103853Y-191113357D01*
X179103853Y-191113357D02*
X179389568Y-190970500D01*
X179389568Y-190970500D02*
X180103853Y-190970500D01*
X180103853Y-190970500D02*
X180389568Y-190827642D01*
X181818139Y-192113357D02*
X181818139Y-190113357D01*
X181818139Y-189113357D02*
X181675282Y-189256214D01*
X181675282Y-189256214D02*
X181818139Y-189399071D01*
X181818139Y-189399071D02*
X181960996Y-189256214D01*
X181960996Y-189256214D02*
X181818139Y-189113357D01*
X181818139Y-189113357D02*
X181818139Y-189399071D01*
X183103853Y-191970500D02*
X183389567Y-192113357D01*
X183389567Y-192113357D02*
X183960996Y-192113357D01*
X183960996Y-192113357D02*
X184246710Y-191970500D01*
X184246710Y-191970500D02*
X184389567Y-191684785D01*
X184389567Y-191684785D02*
X184389567Y-191541928D01*
X184389567Y-191541928D02*
X184246710Y-191256214D01*
X184246710Y-191256214D02*
X183960996Y-191113357D01*
X183960996Y-191113357D02*
X183532425Y-191113357D01*
X183532425Y-191113357D02*
X183246710Y-190970500D01*
X183246710Y-190970500D02*
X183103853Y-190684785D01*
X183103853Y-190684785D02*
X183103853Y-190541928D01*
X183103853Y-190541928D02*
X183246710Y-190256214D01*
X183246710Y-190256214D02*
X183532425Y-190113357D01*
X183532425Y-190113357D02*
X183960996Y-190113357D01*
X183960996Y-190113357D02*
X184246710Y-190256214D01*
X185675281Y-190970500D02*
X187960996Y-190970500D01*
X189389567Y-192113357D02*
X189389567Y-189113357D01*
X191103853Y-192113357D02*
X189818139Y-190399071D01*
X191103853Y-189113357D02*
X189389567Y-190827642D01*
X193675282Y-192113357D02*
X193675282Y-190541928D01*
X193675282Y-190541928D02*
X193532424Y-190256214D01*
X193532424Y-190256214D02*
X193246710Y-190113357D01*
X193246710Y-190113357D02*
X192675282Y-190113357D01*
X192675282Y-190113357D02*
X192389567Y-190256214D01*
X193675282Y-191970500D02*
X193389567Y-192113357D01*
X193389567Y-192113357D02*
X192675282Y-192113357D01*
X192675282Y-192113357D02*
X192389567Y-191970500D01*
X192389567Y-191970500D02*
X192246710Y-191684785D01*
X192246710Y-191684785D02*
X192246710Y-191399071D01*
X192246710Y-191399071D02*
X192389567Y-191113357D01*
X192389567Y-191113357D02*
X192675282Y-190970500D01*
X192675282Y-190970500D02*
X193389567Y-190970500D01*
X193389567Y-190970500D02*
X193675282Y-190827642D01*
X195103853Y-192113357D02*
X195103853Y-190113357D01*
X195103853Y-190684785D02*
X195246710Y-190399071D01*
X195246710Y-190399071D02*
X195389568Y-190256214D01*
X195389568Y-190256214D02*
X195675282Y-190113357D01*
X195675282Y-190113357D02*
X195960996Y-190113357D01*
X196532425Y-190113357D02*
X197675282Y-190113357D01*
X196960996Y-189113357D02*
X196960996Y-191684785D01*
X196960996Y-191684785D02*
X197103853Y-191970500D01*
X197103853Y-191970500D02*
X197389568Y-192113357D01*
X197389568Y-192113357D02*
X197675282Y-192113357D01*
X199818139Y-191970500D02*
X199532425Y-192113357D01*
X199532425Y-192113357D02*
X198960997Y-192113357D01*
X198960997Y-192113357D02*
X198675282Y-191970500D01*
X198675282Y-191970500D02*
X198532425Y-191684785D01*
X198532425Y-191684785D02*
X198532425Y-190541928D01*
X198532425Y-190541928D02*
X198675282Y-190256214D01*
X198675282Y-190256214D02*
X198960997Y-190113357D01*
X198960997Y-190113357D02*
X199532425Y-190113357D01*
X199532425Y-190113357D02*
X199818139Y-190256214D01*
X199818139Y-190256214D02*
X199960997Y-190541928D01*
X199960997Y-190541928D02*
X199960997Y-190827642D01*
X199960997Y-190827642D02*
X198532425Y-191113357D01*
X223603852Y-167470500D02*
X221032424Y-171327642D01*
X224603852Y-168613357D02*
X224603852Y-171613357D01*
X224603852Y-168756214D02*
X224889567Y-168613357D01*
X224889567Y-168613357D02*
X225460995Y-168613357D01*
X225460995Y-168613357D02*
X225746709Y-168756214D01*
X225746709Y-168756214D02*
X225889567Y-168899071D01*
X225889567Y-168899071D02*
X226032424Y-169184785D01*
X226032424Y-169184785D02*
X226032424Y-170041928D01*
X226032424Y-170041928D02*
X225889567Y-170327642D01*
X225889567Y-170327642D02*
X225746709Y-170470500D01*
X225746709Y-170470500D02*
X225460995Y-170613357D01*
X225460995Y-170613357D02*
X224889567Y-170613357D01*
X224889567Y-170613357D02*
X224603852Y-170470500D01*
X228460995Y-170470500D02*
X228175281Y-170613357D01*
X228175281Y-170613357D02*
X227603853Y-170613357D01*
X227603853Y-170613357D02*
X227318138Y-170470500D01*
X227318138Y-170470500D02*
X227175281Y-170184785D01*
X227175281Y-170184785D02*
X227175281Y-169041928D01*
X227175281Y-169041928D02*
X227318138Y-168756214D01*
X227318138Y-168756214D02*
X227603853Y-168613357D01*
X227603853Y-168613357D02*
X228175281Y-168613357D01*
X228175281Y-168613357D02*
X228460995Y-168756214D01*
X228460995Y-168756214D02*
X228603853Y-169041928D01*
X228603853Y-169041928D02*
X228603853Y-169327642D01*
X228603853Y-169327642D02*
X227175281Y-169613357D01*
X230318139Y-170613357D02*
X230032424Y-170470500D01*
X230032424Y-170470500D02*
X229889567Y-170184785D01*
X229889567Y-170184785D02*
X229889567Y-167613357D01*
X231889568Y-170613357D02*
X231603853Y-170470500D01*
X231603853Y-170470500D02*
X231460996Y-170184785D01*
X231460996Y-170184785D02*
X231460996Y-167613357D01*
X234175282Y-170470500D02*
X233889568Y-170613357D01*
X233889568Y-170613357D02*
X233318140Y-170613357D01*
X233318140Y-170613357D02*
X233032425Y-170470500D01*
X233032425Y-170470500D02*
X232889568Y-170184785D01*
X232889568Y-170184785D02*
X232889568Y-169041928D01*
X232889568Y-169041928D02*
X233032425Y-168756214D01*
X233032425Y-168756214D02*
X233318140Y-168613357D01*
X233318140Y-168613357D02*
X233889568Y-168613357D01*
X233889568Y-168613357D02*
X234175282Y-168756214D01*
X234175282Y-168756214D02*
X234318140Y-169041928D01*
X234318140Y-169041928D02*
X234318140Y-169327642D01*
X234318140Y-169327642D02*
X232889568Y-169613357D01*
X235603854Y-170613357D02*
X235603854Y-168613357D01*
X235603854Y-168899071D02*
X235746711Y-168756214D01*
X235746711Y-168756214D02*
X236032426Y-168613357D01*
X236032426Y-168613357D02*
X236460997Y-168613357D01*
X236460997Y-168613357D02*
X236746711Y-168756214D01*
X236746711Y-168756214D02*
X236889569Y-169041928D01*
X236889569Y-169041928D02*
X236889569Y-170613357D01*
X236889569Y-169041928D02*
X237032426Y-168756214D01*
X237032426Y-168756214D02*
X237318140Y-168613357D01*
X237318140Y-168613357D02*
X237746711Y-168613357D01*
X237746711Y-168613357D02*
X238032426Y-168756214D01*
X238032426Y-168756214D02*
X238175283Y-169041928D01*
X238175283Y-169041928D02*
X238175283Y-170613357D01*
X240889569Y-170613357D02*
X240889569Y-169041928D01*
X240889569Y-169041928D02*
X240746711Y-168756214D01*
X240746711Y-168756214D02*
X240460997Y-168613357D01*
X240460997Y-168613357D02*
X239889569Y-168613357D01*
X239889569Y-168613357D02*
X239603854Y-168756214D01*
X240889569Y-170470500D02*
X240603854Y-170613357D01*
X240603854Y-170613357D02*
X239889569Y-170613357D01*
X239889569Y-170613357D02*
X239603854Y-170470500D01*
X239603854Y-170470500D02*
X239460997Y-170184785D01*
X239460997Y-170184785D02*
X239460997Y-169899071D01*
X239460997Y-169899071D02*
X239603854Y-169613357D01*
X239603854Y-169613357D02*
X239889569Y-169470500D01*
X239889569Y-169470500D02*
X240603854Y-169470500D01*
X240603854Y-169470500D02*
X240889569Y-169327642D01*
X241889569Y-168613357D02*
X243032426Y-168613357D01*
X242318140Y-167613357D02*
X242318140Y-170184785D01*
X242318140Y-170184785D02*
X242460997Y-170470500D01*
X242460997Y-170470500D02*
X242746712Y-170613357D01*
X242746712Y-170613357D02*
X243032426Y-170613357D01*
X244032426Y-170613357D02*
X244032426Y-168613357D01*
X244032426Y-169184785D02*
X244175283Y-168899071D01*
X244175283Y-168899071D02*
X244318141Y-168756214D01*
X244318141Y-168756214D02*
X244603855Y-168613357D01*
X244603855Y-168613357D02*
X244889569Y-168613357D01*
X246318141Y-170613357D02*
X246032426Y-170470500D01*
X246032426Y-170470500D02*
X245889569Y-170327642D01*
X245889569Y-170327642D02*
X245746712Y-170041928D01*
X245746712Y-170041928D02*
X245746712Y-169184785D01*
X245746712Y-169184785D02*
X245889569Y-168899071D01*
X245889569Y-168899071D02*
X246032426Y-168756214D01*
X246032426Y-168756214D02*
X246318141Y-168613357D01*
X246318141Y-168613357D02*
X246746712Y-168613357D01*
X246746712Y-168613357D02*
X247032426Y-168756214D01*
X247032426Y-168756214D02*
X247175284Y-168899071D01*
X247175284Y-168899071D02*
X247318141Y-169184785D01*
X247318141Y-169184785D02*
X247318141Y-170041928D01*
X247318141Y-170041928D02*
X247175284Y-170327642D01*
X247175284Y-170327642D02*
X247032426Y-170470500D01*
X247032426Y-170470500D02*
X246746712Y-170613357D01*
X246746712Y-170613357D02*
X246318141Y-170613357D01*
X248460998Y-170470500D02*
X248746712Y-170613357D01*
X248746712Y-170613357D02*
X249318141Y-170613357D01*
X249318141Y-170613357D02*
X249603855Y-170470500D01*
X249603855Y-170470500D02*
X249746712Y-170184785D01*
X249746712Y-170184785D02*
X249746712Y-170041928D01*
X249746712Y-170041928D02*
X249603855Y-169756214D01*
X249603855Y-169756214D02*
X249318141Y-169613357D01*
X249318141Y-169613357D02*
X248889570Y-169613357D01*
X248889570Y-169613357D02*
X248603855Y-169470500D01*
X248603855Y-169470500D02*
X248460998Y-169184785D01*
X248460998Y-169184785D02*
X248460998Y-169041928D01*
X248460998Y-169041928D02*
X248603855Y-168756214D01*
X248603855Y-168756214D02*
X248889570Y-168613357D01*
X248889570Y-168613357D02*
X249318141Y-168613357D01*
X249318141Y-168613357D02*
X249603855Y-168756214D01*
X252175283Y-170470500D02*
X251889569Y-170613357D01*
X251889569Y-170613357D02*
X251318141Y-170613357D01*
X251318141Y-170613357D02*
X251032426Y-170470500D01*
X251032426Y-170470500D02*
X250889569Y-170184785D01*
X250889569Y-170184785D02*
X250889569Y-169041928D01*
X250889569Y-169041928D02*
X251032426Y-168756214D01*
X251032426Y-168756214D02*
X251318141Y-168613357D01*
X251318141Y-168613357D02*
X251889569Y-168613357D01*
X251889569Y-168613357D02*
X252175283Y-168756214D01*
X252175283Y-168756214D02*
X252318141Y-169041928D01*
X252318141Y-169041928D02*
X252318141Y-169327642D01*
X252318141Y-169327642D02*
X250889569Y-169613357D01*
X255746712Y-167470500D02*
X253175284Y-171327642D01*
X258460998Y-170613357D02*
X257460998Y-169184785D01*
X256746712Y-170613357D02*
X256746712Y-167613357D01*
X256746712Y-167613357D02*
X257889569Y-167613357D01*
X257889569Y-167613357D02*
X258175284Y-167756214D01*
X258175284Y-167756214D02*
X258318141Y-167899071D01*
X258318141Y-167899071D02*
X258460998Y-168184785D01*
X258460998Y-168184785D02*
X258460998Y-168613357D01*
X258460998Y-168613357D02*
X258318141Y-168899071D01*
X258318141Y-168899071D02*
X258175284Y-169041928D01*
X258175284Y-169041928D02*
X257889569Y-169184785D01*
X257889569Y-169184785D02*
X256746712Y-169184785D01*
X260889569Y-170470500D02*
X260603855Y-170613357D01*
X260603855Y-170613357D02*
X260032427Y-170613357D01*
X260032427Y-170613357D02*
X259746712Y-170470500D01*
X259746712Y-170470500D02*
X259603855Y-170184785D01*
X259603855Y-170184785D02*
X259603855Y-169041928D01*
X259603855Y-169041928D02*
X259746712Y-168756214D01*
X259746712Y-168756214D02*
X260032427Y-168613357D01*
X260032427Y-168613357D02*
X260603855Y-168613357D01*
X260603855Y-168613357D02*
X260889569Y-168756214D01*
X260889569Y-168756214D02*
X261032427Y-169041928D01*
X261032427Y-169041928D02*
X261032427Y-169327642D01*
X261032427Y-169327642D02*
X259603855Y-169613357D01*
X262746713Y-170613357D02*
X262460998Y-170470500D01*
X262460998Y-170470500D02*
X262318141Y-170184785D01*
X262318141Y-170184785D02*
X262318141Y-167613357D01*
X265175285Y-170613357D02*
X265175285Y-169041928D01*
X265175285Y-169041928D02*
X265032427Y-168756214D01*
X265032427Y-168756214D02*
X264746713Y-168613357D01*
X264746713Y-168613357D02*
X264175285Y-168613357D01*
X264175285Y-168613357D02*
X263889570Y-168756214D01*
X265175285Y-170470500D02*
X264889570Y-170613357D01*
X264889570Y-170613357D02*
X264175285Y-170613357D01*
X264175285Y-170613357D02*
X263889570Y-170470500D01*
X263889570Y-170470500D02*
X263746713Y-170184785D01*
X263746713Y-170184785D02*
X263746713Y-169899071D01*
X263746713Y-169899071D02*
X263889570Y-169613357D01*
X263889570Y-169613357D02*
X264175285Y-169470500D01*
X264175285Y-169470500D02*
X264889570Y-169470500D01*
X264889570Y-169470500D02*
X265175285Y-169327642D01*
X266603856Y-170613357D02*
X266603856Y-168613357D01*
X266603856Y-167613357D02*
X266460999Y-167756214D01*
X266460999Y-167756214D02*
X266603856Y-167899071D01*
X266603856Y-167899071D02*
X266746713Y-167756214D01*
X266746713Y-167756214D02*
X266603856Y-167613357D01*
X266603856Y-167613357D02*
X266603856Y-167899071D01*
X267889570Y-170470500D02*
X268175284Y-170613357D01*
X268175284Y-170613357D02*
X268746713Y-170613357D01*
X268746713Y-170613357D02*
X269032427Y-170470500D01*
X269032427Y-170470500D02*
X269175284Y-170184785D01*
X269175284Y-170184785D02*
X269175284Y-170041928D01*
X269175284Y-170041928D02*
X269032427Y-169756214D01*
X269032427Y-169756214D02*
X268746713Y-169613357D01*
X268746713Y-169613357D02*
X268318142Y-169613357D01*
X268318142Y-169613357D02*
X268032427Y-169470500D01*
X268032427Y-169470500D02*
X267889570Y-169184785D01*
X267889570Y-169184785D02*
X267889570Y-169041928D01*
X267889570Y-169041928D02*
X268032427Y-168756214D01*
X268032427Y-168756214D02*
X268318142Y-168613357D01*
X268318142Y-168613357D02*
X268746713Y-168613357D01*
X268746713Y-168613357D02*
X269032427Y-168756214D01*
X270460998Y-169470500D02*
X272746713Y-169470500D01*
X274175284Y-170613357D02*
X274175284Y-167613357D01*
X275889570Y-170613357D02*
X274603856Y-168899071D01*
X275889570Y-167613357D02*
X274175284Y-169327642D01*
X278460999Y-170613357D02*
X278460999Y-169041928D01*
X278460999Y-169041928D02*
X278318141Y-168756214D01*
X278318141Y-168756214D02*
X278032427Y-168613357D01*
X278032427Y-168613357D02*
X277460999Y-168613357D01*
X277460999Y-168613357D02*
X277175284Y-168756214D01*
X278460999Y-170470500D02*
X278175284Y-170613357D01*
X278175284Y-170613357D02*
X277460999Y-170613357D01*
X277460999Y-170613357D02*
X277175284Y-170470500D01*
X277175284Y-170470500D02*
X277032427Y-170184785D01*
X277032427Y-170184785D02*
X277032427Y-169899071D01*
X277032427Y-169899071D02*
X277175284Y-169613357D01*
X277175284Y-169613357D02*
X277460999Y-169470500D01*
X277460999Y-169470500D02*
X278175284Y-169470500D01*
X278175284Y-169470500D02*
X278460999Y-169327642D01*
X279889570Y-170613357D02*
X279889570Y-168613357D01*
X279889570Y-169184785D02*
X280032427Y-168899071D01*
X280032427Y-168899071D02*
X280175285Y-168756214D01*
X280175285Y-168756214D02*
X280460999Y-168613357D01*
X280460999Y-168613357D02*
X280746713Y-168613357D01*
X281318142Y-168613357D02*
X282460999Y-168613357D01*
X281746713Y-167613357D02*
X281746713Y-170184785D01*
X281746713Y-170184785D02*
X281889570Y-170470500D01*
X281889570Y-170470500D02*
X282175285Y-170613357D01*
X282175285Y-170613357D02*
X282460999Y-170613357D01*
X284603856Y-170470500D02*
X284318142Y-170613357D01*
X284318142Y-170613357D02*
X283746714Y-170613357D01*
X283746714Y-170613357D02*
X283460999Y-170470500D01*
X283460999Y-170470500D02*
X283318142Y-170184785D01*
X283318142Y-170184785D02*
X283318142Y-169041928D01*
X283318142Y-169041928D02*
X283460999Y-168756214D01*
X283460999Y-168756214D02*
X283746714Y-168613357D01*
X283746714Y-168613357D02*
X284318142Y-168613357D01*
X284318142Y-168613357D02*
X284603856Y-168756214D01*
X284603856Y-168756214D02*
X284746714Y-169041928D01*
X284746714Y-169041928D02*
X284746714Y-169327642D01*
X284746714Y-169327642D02*
X283318142Y-169613357D01*
X246818138Y-195399071D02*
X246960995Y-195256214D01*
X246960995Y-195256214D02*
X247246710Y-195113357D01*
X247246710Y-195113357D02*
X247960995Y-195113357D01*
X247960995Y-195113357D02*
X248246710Y-195256214D01*
X248246710Y-195256214D02*
X248389567Y-195399071D01*
X248389567Y-195399071D02*
X248532424Y-195684785D01*
X248532424Y-195684785D02*
X248532424Y-195970500D01*
X248532424Y-195970500D02*
X248389567Y-196399071D01*
X248389567Y-196399071D02*
X246675281Y-198113357D01*
X246675281Y-198113357D02*
X248532424Y-198113357D01*
X250389567Y-195113357D02*
X250675281Y-195113357D01*
X250675281Y-195113357D02*
X250960995Y-195256214D01*
X250960995Y-195256214D02*
X251103853Y-195399071D01*
X251103853Y-195399071D02*
X251246710Y-195684785D01*
X251246710Y-195684785D02*
X251389567Y-196256214D01*
X251389567Y-196256214D02*
X251389567Y-196970500D01*
X251389567Y-196970500D02*
X251246710Y-197541928D01*
X251246710Y-197541928D02*
X251103853Y-197827642D01*
X251103853Y-197827642D02*
X250960995Y-197970500D01*
X250960995Y-197970500D02*
X250675281Y-198113357D01*
X250675281Y-198113357D02*
X250389567Y-198113357D01*
X250389567Y-198113357D02*
X250103853Y-197970500D01*
X250103853Y-197970500D02*
X249960995Y-197827642D01*
X249960995Y-197827642D02*
X249818138Y-197541928D01*
X249818138Y-197541928D02*
X249675281Y-196970500D01*
X249675281Y-196970500D02*
X249675281Y-196256214D01*
X249675281Y-196256214D02*
X249818138Y-195684785D01*
X249818138Y-195684785D02*
X249960995Y-195399071D01*
X249960995Y-195399071D02*
X250103853Y-195256214D01*
X250103853Y-195256214D02*
X250389567Y-195113357D01*
X252532424Y-195399071D02*
X252675281Y-195256214D01*
X252675281Y-195256214D02*
X252960996Y-195113357D01*
X252960996Y-195113357D02*
X253675281Y-195113357D01*
X253675281Y-195113357D02*
X253960996Y-195256214D01*
X253960996Y-195256214D02*
X254103853Y-195399071D01*
X254103853Y-195399071D02*
X254246710Y-195684785D01*
X254246710Y-195684785D02*
X254246710Y-195970500D01*
X254246710Y-195970500D02*
X254103853Y-196399071D01*
X254103853Y-196399071D02*
X252389567Y-198113357D01*
X252389567Y-198113357D02*
X254246710Y-198113357D01*
X256818139Y-195113357D02*
X256246710Y-195113357D01*
X256246710Y-195113357D02*
X255960996Y-195256214D01*
X255960996Y-195256214D02*
X255818139Y-195399071D01*
X255818139Y-195399071D02*
X255532424Y-195827642D01*
X255532424Y-195827642D02*
X255389567Y-196399071D01*
X255389567Y-196399071D02*
X255389567Y-197541928D01*
X255389567Y-197541928D02*
X255532424Y-197827642D01*
X255532424Y-197827642D02*
X255675281Y-197970500D01*
X255675281Y-197970500D02*
X255960996Y-198113357D01*
X255960996Y-198113357D02*
X256532424Y-198113357D01*
X256532424Y-198113357D02*
X256818139Y-197970500D01*
X256818139Y-197970500D02*
X256960996Y-197827642D01*
X256960996Y-197827642D02*
X257103853Y-197541928D01*
X257103853Y-197541928D02*
X257103853Y-196827642D01*
X257103853Y-196827642D02*
X256960996Y-196541928D01*
X256960996Y-196541928D02*
X256818139Y-196399071D01*
X256818139Y-196399071D02*
X256532424Y-196256214D01*
X256532424Y-196256214D02*
X255960996Y-196256214D01*
X255960996Y-196256214D02*
X255675281Y-196399071D01*
X255675281Y-196399071D02*
X255532424Y-196541928D01*
X255532424Y-196541928D02*
X255389567Y-196827642D01*
X258389567Y-196970500D02*
X260675282Y-196970500D01*
X262675282Y-195113357D02*
X262960996Y-195113357D01*
X262960996Y-195113357D02*
X263246710Y-195256214D01*
X263246710Y-195256214D02*
X263389568Y-195399071D01*
X263389568Y-195399071D02*
X263532425Y-195684785D01*
X263532425Y-195684785D02*
X263675282Y-196256214D01*
X263675282Y-196256214D02*
X263675282Y-196970500D01*
X263675282Y-196970500D02*
X263532425Y-197541928D01*
X263532425Y-197541928D02*
X263389568Y-197827642D01*
X263389568Y-197827642D02*
X263246710Y-197970500D01*
X263246710Y-197970500D02*
X262960996Y-198113357D01*
X262960996Y-198113357D02*
X262675282Y-198113357D01*
X262675282Y-198113357D02*
X262389568Y-197970500D01*
X262389568Y-197970500D02*
X262246710Y-197827642D01*
X262246710Y-197827642D02*
X262103853Y-197541928D01*
X262103853Y-197541928D02*
X261960996Y-196970500D01*
X261960996Y-196970500D02*
X261960996Y-196256214D01*
X261960996Y-196256214D02*
X262103853Y-195684785D01*
X262103853Y-195684785D02*
X262246710Y-195399071D01*
X262246710Y-195399071D02*
X262389568Y-195256214D01*
X262389568Y-195256214D02*
X262675282Y-195113357D01*
X264675282Y-195113357D02*
X266532425Y-195113357D01*
X266532425Y-195113357D02*
X265532425Y-196256214D01*
X265532425Y-196256214D02*
X265960996Y-196256214D01*
X265960996Y-196256214D02*
X266246711Y-196399071D01*
X266246711Y-196399071D02*
X266389568Y-196541928D01*
X266389568Y-196541928D02*
X266532425Y-196827642D01*
X266532425Y-196827642D02*
X266532425Y-197541928D01*
X266532425Y-197541928D02*
X266389568Y-197827642D01*
X266389568Y-197827642D02*
X266246711Y-197970500D01*
X266246711Y-197970500D02*
X265960996Y-198113357D01*
X265960996Y-198113357D02*
X265103853Y-198113357D01*
X265103853Y-198113357D02*
X264818139Y-197970500D01*
X264818139Y-197970500D02*
X264675282Y-197827642D01*
X267818139Y-196970500D02*
X270103854Y-196970500D01*
X271389568Y-195399071D02*
X271532425Y-195256214D01*
X271532425Y-195256214D02*
X271818140Y-195113357D01*
X271818140Y-195113357D02*
X272532425Y-195113357D01*
X272532425Y-195113357D02*
X272818140Y-195256214D01*
X272818140Y-195256214D02*
X272960997Y-195399071D01*
X272960997Y-195399071D02*
X273103854Y-195684785D01*
X273103854Y-195684785D02*
X273103854Y-195970500D01*
X273103854Y-195970500D02*
X272960997Y-196399071D01*
X272960997Y-196399071D02*
X271246711Y-198113357D01*
X271246711Y-198113357D02*
X273103854Y-198113357D01*
X275960997Y-198113357D02*
X274246711Y-198113357D01*
X275103854Y-198113357D02*
X275103854Y-195113357D01*
X275103854Y-195113357D02*
X274818140Y-195541928D01*
X274818140Y-195541928D02*
X274532425Y-195827642D01*
X274532425Y-195827642D02*
X274246711Y-195970500D01*
M02*
