%TF.GenerationSoftware,KiCad,Pcbnew,9.0.8-9.0.8~ubuntu24.04.1*%
%TF.CreationDate,2026-03-22T18:02:27+01:00*%
%TF.ProjectId,Relais-Karte,52656c61-6973-42d4-9b61-7274652e6b69,V1.0*%
%TF.SameCoordinates,Original*%
%TF.FileFunction,Other,User*%
%FSLAX46Y46*%
G04 Gerber Fmt 4.6, Leading zero omitted, Abs format (unit mm)*
G04 Created by KiCad (PCBNEW 9.0.8-9.0.8~ubuntu24.04.1) date 2026-03-22 18:02:27*
%MOMM*%
%LPD*%
G01*
G04 APERTURE LIST*
%ADD10C,0.050000*%
G04 APERTURE END LIST*
D10*
%TO.C,D2*%
X96515000Y-51957500D02*
X96515000Y-56517500D01*
X96515000Y-56517500D02*
X99435000Y-56517500D01*
X99435000Y-51957500D02*
X96515000Y-51957500D01*
X99435000Y-56517500D02*
X99435000Y-51957500D01*
%TO.C,D3*%
X96540000Y-75220000D02*
X96540000Y-79780000D01*
X96540000Y-79780000D02*
X99460000Y-79780000D01*
X99460000Y-75220000D02*
X96540000Y-75220000D01*
X99460000Y-79780000D02*
X99460000Y-75220000D01*
%TO.C,R2*%
X99955000Y-57570000D02*
X96995000Y-57570000D01*
X96995000Y-59030000D01*
X99955000Y-59030000D01*
X99955000Y-57570000D01*
%TO.C,R4*%
X100155000Y-105270000D02*
X97195000Y-105270000D01*
X97195000Y-106730000D01*
X100155000Y-106730000D01*
X100155000Y-105270000D01*
%TO.C,Q1*%
X96775000Y-64900000D02*
X96775000Y-66700000D01*
X96775000Y-66700000D02*
X97925000Y-66700000D01*
X96975000Y-63870000D02*
X96975000Y-64900000D01*
X96975000Y-64900000D02*
X96775000Y-64900000D01*
X97925000Y-66700000D02*
X97925000Y-67730000D01*
X97925000Y-67730000D02*
X99025000Y-67730000D01*
X98085000Y-63870000D02*
X96975000Y-63870000D01*
X98085000Y-64900000D02*
X98085000Y-63870000D01*
X98865000Y-63870000D02*
X98865000Y-64900000D01*
X98865000Y-64900000D02*
X98085000Y-64900000D01*
X99025000Y-66700000D02*
X100175000Y-66700000D01*
X99025000Y-67730000D02*
X99025000Y-66700000D01*
X99975000Y-63870000D02*
X98865000Y-63870000D01*
X99975000Y-64900000D02*
X99975000Y-63870000D01*
X100175000Y-64900000D02*
X99975000Y-64900000D01*
X100175000Y-66700000D02*
X100175000Y-64900000D01*
%TO.C,R3*%
X100155000Y-94770000D02*
X97195000Y-94770000D01*
X97195000Y-96230000D01*
X100155000Y-96230000D01*
X100155000Y-94770000D01*
%TO.C,Q2*%
X97025000Y-102037500D02*
X97025000Y-103837500D01*
X97025000Y-103837500D02*
X98175000Y-103837500D01*
X97225000Y-101007500D02*
X97225000Y-102037500D01*
X97225000Y-102037500D02*
X97025000Y-102037500D01*
X98175000Y-103837500D02*
X98175000Y-104867500D01*
X98175000Y-104867500D02*
X99275000Y-104867500D01*
X98335000Y-101007500D02*
X97225000Y-101007500D01*
X98335000Y-102037500D02*
X98335000Y-101007500D01*
X99115000Y-101007500D02*
X99115000Y-102037500D01*
X99115000Y-102037500D02*
X98335000Y-102037500D01*
X99275000Y-103837500D02*
X100425000Y-103837500D01*
X99275000Y-104867500D02*
X99275000Y-103837500D01*
X100225000Y-101007500D02*
X99115000Y-101007500D01*
X100225000Y-102037500D02*
X100225000Y-101007500D01*
X100425000Y-102037500D02*
X100225000Y-102037500D01*
X100425000Y-103837500D02*
X100425000Y-102037500D01*
%TO.C,U2*%
X96975000Y-97600000D02*
X96975000Y-99400000D01*
X96975000Y-99400000D02*
X98125000Y-99400000D01*
X97175000Y-96570000D02*
X97175000Y-97600000D01*
X97175000Y-97600000D02*
X96975000Y-97600000D01*
X98125000Y-99400000D02*
X98125000Y-100430000D01*
X98125000Y-100430000D02*
X99225000Y-100430000D01*
X98285000Y-96570000D02*
X97175000Y-96570000D01*
X98285000Y-97600000D02*
X98285000Y-96570000D01*
X99065000Y-96570000D02*
X99065000Y-97600000D01*
X99065000Y-97600000D02*
X98285000Y-97600000D01*
X99225000Y-99400000D02*
X100375000Y-99400000D01*
X99225000Y-100430000D02*
X99225000Y-99400000D01*
X100175000Y-96570000D02*
X99065000Y-96570000D01*
X100175000Y-97600000D02*
X100175000Y-96570000D01*
X100375000Y-97600000D02*
X100175000Y-97600000D01*
X100375000Y-99400000D02*
X100375000Y-97600000D01*
%TO.C,U1*%
X96775000Y-60400000D02*
X96775000Y-62200000D01*
X96775000Y-62200000D02*
X97925000Y-62200000D01*
X96975000Y-59370000D02*
X96975000Y-60400000D01*
X96975000Y-60400000D02*
X96775000Y-60400000D01*
X97925000Y-62200000D02*
X97925000Y-63230000D01*
X97925000Y-63230000D02*
X99025000Y-63230000D01*
X98085000Y-59370000D02*
X96975000Y-59370000D01*
X98085000Y-60400000D02*
X98085000Y-59370000D01*
X98865000Y-59370000D02*
X98865000Y-60400000D01*
X98865000Y-60400000D02*
X98085000Y-60400000D01*
X99025000Y-62200000D02*
X100175000Y-62200000D01*
X99025000Y-63230000D02*
X99025000Y-62200000D01*
X99975000Y-59370000D02*
X98865000Y-59370000D01*
X99975000Y-60400000D02*
X99975000Y-59370000D01*
X100175000Y-60400000D02*
X99975000Y-60400000D01*
X100175000Y-62200000D02*
X100175000Y-60400000D01*
%TO.C,R1*%
X99955000Y-68070000D02*
X96995000Y-68070000D01*
X96995000Y-69530000D01*
X99955000Y-69530000D01*
X99955000Y-68070000D01*
%TD*%
M02*
