M48
; DRILL file {KiCad 9.0.7-9.0.7~ubuntu24.04.1} date 2026-03-20T22:19:08+0100
; FORMAT={-:-/ absolute / metric / decimal}
; #@! TF.CreationDate,2026-03-20T22:19:08+01:00
; #@! TF.GenerationSoftware,Kicad,Pcbnew,9.0.7-9.0.7~ubuntu24.04.1
; #@! TF.FileFunction,MixedPlating,1,2
FMAT,2
METRIC
; #@! TA.AperFunction,Plated,PTH,ComponentDrill
T1C1.300
; #@! TA.AperFunction,Plated,PTH,ComponentDrill
T2C1.600
; #@! TA.AperFunction,Plated,PTH,ComponentDrill
T3C1.650
%
G90
G05
T1
X103.42Y-103.5
X106.5Y-43.96
X106.5Y-49.04
X108.5Y-103.5
X113.58Y-103.5
X115.812Y-58.462
X115.812Y-73.462
X115.812Y-78.462
X115.812Y-83.462
X120.5Y-43.96
X120.5Y-49.04
X120.96Y-103.5
X123.312Y-58.462
X123.312Y-73.462
X123.312Y-78.462
X123.312Y-83.462
X126.04Y-103.5
T2
X102.8Y-56.765
X102.8Y-70.235
X106.2Y-56.765
X106.2Y-70.235
T3
X103.5Y-80.8
X103.5Y-85.4
X103.5Y-90.0
X109.22Y-80.8
X109.22Y-85.4
X109.22Y-90.0
M30
