%TF.GenerationSoftware,KiCad,Pcbnew,9.0.8-9.0.8~ubuntu24.04.1*%
%TF.CreationDate,2026-03-23T08:30:30+01:00*%
%TF.ProjectId,Relais-Karte,52656c61-6973-42d4-9b61-7274652e6b69,V1.0*%
%TF.SameCoordinates,Original*%
%TF.FileFunction,Legend,Bot*%
%TF.FilePolarity,Positive*%
%FSLAX46Y46*%
G04 Gerber Fmt 4.6, Leading zero omitted, Abs format (unit mm)*
G04 Created by KiCad (PCBNEW 9.0.8-9.0.8~ubuntu24.04.1) date 2026-03-23 08:30:30*
%MOMM*%
%LPD*%
G01*
G04 APERTURE LIST*
%ADD10C,0.150000*%
%ADD11C,0.100000*%
%ADD12C,0.120000*%
G04 APERTURE END LIST*
D10*
X98738094Y-51454819D02*
X98738094Y-50454819D01*
X98738094Y-50454819D02*
X98499999Y-50454819D01*
X98499999Y-50454819D02*
X98357142Y-50502438D01*
X98357142Y-50502438D02*
X98261904Y-50597676D01*
X98261904Y-50597676D02*
X98214285Y-50692914D01*
X98214285Y-50692914D02*
X98166666Y-50883390D01*
X98166666Y-50883390D02*
X98166666Y-51026247D01*
X98166666Y-51026247D02*
X98214285Y-51216723D01*
X98214285Y-51216723D02*
X98261904Y-51311961D01*
X98261904Y-51311961D02*
X98357142Y-51407200D01*
X98357142Y-51407200D02*
X98499999Y-51454819D01*
X98499999Y-51454819D02*
X98738094Y-51454819D01*
X97785713Y-50550057D02*
X97738094Y-50502438D01*
X97738094Y-50502438D02*
X97642856Y-50454819D01*
X97642856Y-50454819D02*
X97404761Y-50454819D01*
X97404761Y-50454819D02*
X97309523Y-50502438D01*
X97309523Y-50502438D02*
X97261904Y-50550057D01*
X97261904Y-50550057D02*
X97214285Y-50645295D01*
X97214285Y-50645295D02*
X97214285Y-50740533D01*
X97214285Y-50740533D02*
X97261904Y-50883390D01*
X97261904Y-50883390D02*
X97833332Y-51454819D01*
X97833332Y-51454819D02*
X97214285Y-51454819D01*
X98738094Y-74454819D02*
X98738094Y-73454819D01*
X98738094Y-73454819D02*
X98499999Y-73454819D01*
X98499999Y-73454819D02*
X98357142Y-73502438D01*
X98357142Y-73502438D02*
X98261904Y-73597676D01*
X98261904Y-73597676D02*
X98214285Y-73692914D01*
X98214285Y-73692914D02*
X98166666Y-73883390D01*
X98166666Y-73883390D02*
X98166666Y-74026247D01*
X98166666Y-74026247D02*
X98214285Y-74216723D01*
X98214285Y-74216723D02*
X98261904Y-74311961D01*
X98261904Y-74311961D02*
X98357142Y-74407200D01*
X98357142Y-74407200D02*
X98499999Y-74454819D01*
X98499999Y-74454819D02*
X98738094Y-74454819D01*
X97833332Y-73454819D02*
X97214285Y-73454819D01*
X97214285Y-73454819D02*
X97547618Y-73835771D01*
X97547618Y-73835771D02*
X97404761Y-73835771D01*
X97404761Y-73835771D02*
X97309523Y-73883390D01*
X97309523Y-73883390D02*
X97261904Y-73931009D01*
X97261904Y-73931009D02*
X97214285Y-74026247D01*
X97214285Y-74026247D02*
X97214285Y-74264342D01*
X97214285Y-74264342D02*
X97261904Y-74359580D01*
X97261904Y-74359580D02*
X97309523Y-74407200D01*
X97309523Y-74407200D02*
X97404761Y-74454819D01*
X97404761Y-74454819D02*
X97690475Y-74454819D01*
X97690475Y-74454819D02*
X97785713Y-74407200D01*
X97785713Y-74407200D02*
X97833332Y-74359580D01*
X96166666Y-58954819D02*
X96499999Y-58478628D01*
X96738094Y-58954819D02*
X96738094Y-57954819D01*
X96738094Y-57954819D02*
X96357142Y-57954819D01*
X96357142Y-57954819D02*
X96261904Y-58002438D01*
X96261904Y-58002438D02*
X96214285Y-58050057D01*
X96214285Y-58050057D02*
X96166666Y-58145295D01*
X96166666Y-58145295D02*
X96166666Y-58288152D01*
X96166666Y-58288152D02*
X96214285Y-58383390D01*
X96214285Y-58383390D02*
X96261904Y-58431009D01*
X96261904Y-58431009D02*
X96357142Y-58478628D01*
X96357142Y-58478628D02*
X96738094Y-58478628D01*
X95785713Y-58050057D02*
X95738094Y-58002438D01*
X95738094Y-58002438D02*
X95642856Y-57954819D01*
X95642856Y-57954819D02*
X95404761Y-57954819D01*
X95404761Y-57954819D02*
X95309523Y-58002438D01*
X95309523Y-58002438D02*
X95261904Y-58050057D01*
X95261904Y-58050057D02*
X95214285Y-58145295D01*
X95214285Y-58145295D02*
X95214285Y-58240533D01*
X95214285Y-58240533D02*
X95261904Y-58383390D01*
X95261904Y-58383390D02*
X95833332Y-58954819D01*
X95833332Y-58954819D02*
X95214285Y-58954819D01*
X96166666Y-106454819D02*
X96499999Y-105978628D01*
X96738094Y-106454819D02*
X96738094Y-105454819D01*
X96738094Y-105454819D02*
X96357142Y-105454819D01*
X96357142Y-105454819D02*
X96261904Y-105502438D01*
X96261904Y-105502438D02*
X96214285Y-105550057D01*
X96214285Y-105550057D02*
X96166666Y-105645295D01*
X96166666Y-105645295D02*
X96166666Y-105788152D01*
X96166666Y-105788152D02*
X96214285Y-105883390D01*
X96214285Y-105883390D02*
X96261904Y-105931009D01*
X96261904Y-105931009D02*
X96357142Y-105978628D01*
X96357142Y-105978628D02*
X96738094Y-105978628D01*
X95309523Y-105788152D02*
X95309523Y-106454819D01*
X95547618Y-105407200D02*
X95785713Y-106121485D01*
X95785713Y-106121485D02*
X95166666Y-106121485D01*
X96625057Y-65704761D02*
X96577438Y-65609523D01*
X96577438Y-65609523D02*
X96482200Y-65514285D01*
X96482200Y-65514285D02*
X96339342Y-65371428D01*
X96339342Y-65371428D02*
X96291723Y-65276190D01*
X96291723Y-65276190D02*
X96291723Y-65180952D01*
X96529819Y-65228571D02*
X96482200Y-65133333D01*
X96482200Y-65133333D02*
X96386961Y-65038095D01*
X96386961Y-65038095D02*
X96196485Y-64990476D01*
X96196485Y-64990476D02*
X95863152Y-64990476D01*
X95863152Y-64990476D02*
X95672676Y-65038095D01*
X95672676Y-65038095D02*
X95577438Y-65133333D01*
X95577438Y-65133333D02*
X95529819Y-65228571D01*
X95529819Y-65228571D02*
X95529819Y-65419047D01*
X95529819Y-65419047D02*
X95577438Y-65514285D01*
X95577438Y-65514285D02*
X95672676Y-65609523D01*
X95672676Y-65609523D02*
X95863152Y-65657142D01*
X95863152Y-65657142D02*
X96196485Y-65657142D01*
X96196485Y-65657142D02*
X96386961Y-65609523D01*
X96386961Y-65609523D02*
X96482200Y-65514285D01*
X96482200Y-65514285D02*
X96529819Y-65419047D01*
X96529819Y-65419047D02*
X96529819Y-65228571D01*
X96529819Y-66609523D02*
X96529819Y-66038095D01*
X96529819Y-66323809D02*
X95529819Y-66323809D01*
X95529819Y-66323809D02*
X95672676Y-66228571D01*
X95672676Y-66228571D02*
X95767914Y-66133333D01*
X95767914Y-66133333D02*
X95815533Y-66038095D01*
X98841666Y-94524819D02*
X99174999Y-94048628D01*
X99413094Y-94524819D02*
X99413094Y-93524819D01*
X99413094Y-93524819D02*
X99032142Y-93524819D01*
X99032142Y-93524819D02*
X98936904Y-93572438D01*
X98936904Y-93572438D02*
X98889285Y-93620057D01*
X98889285Y-93620057D02*
X98841666Y-93715295D01*
X98841666Y-93715295D02*
X98841666Y-93858152D01*
X98841666Y-93858152D02*
X98889285Y-93953390D01*
X98889285Y-93953390D02*
X98936904Y-94001009D01*
X98936904Y-94001009D02*
X99032142Y-94048628D01*
X99032142Y-94048628D02*
X99413094Y-94048628D01*
X98508332Y-93524819D02*
X97889285Y-93524819D01*
X97889285Y-93524819D02*
X98222618Y-93905771D01*
X98222618Y-93905771D02*
X98079761Y-93905771D01*
X98079761Y-93905771D02*
X97984523Y-93953390D01*
X97984523Y-93953390D02*
X97936904Y-94001009D01*
X97936904Y-94001009D02*
X97889285Y-94096247D01*
X97889285Y-94096247D02*
X97889285Y-94334342D01*
X97889285Y-94334342D02*
X97936904Y-94429580D01*
X97936904Y-94429580D02*
X97984523Y-94477200D01*
X97984523Y-94477200D02*
X98079761Y-94524819D01*
X98079761Y-94524819D02*
X98365475Y-94524819D01*
X98365475Y-94524819D02*
X98460713Y-94477200D01*
X98460713Y-94477200D02*
X98508332Y-94429580D01*
D11*
X129129209Y-92613836D02*
X130129209Y-92613836D01*
X129129209Y-92185265D02*
X129653019Y-92185265D01*
X129653019Y-92185265D02*
X129748257Y-92232884D01*
X129748257Y-92232884D02*
X129795876Y-92328122D01*
X129795876Y-92328122D02*
X129795876Y-92470979D01*
X129795876Y-92470979D02*
X129748257Y-92566217D01*
X129748257Y-92566217D02*
X129700638Y-92613836D01*
X129795876Y-91851931D02*
X129795876Y-91470979D01*
X130129209Y-91709074D02*
X129272067Y-91709074D01*
X129272067Y-91709074D02*
X129176829Y-91661455D01*
X129176829Y-91661455D02*
X129129209Y-91566217D01*
X129129209Y-91566217D02*
X129129209Y-91470979D01*
X129795876Y-91280502D02*
X129795876Y-90899550D01*
X130129209Y-91137645D02*
X129272067Y-91137645D01*
X129272067Y-91137645D02*
X129176829Y-91090026D01*
X129176829Y-91090026D02*
X129129209Y-90994788D01*
X129129209Y-90994788D02*
X129129209Y-90899550D01*
X129795876Y-90566216D02*
X128795876Y-90566216D01*
X129748257Y-90566216D02*
X129795876Y-90470978D01*
X129795876Y-90470978D02*
X129795876Y-90280502D01*
X129795876Y-90280502D02*
X129748257Y-90185264D01*
X129748257Y-90185264D02*
X129700638Y-90137645D01*
X129700638Y-90137645D02*
X129605400Y-90090026D01*
X129605400Y-90090026D02*
X129319686Y-90090026D01*
X129319686Y-90090026D02*
X129224448Y-90137645D01*
X129224448Y-90137645D02*
X129176829Y-90185264D01*
X129176829Y-90185264D02*
X129129209Y-90280502D01*
X129129209Y-90280502D02*
X129129209Y-90470978D01*
X129129209Y-90470978D02*
X129176829Y-90566216D01*
X129176829Y-89709073D02*
X129129209Y-89613835D01*
X129129209Y-89613835D02*
X129129209Y-89423359D01*
X129129209Y-89423359D02*
X129176829Y-89328121D01*
X129176829Y-89328121D02*
X129272067Y-89280502D01*
X129272067Y-89280502D02*
X129319686Y-89280502D01*
X129319686Y-89280502D02*
X129414924Y-89328121D01*
X129414924Y-89328121D02*
X129462543Y-89423359D01*
X129462543Y-89423359D02*
X129462543Y-89566216D01*
X129462543Y-89566216D02*
X129510162Y-89661454D01*
X129510162Y-89661454D02*
X129605400Y-89709073D01*
X129605400Y-89709073D02*
X129653019Y-89709073D01*
X129653019Y-89709073D02*
X129748257Y-89661454D01*
X129748257Y-89661454D02*
X129795876Y-89566216D01*
X129795876Y-89566216D02*
X129795876Y-89423359D01*
X129795876Y-89423359D02*
X129748257Y-89328121D01*
X129224448Y-88851930D02*
X129176829Y-88804311D01*
X129176829Y-88804311D02*
X129129209Y-88851930D01*
X129129209Y-88851930D02*
X129176829Y-88899549D01*
X129176829Y-88899549D02*
X129224448Y-88851930D01*
X129224448Y-88851930D02*
X129129209Y-88851930D01*
X129748257Y-88851930D02*
X129700638Y-88804311D01*
X129700638Y-88804311D02*
X129653019Y-88851930D01*
X129653019Y-88851930D02*
X129700638Y-88899549D01*
X129700638Y-88899549D02*
X129748257Y-88851930D01*
X129748257Y-88851930D02*
X129653019Y-88851930D01*
X130176829Y-87661455D02*
X128891114Y-88518597D01*
X130176829Y-86613836D02*
X128891114Y-87470978D01*
X129795876Y-85851931D02*
X128986352Y-85851931D01*
X128986352Y-85851931D02*
X128891114Y-85899550D01*
X128891114Y-85899550D02*
X128843495Y-85947169D01*
X128843495Y-85947169D02*
X128795876Y-86042407D01*
X128795876Y-86042407D02*
X128795876Y-86185264D01*
X128795876Y-86185264D02*
X128843495Y-86280502D01*
X129176829Y-85851931D02*
X129129209Y-85947169D01*
X129129209Y-85947169D02*
X129129209Y-86137645D01*
X129129209Y-86137645D02*
X129176829Y-86232883D01*
X129176829Y-86232883D02*
X129224448Y-86280502D01*
X129224448Y-86280502D02*
X129319686Y-86328121D01*
X129319686Y-86328121D02*
X129605400Y-86328121D01*
X129605400Y-86328121D02*
X129700638Y-86280502D01*
X129700638Y-86280502D02*
X129748257Y-86232883D01*
X129748257Y-86232883D02*
X129795876Y-86137645D01*
X129795876Y-86137645D02*
X129795876Y-85947169D01*
X129795876Y-85947169D02*
X129748257Y-85851931D01*
X129129209Y-85375740D02*
X129795876Y-85375740D01*
X130129209Y-85375740D02*
X130081590Y-85423359D01*
X130081590Y-85423359D02*
X130033971Y-85375740D01*
X130033971Y-85375740D02*
X130081590Y-85328121D01*
X130081590Y-85328121D02*
X130129209Y-85375740D01*
X130129209Y-85375740D02*
X130033971Y-85375740D01*
X129795876Y-85042407D02*
X129795876Y-84661455D01*
X130129209Y-84899550D02*
X129272067Y-84899550D01*
X129272067Y-84899550D02*
X129176829Y-84851931D01*
X129176829Y-84851931D02*
X129129209Y-84756693D01*
X129129209Y-84756693D02*
X129129209Y-84661455D01*
X129129209Y-84328121D02*
X130129209Y-84328121D01*
X129129209Y-83899550D02*
X129653019Y-83899550D01*
X129653019Y-83899550D02*
X129748257Y-83947169D01*
X129748257Y-83947169D02*
X129795876Y-84042407D01*
X129795876Y-84042407D02*
X129795876Y-84185264D01*
X129795876Y-84185264D02*
X129748257Y-84280502D01*
X129748257Y-84280502D02*
X129700638Y-84328121D01*
X129795876Y-82994788D02*
X129129209Y-82994788D01*
X129795876Y-83423359D02*
X129272067Y-83423359D01*
X129272067Y-83423359D02*
X129176829Y-83375740D01*
X129176829Y-83375740D02*
X129129209Y-83280502D01*
X129129209Y-83280502D02*
X129129209Y-83137645D01*
X129129209Y-83137645D02*
X129176829Y-83042407D01*
X129176829Y-83042407D02*
X129224448Y-82994788D01*
X129129209Y-82518597D02*
X130129209Y-82518597D01*
X129748257Y-82518597D02*
X129795876Y-82423359D01*
X129795876Y-82423359D02*
X129795876Y-82232883D01*
X129795876Y-82232883D02*
X129748257Y-82137645D01*
X129748257Y-82137645D02*
X129700638Y-82090026D01*
X129700638Y-82090026D02*
X129605400Y-82042407D01*
X129605400Y-82042407D02*
X129319686Y-82042407D01*
X129319686Y-82042407D02*
X129224448Y-82090026D01*
X129224448Y-82090026D02*
X129176829Y-82137645D01*
X129176829Y-82137645D02*
X129129209Y-82232883D01*
X129129209Y-82232883D02*
X129129209Y-82423359D01*
X129129209Y-82423359D02*
X129176829Y-82518597D01*
X129224448Y-81613835D02*
X129176829Y-81566216D01*
X129176829Y-81566216D02*
X129129209Y-81613835D01*
X129129209Y-81613835D02*
X129176829Y-81661454D01*
X129176829Y-81661454D02*
X129224448Y-81613835D01*
X129224448Y-81613835D02*
X129129209Y-81613835D01*
X129176829Y-80709074D02*
X129129209Y-80804312D01*
X129129209Y-80804312D02*
X129129209Y-80994788D01*
X129129209Y-80994788D02*
X129176829Y-81090026D01*
X129176829Y-81090026D02*
X129224448Y-81137645D01*
X129224448Y-81137645D02*
X129319686Y-81185264D01*
X129319686Y-81185264D02*
X129605400Y-81185264D01*
X129605400Y-81185264D02*
X129700638Y-81137645D01*
X129700638Y-81137645D02*
X129748257Y-81090026D01*
X129748257Y-81090026D02*
X129795876Y-80994788D01*
X129795876Y-80994788D02*
X129795876Y-80804312D01*
X129795876Y-80804312D02*
X129748257Y-80709074D01*
X129129209Y-80137645D02*
X129176829Y-80232883D01*
X129176829Y-80232883D02*
X129224448Y-80280502D01*
X129224448Y-80280502D02*
X129319686Y-80328121D01*
X129319686Y-80328121D02*
X129605400Y-80328121D01*
X129605400Y-80328121D02*
X129700638Y-80280502D01*
X129700638Y-80280502D02*
X129748257Y-80232883D01*
X129748257Y-80232883D02*
X129795876Y-80137645D01*
X129795876Y-80137645D02*
X129795876Y-79994788D01*
X129795876Y-79994788D02*
X129748257Y-79899550D01*
X129748257Y-79899550D02*
X129700638Y-79851931D01*
X129700638Y-79851931D02*
X129605400Y-79804312D01*
X129605400Y-79804312D02*
X129319686Y-79804312D01*
X129319686Y-79804312D02*
X129224448Y-79851931D01*
X129224448Y-79851931D02*
X129176829Y-79899550D01*
X129176829Y-79899550D02*
X129129209Y-79994788D01*
X129129209Y-79994788D02*
X129129209Y-80137645D01*
X129129209Y-79375740D02*
X129795876Y-79375740D01*
X129700638Y-79375740D02*
X129748257Y-79328121D01*
X129748257Y-79328121D02*
X129795876Y-79232883D01*
X129795876Y-79232883D02*
X129795876Y-79090026D01*
X129795876Y-79090026D02*
X129748257Y-78994788D01*
X129748257Y-78994788D02*
X129653019Y-78947169D01*
X129653019Y-78947169D02*
X129129209Y-78947169D01*
X129653019Y-78947169D02*
X129748257Y-78899550D01*
X129748257Y-78899550D02*
X129795876Y-78804312D01*
X129795876Y-78804312D02*
X129795876Y-78661455D01*
X129795876Y-78661455D02*
X129748257Y-78566216D01*
X129748257Y-78566216D02*
X129653019Y-78518597D01*
X129653019Y-78518597D02*
X129129209Y-78518597D01*
X130176829Y-77328122D02*
X128891114Y-78185264D01*
X129795876Y-76994788D02*
X128795876Y-76994788D01*
X129748257Y-76994788D02*
X129795876Y-76899550D01*
X129795876Y-76899550D02*
X129795876Y-76709074D01*
X129795876Y-76709074D02*
X129748257Y-76613836D01*
X129748257Y-76613836D02*
X129700638Y-76566217D01*
X129700638Y-76566217D02*
X129605400Y-76518598D01*
X129605400Y-76518598D02*
X129319686Y-76518598D01*
X129319686Y-76518598D02*
X129224448Y-76566217D01*
X129224448Y-76566217D02*
X129176829Y-76613836D01*
X129176829Y-76613836D02*
X129129209Y-76709074D01*
X129129209Y-76709074D02*
X129129209Y-76899550D01*
X129129209Y-76899550D02*
X129176829Y-76994788D01*
X129176829Y-75709074D02*
X129129209Y-75804312D01*
X129129209Y-75804312D02*
X129129209Y-75994788D01*
X129129209Y-75994788D02*
X129176829Y-76090026D01*
X129176829Y-76090026D02*
X129272067Y-76137645D01*
X129272067Y-76137645D02*
X129653019Y-76137645D01*
X129653019Y-76137645D02*
X129748257Y-76090026D01*
X129748257Y-76090026D02*
X129795876Y-75994788D01*
X129795876Y-75994788D02*
X129795876Y-75804312D01*
X129795876Y-75804312D02*
X129748257Y-75709074D01*
X129748257Y-75709074D02*
X129653019Y-75661455D01*
X129653019Y-75661455D02*
X129557781Y-75661455D01*
X129557781Y-75661455D02*
X129462543Y-76137645D01*
X129129209Y-75090026D02*
X129176829Y-75185264D01*
X129176829Y-75185264D02*
X129272067Y-75232883D01*
X129272067Y-75232883D02*
X130129209Y-75232883D01*
X129129209Y-74566216D02*
X129176829Y-74661454D01*
X129176829Y-74661454D02*
X129272067Y-74709073D01*
X129272067Y-74709073D02*
X130129209Y-74709073D01*
X129176829Y-73804311D02*
X129129209Y-73899549D01*
X129129209Y-73899549D02*
X129129209Y-74090025D01*
X129129209Y-74090025D02*
X129176829Y-74185263D01*
X129176829Y-74185263D02*
X129272067Y-74232882D01*
X129272067Y-74232882D02*
X129653019Y-74232882D01*
X129653019Y-74232882D02*
X129748257Y-74185263D01*
X129748257Y-74185263D02*
X129795876Y-74090025D01*
X129795876Y-74090025D02*
X129795876Y-73899549D01*
X129795876Y-73899549D02*
X129748257Y-73804311D01*
X129748257Y-73804311D02*
X129653019Y-73756692D01*
X129653019Y-73756692D02*
X129557781Y-73756692D01*
X129557781Y-73756692D02*
X129462543Y-74232882D01*
X129129209Y-73328120D02*
X129795876Y-73328120D01*
X129700638Y-73328120D02*
X129748257Y-73280501D01*
X129748257Y-73280501D02*
X129795876Y-73185263D01*
X129795876Y-73185263D02*
X129795876Y-73042406D01*
X129795876Y-73042406D02*
X129748257Y-72947168D01*
X129748257Y-72947168D02*
X129653019Y-72899549D01*
X129653019Y-72899549D02*
X129129209Y-72899549D01*
X129653019Y-72899549D02*
X129748257Y-72851930D01*
X129748257Y-72851930D02*
X129795876Y-72756692D01*
X129795876Y-72756692D02*
X129795876Y-72613835D01*
X129795876Y-72613835D02*
X129748257Y-72518596D01*
X129748257Y-72518596D02*
X129653019Y-72470977D01*
X129653019Y-72470977D02*
X129129209Y-72470977D01*
X129129209Y-71566216D02*
X129653019Y-71566216D01*
X129653019Y-71566216D02*
X129748257Y-71613835D01*
X129748257Y-71613835D02*
X129795876Y-71709073D01*
X129795876Y-71709073D02*
X129795876Y-71899549D01*
X129795876Y-71899549D02*
X129748257Y-71994787D01*
X129176829Y-71566216D02*
X129129209Y-71661454D01*
X129129209Y-71661454D02*
X129129209Y-71899549D01*
X129129209Y-71899549D02*
X129176829Y-71994787D01*
X129176829Y-71994787D02*
X129272067Y-72042406D01*
X129272067Y-72042406D02*
X129367305Y-72042406D01*
X129367305Y-72042406D02*
X129462543Y-71994787D01*
X129462543Y-71994787D02*
X129510162Y-71899549D01*
X129510162Y-71899549D02*
X129510162Y-71661454D01*
X129510162Y-71661454D02*
X129557781Y-71566216D01*
X129795876Y-71232882D02*
X129795876Y-70851930D01*
X130129209Y-71090025D02*
X129272067Y-71090025D01*
X129272067Y-71090025D02*
X129176829Y-71042406D01*
X129176829Y-71042406D02*
X129129209Y-70947168D01*
X129129209Y-70947168D02*
X129129209Y-70851930D01*
X129129209Y-70518596D02*
X129795876Y-70518596D01*
X129605400Y-70518596D02*
X129700638Y-70470977D01*
X129700638Y-70470977D02*
X129748257Y-70423358D01*
X129748257Y-70423358D02*
X129795876Y-70328120D01*
X129795876Y-70328120D02*
X129795876Y-70232882D01*
X129129209Y-69756691D02*
X129176829Y-69851929D01*
X129176829Y-69851929D02*
X129224448Y-69899548D01*
X129224448Y-69899548D02*
X129319686Y-69947167D01*
X129319686Y-69947167D02*
X129605400Y-69947167D01*
X129605400Y-69947167D02*
X129700638Y-69899548D01*
X129700638Y-69899548D02*
X129748257Y-69851929D01*
X129748257Y-69851929D02*
X129795876Y-69756691D01*
X129795876Y-69756691D02*
X129795876Y-69613834D01*
X129795876Y-69613834D02*
X129748257Y-69518596D01*
X129748257Y-69518596D02*
X129700638Y-69470977D01*
X129700638Y-69470977D02*
X129605400Y-69423358D01*
X129605400Y-69423358D02*
X129319686Y-69423358D01*
X129319686Y-69423358D02*
X129224448Y-69470977D01*
X129224448Y-69470977D02*
X129176829Y-69518596D01*
X129176829Y-69518596D02*
X129129209Y-69613834D01*
X129129209Y-69613834D02*
X129129209Y-69756691D01*
X129176829Y-69042405D02*
X129129209Y-68947167D01*
X129129209Y-68947167D02*
X129129209Y-68756691D01*
X129129209Y-68756691D02*
X129176829Y-68661453D01*
X129176829Y-68661453D02*
X129272067Y-68613834D01*
X129272067Y-68613834D02*
X129319686Y-68613834D01*
X129319686Y-68613834D02*
X129414924Y-68661453D01*
X129414924Y-68661453D02*
X129462543Y-68756691D01*
X129462543Y-68756691D02*
X129462543Y-68899548D01*
X129462543Y-68899548D02*
X129510162Y-68994786D01*
X129510162Y-68994786D02*
X129605400Y-69042405D01*
X129605400Y-69042405D02*
X129653019Y-69042405D01*
X129653019Y-69042405D02*
X129748257Y-68994786D01*
X129748257Y-68994786D02*
X129795876Y-68899548D01*
X129795876Y-68899548D02*
X129795876Y-68756691D01*
X129795876Y-68756691D02*
X129748257Y-68661453D01*
X129176829Y-67804310D02*
X129129209Y-67899548D01*
X129129209Y-67899548D02*
X129129209Y-68090024D01*
X129129209Y-68090024D02*
X129176829Y-68185262D01*
X129176829Y-68185262D02*
X129272067Y-68232881D01*
X129272067Y-68232881D02*
X129653019Y-68232881D01*
X129653019Y-68232881D02*
X129748257Y-68185262D01*
X129748257Y-68185262D02*
X129795876Y-68090024D01*
X129795876Y-68090024D02*
X129795876Y-67899548D01*
X129795876Y-67899548D02*
X129748257Y-67804310D01*
X129748257Y-67804310D02*
X129653019Y-67756691D01*
X129653019Y-67756691D02*
X129557781Y-67756691D01*
X129557781Y-67756691D02*
X129462543Y-68232881D01*
X130176829Y-66613834D02*
X128891114Y-67470976D01*
X129129209Y-65709072D02*
X129605400Y-66042405D01*
X129129209Y-66280500D02*
X130129209Y-66280500D01*
X130129209Y-66280500D02*
X130129209Y-65899548D01*
X130129209Y-65899548D02*
X130081590Y-65804310D01*
X130081590Y-65804310D02*
X130033971Y-65756691D01*
X130033971Y-65756691D02*
X129938733Y-65709072D01*
X129938733Y-65709072D02*
X129795876Y-65709072D01*
X129795876Y-65709072D02*
X129700638Y-65756691D01*
X129700638Y-65756691D02*
X129653019Y-65804310D01*
X129653019Y-65804310D02*
X129605400Y-65899548D01*
X129605400Y-65899548D02*
X129605400Y-66280500D01*
X129176829Y-64899548D02*
X129129209Y-64994786D01*
X129129209Y-64994786D02*
X129129209Y-65185262D01*
X129129209Y-65185262D02*
X129176829Y-65280500D01*
X129176829Y-65280500D02*
X129272067Y-65328119D01*
X129272067Y-65328119D02*
X129653019Y-65328119D01*
X129653019Y-65328119D02*
X129748257Y-65280500D01*
X129748257Y-65280500D02*
X129795876Y-65185262D01*
X129795876Y-65185262D02*
X129795876Y-64994786D01*
X129795876Y-64994786D02*
X129748257Y-64899548D01*
X129748257Y-64899548D02*
X129653019Y-64851929D01*
X129653019Y-64851929D02*
X129557781Y-64851929D01*
X129557781Y-64851929D02*
X129462543Y-65328119D01*
X129129209Y-64280500D02*
X129176829Y-64375738D01*
X129176829Y-64375738D02*
X129272067Y-64423357D01*
X129272067Y-64423357D02*
X130129209Y-64423357D01*
X129129209Y-63470976D02*
X129653019Y-63470976D01*
X129653019Y-63470976D02*
X129748257Y-63518595D01*
X129748257Y-63518595D02*
X129795876Y-63613833D01*
X129795876Y-63613833D02*
X129795876Y-63804309D01*
X129795876Y-63804309D02*
X129748257Y-63899547D01*
X129176829Y-63470976D02*
X129129209Y-63566214D01*
X129129209Y-63566214D02*
X129129209Y-63804309D01*
X129129209Y-63804309D02*
X129176829Y-63899547D01*
X129176829Y-63899547D02*
X129272067Y-63947166D01*
X129272067Y-63947166D02*
X129367305Y-63947166D01*
X129367305Y-63947166D02*
X129462543Y-63899547D01*
X129462543Y-63899547D02*
X129510162Y-63804309D01*
X129510162Y-63804309D02*
X129510162Y-63566214D01*
X129510162Y-63566214D02*
X129557781Y-63470976D01*
X129129209Y-62994785D02*
X129795876Y-62994785D01*
X130129209Y-62994785D02*
X130081590Y-63042404D01*
X130081590Y-63042404D02*
X130033971Y-62994785D01*
X130033971Y-62994785D02*
X130081590Y-62947166D01*
X130081590Y-62947166D02*
X130129209Y-62994785D01*
X130129209Y-62994785D02*
X130033971Y-62994785D01*
X129176829Y-62566214D02*
X129129209Y-62470976D01*
X129129209Y-62470976D02*
X129129209Y-62280500D01*
X129129209Y-62280500D02*
X129176829Y-62185262D01*
X129176829Y-62185262D02*
X129272067Y-62137643D01*
X129272067Y-62137643D02*
X129319686Y-62137643D01*
X129319686Y-62137643D02*
X129414924Y-62185262D01*
X129414924Y-62185262D02*
X129462543Y-62280500D01*
X129462543Y-62280500D02*
X129462543Y-62423357D01*
X129462543Y-62423357D02*
X129510162Y-62518595D01*
X129510162Y-62518595D02*
X129605400Y-62566214D01*
X129605400Y-62566214D02*
X129653019Y-62566214D01*
X129653019Y-62566214D02*
X129748257Y-62518595D01*
X129748257Y-62518595D02*
X129795876Y-62423357D01*
X129795876Y-62423357D02*
X129795876Y-62280500D01*
X129795876Y-62280500D02*
X129748257Y-62185262D01*
X129510162Y-61709071D02*
X129510162Y-60947167D01*
X129129209Y-60470976D02*
X130129209Y-60470976D01*
X129129209Y-59899548D02*
X129700638Y-60328119D01*
X130129209Y-59899548D02*
X129557781Y-60470976D01*
X129129209Y-59042405D02*
X129653019Y-59042405D01*
X129653019Y-59042405D02*
X129748257Y-59090024D01*
X129748257Y-59090024D02*
X129795876Y-59185262D01*
X129795876Y-59185262D02*
X129795876Y-59375738D01*
X129795876Y-59375738D02*
X129748257Y-59470976D01*
X129176829Y-59042405D02*
X129129209Y-59137643D01*
X129129209Y-59137643D02*
X129129209Y-59375738D01*
X129129209Y-59375738D02*
X129176829Y-59470976D01*
X129176829Y-59470976D02*
X129272067Y-59518595D01*
X129272067Y-59518595D02*
X129367305Y-59518595D01*
X129367305Y-59518595D02*
X129462543Y-59470976D01*
X129462543Y-59470976D02*
X129510162Y-59375738D01*
X129510162Y-59375738D02*
X129510162Y-59137643D01*
X129510162Y-59137643D02*
X129557781Y-59042405D01*
X129129209Y-58566214D02*
X129795876Y-58566214D01*
X129605400Y-58566214D02*
X129700638Y-58518595D01*
X129700638Y-58518595D02*
X129748257Y-58470976D01*
X129748257Y-58470976D02*
X129795876Y-58375738D01*
X129795876Y-58375738D02*
X129795876Y-58280500D01*
X129795876Y-58090023D02*
X129795876Y-57709071D01*
X130129209Y-57947166D02*
X129272067Y-57947166D01*
X129272067Y-57947166D02*
X129176829Y-57899547D01*
X129176829Y-57899547D02*
X129129209Y-57804309D01*
X129129209Y-57804309D02*
X129129209Y-57709071D01*
X129176829Y-56994785D02*
X129129209Y-57090023D01*
X129129209Y-57090023D02*
X129129209Y-57280499D01*
X129129209Y-57280499D02*
X129176829Y-57375737D01*
X129176829Y-57375737D02*
X129272067Y-57423356D01*
X129272067Y-57423356D02*
X129653019Y-57423356D01*
X129653019Y-57423356D02*
X129748257Y-57375737D01*
X129748257Y-57375737D02*
X129795876Y-57280499D01*
X129795876Y-57280499D02*
X129795876Y-57090023D01*
X129795876Y-57090023D02*
X129748257Y-56994785D01*
X129748257Y-56994785D02*
X129653019Y-56947166D01*
X129653019Y-56947166D02*
X129557781Y-56947166D01*
X129557781Y-56947166D02*
X129462543Y-57423356D01*
D10*
X96875057Y-102842261D02*
X96827438Y-102747023D01*
X96827438Y-102747023D02*
X96732200Y-102651785D01*
X96732200Y-102651785D02*
X96589342Y-102508928D01*
X96589342Y-102508928D02*
X96541723Y-102413690D01*
X96541723Y-102413690D02*
X96541723Y-102318452D01*
X96779819Y-102366071D02*
X96732200Y-102270833D01*
X96732200Y-102270833D02*
X96636961Y-102175595D01*
X96636961Y-102175595D02*
X96446485Y-102127976D01*
X96446485Y-102127976D02*
X96113152Y-102127976D01*
X96113152Y-102127976D02*
X95922676Y-102175595D01*
X95922676Y-102175595D02*
X95827438Y-102270833D01*
X95827438Y-102270833D02*
X95779819Y-102366071D01*
X95779819Y-102366071D02*
X95779819Y-102556547D01*
X95779819Y-102556547D02*
X95827438Y-102651785D01*
X95827438Y-102651785D02*
X95922676Y-102747023D01*
X95922676Y-102747023D02*
X96113152Y-102794642D01*
X96113152Y-102794642D02*
X96446485Y-102794642D01*
X96446485Y-102794642D02*
X96636961Y-102747023D01*
X96636961Y-102747023D02*
X96732200Y-102651785D01*
X96732200Y-102651785D02*
X96779819Y-102556547D01*
X96779819Y-102556547D02*
X96779819Y-102366071D01*
X95875057Y-103175595D02*
X95827438Y-103223214D01*
X95827438Y-103223214D02*
X95779819Y-103318452D01*
X95779819Y-103318452D02*
X95779819Y-103556547D01*
X95779819Y-103556547D02*
X95827438Y-103651785D01*
X95827438Y-103651785D02*
X95875057Y-103699404D01*
X95875057Y-103699404D02*
X95970295Y-103747023D01*
X95970295Y-103747023D02*
X96065533Y-103747023D01*
X96065533Y-103747023D02*
X96208390Y-103699404D01*
X96208390Y-103699404D02*
X96779819Y-103127976D01*
X96779819Y-103127976D02*
X96779819Y-103747023D01*
X95729819Y-97738095D02*
X96539342Y-97738095D01*
X96539342Y-97738095D02*
X96634580Y-97785714D01*
X96634580Y-97785714D02*
X96682200Y-97833333D01*
X96682200Y-97833333D02*
X96729819Y-97928571D01*
X96729819Y-97928571D02*
X96729819Y-98119047D01*
X96729819Y-98119047D02*
X96682200Y-98214285D01*
X96682200Y-98214285D02*
X96634580Y-98261904D01*
X96634580Y-98261904D02*
X96539342Y-98309523D01*
X96539342Y-98309523D02*
X95729819Y-98309523D01*
X95825057Y-98738095D02*
X95777438Y-98785714D01*
X95777438Y-98785714D02*
X95729819Y-98880952D01*
X95729819Y-98880952D02*
X95729819Y-99119047D01*
X95729819Y-99119047D02*
X95777438Y-99214285D01*
X95777438Y-99214285D02*
X95825057Y-99261904D01*
X95825057Y-99261904D02*
X95920295Y-99309523D01*
X95920295Y-99309523D02*
X96015533Y-99309523D01*
X96015533Y-99309523D02*
X96158390Y-99261904D01*
X96158390Y-99261904D02*
X96729819Y-98690476D01*
X96729819Y-98690476D02*
X96729819Y-99309523D01*
X95529819Y-60538095D02*
X96339342Y-60538095D01*
X96339342Y-60538095D02*
X96434580Y-60585714D01*
X96434580Y-60585714D02*
X96482200Y-60633333D01*
X96482200Y-60633333D02*
X96529819Y-60728571D01*
X96529819Y-60728571D02*
X96529819Y-60919047D01*
X96529819Y-60919047D02*
X96482200Y-61014285D01*
X96482200Y-61014285D02*
X96434580Y-61061904D01*
X96434580Y-61061904D02*
X96339342Y-61109523D01*
X96339342Y-61109523D02*
X95529819Y-61109523D01*
X96529819Y-62109523D02*
X96529819Y-61538095D01*
X96529819Y-61823809D02*
X95529819Y-61823809D01*
X95529819Y-61823809D02*
X95672676Y-61728571D01*
X95672676Y-61728571D02*
X95767914Y-61633333D01*
X95767914Y-61633333D02*
X95815533Y-61538095D01*
X96166666Y-68954819D02*
X96499999Y-68478628D01*
X96738094Y-68954819D02*
X96738094Y-67954819D01*
X96738094Y-67954819D02*
X96357142Y-67954819D01*
X96357142Y-67954819D02*
X96261904Y-68002438D01*
X96261904Y-68002438D02*
X96214285Y-68050057D01*
X96214285Y-68050057D02*
X96166666Y-68145295D01*
X96166666Y-68145295D02*
X96166666Y-68288152D01*
X96166666Y-68288152D02*
X96214285Y-68383390D01*
X96214285Y-68383390D02*
X96261904Y-68431009D01*
X96261904Y-68431009D02*
X96357142Y-68478628D01*
X96357142Y-68478628D02*
X96738094Y-68478628D01*
X95214285Y-68954819D02*
X95785713Y-68954819D01*
X95499999Y-68954819D02*
X95499999Y-67954819D01*
X95499999Y-67954819D02*
X95595237Y-68097676D01*
X95595237Y-68097676D02*
X95690475Y-68192914D01*
X95690475Y-68192914D02*
X95785713Y-68240533D01*
D12*
%TO.C,D2*%
X96515000Y-51952500D02*
X99435000Y-51952500D01*
X96515000Y-55837500D02*
X96515000Y-51952500D01*
X99435000Y-51952500D02*
X99435000Y-55837500D01*
%TO.C,D3*%
X96540000Y-75215000D02*
X99460000Y-75215000D01*
X96540000Y-79100000D02*
X96540000Y-75215000D01*
X99460000Y-75215000D02*
X99460000Y-79100000D01*
%TO.C,R2*%
X98712258Y-57777500D02*
X98237742Y-57777500D01*
X98712258Y-58822500D02*
X98237742Y-58822500D01*
%TO.C,R4*%
X98912258Y-105477500D02*
X98437742Y-105477500D01*
X98912258Y-106522500D02*
X98437742Y-106522500D01*
%TO.C,Q1*%
X96915000Y-65040000D02*
X96915000Y-66560000D01*
X96915000Y-66560000D02*
X97915000Y-66560000D01*
X96965000Y-65040000D02*
X96915000Y-65040000D01*
X98865000Y-65040000D02*
X98085000Y-65040000D01*
X99035000Y-66560000D02*
X100035000Y-66560000D01*
X100035000Y-65040000D02*
X99985000Y-65040000D01*
X100035000Y-66560000D02*
X100035000Y-65040000D01*
X98425000Y-64740000D02*
X98095000Y-64500000D01*
X98425000Y-64260000D01*
X98425000Y-64740000D01*
G36*
X98425000Y-64740000D02*
G01*
X98095000Y-64500000D01*
X98425000Y-64260000D01*
X98425000Y-64740000D01*
G37*
%TO.C,R3*%
X98912258Y-94977500D02*
X98437742Y-94977500D01*
X98912258Y-96022500D02*
X98437742Y-96022500D01*
%TO.C,Q2*%
X97165000Y-102177500D02*
X97165000Y-103697500D01*
X97165000Y-103697500D02*
X98165000Y-103697500D01*
X97215000Y-102177500D02*
X97165000Y-102177500D01*
X99115000Y-102177500D02*
X98335000Y-102177500D01*
X99285000Y-103697500D02*
X100285000Y-103697500D01*
X100285000Y-102177500D02*
X100235000Y-102177500D01*
X100285000Y-103697500D02*
X100285000Y-102177500D01*
X98675000Y-101877500D02*
X98345000Y-101637500D01*
X98675000Y-101397500D01*
X98675000Y-101877500D01*
G36*
X98675000Y-101877500D02*
G01*
X98345000Y-101637500D01*
X98675000Y-101397500D01*
X98675000Y-101877500D01*
G37*
%TO.C,U2*%
X97115000Y-97740000D02*
X97115000Y-99260000D01*
X97115000Y-99260000D02*
X98115000Y-99260000D01*
X97165000Y-97740000D02*
X97115000Y-97740000D01*
X99065000Y-97740000D02*
X98285000Y-97740000D01*
X99235000Y-99260000D02*
X100235000Y-99260000D01*
X100235000Y-97740000D02*
X100185000Y-97740000D01*
X100235000Y-99260000D02*
X100235000Y-97740000D01*
X98625000Y-97440000D02*
X98295000Y-97200000D01*
X98625000Y-96960000D01*
X98625000Y-97440000D01*
G36*
X98625000Y-97440000D02*
G01*
X98295000Y-97200000D01*
X98625000Y-96960000D01*
X98625000Y-97440000D01*
G37*
%TO.C,U1*%
X96915000Y-60540000D02*
X96915000Y-62060000D01*
X96915000Y-62060000D02*
X97915000Y-62060000D01*
X96965000Y-60540000D02*
X96915000Y-60540000D01*
X98865000Y-60540000D02*
X98085000Y-60540000D01*
X99035000Y-62060000D02*
X100035000Y-62060000D01*
X100035000Y-60540000D02*
X99985000Y-60540000D01*
X100035000Y-62060000D02*
X100035000Y-60540000D01*
X98425000Y-60240000D02*
X98095000Y-60000000D01*
X98425000Y-59760000D01*
X98425000Y-60240000D01*
G36*
X98425000Y-60240000D02*
G01*
X98095000Y-60000000D01*
X98425000Y-59760000D01*
X98425000Y-60240000D01*
G37*
%TO.C,R1*%
X98712258Y-68277500D02*
X98237742Y-68277500D01*
X98712258Y-69322500D02*
X98237742Y-69322500D01*
%TD*%
M02*
